<?xml version="1.0" standalone="no"?>
 <!DOCTYPE svg PUBLIC "-//W3C//DTD SVG 1.1//EN"
 "http://www.w3.org/Graphics/SVG/1.1/DTD/svg11.dtd">
<svg
  xmlns:svg="http://www.w3.org/2000/svg"
  xmlns="http://www.w3.org/2000/svg"
  xmlns:xlink="http://www.w3.org/1999/xlink"
  xmlns:inkscape="http://www.inkscape.org/namespaces/inkscape"
  version="1.1"
  width="99.9998mm" height="69.9770mm" viewBox="0.0000 0.0000 99.9998 69.9770">
<title>SVG Image created as cpu-copper.svg</title>
  <desc>Image generated by PCBNEW </desc>
<g style="fill:#000000; fill-opacity:1.0000;stroke:#000000; stroke-opacity:1.0000;
stroke-linecap:round; stroke-linejoin:round;"
 transform="translate(0 0) scale(1 1)">
</g>
<g style="fill:#C83434; fill-opacity:1.0000; stroke:none;">
<circle cx="85.5000" cy="42.0000" r="0.8000" />
<circle cx="90.5000" cy="42.0000" r="0.8000" />
<path style="fill:#C83434; fill-opacity:1.0000; stroke:none;fill-rule:evenodd;"
d="M 76.5800,22.6100
76.5800,21.0100
78.1800,21.0100
78.1800,22.6100
Z" />
<circle cx="92.6200" cy="21.8100" r="0.8000" />
<circle cx="92.6200" cy="14.1900" r="0.8000" />
<circle cx="77.3800" cy="14.1900" r="0.8000" />
<path style="fill:#C83434; fill-opacity:1.0000; stroke:none;fill-rule:evenodd;"
d="M 35.7700,46.8500
34.0700,46.8500
34.0700,45.1500
35.7700,45.1500
Z" />
<circle cx="37.4600" cy="46.0000" r="0.8500" />
<circle cx="40.0000" cy="46.0000" r="0.8500" />
<circle cx="42.5400" cy="46.0000" r="0.8500" />
<circle cx="45.0800" cy="46.0000" r="0.8500" />
<path style="fill:#C83434; fill-opacity:1.0000; stroke:none;fill-rule:evenodd;"
d="M 14.3250,30.4200
14.2293,30.4010
14.1482,30.3468
14.0940,30.2657
14.0750,30.1700
14.0750,29.0700
14.0940,28.9743
14.1482,28.8932
14.2293,28.8390
14.3250,28.8200
15.4250,28.8200
15.5207,28.8390
15.6018,28.8932
15.6560,28.9743
15.6750,29.0700
15.6750,30.1700
15.6560,30.2657
15.6018,30.3468
15.5207,30.4010
15.4250,30.4200
Z" />
<circle cx="17.4150" cy="29.6200" r="0.8000" />
<circle cx="19.9550" cy="29.6200" r="0.8000" />
<circle cx="22.4950" cy="29.6200" r="0.8000" />
<circle cx="25.0350" cy="29.6200" r="0.8000" />
<circle cx="27.5750" cy="29.6200" r="0.8000" />
<circle cx="30.1150" cy="29.6200" r="0.8000" />
<circle cx="32.6550" cy="29.6200" r="0.8000" />
<circle cx="35.1950" cy="29.6200" r="0.8000" />
<circle cx="37.7350" cy="29.6200" r="0.8000" />
<circle cx="40.2750" cy="29.6200" r="0.8000" />
<circle cx="42.8150" cy="29.6200" r="0.8000" />
<circle cx="45.3550" cy="29.6200" r="0.8000" />
<circle cx="47.8950" cy="29.6200" r="0.8000" />
<circle cx="50.4350" cy="29.6200" r="0.8000" />
<circle cx="52.9750" cy="29.6200" r="0.8000" />
<circle cx="55.5150" cy="29.6200" r="0.8000" />
<circle cx="58.0550" cy="29.6200" r="0.8000" />
<circle cx="60.5950" cy="29.6200" r="0.8000" />
<circle cx="63.1350" cy="29.6200" r="0.8000" />
<circle cx="63.1350" cy="14.3800" r="0.8000" />
<circle cx="60.5950" cy="14.3800" r="0.8000" />
<circle cx="58.0550" cy="14.3800" r="0.8000" />
<circle cx="55.5150" cy="14.3800" r="0.8000" />
<circle cx="52.9750" cy="14.3800" r="0.8000" />
<circle cx="50.4350" cy="14.3800" r="0.8000" />
<circle cx="47.8950" cy="14.3800" r="0.8000" />
<circle cx="45.3550" cy="14.3800" r="0.8000" />
<circle cx="42.8150" cy="14.3800" r="0.8000" />
<circle cx="40.2750" cy="14.3800" r="0.8000" />
<circle cx="37.7350" cy="14.3800" r="0.8000" />
<circle cx="35.1950" cy="14.3800" r="0.8000" />
<circle cx="32.6550" cy="14.3800" r="0.8000" />
<circle cx="30.1150" cy="14.3800" r="0.8000" />
<circle cx="27.5750" cy="14.3800" r="0.8000" />
<circle cx="25.0350" cy="14.3800" r="0.8000" />
<circle cx="22.4950" cy="14.3800" r="0.8000" />
<circle cx="19.9550" cy="14.3800" r="0.8000" />
<circle cx="17.4150" cy="14.3800" r="0.8000" />
<circle cx="14.8750" cy="14.3800" r="0.8000" />
<circle cx="63.5000" cy="36.0000" r="0.8000" />
<circle cx="68.5000" cy="36.0000" r="0.8000" />
<path style="fill:#C83434; fill-opacity:1.0000; stroke:none;fill-rule:evenodd;"
d="M 97.4100,65.1500
99.1100,65.1500
99.1100,66.8500
97.4100,66.8500
Z" />
<circle cx="95.7200" cy="66.0000" r="0.8500" />
<circle cx="93.1800" cy="66.0000" r="0.8500" />
<circle cx="90.6400" cy="66.0000" r="0.8500" />
<circle cx="88.1000" cy="66.0000" r="0.8500" />
<circle cx="85.5600" cy="66.0000" r="0.8500" />
<circle cx="83.0200" cy="66.0000" r="0.8500" />
<circle cx="80.4800" cy="66.0000" r="0.8500" />
<circle cx="77.9400" cy="66.0000" r="0.8500" />
<circle cx="75.4000" cy="66.0000" r="0.8500" />
<circle cx="72.8600" cy="66.0000" r="0.8500" />
<circle cx="70.3200" cy="66.0000" r="0.8500" />
<circle cx="67.7800" cy="66.0000" r="0.8500" />
<circle cx="65.2400" cy="66.0000" r="0.8500" />
<circle cx="62.7000" cy="66.0000" r="0.8500" />
<circle cx="60.1600" cy="66.0000" r="0.8500" />
<circle cx="57.6200" cy="66.0000" r="0.8500" />
<circle cx="55.0800" cy="66.0000" r="0.8500" />
<circle cx="52.5400" cy="66.0000" r="0.8500" />
<circle cx="50.0000" cy="66.0000" r="0.8500" />
<circle cx="47.4600" cy="66.0000" r="0.8500" />
<circle cx="44.9200" cy="66.0000" r="0.8500" />
<circle cx="42.3800" cy="66.0000" r="0.8500" />
<circle cx="39.8400" cy="66.0000" r="0.8500" />
<circle cx="37.3000" cy="66.0000" r="0.8500" />
<circle cx="34.7600" cy="66.0000" r="0.8500" />
<circle cx="32.2200" cy="66.0000" r="0.8500" />
<circle cx="29.6800" cy="66.0000" r="0.8500" />
<circle cx="27.1400" cy="66.0000" r="0.8500" />
<circle cx="24.6000" cy="66.0000" r="0.8500" />
<circle cx="22.0600" cy="66.0000" r="0.8500" />
<circle cx="19.5200" cy="66.0000" r="0.8500" />
<circle cx="16.9800" cy="66.0000" r="0.8500" />
<circle cx="14.4400" cy="66.0000" r="0.8500" />
<circle cx="11.9000" cy="66.0000" r="0.8500" />
<circle cx="9.3600" cy="66.0000" r="0.8500" />
<circle cx="6.8200" cy="66.0000" r="0.8500" />
<circle cx="4.2800" cy="66.0000" r="0.8500" />
<circle cx="1.7400" cy="66.0000" r="0.8500" />
<path style="fill:#C83434; fill-opacity:1.0000; stroke:none;fill-rule:evenodd;"
d="M 2.1700,60.1500
3.8700,60.1500
3.8700,61.8500
2.1700,61.8500
Z" />
<circle cx="5.5600" cy="61.0000" r="0.8500" />
<circle cx="8.1000" cy="61.0000" r="0.8500" />
<circle cx="10.6400" cy="61.0000" r="0.8500" />
<circle cx="13.1800" cy="61.0000" r="0.8500" />
<circle cx="15.7200" cy="61.0000" r="0.8500" />
<circle cx="18.2600" cy="61.0000" r="0.8500" />
<circle cx="20.8000" cy="61.0000" r="0.8500" />
<circle cx="23.3400" cy="61.0000" r="0.8500" />
<circle cx="25.8800" cy="61.0000" r="0.8500" />
<circle cx="57.3685" cy="46.4564" r="0.3000" />
<circle cx="29.5476" cy="63.5189" r="0.3000" />
<circle cx="26.6489" cy="33.2446" r="0.3000" />
<circle cx="38.9092" cy="60.0339" r="0.3000" />
<circle cx="23.8230" cy="50.3430" r="0.3000" />
<circle cx="49.0714" cy="15.5086" r="0.3000" />
<circle cx="39.8137" cy="61.4248" r="0.3000" />
<circle cx="25.9445" cy="62.6584" r="0.3000" />
<circle cx="43.4126" cy="62.0848" r="0.3000" />
<circle cx="53.6022" cy="50.2521" r="0.3000" />
<circle cx="54.3040" cy="51.0875" r="0.3000" />
<circle cx="55.0386" cy="20.3360" r="0.3000" />
<circle cx="50.3756" cy="22.0271" r="0.3000" />
<circle cx="15.6049" cy="20.5542" r="0.3000" />
<circle cx="15.2942" cy="12.3664" r="0.3000" />
<circle cx="15.5924" cy="16.3533" r="0.3000" />
<circle cx="71.0077" cy="62.7572" r="0.3000" />
<circle cx="53.9474" cy="16.0923" r="0.3000" />
<circle cx="51.4389" cy="16.1073" r="0.3000" />
<circle cx="54.0003" cy="16.9694" r="0.3000" />
<circle cx="54.3859" cy="17.7194" r="0.3000" />
<circle cx="21.8237" cy="55.2991" r="0.3000" />
<circle cx="21.8135" cy="56.4564" r="0.3000" />
<circle cx="21.7785" cy="59.0305" r="0.3000" />
</g>
<g style="fill:none;
stroke:#C83434; stroke-width:0.2000; stroke-opacity:1;
stroke-linecap:round; stroke-linejoin:round;">
<path d="M24.9078 59.4322
L48.5122 59.4322
" />
<path d="M69.5000 42.0000
L85.5000 42.0000
" />
<path d="M46.6550 36.0000
L63.5000 36.0000
" />
<path d="M40.2750 29.6200
L46.6550 36.0000
" />
<path d="M63.5000 36.0000
L69.5000 42.0000
" />
<path d="M23.3400 61.0000
L24.9078 59.4322
" />
<path d="M48.5122 59.4322
L55.0800 66.0000
" />
<path d="M84.5000 36.0000
L90.5000 42.0000
" />
<path d="M46.4641 60.8106
L26.0694 60.8106
" />
<path d="M51.2700 66.3831
L51.2700 65.6165
" />
<path d="M56.4391 67.1809
L52.0678 67.1809
" />
<path d="M45.0800 46.0000
L45.5364 46.4564
" />
<path d="M52.0678 67.1809
L51.2700 66.3831
" />
<path d="M26.0694 60.8106
L25.8800 61.0000
" />
<path d="M51.2700 65.6165
L46.4641 60.8106
" />
<path d="M45.5364 46.4564
L57.3685 46.4564
" />
<path d="M68.5000 36.0000
L84.5000 36.0000
" />
<path d="M57.6200 66.0000
L56.4391 67.1809
" />
<path d="M28.5106 66.4648
L28.5106 64.5559
" />
<path d="M28.7280 28.4670
L27.5750 29.6200
" />
<path d="M47.4600 66.0000
L46.2910 67.1690
" />
<path d="M46.2910 67.1690
L29.2148 67.1690
" />
<path d="M34.9200 46.0000
L34.9200 44.8483
" />
<path d="M29.2148 67.1690
L28.5106 66.4648
" />
<path d="M34.9200 44.8483
L26.6489 36.5772
" />
<path d="M26.6489 36.5772
L26.6489 33.2446
" />
<path d="M78.3430 28.4670
L28.7280 28.4670
" />
<path d="M28.5106 64.5559
L29.5476 63.5189
" />
<path d="M92.6200 14.1900
L78.3430 28.4670
" />
<path d="M52.5400 66.0000
L46.5739 60.0339
" />
<path d="M46.5739 60.0339
L38.9092 60.0339
" />
<path d="M36.1496 49.8504
L40.0000 46.0000
" />
<path d="M23.8230 50.3570
L23.8230 50.3430
" />
<path d="M24.3156 49.8504
L36.1496 49.8504
" />
<path d="M23.8230 50.3430
L24.3156 49.8504
" />
<path d="M13.1800 61.0000
L23.8230 50.3570
" />
<path d="M50.0000 66.0000
L45.4248 61.4248
" />
<path d="M45.4248 61.4248
L39.8137 61.4248
" />
<path d="M50.2000 14.3800
L49.0714 15.5086
" />
<path d="M50.4350 14.3800
L50.2000 14.3800
" />
<path d="M30.8363 32.6428
L43.8100 45.6165
" />
<path d="M14.8750 29.6200
L17.8978 32.6428
" />
<path d="M43.8100 46.3831
L45.0193 47.5924
" />
<path d="M43.8100 45.6165
L43.8100 46.3831
" />
<path d="M45.0193 47.5924
L69.6924 47.5924
" />
<path d="M69.6924 47.5924
L88.1000 66.0000
" />
<path d="M17.8978 32.6428
L30.8363 32.6428
" />
<path d="M49.8959 45.8547
L36.2823 32.2411
" />
<path d="M70.4947 45.8547
L49.8959 45.8547
" />
<path d="M36.2823 32.2411
L20.0361 32.2411
" />
<path d="M20.0361 32.2411
L17.4150 29.6200
" />
<path d="M90.6400 66.0000
L70.4947 45.8547
" />
<path d="M72.6330 45.4530
L53.4049 45.4530
" />
<path d="M22.1744 31.8394
L19.9550 29.6200
" />
<path d="M93.1800 66.0000
L72.6330 45.4530
" />
<path d="M39.7913 31.8394
L22.1744 31.8394
" />
<path d="M53.4049 45.4530
L39.7913 31.8394
" />
<path d="M74.7713 45.0513
L54.1371 45.0513
" />
<path d="M95.7200 66.0000
L74.7713 45.0513
" />
<path d="M54.1371 45.0513
L40.5235 31.4377
" />
<path d="M24.3127 31.4377
L22.4950 29.6200
" />
<path d="M40.5235 31.4377
L24.3127 31.4377
" />
<path d="M97.1083 65.7121
L75.6233 44.2271
" />
<path d="M98.2600 66.0000
L97.1083 66.0000
" />
<path d="M53.8820 44.2271
L40.3766 30.7217
" />
<path d="M75.6233 44.2271
L53.8820 44.2271
" />
<path d="M40.3766 30.7217
L26.1367 30.7217
" />
<path d="M97.1083 66.0000
L97.1083 65.7121
" />
<path d="M26.1367 30.7217
L25.0350 29.6200
" />
<path d="M22.8616 62.6584
L25.9445 62.6584
" />
<path d="M19.5200 66.0000
L22.8616 62.6584
" />
<path d="M33.5952 62.0848
L43.4126 62.0848
" />
<path d="M29.6800 66.0000
L33.5952 62.0848
" />
<path d="M5.5600 61.0000
L6.7541 62.1941
" />
<path d="M14.3317 61.5087
L14.3317 60.7198
" />
<path d="M24.7994 50.2521
L53.6022 50.2521
" />
<path d="M6.7541 62.1941
L13.6463 62.1941
" />
<path d="M13.6463 62.1941
L14.3317 61.5087
" />
<path d="M14.3317 60.7198
L24.7994 50.2521
" />
<path d="M25.1821 51.0875
L15.7200 60.5496
" />
<path d="M54.3040 51.0875
L25.1821 51.0875
" />
<path d="M15.7200 60.5496
L15.7200 61.0000
" />
<path d="M55.0386 20.3360
L57.1790 20.3360
" />
<path d="M57.1790 20.3360
L63.1350 14.3800
" />
<path d="M60.1438 14.3800
L52.4967 22.0271
" />
<path d="M60.5950 14.3800
L60.1438 14.3800
" />
<path d="M52.4967 22.0271
L50.3756 22.0271
" />
<path d="M58.0550 14.9015
L52.4023 20.5542
" />
<path d="M58.0550 14.3800
L58.0550 14.9015
" />
<path d="M52.4023 20.5542
L15.6049 20.5542
" />
<path d="M53.5014 12.3664
L15.2942 12.3664
" />
<path d="M55.5150 14.3800
L53.5014 12.3664
" />
<path d="M16.1450 15.8007
L16.1450 14.0138
" />
<path d="M16.9297 13.2291
L51.8241 13.2291
" />
<path d="M15.5924 16.3533
L16.1450 15.8007
" />
<path d="M51.8241 13.2291
L52.9750 14.3800
" />
<path d="M16.1450 14.0138
L16.9297 13.2291
" />
<path d="M65.9428 62.7572
L71.0077 62.7572
" />
<path d="M62.7000 66.0000
L65.9428 62.7572
" />
<path d="M51.0187 15.4338
L52.2242 15.4338
" />
<path d="M37.7350 14.3800
L39.4710 16.1160
" />
<path d="M52.2242 15.4338
L52.8827 16.0923
" />
<path d="M50.3365 16.1160
L51.0187 15.4338
" />
<path d="M39.4710 16.1160
L50.3365 16.1160
" />
<path d="M52.8827 16.0923
L53.9474 16.0923
" />
<path d="M50.9785 16.5677
L51.4389 16.1073
" />
<path d="M37.3827 16.5677
L50.9785 16.5677
" />
<path d="M35.1950 14.3800
L37.3827 16.5677
" />
<path d="M35.2444 16.9694
L54.0003 16.9694
" />
<path d="M32.6550 14.3800
L35.2444 16.9694
" />
<path d="M30.9144 17.7194
L54.3859 17.7194
" />
<path d="M27.5750 14.3800
L30.9144 17.7194
" />
<path d="M64.9685 55.2991
L21.8237 55.2991
" />
<path d="M75.4000 65.7306
L64.9685 55.2991
" />
<path d="M75.4000 66.0000
L75.4000 65.7306
" />
<path d="M71.2569 62.1555
L70.7044 62.1555
" />
<path d="M76.7710 67.1690
L74.9378 67.1690
" />
<path d="M74.9378 67.1690
L74.0117 66.2429
" />
<path d="M74.0117 66.2429
L74.0117 65.4628
" />
<path d="M71.6094 63.0605
L71.6094 62.5080
" />
<path d="M77.9400 66.0000
L76.7710 67.1690
" />
<path d="M74.0117 65.4628
L71.6094 63.0605
" />
<path d="M70.7044 62.1555
L65.0053 56.4564
" />
<path d="M65.0053 56.4564
L21.8135 56.4564
" />
<path d="M71.6094 62.5080
L71.2569 62.1555
" />
<path d="M62.5489 67.5707
L83.9893 67.5707
" />
<path d="M83.9893 67.5707
L85.5600 66.0000
" />
<path d="M21.7785 59.0305
L54.8681 59.0305
" />
<path d="M61.3117 65.4741
L61.3117 66.3335
" />
<path d="M54.8681 59.0305
L61.3117 65.4741
" />
<path d="M61.3117 66.3335
L62.5489 67.5707
" />
</g>
<g style="fill:#4D7FC4; fill-opacity:1.0000; stroke:none;">
<circle cx="85.5000" cy="42.0000" r="0.8000" />
<circle cx="90.5000" cy="42.0000" r="0.8000" />
<path style="fill:#4D7FC4; fill-opacity:1.0000; stroke:none;fill-rule:evenodd;"
d="M 76.5800,22.6100
76.5800,21.0100
78.1800,21.0100
78.1800,22.6100
Z" />
<circle cx="92.6200" cy="21.8100" r="0.8000" />
<circle cx="92.6200" cy="14.1900" r="0.8000" />
<circle cx="77.3800" cy="14.1900" r="0.8000" />
<path style="fill:#4D7FC4; fill-opacity:1.0000; stroke:none;fill-rule:evenodd;"
d="M 35.7700,46.8500
34.0700,46.8500
34.0700,45.1500
35.7700,45.1500
Z" />
<circle cx="37.4600" cy="46.0000" r="0.8500" />
<circle cx="40.0000" cy="46.0000" r="0.8500" />
<circle cx="42.5400" cy="46.0000" r="0.8500" />
<circle cx="45.0800" cy="46.0000" r="0.8500" />
<path style="fill:#4D7FC4; fill-opacity:1.0000; stroke:none;fill-rule:evenodd;"
d="M 14.3250,30.4200
14.2293,30.4010
14.1482,30.3468
14.0940,30.2657
14.0750,30.1700
14.0750,29.0700
14.0940,28.9743
14.1482,28.8932
14.2293,28.8390
14.3250,28.8200
15.4250,28.8200
15.5207,28.8390
15.6018,28.8932
15.6560,28.9743
15.6750,29.0700
15.6750,30.1700
15.6560,30.2657
15.6018,30.3468
15.5207,30.4010
15.4250,30.4200
Z" />
<circle cx="17.4150" cy="29.6200" r="0.8000" />
<circle cx="19.9550" cy="29.6200" r="0.8000" />
<circle cx="22.4950" cy="29.6200" r="0.8000" />
<circle cx="25.0350" cy="29.6200" r="0.8000" />
<circle cx="27.5750" cy="29.6200" r="0.8000" />
<circle cx="30.1150" cy="29.6200" r="0.8000" />
<circle cx="32.6550" cy="29.6200" r="0.8000" />
<circle cx="35.1950" cy="29.6200" r="0.8000" />
<circle cx="37.7350" cy="29.6200" r="0.8000" />
<circle cx="40.2750" cy="29.6200" r="0.8000" />
<circle cx="42.8150" cy="29.6200" r="0.8000" />
<circle cx="45.3550" cy="29.6200" r="0.8000" />
<circle cx="47.8950" cy="29.6200" r="0.8000" />
<circle cx="50.4350" cy="29.6200" r="0.8000" />
<circle cx="52.9750" cy="29.6200" r="0.8000" />
<circle cx="55.5150" cy="29.6200" r="0.8000" />
<circle cx="58.0550" cy="29.6200" r="0.8000" />
<circle cx="60.5950" cy="29.6200" r="0.8000" />
<circle cx="63.1350" cy="29.6200" r="0.8000" />
<circle cx="63.1350" cy="14.3800" r="0.8000" />
<circle cx="60.5950" cy="14.3800" r="0.8000" />
<circle cx="58.0550" cy="14.3800" r="0.8000" />
<circle cx="55.5150" cy="14.3800" r="0.8000" />
<circle cx="52.9750" cy="14.3800" r="0.8000" />
<circle cx="50.4350" cy="14.3800" r="0.8000" />
<circle cx="47.8950" cy="14.3800" r="0.8000" />
<circle cx="45.3550" cy="14.3800" r="0.8000" />
<circle cx="42.8150" cy="14.3800" r="0.8000" />
<circle cx="40.2750" cy="14.3800" r="0.8000" />
<circle cx="37.7350" cy="14.3800" r="0.8000" />
<circle cx="35.1950" cy="14.3800" r="0.8000" />
<circle cx="32.6550" cy="14.3800" r="0.8000" />
<circle cx="30.1150" cy="14.3800" r="0.8000" />
<circle cx="27.5750" cy="14.3800" r="0.8000" />
<circle cx="25.0350" cy="14.3800" r="0.8000" />
<circle cx="22.4950" cy="14.3800" r="0.8000" />
<circle cx="19.9550" cy="14.3800" r="0.8000" />
<circle cx="17.4150" cy="14.3800" r="0.8000" />
<circle cx="14.8750" cy="14.3800" r="0.8000" />
<circle cx="63.5000" cy="36.0000" r="0.8000" />
<circle cx="68.5000" cy="36.0000" r="0.8000" />
<path style="fill:#4D7FC4; fill-opacity:1.0000; stroke:none;fill-rule:evenodd;"
d="M 97.4100,65.1500
99.1100,65.1500
99.1100,66.8500
97.4100,66.8500
Z" />
<circle cx="95.7200" cy="66.0000" r="0.8500" />
<circle cx="93.1800" cy="66.0000" r="0.8500" />
<circle cx="90.6400" cy="66.0000" r="0.8500" />
<circle cx="88.1000" cy="66.0000" r="0.8500" />
<circle cx="85.5600" cy="66.0000" r="0.8500" />
<circle cx="83.0200" cy="66.0000" r="0.8500" />
<circle cx="80.4800" cy="66.0000" r="0.8500" />
<circle cx="77.9400" cy="66.0000" r="0.8500" />
<circle cx="75.4000" cy="66.0000" r="0.8500" />
<circle cx="72.8600" cy="66.0000" r="0.8500" />
<circle cx="70.3200" cy="66.0000" r="0.8500" />
<circle cx="67.7800" cy="66.0000" r="0.8500" />
<circle cx="65.2400" cy="66.0000" r="0.8500" />
<circle cx="62.7000" cy="66.0000" r="0.8500" />
<circle cx="60.1600" cy="66.0000" r="0.8500" />
<circle cx="57.6200" cy="66.0000" r="0.8500" />
<circle cx="55.0800" cy="66.0000" r="0.8500" />
<circle cx="52.5400" cy="66.0000" r="0.8500" />
<circle cx="50.0000" cy="66.0000" r="0.8500" />
<circle cx="47.4600" cy="66.0000" r="0.8500" />
<circle cx="44.9200" cy="66.0000" r="0.8500" />
<circle cx="42.3800" cy="66.0000" r="0.8500" />
<circle cx="39.8400" cy="66.0000" r="0.8500" />
<circle cx="37.3000" cy="66.0000" r="0.8500" />
<circle cx="34.7600" cy="66.0000" r="0.8500" />
<circle cx="32.2200" cy="66.0000" r="0.8500" />
<circle cx="29.6800" cy="66.0000" r="0.8500" />
<circle cx="27.1400" cy="66.0000" r="0.8500" />
<circle cx="24.6000" cy="66.0000" r="0.8500" />
<circle cx="22.0600" cy="66.0000" r="0.8500" />
<circle cx="19.5200" cy="66.0000" r="0.8500" />
<circle cx="16.9800" cy="66.0000" r="0.8500" />
<circle cx="14.4400" cy="66.0000" r="0.8500" />
<circle cx="11.9000" cy="66.0000" r="0.8500" />
<circle cx="9.3600" cy="66.0000" r="0.8500" />
<circle cx="6.8200" cy="66.0000" r="0.8500" />
<circle cx="4.2800" cy="66.0000" r="0.8500" />
<circle cx="1.7400" cy="66.0000" r="0.8500" />
<path style="fill:#4D7FC4; fill-opacity:1.0000; stroke:none;fill-rule:evenodd;"
d="M 2.1700,60.1500
3.8700,60.1500
3.8700,61.8500
2.1700,61.8500
Z" />
<circle cx="5.5600" cy="61.0000" r="0.8500" />
<circle cx="8.1000" cy="61.0000" r="0.8500" />
<circle cx="10.6400" cy="61.0000" r="0.8500" />
<circle cx="13.1800" cy="61.0000" r="0.8500" />
<circle cx="15.7200" cy="61.0000" r="0.8500" />
<circle cx="18.2600" cy="61.0000" r="0.8500" />
<circle cx="20.8000" cy="61.0000" r="0.8500" />
<circle cx="23.3400" cy="61.0000" r="0.8500" />
<circle cx="25.8800" cy="61.0000" r="0.8500" />
<circle cx="57.3685" cy="46.4564" r="0.3000" />
<circle cx="29.5476" cy="63.5189" r="0.3000" />
<circle cx="26.6489" cy="33.2446" r="0.3000" />
<circle cx="38.9092" cy="60.0339" r="0.3000" />
<circle cx="23.8230" cy="50.3430" r="0.3000" />
<circle cx="49.0714" cy="15.5086" r="0.3000" />
<circle cx="39.8137" cy="61.4248" r="0.3000" />
<circle cx="25.9445" cy="62.6584" r="0.3000" />
<circle cx="43.4126" cy="62.0848" r="0.3000" />
<circle cx="53.6022" cy="50.2521" r="0.3000" />
<circle cx="54.3040" cy="51.0875" r="0.3000" />
<circle cx="55.0386" cy="20.3360" r="0.3000" />
<circle cx="50.3756" cy="22.0271" r="0.3000" />
<circle cx="15.6049" cy="20.5542" r="0.3000" />
<circle cx="15.2942" cy="12.3664" r="0.3000" />
<circle cx="15.5924" cy="16.3533" r="0.3000" />
<circle cx="71.0077" cy="62.7572" r="0.3000" />
<circle cx="53.9474" cy="16.0923" r="0.3000" />
<circle cx="51.4389" cy="16.1073" r="0.3000" />
<circle cx="54.0003" cy="16.9694" r="0.3000" />
<circle cx="54.3859" cy="17.7194" r="0.3000" />
<circle cx="21.8237" cy="55.2991" r="0.3000" />
<circle cx="21.8135" cy="56.4564" r="0.3000" />
<circle cx="21.7785" cy="59.0305" r="0.3000" />
</g>
<g style="fill:none;
stroke:#4D7FC4; stroke-width:0.2000; stroke-opacity:1;
stroke-linecap:round; stroke-linejoin:round;">
<path d="M55.0800 66.0000
L55.7541 65.3259
" />
<path d="M55.7541 43.7459
L63.5000 36.0000
" />
<path d="M85.5000 22.3100
L85.5000 42.0000
" />
<path d="M77.3800 14.1900
L85.5000 22.3100
" />
<path d="M55.7541 65.3259
L55.7541 43.7459
" />
<path d="M25.8800 61.0000
L25.8800 38.1950
" />
<path d="M33.9250 23.2700
L42.8150 14.3800
" />
<path d="M33.9250 30.1500
L33.9250 23.2700
" />
<path d="M92.6200 21.8100
L90.5000 23.9300
" />
<path d="M25.8800 38.1950
L33.9250 30.1500
" />
<path d="M57.3685 46.4564
L57.7061 46.7939
" />
<path d="M57.7061 46.7939
L68.5000 36.0000
" />
<path d="M90.5000 23.9300
L90.5000 42.0000
" />
<path d="M57.6200 46.8800
L57.7061 46.7939
" />
<path d="M57.6200 66.0000
L57.6200 46.8800
" />
<path d="M34.9200 46.0000
L34.9200 58.1465
" />
<path d="M27.5750 29.6200
L26.6489 30.5461
" />
<path d="M26.6489 30.5461
L26.6489 33.2446
" />
<path d="M34.9200 58.1465
L29.5476 63.5189
" />
<path d="M37.4600 58.5847
L38.9092 60.0339
" />
<path d="M37.4600 46.0000
L37.4600 58.5847
" />
<path d="M44.0872 39.3728
L37.4600 46.0000
" />
<path d="M47.8950 14.3800
L44.0872 18.1878
" />
<path d="M44.0872 18.1878
L44.0872 39.3728
" />
<path d="M41.5451 15.0751
L41.5451 14.0616
" />
<path d="M44.2447 13.2697
L45.3550 14.3800
" />
<path d="M31.3850 30.3152
L31.3850 25.2352
" />
<path d="M31.3850 25.2352
L41.5451 15.0751
" />
<path d="M23.8230 37.8772
L31.3850 30.3152
" />
<path d="M41.5451 14.0616
L42.3370 13.2697
" />
<path d="M23.8230 50.3430
L23.8230 37.8772
" />
<path d="M42.3370 13.2697
L44.2447 13.2697
" />
<path d="M42.5400 46.0000
L42.5400 58.6985
" />
<path d="M42.5400 58.6985
L39.8137 61.4248
" />
<path d="M42.5400 46.0000
L46.6250 41.9150
" />
<path d="M46.6250 17.9550
L49.0714 15.5086
" />
<path d="M46.6250 41.9150
L46.6250 17.9550
" />
<path d="M22.0600 66.0000
L22.0600 59.8209
" />
<path d="M30.1150 30.6294
L30.1150 29.6200
" />
<path d="M22.4254 59.4555
L22.4254 38.3190
" />
<path d="M22.4254 38.3190
L30.1150 30.6294
" />
<path d="M22.0600 59.8209
L22.4254 59.4555
" />
<path d="M24.6000 66.0000
L24.6000 37.6750
" />
<path d="M24.6000 37.6750
L32.6550 29.6200
" />
<path d="M27.0317 61.5712
L27.0317 37.7833
" />
<path d="M27.0317 37.7833
L35.1950 29.6200
" />
<path d="M25.9445 62.6584
L27.0317 61.5712
" />
<path d="M28.4198 38.9352
L28.4198 61.0382
" />
<path d="M37.7350 29.6200
L28.4198 38.9352
" />
<path d="M18.1760 67.1960
L16.9800 66.0000
" />
<path d="M25.8030 63.6550
L25.8030 66.4740
" />
<path d="M25.8030 66.4740
L25.0810 67.1960
" />
<path d="M25.0810 67.1960
L18.1760 67.1960
" />
<path d="M28.4198 61.0382
L25.8030 63.6550
" />
<path d="M28.9345 43.5005
L28.9345 64.2055
" />
<path d="M42.8150 29.6200
L28.9345 43.5005
" />
<path d="M28.9345 64.2055
L27.1400 66.0000
" />
<path d="M38.0833 61.7641
L32.2794 61.7641
" />
<path d="M27.1649 67.6730
L16.1130 67.6730
" />
<path d="M28.4100 66.4279
L27.1649 67.6730
" />
<path d="M38.8368 58.7096
L39.5732 59.4460
" />
<path d="M39.5732 60.2742
L38.0833 61.7641
" />
<path d="M16.1130 67.6730
L14.4400 66.0000
" />
<path d="M45.3550 38.8320
L38.8368 45.3502
" />
<path d="M32.2794 61.7641
L28.4100 65.6335
" />
<path d="M45.3550 29.6200
L45.3550 38.8320
" />
<path d="M38.8368 45.3502
L38.8368 58.7096
" />
<path d="M39.5732 59.4460
L39.5732 60.2742
" />
<path d="M28.4100 65.6335
L28.4100 66.4279
" />
<path d="M33.9940 64.2260
L37.8732 64.2260
" />
<path d="M37.8732 64.2260
L47.8950 54.2042
" />
<path d="M47.8950 54.2042
L47.8950 29.6200
" />
<path d="M32.2200 66.0000
L33.9940 64.2260
" />
<path d="M50.4350 29.6200
L50.4350 55.0624
" />
<path d="M50.4350 55.0624
L43.4126 62.0848
" />
<path d="M52.9750 29.6200
L52.9750 57.9450
" />
<path d="M52.9750 57.9450
L44.9200 66.0000
" />
<path d="M55.5150 29.6200
L53.6022 31.5328
" />
<path d="M53.6022 31.5328
L53.6022 50.2521
" />
<path d="M54.3040 51.0875
L54.3040 33.3710
" />
<path d="M54.3040 33.3710
L58.0550 29.6200
" />
<path d="M59.4564 28.4814
L60.5950 29.6200
" />
<path d="M51.7050 56.6750
L51.7050 29.2319
" />
<path d="M42.3800 66.0000
L51.7050 56.6750
" />
<path d="M51.7050 29.2319
L52.4555 28.4814
" />
<path d="M52.4555 28.4814
L59.4564 28.4814
" />
<path d="M51.1517 66.4771
L51.1517 63.1913
" />
<path d="M55.3524 58.9906
L55.3524 37.4026
" />
<path d="M50.0706 67.5582
L51.1517 66.4771
" />
<path d="M36.3182 67.5582
L50.0706 67.5582
" />
<path d="M51.1517 63.1913
L55.3524 58.9906
" />
<path d="M34.7600 66.0000
L36.3182 67.5582
" />
<path d="M55.3524 37.4026
L63.1350 29.6200
" />
<path d="M54.9507 56.8828
L54.9507 37.2295
" />
<path d="M37.3000 66.0000
L38.4565 67.1565
" />
<path d="M61.7042 30.4760
L61.7042 27.7633
" />
<path d="M55.0386 21.0977
L55.0386 20.3360
" />
<path d="M47.9323 67.1565
L48.6117 66.4771
" />
<path d="M48.6117 66.4771
L48.6117 63.2218
" />
<path d="M48.6117 63.2218
L54.9507 56.8828
" />
<path d="M54.9507 37.2295
L61.7042 30.4760
" />
<path d="M38.4565 67.1565
L47.9323 67.1565
" />
<path d="M61.7042 27.7633
L55.0386 21.0977
" />
<path d="M48.9974 23.4053
L50.3756 22.0271
" />
<path d="M39.8400 64.7488
L48.9974 55.5914
" />
<path d="M39.8400 66.0000
L39.8400 64.7488
" />
<path d="M48.9974 55.5914
L48.9974 23.4053
" />
<path d="M10.6400 25.5191
L15.6049 20.5542
" />
<path d="M10.6400 61.0000
L10.6400 25.5191
" />
<path d="M3.0200 24.6406
L15.2942 12.3664
" />
<path d="M3.0200 61.0000
L3.0200 24.6406
" />
<path d="M8.1000 23.8457
L8.1000 61.0000
" />
<path d="M15.5924 16.3533
L8.1000 23.8457
" />
<path d="M41.7870 12.8680
L40.2750 14.3800
" />
<path d="M49.1402 14.0580
L47.9502 12.8680
" />
<path d="M60.1600 66.0000
L60.1600 46.1420
" />
<path d="M47.9502 12.8680
L41.7870 12.8680
" />
<path d="M55.2878 19.7343
L54.1995 19.7343
" />
<path d="M60.1600 46.1420
L69.6020 36.7000
" />
<path d="M69.6020 34.4999
L55.6403 20.5382
" />
<path d="M55.6403 20.5382
L55.6403 20.0868
" />
<path d="M49.1402 14.6750
L49.1402 14.0580
" />
<path d="M54.1995 19.7343
L49.1402 14.6750
" />
<path d="M55.6403 20.0868
L55.2878 19.7343
" />
<path d="M69.6020 36.7000
L69.6020 34.4999
" />
<path d="M71.2088 33.0556
L54.2455 16.0923
" />
<path d="M71.0077 62.7572
L71.2088 62.5561
" />
<path d="M71.2088 62.5561
L71.2088 33.0556
" />
<path d="M54.2455 16.0923
L53.9474 16.0923
" />
<path d="M65.2400 66.0000
L65.2400 41.8302
" />
<path d="M54.6642 19.3326
L51.4389 16.1073
" />
<path d="M55.4541 19.3326
L54.6642 19.3326
" />
<path d="M56.0420 19.9205
L55.4541 19.3326
" />
<path d="M65.2400 41.8302
L70.0037 37.0665
" />
<path d="M70.0037 34.2034
L56.0420 20.2417
" />
<path d="M56.0420 20.2417
L56.0420 19.9205
" />
<path d="M70.0037 37.0665
L70.0037 34.2034
" />
<path d="M70.8071 33.2526
L54.5239 16.9694
" />
<path d="M67.7800 65.1341
L70.8070 62.1071
" />
<path d="M54.5239 16.9694
L54.0003 16.9694
" />
<path d="M70.8070 62.1071
L70.8071 62.1071
" />
<path d="M70.8071 62.1071
L70.8071 33.2526
" />
<path d="M67.7800 66.0000
L67.7800 65.1341
" />
<path d="M54.2293 15.4906
L52.5258 15.4906
" />
<path d="M32.0287 12.4663
L30.1150 14.3800
" />
<path d="M52.5258 15.4906
L51.7051 14.6699
" />
<path d="M51.7051 14.0374
L50.1340 12.4663
" />
<path d="M50.1340 12.4663
L32.0287 12.4663
" />
<path d="M70.3200 66.0000
L71.6105 64.7095
" />
<path d="M71.6105 64.7095
L71.6105 32.8718
" />
<path d="M71.6105 32.8718
L54.2293 15.4906
" />
<path d="M51.7051 14.6699
L51.7051 14.0374
" />
<path d="M66.6106 43.1617
L70.4054 39.3669
" />
<path d="M70.4054 33.7159
L54.4089 17.7194
" />
<path d="M67.3148 67.1690
L66.6106 66.4648
" />
<path d="M70.4054 39.3669
L70.4054 33.7159
" />
<path d="M54.4089 17.7194
L54.3859 17.7194
" />
<path d="M66.6106 66.4648
L66.6106 43.1617
" />
<path d="M71.6910 67.1690
L67.3148 67.1690
" />
<path d="M72.8600 66.0000
L71.6910 67.1690
" />
<path d="M23.7650 32.0863
L21.8237 34.0276
" />
<path d="M21.8237 34.0276
L21.8237 55.2991
" />
<path d="M23.7650 15.6500
L23.7650 32.0863
" />
<path d="M25.0350 14.3800
L23.7650 15.6500
" />
<path d="M21.2161 55.8590
L21.8135 56.4564
" />
<path d="M22.4950 14.3800
L21.2161 15.6589
" />
<path d="M21.2161 15.6589
L21.2161 55.8590
" />
<path d="M22.2704 12.0646
L19.9550 14.3800
" />
<path d="M52.2705 12.0646
L22.2704 12.0646
" />
<path d="M80.4800 66.0000
L80.4800 40.9290
" />
<path d="M80.4800 40.9290
L54.2451 14.6941
" />
<path d="M54.2451 14.6941
L54.2451 14.0392
" />
<path d="M54.2451 14.0392
L52.2705 12.0646
" />
<path d="M54.3543 11.6084
L20.1866 11.6084
" />
<path d="M56.7851 15.9624
L56.7851 14.0392
" />
<path d="M56.7851 14.0392
L54.3543 11.6084
" />
<path d="M20.1866 11.6084
L17.4150 14.3800
" />
<path d="M83.0200 66.0000
L83.0200 42.1973
" />
<path d="M83.0200 42.1973
L56.7851 15.9624
" />
<path d="M16.2090 15.7140
L16.2090 53.4610
" />
<path d="M14.8750 14.3800
L16.2090 15.7140
" />
<path d="M16.2090 53.4610
L21.7785 59.0305
" />
</g>
<g style="fill:none;
stroke:#D0D2CD; stroke-width:0.1500; stroke-opacity:1;
stroke-linecap:round; stroke-linejoin:round;">
<path d="M0.0000 0.0000
L100.0000 0.0000
" />
<path d="M0.0000 70.0000
L0.0000 0.0000
" />
<path d="M100.0000 0.0000
L100.0000 70.0000
" />
<path d="M100.0000 70.0000
L0.0000 70.0000
" />
</g>
<g style="fill:#FFFFFF; fill-opacity:1.0000; stroke:none;">
<circle cx="57.3685" cy="46.4564" r="0.1500" />
<circle cx="29.5476" cy="63.5189" r="0.1500" />
<circle cx="26.6489" cy="33.2446" r="0.1500" />
<circle cx="38.9092" cy="60.0339" r="0.1500" />
<circle cx="23.8230" cy="50.3430" r="0.1500" />
<circle cx="49.0714" cy="15.5086" r="0.1500" />
<circle cx="39.8137" cy="61.4248" r="0.1500" />
<circle cx="25.9445" cy="62.6584" r="0.1500" />
<circle cx="43.4126" cy="62.0848" r="0.1500" />
<circle cx="53.6022" cy="50.2521" r="0.1500" />
<circle cx="54.3040" cy="51.0875" r="0.1500" />
<circle cx="55.0386" cy="20.3360" r="0.1500" />
<circle cx="50.3756" cy="22.0271" r="0.1500" />
<circle cx="15.6049" cy="20.5542" r="0.1500" />
<circle cx="15.2942" cy="12.3664" r="0.1500" />
<circle cx="15.5924" cy="16.3533" r="0.1500" />
<circle cx="71.0077" cy="62.7572" r="0.1500" />
<circle cx="53.9474" cy="16.0923" r="0.1500" />
<circle cx="51.4389" cy="16.1073" r="0.1500" />
<circle cx="54.0003" cy="16.9694" r="0.1500" />
<circle cx="54.3859" cy="17.7194" r="0.1500" />
<circle cx="21.8237" cy="55.2991" r="0.1500" />
<circle cx="21.8135" cy="56.4564" r="0.1500" />
<circle cx="21.7785" cy="59.0305" r="0.1500" />
</g>
<g style="fill:#FFFFFF; fill-opacity:1.0000; stroke:none;">
<circle cx="85.5000" cy="42.0000" r="0.4000" />
</g>
<g style="fill:#FFFFFF; fill-opacity:1.0000; stroke:none;">
<circle cx="90.5000" cy="42.0000" r="0.4000" />
</g>
<g style="fill:#FFFFFF; fill-opacity:1.0000; stroke:none;">
<circle cx="77.3800" cy="21.8100" r="0.4000" />
</g>
<g style="fill:#FFFFFF; fill-opacity:1.0000; stroke:none;">
<circle cx="92.6200" cy="21.8100" r="0.4000" />
</g>
<g style="fill:#FFFFFF; fill-opacity:1.0000; stroke:none;">
<circle cx="92.6200" cy="14.1900" r="0.4000" />
</g>
<g style="fill:#FFFFFF; fill-opacity:1.0000; stroke:none;">
<circle cx="77.3800" cy="14.1900" r="0.4000" />
</g>
<g style="fill:#FFFFFF; fill-opacity:1.0000; stroke:none;">
<circle cx="34.9200" cy="46.0000" r="0.5000" />
</g>
<g style="fill:#FFFFFF; fill-opacity:1.0000; stroke:none;">
<circle cx="37.4600" cy="46.0000" r="0.5000" />
</g>
<g style="fill:#FFFFFF; fill-opacity:1.0000; stroke:none;">
<circle cx="40.0000" cy="46.0000" r="0.5000" />
</g>
<g style="fill:#FFFFFF; fill-opacity:1.0000; stroke:none;">
<circle cx="42.5400" cy="46.0000" r="0.5000" />
</g>
<g style="fill:#FFFFFF; fill-opacity:1.0000; stroke:none;">
<circle cx="45.0800" cy="46.0000" r="0.5000" />
</g>
<g style="fill:#FFFFFF; fill-opacity:1.0000; stroke:none;">
<circle cx="14.8750" cy="29.6200" r="0.4000" />
</g>
<g style="fill:#FFFFFF; fill-opacity:1.0000; stroke:none;">
<circle cx="17.4150" cy="29.6200" r="0.4000" />
</g>
<g style="fill:#FFFFFF; fill-opacity:1.0000; stroke:none;">
<circle cx="19.9550" cy="29.6200" r="0.4000" />
</g>
<g style="fill:#FFFFFF; fill-opacity:1.0000; stroke:none;">
<circle cx="22.4950" cy="29.6200" r="0.4000" />
</g>
<g style="fill:#FFFFFF; fill-opacity:1.0000; stroke:none;">
<circle cx="25.0350" cy="29.6200" r="0.4000" />
</g>
<g style="fill:#FFFFFF; fill-opacity:1.0000; stroke:none;">
<circle cx="27.5750" cy="29.6200" r="0.4000" />
</g>
<g style="fill:#FFFFFF; fill-opacity:1.0000; stroke:none;">
<circle cx="30.1150" cy="29.6200" r="0.4000" />
</g>
<g style="fill:#FFFFFF; fill-opacity:1.0000; stroke:none;">
<circle cx="32.6550" cy="29.6200" r="0.4000" />
</g>
<g style="fill:#FFFFFF; fill-opacity:1.0000; stroke:none;">
<circle cx="35.1950" cy="29.6200" r="0.4000" />
</g>
<g style="fill:#FFFFFF; fill-opacity:1.0000; stroke:none;">
<circle cx="37.7350" cy="29.6200" r="0.4000" />
</g>
<g style="fill:#FFFFFF; fill-opacity:1.0000; stroke:none;">
<circle cx="40.2750" cy="29.6200" r="0.4000" />
</g>
<g style="fill:#FFFFFF; fill-opacity:1.0000; stroke:none;">
<circle cx="42.8150" cy="29.6200" r="0.4000" />
</g>
<g style="fill:#FFFFFF; fill-opacity:1.0000; stroke:none;">
<circle cx="45.3550" cy="29.6200" r="0.4000" />
</g>
<g style="fill:#FFFFFF; fill-opacity:1.0000; stroke:none;">
<circle cx="47.8950" cy="29.6200" r="0.4000" />
</g>
<g style="fill:#FFFFFF; fill-opacity:1.0000; stroke:none;">
<circle cx="50.4350" cy="29.6200" r="0.4000" />
</g>
<g style="fill:#FFFFFF; fill-opacity:1.0000; stroke:none;">
<circle cx="52.9750" cy="29.6200" r="0.4000" />
</g>
<g style="fill:#FFFFFF; fill-opacity:1.0000; stroke:none;">
<circle cx="55.5150" cy="29.6200" r="0.4000" />
</g>
<g style="fill:#FFFFFF; fill-opacity:1.0000; stroke:none;">
<circle cx="58.0550" cy="29.6200" r="0.4000" />
</g>
<g style="fill:#FFFFFF; fill-opacity:1.0000; stroke:none;">
<circle cx="60.5950" cy="29.6200" r="0.4000" />
</g>
<g style="fill:#FFFFFF; fill-opacity:1.0000; stroke:none;">
<circle cx="63.1350" cy="29.6200" r="0.4000" />
</g>
<g style="fill:#FFFFFF; fill-opacity:1.0000; stroke:none;">
<circle cx="63.1350" cy="14.3800" r="0.4000" />
</g>
<g style="fill:#FFFFFF; fill-opacity:1.0000; stroke:none;">
<circle cx="60.5950" cy="14.3800" r="0.4000" />
</g>
<g style="fill:#FFFFFF; fill-opacity:1.0000; stroke:none;">
<circle cx="58.0550" cy="14.3800" r="0.4000" />
</g>
<g style="fill:#FFFFFF; fill-opacity:1.0000; stroke:none;">
<circle cx="55.5150" cy="14.3800" r="0.4000" />
</g>
<g style="fill:#FFFFFF; fill-opacity:1.0000; stroke:none;">
<circle cx="52.9750" cy="14.3800" r="0.4000" />
</g>
<g style="fill:#FFFFFF; fill-opacity:1.0000; stroke:none;">
<circle cx="50.4350" cy="14.3800" r="0.4000" />
</g>
<g style="fill:#FFFFFF; fill-opacity:1.0000; stroke:none;">
<circle cx="47.8950" cy="14.3800" r="0.4000" />
</g>
<g style="fill:#FFFFFF; fill-opacity:1.0000; stroke:none;">
<circle cx="45.3550" cy="14.3800" r="0.4000" />
</g>
<g style="fill:#FFFFFF; fill-opacity:1.0000; stroke:none;">
<circle cx="42.8150" cy="14.3800" r="0.4000" />
</g>
<g style="fill:#FFFFFF; fill-opacity:1.0000; stroke:none;">
<circle cx="40.2750" cy="14.3800" r="0.4000" />
</g>
<g style="fill:#FFFFFF; fill-opacity:1.0000; stroke:none;">
<circle cx="37.7350" cy="14.3800" r="0.4000" />
</g>
<g style="fill:#FFFFFF; fill-opacity:1.0000; stroke:none;">
<circle cx="35.1950" cy="14.3800" r="0.4000" />
</g>
<g style="fill:#FFFFFF; fill-opacity:1.0000; stroke:none;">
<circle cx="32.6550" cy="14.3800" r="0.4000" />
</g>
<g style="fill:#FFFFFF; fill-opacity:1.0000; stroke:none;">
<circle cx="30.1150" cy="14.3800" r="0.4000" />
</g>
<g style="fill:#FFFFFF; fill-opacity:1.0000; stroke:none;">
<circle cx="27.5750" cy="14.3800" r="0.4000" />
</g>
<g style="fill:#FFFFFF; fill-opacity:1.0000; stroke:none;">
<circle cx="25.0350" cy="14.3800" r="0.4000" />
</g>
<g style="fill:#FFFFFF; fill-opacity:1.0000; stroke:none;">
<circle cx="22.4950" cy="14.3800" r="0.4000" />
</g>
<g style="fill:#FFFFFF; fill-opacity:1.0000; stroke:none;">
<circle cx="19.9550" cy="14.3800" r="0.4000" />
</g>
<g style="fill:#FFFFFF; fill-opacity:1.0000; stroke:none;">
<circle cx="17.4150" cy="14.3800" r="0.4000" />
</g>
<g style="fill:#FFFFFF; fill-opacity:1.0000; stroke:none;">
<circle cx="14.8750" cy="14.3800" r="0.4000" />
</g>
<g style="fill:#FFFFFF; fill-opacity:1.0000; stroke:none;">
<circle cx="63.5000" cy="36.0000" r="0.4000" />
</g>
<g style="fill:#FFFFFF; fill-opacity:1.0000; stroke:none;">
<circle cx="68.5000" cy="36.0000" r="0.4000" />
</g>
<g style="fill:#FFFFFF; fill-opacity:1.0000; stroke:none;">
<circle cx="98.2600" cy="66.0000" r="0.5000" />
</g>
<g style="fill:#FFFFFF; fill-opacity:1.0000; stroke:none;">
<circle cx="95.7200" cy="66.0000" r="0.5000" />
</g>
<g style="fill:#FFFFFF; fill-opacity:1.0000; stroke:none;">
<circle cx="93.1800" cy="66.0000" r="0.5000" />
</g>
<g style="fill:#FFFFFF; fill-opacity:1.0000; stroke:none;">
<circle cx="90.6400" cy="66.0000" r="0.5000" />
</g>
<g style="fill:#FFFFFF; fill-opacity:1.0000; stroke:none;">
<circle cx="88.1000" cy="66.0000" r="0.5000" />
</g>
<g style="fill:#FFFFFF; fill-opacity:1.0000; stroke:none;">
<circle cx="85.5600" cy="66.0000" r="0.5000" />
</g>
<g style="fill:#FFFFFF; fill-opacity:1.0000; stroke:none;">
<circle cx="83.0200" cy="66.0000" r="0.5000" />
</g>
<g style="fill:#FFFFFF; fill-opacity:1.0000; stroke:none;">
<circle cx="80.4800" cy="66.0000" r="0.5000" />
</g>
<g style="fill:#FFFFFF; fill-opacity:1.0000; stroke:none;">
<circle cx="77.9400" cy="66.0000" r="0.5000" />
</g>
<g style="fill:#FFFFFF; fill-opacity:1.0000; stroke:none;">
<circle cx="75.4000" cy="66.0000" r="0.5000" />
</g>
<g style="fill:#FFFFFF; fill-opacity:1.0000; stroke:none;">
<circle cx="72.8600" cy="66.0000" r="0.5000" />
</g>
<g style="fill:#FFFFFF; fill-opacity:1.0000; stroke:none;">
<circle cx="70.3200" cy="66.0000" r="0.5000" />
</g>
<g style="fill:#FFFFFF; fill-opacity:1.0000; stroke:none;">
<circle cx="67.7800" cy="66.0000" r="0.5000" />
</g>
<g style="fill:#FFFFFF; fill-opacity:1.0000; stroke:none;">
<circle cx="65.2400" cy="66.0000" r="0.5000" />
</g>
<g style="fill:#FFFFFF; fill-opacity:1.0000; stroke:none;">
<circle cx="62.7000" cy="66.0000" r="0.5000" />
</g>
<g style="fill:#FFFFFF; fill-opacity:1.0000; stroke:none;">
<circle cx="60.1600" cy="66.0000" r="0.5000" />
</g>
<g style="fill:#FFFFFF; fill-opacity:1.0000; stroke:none;">
<circle cx="57.6200" cy="66.0000" r="0.5000" />
</g>
<g style="fill:#FFFFFF; fill-opacity:1.0000; stroke:none;">
<circle cx="55.0800" cy="66.0000" r="0.5000" />
</g>
<g style="fill:#FFFFFF; fill-opacity:1.0000; stroke:none;">
<circle cx="52.5400" cy="66.0000" r="0.5000" />
</g>
<g style="fill:#FFFFFF; fill-opacity:1.0000; stroke:none;">
<circle cx="50.0000" cy="66.0000" r="0.5000" />
</g>
<g style="fill:#FFFFFF; fill-opacity:1.0000; stroke:none;">
<circle cx="47.4600" cy="66.0000" r="0.5000" />
</g>
<g style="fill:#FFFFFF; fill-opacity:1.0000; stroke:none;">
<circle cx="44.9200" cy="66.0000" r="0.5000" />
</g>
<g style="fill:#FFFFFF; fill-opacity:1.0000; stroke:none;">
<circle cx="42.3800" cy="66.0000" r="0.5000" />
</g>
<g style="fill:#FFFFFF; fill-opacity:1.0000; stroke:none;">
<circle cx="39.8400" cy="66.0000" r="0.5000" />
</g>
<g style="fill:#FFFFFF; fill-opacity:1.0000; stroke:none;">
<circle cx="37.3000" cy="66.0000" r="0.5000" />
</g>
<g style="fill:#FFFFFF; fill-opacity:1.0000; stroke:none;">
<circle cx="34.7600" cy="66.0000" r="0.5000" />
</g>
<g style="fill:#FFFFFF; fill-opacity:1.0000; stroke:none;">
<circle cx="32.2200" cy="66.0000" r="0.5000" />
</g>
<g style="fill:#FFFFFF; fill-opacity:1.0000; stroke:none;">
<circle cx="29.6800" cy="66.0000" r="0.5000" />
</g>
<g style="fill:#FFFFFF; fill-opacity:1.0000; stroke:none;">
<circle cx="27.1400" cy="66.0000" r="0.5000" />
</g>
<g style="fill:#FFFFFF; fill-opacity:1.0000; stroke:none;">
<circle cx="24.6000" cy="66.0000" r="0.5000" />
</g>
<g style="fill:#FFFFFF; fill-opacity:1.0000; stroke:none;">
<circle cx="22.0600" cy="66.0000" r="0.5000" />
</g>
<g style="fill:#FFFFFF; fill-opacity:1.0000; stroke:none;">
<circle cx="19.5200" cy="66.0000" r="0.5000" />
</g>
<g style="fill:#FFFFFF; fill-opacity:1.0000; stroke:none;">
<circle cx="16.9800" cy="66.0000" r="0.5000" />
</g>
<g style="fill:#FFFFFF; fill-opacity:1.0000; stroke:none;">
<circle cx="14.4400" cy="66.0000" r="0.5000" />
</g>
<g style="fill:#FFFFFF; fill-opacity:1.0000; stroke:none;">
<circle cx="11.9000" cy="66.0000" r="0.5000" />
</g>
<g style="fill:#FFFFFF; fill-opacity:1.0000; stroke:none;">
<circle cx="9.3600" cy="66.0000" r="0.5000" />
</g>
<g style="fill:#FFFFFF; fill-opacity:1.0000; stroke:none;">
<circle cx="6.8200" cy="66.0000" r="0.5000" />
</g>
<g style="fill:#FFFFFF; fill-opacity:1.0000; stroke:none;">
<circle cx="4.2800" cy="66.0000" r="0.5000" />
</g>
<g style="fill:#FFFFFF; fill-opacity:1.0000; stroke:none;">
<circle cx="1.7400" cy="66.0000" r="0.5000" />
</g>
<g style="fill:#FFFFFF; fill-opacity:1.0000; stroke:none;">
<circle cx="3.0200" cy="61.0000" r="0.5000" />
</g>
<g style="fill:#FFFFFF; fill-opacity:1.0000; stroke:none;">
<circle cx="5.5600" cy="61.0000" r="0.5000" />
</g>
<g style="fill:#FFFFFF; fill-opacity:1.0000; stroke:none;">
<circle cx="8.1000" cy="61.0000" r="0.5000" />
</g>
<g style="fill:#FFFFFF; fill-opacity:1.0000; stroke:none;">
<circle cx="10.6400" cy="61.0000" r="0.5000" />
</g>
<g style="fill:#FFFFFF; fill-opacity:1.0000; stroke:none;">
<circle cx="13.1800" cy="61.0000" r="0.5000" />
</g>
<g style="fill:#FFFFFF; fill-opacity:1.0000; stroke:none;">
<circle cx="15.7200" cy="61.0000" r="0.5000" />
</g>
<g style="fill:#FFFFFF; fill-opacity:1.0000; stroke:none;">
<circle cx="18.2600" cy="61.0000" r="0.5000" />
</g>
<g style="fill:#FFFFFF; fill-opacity:1.0000; stroke:none;">
<circle cx="20.8000" cy="61.0000" r="0.5000" />
</g>
<g style="fill:#FFFFFF; fill-opacity:1.0000; stroke:none;">
<circle cx="23.3400" cy="61.0000" r="0.5000" />
</g>
<g style="fill:#FFFFFF; fill-opacity:1.0000; stroke:none;">
<circle cx="25.8800" cy="61.0000" r="0.5000" />
</g>
</svg>
