<?xml version="1.0" standalone="no"?>
 <!DOCTYPE svg PUBLIC "-//W3C//DTD SVG 1.1//EN" 
 "http://www.w3.org/Graphics/SVG/1.1/DTD/svg11.dtd"> 
<svg
  xmlns:svg="http://www.w3.org/2000/svg"
  xmlns="http://www.w3.org/2000/svg"
  xmlns:xlink="http://www.w3.org/1999/xlink"
  xmlns:inkscape="http://www.inkscape.org/namespaces/inkscape"
  version="1.1"
  width="99.9998mm" height="69.9770mm" viewBox="0.0000 0.0000 99.9998 69.9770">
<title>SVG Image created as cpu-copper.svg date 2026-07-18T16:05:38 </title>
  <desc>Image generated by PCBNEW </desc>
<g style="fill:#000000; fill-opacity:1.0000;stroke:#000000; stroke-opacity:1.0000;
stroke-linecap:round; stroke-linejoin:round;"
 transform="translate(0 0) scale(1 1)">
</g>
<g style="fill:none; 
stroke:#C872AB; stroke-width:0.1500; stroke-opacity:1; 
stroke-linecap:round; stroke-linejoin:round;">
<path d="M-20.0000 26.0000
L88.0000 26.0000
L88.0000 58.0000
L-20.0000 58.0000
L-20.0000 26.0000
" />
<path d="M10.0000 10.0000
L90.0000 10.0000
L90.0000 60.0000
L10.0000 60.0000
L10.0000 10.0000
" />
<path d="M12.0000 12.0000
L88.0000 12.0000
L88.0000 58.0000
L12.0000 58.0000
L12.0000 12.0000
" />
<path d="M60.0000 12.0000
L60.0000 10.0000
" />
<text x="35.0000" y="11.6500"
textLength="1.4281" font-size="1.7333" lengthAdjust="spacingAndGlyphs"
text-anchor="start" opacity="0" stroke-opacity="0">1</text>
<g class="stroked-text"><desc>1</desc>
<path d="M36.0892 11.5936
L35.3463 11.5936
" />
<path d="M35.7177 11.5936
L35.7177 10.2936
" />
<path d="M35.7177 10.2936
L35.5939 10.4793
" />
<path d="M35.5939 10.4793
L35.4701 10.6031
" />
<path d="M35.4701 10.6031
L35.3463 10.6650
" />
</g><text x="85.0000" y="11.6500"
textLength="1.4281" font-size="1.7333" lengthAdjust="spacingAndGlyphs"
text-anchor="start" opacity="0" stroke-opacity="0">2</text>
<g class="stroked-text"><desc>2</desc>
<path d="M85.3463 10.4174
L85.4082 10.3555
" />
<path d="M85.4082 10.3555
L85.5320 10.2936
" />
<path d="M85.5320 10.2936
L85.8415 10.2936
" />
<path d="M85.8415 10.2936
L85.9654 10.3555
" />
<path d="M85.9654 10.3555
L86.0273 10.4174
" />
<path d="M86.0273 10.4174
L86.0892 10.5412
" />
<path d="M86.0892 10.5412
L86.0892 10.6650
" />
<path d="M86.0892 10.6650
L86.0273 10.8507
" />
<path d="M86.0273 10.8507
L85.2844 11.5936
" />
<path d="M85.2844 11.5936
L86.0892 11.5936
" />
</g><path d="M60.0000 58.0000
L60.0000 60.0000
" />
<text x="35.0000" y="59.6500"
textLength="1.4281" font-size="1.7333" lengthAdjust="spacingAndGlyphs"
text-anchor="start" opacity="0" stroke-opacity="0">1</text>
<g class="stroked-text"><desc>1</desc>
<path d="M36.0892 59.5936
L35.3463 59.5936
" />
<path d="M35.7177 59.5936
L35.7177 58.2936
" />
<path d="M35.7177 58.2936
L35.5939 58.4793
" />
<path d="M35.5939 58.4793
L35.4701 58.6031
" />
<path d="M35.4701 58.6031
L35.3463 58.6650
" />
</g><text x="85.0000" y="59.6500"
textLength="1.4281" font-size="1.7333" lengthAdjust="spacingAndGlyphs"
text-anchor="start" opacity="0" stroke-opacity="0">2</text>
<g class="stroked-text"><desc>2</desc>
<path d="M85.3463 58.4174
L85.4082 58.3555
" />
<path d="M85.4082 58.3555
L85.5320 58.2936
" />
<path d="M85.5320 58.2936
L85.8415 58.2936
" />
<path d="M85.8415 58.2936
L85.9654 58.3555
" />
<path d="M85.9654 58.3555
L86.0273 58.4174
" />
<path d="M86.0273 58.4174
L86.0892 58.5412
" />
<path d="M86.0892 58.5412
L86.0892 58.6650
" />
<path d="M86.0892 58.6650
L86.0273 58.8507
" />
<path d="M86.0273 58.8507
L85.2844 59.5936
" />
<path d="M85.2844 59.5936
L86.0892 59.5936
" />
</g><path d="M10.0000 60.0000
L12.0000 60.0000
" />
<text x="11.0000" y="35.6500"
textLength="1.3043" font-size="1.7333" lengthAdjust="spacingAndGlyphs"
text-anchor="middle" opacity="0" stroke-opacity="0">A</text>
<g class="stroked-text"><desc>A</desc>
<path d="M10.6905 35.2222
L11.3095 35.2222
" />
<path d="M10.5667 35.5936
L11.0000 34.2936
" />
<path d="M11.0000 34.2936
L11.4333 35.5936
" />
</g><path d="M90.0000 60.0000
L88.0000 60.0000
" />
<text x="89.0000" y="35.6500"
textLength="1.3043" font-size="1.7333" lengthAdjust="spacingAndGlyphs"
text-anchor="middle" opacity="0" stroke-opacity="0">A</text>
<g class="stroked-text"><desc>A</desc>
<path d="M88.6905 35.2222
L89.3095 35.2222
" />
<path d="M88.5667 35.5936
L89.0000 34.2936
" />
<path d="M89.0000 34.2936
L89.4333 35.5936
" />
</g><text x="3.0000" y="53.8500"
textLength="7.0071" font-size="2.0000" lengthAdjust="spacingAndGlyphs"
text-anchor="start" opacity="0" stroke-opacity="0">Date: </text>
<g class="stroked-text"><desc>Date: </desc>
<path d="M3.4558 53.7861
L3.4558 52.2861
" />
<path d="M3.4558 52.2861
L3.8130 52.2861
" />
<path d="M3.8130 52.2861
L4.0273 52.3576
" />
<path d="M4.0273 52.3576
L4.1701 52.5004
" />
<path d="M4.1701 52.5004
L4.2415 52.6433
" />
<path d="M4.2415 52.6433
L4.3130 52.9290
" />
<path d="M4.3130 52.9290
L4.3130 53.1433
" />
<path d="M4.3130 53.1433
L4.2415 53.4290
" />
<path d="M4.2415 53.4290
L4.1701 53.5718
" />
<path d="M4.1701 53.5718
L4.0273 53.7147
" />
<path d="M4.0273 53.7147
L3.8130 53.7861
" />
<path d="M3.8130 53.7861
L3.4558 53.7861
" />
<path d="M5.5987 53.7861
L5.5987 53.0004
" />
<path d="M5.5987 53.0004
L5.5273 52.8576
" />
<path d="M5.5273 52.8576
L5.3844 52.7861
" />
<path d="M5.3844 52.7861
L5.0987 52.7861
" />
<path d="M5.0987 52.7861
L4.9558 52.8576
" />
<path d="M5.5987 53.7147
L5.4558 53.7861
" />
<path d="M5.4558 53.7861
L5.0987 53.7861
" />
<path d="M5.0987 53.7861
L4.9558 53.7147
" />
<path d="M4.9558 53.7147
L4.8844 53.5718
" />
<path d="M4.8844 53.5718
L4.8844 53.4290
" />
<path d="M4.8844 53.4290
L4.9558 53.2861
" />
<path d="M4.9558 53.2861
L5.0987 53.2147
" />
<path d="M5.0987 53.2147
L5.4558 53.2147
" />
<path d="M5.4558 53.2147
L5.5987 53.1433
" />
<path d="M6.0987 52.7861
L6.6701 52.7861
" />
<path d="M6.3130 52.2861
L6.3130 53.5718
" />
<path d="M6.3130 53.5718
L6.3844 53.7147
" />
<path d="M6.3844 53.7147
L6.5273 53.7861
" />
<path d="M6.5273 53.7861
L6.6701 53.7861
" />
<path d="M7.7415 53.7147
L7.5987 53.7861
" />
<path d="M7.5987 53.7861
L7.3130 53.7861
" />
<path d="M7.3130 53.7861
L7.1701 53.7147
" />
<path d="M7.1701 53.7147
L7.0987 53.5718
" />
<path d="M7.0987 53.5718
L7.0987 53.0004
" />
<path d="M7.0987 53.0004
L7.1701 52.8576
" />
<path d="M7.1701 52.8576
L7.3130 52.7861
" />
<path d="M7.3130 52.7861
L7.5987 52.7861
" />
<path d="M7.5987 52.7861
L7.7415 52.8576
" />
<path d="M7.7415 52.8576
L7.8130 53.0004
" />
<path d="M7.8130 53.0004
L7.8130 53.1433
" />
<path d="M7.8130 53.1433
L7.0987 53.2861
" />
<path d="M8.4558 53.6433
L8.5273 53.7147
" />
<path d="M8.5273 53.7147
L8.4558 53.7861
" />
<path d="M8.4558 53.7861
L8.3844 53.7147
" />
<path d="M8.3844 53.7147
L8.4558 53.6433
" />
<path d="M8.4558 53.6433
L8.4558 53.7861
" />
<path d="M8.4558 52.8576
L8.5273 52.9290
" />
<path d="M8.5273 52.9290
L8.4558 53.0004
" />
<path d="M8.4558 53.0004
L8.3844 52.9290
" />
<path d="M8.3844 52.9290
L8.4558 52.8576
" />
<path d="M8.4558 52.8576
L8.4558 53.0004
" />
</g><path d="M-20.0000 54.5000
L88.0000 54.5000
" />
<text x="-19.0000" y="56.6500"
textLength="22.2929" font-size="2.0000" lengthAdjust="spacingAndGlyphs"
text-anchor="start" opacity="0" stroke-opacity="0">KiCad E.D.A. 10.0.4</text>
<g class="stroked-text"><desc>KiCad E.D.A. 10.0.4</desc>
<path d="M-18.5442 56.5861
L-18.5442 55.0861
" />
<path d="M-17.6870 56.5861
L-18.3299 55.7290
" />
<path d="M-17.6870 55.0861
L-18.5442 55.9433
" />
<path d="M-17.0442 56.5861
L-17.0442 55.5861
" />
<path d="M-17.0442 55.0861
L-17.1156 55.1576
" />
<path d="M-17.1156 55.1576
L-17.0442 55.2290
" />
<path d="M-17.0442 55.2290
L-16.9727 55.1576
" />
<path d="M-16.9727 55.1576
L-17.0442 55.0861
" />
<path d="M-17.0442 55.0861
L-17.0442 55.2290
" />
<path d="M-15.4727 56.4433
L-15.5442 56.5147
" />
<path d="M-15.5442 56.5147
L-15.7585 56.5861
" />
<path d="M-15.7585 56.5861
L-15.9013 56.5861
" />
<path d="M-15.9013 56.5861
L-16.1156 56.5147
" />
<path d="M-16.1156 56.5147
L-16.2585 56.3718
" />
<path d="M-16.2585 56.3718
L-16.3299 56.2290
" />
<path d="M-16.3299 56.2290
L-16.4013 55.9433
" />
<path d="M-16.4013 55.9433
L-16.4013 55.7290
" />
<path d="M-16.4013 55.7290
L-16.3299 55.4433
" />
<path d="M-16.3299 55.4433
L-16.2585 55.3004
" />
<path d="M-16.2585 55.3004
L-16.1156 55.1576
" />
<path d="M-16.1156 55.1576
L-15.9013 55.0861
" />
<path d="M-15.9013 55.0861
L-15.7585 55.0861
" />
<path d="M-15.7585 55.0861
L-15.5442 55.1576
" />
<path d="M-15.5442 55.1576
L-15.4727 55.2290
" />
<path d="M-14.1870 56.5861
L-14.1870 55.8004
" />
<path d="M-14.1870 55.8004
L-14.2585 55.6576
" />
<path d="M-14.2585 55.6576
L-14.4013 55.5861
" />
<path d="M-14.4013 55.5861
L-14.6870 55.5861
" />
<path d="M-14.6870 55.5861
L-14.8299 55.6576
" />
<path d="M-14.1870 56.5147
L-14.3299 56.5861
" />
<path d="M-14.3299 56.5861
L-14.6870 56.5861
" />
<path d="M-14.6870 56.5861
L-14.8299 56.5147
" />
<path d="M-14.8299 56.5147
L-14.9013 56.3718
" />
<path d="M-14.9013 56.3718
L-14.9013 56.2290
" />
<path d="M-14.9013 56.2290
L-14.8299 56.0861
" />
<path d="M-14.8299 56.0861
L-14.6870 56.0147
" />
<path d="M-14.6870 56.0147
L-14.3299 56.0147
" />
<path d="M-14.3299 56.0147
L-14.1870 55.9433
" />
<path d="M-12.8299 56.5861
L-12.8299 55.0861
" />
<path d="M-12.8299 56.5147
L-12.9727 56.5861
" />
<path d="M-12.9727 56.5861
L-13.2585 56.5861
" />
<path d="M-13.2585 56.5861
L-13.4013 56.5147
" />
<path d="M-13.4013 56.5147
L-13.4727 56.4433
" />
<path d="M-13.4727 56.4433
L-13.5442 56.3004
" />
<path d="M-13.5442 56.3004
L-13.5442 55.8718
" />
<path d="M-13.5442 55.8718
L-13.4727 55.7290
" />
<path d="M-13.4727 55.7290
L-13.4013 55.6576
" />
<path d="M-13.4013 55.6576
L-13.2585 55.5861
" />
<path d="M-13.2585 55.5861
L-12.9727 55.5861
" />
<path d="M-12.9727 55.5861
L-12.8299 55.6576
" />
<path d="M-10.9727 55.8004
L-10.4727 55.8004
" />
<path d="M-10.2585 56.5861
L-10.9727 56.5861
" />
<path d="M-10.9727 56.5861
L-10.9727 55.0861
" />
<path d="M-10.9727 55.0861
L-10.2585 55.0861
" />
<path d="M-9.6156 56.4433
L-9.5442 56.5147
" />
<path d="M-9.5442 56.5147
L-9.6156 56.5861
" />
<path d="M-9.6156 56.5861
L-9.6870 56.5147
" />
<path d="M-9.6870 56.5147
L-9.6156 56.4433
" />
<path d="M-9.6156 56.4433
L-9.6156 56.5861
" />
<path d="M-8.9013 56.5861
L-8.9013 55.0861
" />
<path d="M-8.9013 55.0861
L-8.5442 55.0861
" />
<path d="M-8.5442 55.0861
L-8.3299 55.1576
" />
<path d="M-8.3299 55.1576
L-8.1870 55.3004
" />
<path d="M-8.1870 55.3004
L-8.1156 55.4433
" />
<path d="M-8.1156 55.4433
L-8.0442 55.7290
" />
<path d="M-8.0442 55.7290
L-8.0442 55.9433
" />
<path d="M-8.0442 55.9433
L-8.1156 56.2290
" />
<path d="M-8.1156 56.2290
L-8.1870 56.3718
" />
<path d="M-8.1870 56.3718
L-8.3299 56.5147
" />
<path d="M-8.3299 56.5147
L-8.5442 56.5861
" />
<path d="M-8.5442 56.5861
L-8.9013 56.5861
" />
<path d="M-7.4013 56.4433
L-7.3299 56.5147
" />
<path d="M-7.3299 56.5147
L-7.4013 56.5861
" />
<path d="M-7.4013 56.5861
L-7.4727 56.5147
" />
<path d="M-7.4727 56.5147
L-7.4013 56.4433
" />
<path d="M-7.4013 56.4433
L-7.4013 56.5861
" />
<path d="M-6.7585 56.1576
L-6.0442 56.1576
" />
<path d="M-6.9013 56.5861
L-6.4013 55.0861
" />
<path d="M-6.4013 55.0861
L-5.9013 56.5861
" />
<path d="M-5.4013 56.4433
L-5.3299 56.5147
" />
<path d="M-5.3299 56.5147
L-5.4013 56.5861
" />
<path d="M-5.4013 56.5861
L-5.4727 56.5147
" />
<path d="M-5.4727 56.5147
L-5.4013 56.4433
" />
<path d="M-5.4013 56.4433
L-5.4013 56.5861
" />
<path d="M-2.7585 56.5861
L-3.6156 56.5861
" />
<path d="M-3.1870 56.5861
L-3.1870 55.0861
" />
<path d="M-3.1870 55.0861
L-3.3299 55.3004
" />
<path d="M-3.3299 55.3004
L-3.4727 55.4433
" />
<path d="M-3.4727 55.4433
L-3.6156 55.5147
" />
<path d="M-1.8299 55.0861
L-1.6870 55.0861
" />
<path d="M-1.6870 55.0861
L-1.5442 55.1576
" />
<path d="M-1.5442 55.1576
L-1.4727 55.2290
" />
<path d="M-1.4727 55.2290
L-1.4013 55.3718
" />
<path d="M-1.4013 55.3718
L-1.3299 55.6576
" />
<path d="M-1.3299 55.6576
L-1.3299 56.0147
" />
<path d="M-1.3299 56.0147
L-1.4013 56.3004
" />
<path d="M-1.4013 56.3004
L-1.4727 56.4433
" />
<path d="M-1.4727 56.4433
L-1.5442 56.5147
" />
<path d="M-1.5442 56.5147
L-1.6870 56.5861
" />
<path d="M-1.6870 56.5861
L-1.8299 56.5861
" />
<path d="M-1.8299 56.5861
L-1.9727 56.5147
" />
<path d="M-1.9727 56.5147
L-2.0442 56.4433
" />
<path d="M-2.0442 56.4433
L-2.1156 56.3004
" />
<path d="M-2.1156 56.3004
L-2.1870 56.0147
" />
<path d="M-2.1870 56.0147
L-2.1870 55.6576
" />
<path d="M-2.1870 55.6576
L-2.1156 55.3718
" />
<path d="M-2.1156 55.3718
L-2.0442 55.2290
" />
<path d="M-2.0442 55.2290
L-1.9727 55.1576
" />
<path d="M-1.9727 55.1576
L-1.8299 55.0861
" />
<path d="M-0.6870 56.4433
L-0.6156 56.5147
" />
<path d="M-0.6156 56.5147
L-0.6870 56.5861
" />
<path d="M-0.6870 56.5861
L-0.7585 56.5147
" />
<path d="M-0.7585 56.5147
L-0.6870 56.4433
" />
<path d="M-0.6870 56.4433
L-0.6870 56.5861
" />
<path d="M0.3130 55.0861
L0.4558 55.0861
" />
<path d="M0.4558 55.0861
L0.5987 55.1576
" />
<path d="M0.5987 55.1576
L0.6701 55.2290
" />
<path d="M0.6701 55.2290
L0.7415 55.3718
" />
<path d="M0.7415 55.3718
L0.8130 55.6576
" />
<path d="M0.8130 55.6576
L0.8130 56.0147
" />
<path d="M0.8130 56.0147
L0.7415 56.3004
" />
<path d="M0.7415 56.3004
L0.6701 56.4433
" />
<path d="M0.6701 56.4433
L0.5987 56.5147
" />
<path d="M0.5987 56.5147
L0.4558 56.5861
" />
<path d="M0.4558 56.5861
L0.3130 56.5861
" />
<path d="M0.3130 56.5861
L0.1701 56.5147
" />
<path d="M0.1701 56.5147
L0.0987 56.4433
" />
<path d="M0.0987 56.4433
L0.0273 56.3004
" />
<path d="M0.0273 56.3004
L-0.0442 56.0147
" />
<path d="M-0.0442 56.0147
L-0.0442 55.6576
" />
<path d="M-0.0442 55.6576
L0.0273 55.3718
" />
<path d="M0.0273 55.3718
L0.0987 55.2290
" />
<path d="M0.0987 55.2290
L0.1701 55.1576
" />
<path d="M0.1701 55.1576
L0.3130 55.0861
" />
<path d="M1.4558 56.4433
L1.5273 56.5147
" />
<path d="M1.5273 56.5147
L1.4558 56.5861
" />
<path d="M1.4558 56.5861
L1.3844 56.5147
" />
<path d="M1.3844 56.5147
L1.4558 56.4433
" />
<path d="M1.4558 56.4433
L1.4558 56.5861
" />
<path d="M2.8130 55.5861
L2.8130 56.5861
" />
<path d="M2.4558 55.0147
L2.0987 56.0861
" />
<path d="M2.0987 56.0861
L3.0273 56.0861
" />
</g><path d="M-20.0000 51.5000
L88.0000 51.5000
" />
</g>
<g style="fill:none; 
stroke:#C872AB; stroke-width:0.3000; stroke-opacity:1; 
stroke-linecap:round; stroke-linejoin:round;">
<text x="66.0000" y="53.8500"
textLength="6.3857" font-size="2.0000" lengthAdjust="spacingAndGlyphs"
text-anchor="start" opacity="0" stroke-opacity="0">Rev: </text>
<g class="stroked-text"><desc>Rev: </desc>
<path d="M67.4117 53.7783
L66.9117 53.0640
" />
<path d="M66.5545 53.7783
L66.5545 52.2783
" />
<path d="M66.5545 52.2783
L67.1259 52.2783
" />
<path d="M67.1259 52.2783
L67.2688 52.3498
" />
<path d="M67.2688 52.3498
L67.3402 52.4212
" />
<path d="M67.3402 52.4212
L67.4117 52.5640
" />
<path d="M67.4117 52.5640
L67.4117 52.7783
" />
<path d="M67.4117 52.7783
L67.3402 52.9212
" />
<path d="M67.3402 52.9212
L67.2688 52.9926
" />
<path d="M67.2688 52.9926
L67.1259 53.0640
" />
<path d="M67.1259 53.0640
L66.5545 53.0640
" />
<path d="M68.6259 53.7069
L68.4831 53.7783
" />
<path d="M68.4831 53.7783
L68.1974 53.7783
" />
<path d="M68.1974 53.7783
L68.0545 53.7069
" />
<path d="M68.0545 53.7069
L67.9831 53.5640
" />
<path d="M67.9831 53.5640
L67.9831 52.9926
" />
<path d="M67.9831 52.9926
L68.0545 52.8498
" />
<path d="M68.0545 52.8498
L68.1974 52.7783
" />
<path d="M68.1974 52.7783
L68.4831 52.7783
" />
<path d="M68.4831 52.7783
L68.6259 52.8498
" />
<path d="M68.6259 52.8498
L68.6974 52.9926
" />
<path d="M68.6974 52.9926
L68.6974 53.1355
" />
<path d="M68.6974 53.1355
L67.9831 53.2783
" />
<path d="M69.1974 52.7783
L69.5545 53.7783
" />
<path d="M69.5545 53.7783
L69.9117 52.7783
" />
<path d="M70.4831 53.6355
L70.5545 53.7069
" />
<path d="M70.5545 53.7069
L70.4831 53.7783
" />
<path d="M70.4831 53.7783
L70.4117 53.7069
" />
<path d="M70.4117 53.7069
L70.4831 53.6355
" />
<path d="M70.4831 53.6355
L70.4831 53.7783
" />
<path d="M70.4831 52.8498
L70.5545 52.9212
" />
<path d="M70.5545 52.9212
L70.4831 52.9926
" />
<path d="M70.4831 52.9926
L70.4117 52.9212
" />
<path d="M70.4117 52.9212
L70.4831 52.8498
" />
<path d="M70.4831 52.8498
L70.4831 52.9926
" />
</g></g>
<g style="fill:none; 
stroke:#C872AB; stroke-width:0.1500; stroke-opacity:1; 
stroke-linecap:round; stroke-linejoin:round;">
<text x="-19.0000" y="53.8500"
textLength="11.6500" font-size="2.0000" lengthAdjust="spacingAndGlyphs"
text-anchor="start" opacity="0" stroke-opacity="0">Size: User</text>
<g class="stroked-text"><desc>Size: User</desc>
<path d="M-18.6156 53.7147
L-18.4013 53.7861
" />
<path d="M-18.4013 53.7861
L-18.0442 53.7861
" />
<path d="M-18.0442 53.7861
L-17.9013 53.7147
" />
<path d="M-17.9013 53.7147
L-17.8299 53.6433
" />
<path d="M-17.8299 53.6433
L-17.7585 53.5004
" />
<path d="M-17.7585 53.5004
L-17.7585 53.3576
" />
<path d="M-17.7585 53.3576
L-17.8299 53.2147
" />
<path d="M-17.8299 53.2147
L-17.9013 53.1433
" />
<path d="M-17.9013 53.1433
L-18.0442 53.0718
" />
<path d="M-18.0442 53.0718
L-18.3299 53.0004
" />
<path d="M-18.3299 53.0004
L-18.4727 52.9290
" />
<path d="M-18.4727 52.9290
L-18.5442 52.8576
" />
<path d="M-18.5442 52.8576
L-18.6156 52.7147
" />
<path d="M-18.6156 52.7147
L-18.6156 52.5718
" />
<path d="M-18.6156 52.5718
L-18.5442 52.4290
" />
<path d="M-18.5442 52.4290
L-18.4727 52.3576
" />
<path d="M-18.4727 52.3576
L-18.3299 52.2861
" />
<path d="M-18.3299 52.2861
L-17.9727 52.2861
" />
<path d="M-17.9727 52.2861
L-17.7585 52.3576
" />
<path d="M-17.1156 53.7861
L-17.1156 52.7861
" />
<path d="M-17.1156 52.2861
L-17.1870 52.3576
" />
<path d="M-17.1870 52.3576
L-17.1156 52.4290
" />
<path d="M-17.1156 52.4290
L-17.0442 52.3576
" />
<path d="M-17.0442 52.3576
L-17.1156 52.2861
" />
<path d="M-17.1156 52.2861
L-17.1156 52.4290
" />
<path d="M-16.5442 52.7861
L-15.7585 52.7861
" />
<path d="M-15.7585 52.7861
L-16.5442 53.7861
" />
<path d="M-16.5442 53.7861
L-15.7585 53.7861
" />
<path d="M-14.6156 53.7147
L-14.7585 53.7861
" />
<path d="M-14.7585 53.7861
L-15.0442 53.7861
" />
<path d="M-15.0442 53.7861
L-15.1870 53.7147
" />
<path d="M-15.1870 53.7147
L-15.2585 53.5718
" />
<path d="M-15.2585 53.5718
L-15.2585 53.0004
" />
<path d="M-15.2585 53.0004
L-15.1870 52.8576
" />
<path d="M-15.1870 52.8576
L-15.0442 52.7861
" />
<path d="M-15.0442 52.7861
L-14.7585 52.7861
" />
<path d="M-14.7585 52.7861
L-14.6156 52.8576
" />
<path d="M-14.6156 52.8576
L-14.5442 53.0004
" />
<path d="M-14.5442 53.0004
L-14.5442 53.1433
" />
<path d="M-14.5442 53.1433
L-15.2585 53.2861
" />
<path d="M-13.9013 53.6433
L-13.8299 53.7147
" />
<path d="M-13.8299 53.7147
L-13.9013 53.7861
" />
<path d="M-13.9013 53.7861
L-13.9727 53.7147
" />
<path d="M-13.9727 53.7147
L-13.9013 53.6433
" />
<path d="M-13.9013 53.6433
L-13.9013 53.7861
" />
<path d="M-13.9013 52.8576
L-13.8299 52.9290
" />
<path d="M-13.8299 52.9290
L-13.9013 53.0004
" />
<path d="M-13.9013 53.0004
L-13.9727 52.9290
" />
<path d="M-13.9727 52.9290
L-13.9013 52.8576
" />
<path d="M-13.9013 52.8576
L-13.9013 53.0004
" />
<path d="M-12.0442 52.2861
L-12.0442 53.5004
" />
<path d="M-12.0442 53.5004
L-11.9727 53.6433
" />
<path d="M-11.9727 53.6433
L-11.9013 53.7147
" />
<path d="M-11.9013 53.7147
L-11.7585 53.7861
" />
<path d="M-11.7585 53.7861
L-11.4727 53.7861
" />
<path d="M-11.4727 53.7861
L-11.3299 53.7147
" />
<path d="M-11.3299 53.7147
L-11.2585 53.6433
" />
<path d="M-11.2585 53.6433
L-11.1870 53.5004
" />
<path d="M-11.1870 53.5004
L-11.1870 52.2861
" />
<path d="M-10.5442 53.7147
L-10.4013 53.7861
" />
<path d="M-10.4013 53.7861
L-10.1156 53.7861
" />
<path d="M-10.1156 53.7861
L-9.9727 53.7147
" />
<path d="M-9.9727 53.7147
L-9.9013 53.5718
" />
<path d="M-9.9013 53.5718
L-9.9013 53.5004
" />
<path d="M-9.9013 53.5004
L-9.9727 53.3576
" />
<path d="M-9.9727 53.3576
L-10.1156 53.2861
" />
<path d="M-10.1156 53.2861
L-10.3299 53.2861
" />
<path d="M-10.3299 53.2861
L-10.4727 53.2147
" />
<path d="M-10.4727 53.2147
L-10.5442 53.0718
" />
<path d="M-10.5442 53.0718
L-10.5442 53.0004
" />
<path d="M-10.5442 53.0004
L-10.4727 52.8576
" />
<path d="M-10.4727 52.8576
L-10.3299 52.7861
" />
<path d="M-10.3299 52.7861
L-10.1156 52.7861
" />
<path d="M-10.1156 52.7861
L-9.9727 52.8576
" />
<path d="M-8.6870 53.7147
L-8.8299 53.7861
" />
<path d="M-8.8299 53.7861
L-9.1156 53.7861
" />
<path d="M-9.1156 53.7861
L-9.2585 53.7147
" />
<path d="M-9.2585 53.7147
L-9.3299 53.5718
" />
<path d="M-9.3299 53.5718
L-9.3299 53.0004
" />
<path d="M-9.3299 53.0004
L-9.2585 52.8576
" />
<path d="M-9.2585 52.8576
L-9.1156 52.7861
" />
<path d="M-9.1156 52.7861
L-8.8299 52.7861
" />
<path d="M-8.8299 52.7861
L-8.6870 52.8576
" />
<path d="M-8.6870 52.8576
L-8.6156 53.0004
" />
<path d="M-8.6156 53.0004
L-8.6156 53.1433
" />
<path d="M-8.6156 53.1433
L-9.3299 53.2861
" />
<path d="M-7.9727 53.7861
L-7.9727 52.7861
" />
<path d="M-7.9727 53.0718
L-7.9013 52.9290
" />
<path d="M-7.9013 52.9290
L-7.8299 52.8576
" />
<path d="M-7.8299 52.8576
L-7.6870 52.7861
" />
<path d="M-7.6870 52.7861
L-7.5442 52.7861
" />
</g><text x="66.0000" y="56.6500"
textLength="8.5071" font-size="2.0000" lengthAdjust="spacingAndGlyphs"
text-anchor="start" opacity="0" stroke-opacity="0">Id: 1/1</text>
<g class="stroked-text"><desc>Id: 1/1</desc>
<path d="M66.4558 56.5861
L66.4558 55.0861
" />
<path d="M67.8130 56.5861
L67.8130 55.0861
" />
<path d="M67.8130 56.5147
L67.6701 56.5861
" />
<path d="M67.6701 56.5861
L67.3844 56.5861
" />
<path d="M67.3844 56.5861
L67.2415 56.5147
" />
<path d="M67.2415 56.5147
L67.1701 56.4433
" />
<path d="M67.1701 56.4433
L67.0987 56.3004
" />
<path d="M67.0987 56.3004
L67.0987 55.8718
" />
<path d="M67.0987 55.8718
L67.1701 55.7290
" />
<path d="M67.1701 55.7290
L67.2415 55.6576
" />
<path d="M67.2415 55.6576
L67.3844 55.5861
" />
<path d="M67.3844 55.5861
L67.6701 55.5861
" />
<path d="M67.6701 55.5861
L67.8130 55.6576
" />
<path d="M68.5273 56.4433
L68.5987 56.5147
" />
<path d="M68.5987 56.5147
L68.5273 56.5861
" />
<path d="M68.5273 56.5861
L68.4558 56.5147
" />
<path d="M68.4558 56.5147
L68.5273 56.4433
" />
<path d="M68.5273 56.4433
L68.5273 56.5861
" />
<path d="M68.5273 55.6576
L68.5987 55.7290
" />
<path d="M68.5987 55.7290
L68.5273 55.8004
" />
<path d="M68.5273 55.8004
L68.4558 55.7290
" />
<path d="M68.4558 55.7290
L68.5273 55.6576
" />
<path d="M68.5273 55.6576
L68.5273 55.8004
" />
<path d="M71.1701 56.5861
L70.3130 56.5861
" />
<path d="M70.7415 56.5861
L70.7415 55.0861
" />
<path d="M70.7415 55.0861
L70.5987 55.3004
" />
<path d="M70.5987 55.3004
L70.4558 55.4433
" />
<path d="M70.4558 55.4433
L70.3130 55.5147
" />
<path d="M72.8844 55.0147
L71.5987 56.9433
" />
<path d="M74.1701 56.5861
L73.3130 56.5861
" />
<path d="M73.7415 56.5861
L73.7415 55.0861
" />
<path d="M73.7415 55.0861
L73.5987 55.3004
" />
<path d="M73.5987 55.3004
L73.4558 55.4433
" />
<path d="M73.4558 55.4433
L73.3130 55.5147
" />
</g><path d="M-20.0000 47.5000
L88.0000 47.5000
" />
</g>
<g style="fill:none; 
stroke:#C872AB; stroke-width:0.4000; stroke-opacity:1; 
stroke-linecap:round; stroke-linejoin:round;">
<text x="-19.0000" y="50.3000"
textLength="9.6571" font-size="2.6667" lengthAdjust="spacingAndGlyphs"
text-anchor="start" opacity="0" stroke-opacity="0">Title: </text>
<g class="stroked-text"><desc>Title: </desc>
<path d="M-18.3083 48.2044
L-17.1654 48.2044
" />
<path d="M-17.9868 50.2044
L-17.7368 48.2044
" />
<path d="M-16.7487 50.2044
L-16.5821 48.8711
" />
<path d="M-16.4987 48.2044
L-16.6059 48.2997
" />
<path d="M-16.6059 48.2997
L-16.5226 48.3949
" />
<path d="M-16.5226 48.3949
L-16.4154 48.2997
" />
<path d="M-16.4154 48.2997
L-16.4987 48.2044
" />
<path d="M-16.4987 48.2044
L-16.5226 48.3949
" />
<path d="M-15.9154 48.8711
L-15.1535 48.8711
" />
<path d="M-15.5464 48.2044
L-15.7607 49.9187
" />
<path d="M-15.7607 49.9187
L-15.6892 50.1092
" />
<path d="M-15.6892 50.1092
L-15.5107 50.2044
" />
<path d="M-15.5107 50.2044
L-15.3202 50.2044
" />
<path d="M-14.3678 50.2044
L-14.5464 50.1092
" />
<path d="M-14.5464 50.1092
L-14.6178 49.9187
" />
<path d="M-14.6178 49.9187
L-14.4035 48.2044
" />
<path d="M-12.8321 50.1092
L-13.0345 50.2044
" />
<path d="M-13.0345 50.2044
L-13.4154 50.2044
" />
<path d="M-13.4154 50.2044
L-13.5940 50.1092
" />
<path d="M-13.5940 50.1092
L-13.6654 49.9187
" />
<path d="M-13.6654 49.9187
L-13.5702 49.1568
" />
<path d="M-13.5702 49.1568
L-13.4511 48.9663
" />
<path d="M-13.4511 48.9663
L-13.2487 48.8711
" />
<path d="M-13.2487 48.8711
L-12.8678 48.8711
" />
<path d="M-12.8678 48.8711
L-12.6892 48.9663
" />
<path d="M-12.6892 48.9663
L-12.6178 49.1568
" />
<path d="M-12.6178 49.1568
L-12.6416 49.3473
" />
<path d="M-12.6416 49.3473
L-13.6178 49.5378
" />
<path d="M-11.8678 50.0140
L-11.7845 50.1092
" />
<path d="M-11.7845 50.1092
L-11.8916 50.2044
" />
<path d="M-11.8916 50.2044
L-11.9749 50.1092
" />
<path d="M-11.9749 50.1092
L-11.8678 50.0140
" />
<path d="M-11.8678 50.0140
L-11.8916 50.2044
" />
<path d="M-11.7368 48.9663
L-11.6535 49.0616
" />
<path d="M-11.6535 49.0616
L-11.7607 49.1568
" />
<path d="M-11.7607 49.1568
L-11.8440 49.0616
" />
<path d="M-11.8440 49.0616
L-11.7368 48.9663
" />
<path d="M-11.7368 48.9663
L-11.7607 49.1568
" />
</g></g>
<g style="fill:none; 
stroke:#C872AB; stroke-width:0.1500; stroke-opacity:1; 
stroke-linecap:round; stroke-linejoin:round;">
<text x="-19.0000" y="46.4500"
textLength="21.8643" font-size="2.0000" lengthAdjust="spacingAndGlyphs"
text-anchor="start" opacity="0" stroke-opacity="0">File: cpu.kicad_pcb</text>
<g class="stroked-text"><desc>File: cpu.kicad_pcb</desc>
<path d="M-18.0442 45.6004
L-18.5442 45.6004
" />
<path d="M-18.5442 46.3861
L-18.5442 44.8861
" />
<path d="M-18.5442 44.8861
L-17.8299 44.8861
" />
<path d="M-17.2585 46.3861
L-17.2585 45.3861
" />
<path d="M-17.2585 44.8861
L-17.3299 44.9576
" />
<path d="M-17.3299 44.9576
L-17.2585 45.0290
" />
<path d="M-17.2585 45.0290
L-17.1870 44.9576
" />
<path d="M-17.1870 44.9576
L-17.2585 44.8861
" />
<path d="M-17.2585 44.8861
L-17.2585 45.0290
" />
<path d="M-16.3299 46.3861
L-16.4727 46.3147
" />
<path d="M-16.4727 46.3147
L-16.5442 46.1718
" />
<path d="M-16.5442 46.1718
L-16.5442 44.8861
" />
<path d="M-15.1870 46.3147
L-15.3299 46.3861
" />
<path d="M-15.3299 46.3861
L-15.6156 46.3861
" />
<path d="M-15.6156 46.3861
L-15.7585 46.3147
" />
<path d="M-15.7585 46.3147
L-15.8299 46.1718
" />
<path d="M-15.8299 46.1718
L-15.8299 45.6004
" />
<path d="M-15.8299 45.6004
L-15.7585 45.4576
" />
<path d="M-15.7585 45.4576
L-15.6156 45.3861
" />
<path d="M-15.6156 45.3861
L-15.3299 45.3861
" />
<path d="M-15.3299 45.3861
L-15.1870 45.4576
" />
<path d="M-15.1870 45.4576
L-15.1156 45.6004
" />
<path d="M-15.1156 45.6004
L-15.1156 45.7433
" />
<path d="M-15.1156 45.7433
L-15.8299 45.8861
" />
<path d="M-14.4727 46.2433
L-14.4013 46.3147
" />
<path d="M-14.4013 46.3147
L-14.4727 46.3861
" />
<path d="M-14.4727 46.3861
L-14.5442 46.3147
" />
<path d="M-14.5442 46.3147
L-14.4727 46.2433
" />
<path d="M-14.4727 46.2433
L-14.4727 46.3861
" />
<path d="M-14.4727 45.4576
L-14.4013 45.5290
" />
<path d="M-14.4013 45.5290
L-14.4727 45.6004
" />
<path d="M-14.4727 45.6004
L-14.5442 45.5290
" />
<path d="M-14.5442 45.5290
L-14.4727 45.4576
" />
<path d="M-14.4727 45.4576
L-14.4727 45.6004
" />
<path d="M-11.9727 46.3147
L-12.1156 46.3861
" />
<path d="M-12.1156 46.3861
L-12.4013 46.3861
" />
<path d="M-12.4013 46.3861
L-12.5442 46.3147
" />
<path d="M-12.5442 46.3147
L-12.6156 46.2433
" />
<path d="M-12.6156 46.2433
L-12.6870 46.1004
" />
<path d="M-12.6870 46.1004
L-12.6870 45.6718
" />
<path d="M-12.6870 45.6718
L-12.6156 45.5290
" />
<path d="M-12.6156 45.5290
L-12.5442 45.4576
" />
<path d="M-12.5442 45.4576
L-12.4013 45.3861
" />
<path d="M-12.4013 45.3861
L-12.1156 45.3861
" />
<path d="M-12.1156 45.3861
L-11.9727 45.4576
" />
<path d="M-11.3299 45.3861
L-11.3299 46.8861
" />
<path d="M-11.3299 45.4576
L-11.1870 45.3861
" />
<path d="M-11.1870 45.3861
L-10.9013 45.3861
" />
<path d="M-10.9013 45.3861
L-10.7585 45.4576
" />
<path d="M-10.7585 45.4576
L-10.6870 45.5290
" />
<path d="M-10.6870 45.5290
L-10.6156 45.6718
" />
<path d="M-10.6156 45.6718
L-10.6156 46.1004
" />
<path d="M-10.6156 46.1004
L-10.6870 46.2433
" />
<path d="M-10.6870 46.2433
L-10.7585 46.3147
" />
<path d="M-10.7585 46.3147
L-10.9013 46.3861
" />
<path d="M-10.9013 46.3861
L-11.1870 46.3861
" />
<path d="M-11.1870 46.3861
L-11.3299 46.3147
" />
<path d="M-9.3299 45.3861
L-9.3299 46.3861
" />
<path d="M-9.9727 45.3861
L-9.9727 46.1718
" />
<path d="M-9.9727 46.1718
L-9.9013 46.3147
" />
<path d="M-9.9013 46.3147
L-9.7585 46.3861
" />
<path d="M-9.7585 46.3861
L-9.5442 46.3861
" />
<path d="M-9.5442 46.3861
L-9.4013 46.3147
" />
<path d="M-9.4013 46.3147
L-9.3299 46.2433
" />
<path d="M-8.6156 46.2433
L-8.5442 46.3147
" />
<path d="M-8.5442 46.3147
L-8.6156 46.3861
" />
<path d="M-8.6156 46.3861
L-8.6870 46.3147
" />
<path d="M-8.6870 46.3147
L-8.6156 46.2433
" />
<path d="M-8.6156 46.2433
L-8.6156 46.3861
" />
<path d="M-7.9013 46.3861
L-7.9013 44.8861
" />
<path d="M-7.7585 45.8147
L-7.3299 46.3861
" />
<path d="M-7.3299 45.3861
L-7.9013 45.9576
" />
<path d="M-6.6870 46.3861
L-6.6870 45.3861
" />
<path d="M-6.6870 44.8861
L-6.7585 44.9576
" />
<path d="M-6.7585 44.9576
L-6.6870 45.0290
" />
<path d="M-6.6870 45.0290
L-6.6156 44.9576
" />
<path d="M-6.6156 44.9576
L-6.6870 44.8861
" />
<path d="M-6.6870 44.8861
L-6.6870 45.0290
" />
<path d="M-5.3299 46.3147
L-5.4727 46.3861
" />
<path d="M-5.4727 46.3861
L-5.7585 46.3861
" />
<path d="M-5.7585 46.3861
L-5.9013 46.3147
" />
<path d="M-5.9013 46.3147
L-5.9727 46.2433
" />
<path d="M-5.9727 46.2433
L-6.0442 46.1004
" />
<path d="M-6.0442 46.1004
L-6.0442 45.6718
" />
<path d="M-6.0442 45.6718
L-5.9727 45.5290
" />
<path d="M-5.9727 45.5290
L-5.9013 45.4576
" />
<path d="M-5.9013 45.4576
L-5.7585 45.3861
" />
<path d="M-5.7585 45.3861
L-5.4727 45.3861
" />
<path d="M-5.4727 45.3861
L-5.3299 45.4576
" />
<path d="M-4.0442 46.3861
L-4.0442 45.6004
" />
<path d="M-4.0442 45.6004
L-4.1156 45.4576
" />
<path d="M-4.1156 45.4576
L-4.2585 45.3861
" />
<path d="M-4.2585 45.3861
L-4.5442 45.3861
" />
<path d="M-4.5442 45.3861
L-4.6870 45.4576
" />
<path d="M-4.0442 46.3147
L-4.1870 46.3861
" />
<path d="M-4.1870 46.3861
L-4.5442 46.3861
" />
<path d="M-4.5442 46.3861
L-4.6870 46.3147
" />
<path d="M-4.6870 46.3147
L-4.7585 46.1718
" />
<path d="M-4.7585 46.1718
L-4.7585 46.0290
" />
<path d="M-4.7585 46.0290
L-4.6870 45.8861
" />
<path d="M-4.6870 45.8861
L-4.5442 45.8147
" />
<path d="M-4.5442 45.8147
L-4.1870 45.8147
" />
<path d="M-4.1870 45.8147
L-4.0442 45.7433
" />
<path d="M-2.6870 46.3861
L-2.6870 44.8861
" />
<path d="M-2.6870 46.3147
L-2.8299 46.3861
" />
<path d="M-2.8299 46.3861
L-3.1156 46.3861
" />
<path d="M-3.1156 46.3861
L-3.2585 46.3147
" />
<path d="M-3.2585 46.3147
L-3.3299 46.2433
" />
<path d="M-3.3299 46.2433
L-3.4013 46.1004
" />
<path d="M-3.4013 46.1004
L-3.4013 45.6718
" />
<path d="M-3.4013 45.6718
L-3.3299 45.5290
" />
<path d="M-3.3299 45.5290
L-3.2585 45.4576
" />
<path d="M-3.2585 45.4576
L-3.1156 45.3861
" />
<path d="M-3.1156 45.3861
L-2.8299 45.3861
" />
<path d="M-2.8299 45.3861
L-2.6870 45.4576
" />
<path d="M-2.3299 46.5290
L-1.1870 46.5290
" />
<path d="M-0.8299 45.3861
L-0.8299 46.8861
" />
<path d="M-0.8299 45.4576
L-0.6870 45.3861
" />
<path d="M-0.6870 45.3861
L-0.4013 45.3861
" />
<path d="M-0.4013 45.3861
L-0.2585 45.4576
" />
<path d="M-0.2585 45.4576
L-0.1870 45.5290
" />
<path d="M-0.1870 45.5290
L-0.1156 45.6718
" />
<path d="M-0.1156 45.6718
L-0.1156 46.1004
" />
<path d="M-0.1156 46.1004
L-0.1870 46.2433
" />
<path d="M-0.1870 46.2433
L-0.2585 46.3147
" />
<path d="M-0.2585 46.3147
L-0.4013 46.3861
" />
<path d="M-0.4013 46.3861
L-0.6870 46.3861
" />
<path d="M-0.6870 46.3861
L-0.8299 46.3147
" />
<path d="M1.1701 46.3147
L1.0273 46.3861
" />
<path d="M1.0273 46.3861
L0.7415 46.3861
" />
<path d="M0.7415 46.3861
L0.5987 46.3147
" />
<path d="M0.5987 46.3147
L0.5273 46.2433
" />
<path d="M0.5273 46.2433
L0.4558 46.1004
" />
<path d="M0.4558 46.1004
L0.4558 45.6718
" />
<path d="M0.4558 45.6718
L0.5273 45.5290
" />
<path d="M0.5273 45.5290
L0.5987 45.4576
" />
<path d="M0.5987 45.4576
L0.7415 45.3861
" />
<path d="M0.7415 45.3861
L1.0273 45.3861
" />
<path d="M1.0273 45.3861
L1.1701 45.4576
" />
<path d="M1.8130 46.3861
L1.8130 44.8861
" />
<path d="M1.8130 45.4576
L1.9558 45.3861
" />
<path d="M1.9558 45.3861
L2.2415 45.3861
" />
<path d="M2.2415 45.3861
L2.3844 45.4576
" />
<path d="M2.3844 45.4576
L2.4558 45.5290
" />
<path d="M2.4558 45.5290
L2.5273 45.6718
" />
<path d="M2.5273 45.6718
L2.5273 46.1004
" />
<path d="M2.5273 46.1004
L2.4558 46.2433
" />
<path d="M2.4558 46.2433
L2.3844 46.3147
" />
<path d="M2.3844 46.3147
L2.2415 46.3861
" />
<path d="M2.2415 46.3861
L1.9558 46.3861
" />
<path d="M1.9558 46.3861
L1.8130 46.3147
" />
</g><path d="M-20.0000 41.5000
L88.0000 41.5000
" />
<text x="-19.0000" y="43.7500"
textLength="8.2214" font-size="2.0000" lengthAdjust="spacingAndGlyphs"
text-anchor="start" opacity="0" stroke-opacity="0">Sheet: </text>
<g class="stroked-text"><desc>Sheet: </desc>
<path d="M-18.6156 43.6147
L-18.4013 43.6861
" />
<path d="M-18.4013 43.6861
L-18.0442 43.6861
" />
<path d="M-18.0442 43.6861
L-17.9013 43.6147
" />
<path d="M-17.9013 43.6147
L-17.8299 43.5433
" />
<path d="M-17.8299 43.5433
L-17.7585 43.4004
" />
<path d="M-17.7585 43.4004
L-17.7585 43.2576
" />
<path d="M-17.7585 43.2576
L-17.8299 43.1147
" />
<path d="M-17.8299 43.1147
L-17.9013 43.0433
" />
<path d="M-17.9013 43.0433
L-18.0442 42.9718
" />
<path d="M-18.0442 42.9718
L-18.3299 42.9004
" />
<path d="M-18.3299 42.9004
L-18.4727 42.8290
" />
<path d="M-18.4727 42.8290
L-18.5442 42.7576
" />
<path d="M-18.5442 42.7576
L-18.6156 42.6147
" />
<path d="M-18.6156 42.6147
L-18.6156 42.4718
" />
<path d="M-18.6156 42.4718
L-18.5442 42.3290
" />
<path d="M-18.5442 42.3290
L-18.4727 42.2576
" />
<path d="M-18.4727 42.2576
L-18.3299 42.1861
" />
<path d="M-18.3299 42.1861
L-17.9727 42.1861
" />
<path d="M-17.9727 42.1861
L-17.7585 42.2576
" />
<path d="M-17.1156 43.6861
L-17.1156 42.1861
" />
<path d="M-16.4727 43.6861
L-16.4727 42.9004
" />
<path d="M-16.4727 42.9004
L-16.5442 42.7576
" />
<path d="M-16.5442 42.7576
L-16.6870 42.6861
" />
<path d="M-16.6870 42.6861
L-16.9013 42.6861
" />
<path d="M-16.9013 42.6861
L-17.0442 42.7576
" />
<path d="M-17.0442 42.7576
L-17.1156 42.8290
" />
<path d="M-15.1870 43.6147
L-15.3299 43.6861
" />
<path d="M-15.3299 43.6861
L-15.6156 43.6861
" />
<path d="M-15.6156 43.6861
L-15.7585 43.6147
" />
<path d="M-15.7585 43.6147
L-15.8299 43.4718
" />
<path d="M-15.8299 43.4718
L-15.8299 42.9004
" />
<path d="M-15.8299 42.9004
L-15.7585 42.7576
" />
<path d="M-15.7585 42.7576
L-15.6156 42.6861
" />
<path d="M-15.6156 42.6861
L-15.3299 42.6861
" />
<path d="M-15.3299 42.6861
L-15.1870 42.7576
" />
<path d="M-15.1870 42.7576
L-15.1156 42.9004
" />
<path d="M-15.1156 42.9004
L-15.1156 43.0433
" />
<path d="M-15.1156 43.0433
L-15.8299 43.1861
" />
<path d="M-13.9013 43.6147
L-14.0442 43.6861
" />
<path d="M-14.0442 43.6861
L-14.3299 43.6861
" />
<path d="M-14.3299 43.6861
L-14.4727 43.6147
" />
<path d="M-14.4727 43.6147
L-14.5442 43.4718
" />
<path d="M-14.5442 43.4718
L-14.5442 42.9004
" />
<path d="M-14.5442 42.9004
L-14.4727 42.7576
" />
<path d="M-14.4727 42.7576
L-14.3299 42.6861
" />
<path d="M-14.3299 42.6861
L-14.0442 42.6861
" />
<path d="M-14.0442 42.6861
L-13.9013 42.7576
" />
<path d="M-13.9013 42.7576
L-13.8299 42.9004
" />
<path d="M-13.8299 42.9004
L-13.8299 43.0433
" />
<path d="M-13.8299 43.0433
L-14.5442 43.1861
" />
<path d="M-13.4013 42.6861
L-12.8299 42.6861
" />
<path d="M-13.1870 42.1861
L-13.1870 43.4718
" />
<path d="M-13.1870 43.4718
L-13.1156 43.6147
" />
<path d="M-13.1156 43.6147
L-12.9727 43.6861
" />
<path d="M-12.9727 43.6861
L-12.8299 43.6861
" />
<path d="M-12.3299 43.5433
L-12.2585 43.6147
" />
<path d="M-12.2585 43.6147
L-12.3299 43.6861
" />
<path d="M-12.3299 43.6861
L-12.4013 43.6147
" />
<path d="M-12.4013 43.6147
L-12.3299 43.5433
" />
<path d="M-12.3299 43.5433
L-12.3299 43.6861
" />
<path d="M-12.3299 42.7576
L-12.2585 42.8290
" />
<path d="M-12.2585 42.8290
L-12.3299 42.9004
" />
<path d="M-12.3299 42.9004
L-12.4013 42.8290
" />
<path d="M-12.4013 42.8290
L-12.3299 42.7576
" />
<path d="M-12.3299 42.7576
L-12.3299 42.9004
" />
</g></g>
<g style="fill:none; 
stroke:#C872AB; stroke-width:0.3000; stroke-opacity:1; 
stroke-linecap:round; stroke-linejoin:round;">
<text x="-19.0000" y="40.7500"
textLength="0.9000" font-size="2.0000" lengthAdjust="spacingAndGlyphs"
text-anchor="start" opacity="0" stroke-opacity="0"></text>
<g class="stroked-text"><desc></desc>
</g></g>
<g style="fill:none; 
stroke:#C872AB; stroke-width:0.1500; stroke-opacity:1; 
stroke-linecap:round; stroke-linejoin:round;">
<text x="-19.0000" y="37.7500"
textLength="0.4500" font-size="2.0000" lengthAdjust="spacingAndGlyphs"
text-anchor="start" opacity="0" stroke-opacity="0"></text>
<g class="stroked-text"><desc></desc>
</g><text x="-19.0000" y="34.7500"
textLength="0.4500" font-size="2.0000" lengthAdjust="spacingAndGlyphs"
text-anchor="start" opacity="0" stroke-opacity="0"></text>
<g class="stroked-text"><desc></desc>
</g><text x="-19.0000" y="31.7500"
textLength="0.4500" font-size="2.0000" lengthAdjust="spacingAndGlyphs"
text-anchor="start" opacity="0" stroke-opacity="0"></text>
<g class="stroked-text"><desc></desc>
</g><text x="-19.0000" y="28.7500"
textLength="0.4500" font-size="2.0000" lengthAdjust="spacingAndGlyphs"
text-anchor="start" opacity="0" stroke-opacity="0"></text>
<g class="stroked-text"><desc></desc>
</g><path d="M0.0000 51.5000
L0.0000 54.5000
" />
<path d="M64.0000 51.5000
L64.0000 58.0000
" />
<path style="fill:#C83434; fill-opacity:1.0000; stroke:none;fill-rule:evenodd;"
d="M 16.3250,30.4200
16.2293,30.4010
16.1482,30.3468
16.0940,30.2657
16.0750,30.1700
16.0750,29.0700
16.0940,28.9743
16.1482,28.8932
16.2293,28.8390
16.3250,28.8200
17.4250,28.8200
17.5207,28.8390
17.6018,28.8932
17.6560,28.9743
17.6750,29.0700
17.6750,30.1700
17.6560,30.2657
17.6018,30.3468
17.5207,30.4010
17.4250,30.4200
Z" /> 
</g>
<g style="fill:#C83434; fill-opacity:1.0000; stroke:none;">
<circle cx="19.4150" cy="29.6200" r="0.8000" /> 
<circle cx="21.9550" cy="29.6200" r="0.8000" /> 
<circle cx="24.4950" cy="29.6200" r="0.8000" /> 
<circle cx="27.0350" cy="29.6200" r="0.8000" /> 
<circle cx="29.5750" cy="29.6200" r="0.8000" /> 
<circle cx="32.1150" cy="29.6200" r="0.8000" /> 
<circle cx="34.6550" cy="29.6200" r="0.8000" /> 
<circle cx="37.1950" cy="29.6200" r="0.8000" /> 
<circle cx="39.7350" cy="29.6200" r="0.8000" /> 
<circle cx="42.2750" cy="29.6200" r="0.8000" /> 
<circle cx="44.8150" cy="29.6200" r="0.8000" /> 
<circle cx="47.3550" cy="29.6200" r="0.8000" /> 
<circle cx="49.8950" cy="29.6200" r="0.8000" /> 
<circle cx="52.4350" cy="29.6200" r="0.8000" /> 
<circle cx="54.9750" cy="29.6200" r="0.8000" /> 
<circle cx="57.5150" cy="29.6200" r="0.8000" /> 
<circle cx="60.0550" cy="29.6200" r="0.8000" /> 
<circle cx="62.5950" cy="29.6200" r="0.8000" /> 
<circle cx="65.1350" cy="29.6200" r="0.8000" /> 
<circle cx="65.1350" cy="14.3800" r="0.8000" /> 
<circle cx="62.5950" cy="14.3800" r="0.8000" /> 
<circle cx="60.0550" cy="14.3800" r="0.8000" /> 
<circle cx="57.5150" cy="14.3800" r="0.8000" /> 
<circle cx="54.9750" cy="14.3800" r="0.8000" /> 
<circle cx="52.4350" cy="14.3800" r="0.8000" /> 
<circle cx="49.8950" cy="14.3800" r="0.8000" /> 
<circle cx="47.3550" cy="14.3800" r="0.8000" /> 
<circle cx="44.8150" cy="14.3800" r="0.8000" /> 
<circle cx="42.2750" cy="14.3800" r="0.8000" /> 
<circle cx="39.7350" cy="14.3800" r="0.8000" /> 
<circle cx="37.1950" cy="14.3800" r="0.8000" /> 
<circle cx="34.6550" cy="14.3800" r="0.8000" /> 
<circle cx="32.1150" cy="14.3800" r="0.8000" /> 
<circle cx="29.5750" cy="14.3800" r="0.8000" /> 
<circle cx="27.0350" cy="14.3800" r="0.8000" /> 
<circle cx="24.4950" cy="14.3800" r="0.8000" /> 
<circle cx="21.9550" cy="14.3800" r="0.8000" /> 
<circle cx="19.4150" cy="14.3800" r="0.8000" /> 
<circle cx="16.8750" cy="14.3800" r="0.8000" /> 
<path style="fill:#C83434; fill-opacity:1.0000; stroke:none;fill-rule:evenodd;"
d="M 35.7700,46.8500
34.0700,46.8500
34.0700,45.1500
35.7700,45.1500
Z" /> 
<circle cx="37.4600" cy="46.0000" r="0.8500" /> 
<circle cx="40.0000" cy="46.0000" r="0.8500" /> 
<circle cx="42.5400" cy="46.0000" r="0.8500" /> 
<circle cx="45.0800" cy="46.0000" r="0.8500" /> 
<path style="fill:#C83434; fill-opacity:1.0000; stroke:none;fill-rule:evenodd;"
d="M 3.8700,61.8500
2.1700,61.8500
2.1700,60.1500
3.8700,60.1500
Z" /> 
<circle cx="5.5600" cy="61.0000" r="0.8500" /> 
<circle cx="8.1000" cy="61.0000" r="0.8500" /> 
<circle cx="10.6400" cy="61.0000" r="0.8500" /> 
<circle cx="13.1800" cy="61.0000" r="0.8500" /> 
<circle cx="15.7200" cy="61.0000" r="0.8500" /> 
<circle cx="18.2600" cy="61.0000" r="0.8500" /> 
<circle cx="20.8000" cy="61.0000" r="0.8500" /> 
<circle cx="23.3400" cy="61.0000" r="0.8500" /> 
<circle cx="25.8800" cy="61.0000" r="0.8500" /> 
<circle cx="85.5000" cy="42.0000" r="0.8000" /> 
<circle cx="90.5000" cy="42.0000" r="0.8000" /> 
<path style="fill:#C83434; fill-opacity:1.0000; stroke:none;fill-rule:evenodd;"
d="M 76.5800,22.6100
76.5800,21.0100
78.1800,21.0100
78.1800,22.6100
Z" /> 
<circle cx="92.6200" cy="21.8100" r="0.8000" /> 
<circle cx="92.6200" cy="14.1900" r="0.8000" /> 
<circle cx="77.3800" cy="14.1900" r="0.8000" /> 
<circle cx="63.5000" cy="36.0000" r="0.8000" /> 
<circle cx="68.5000" cy="36.0000" r="0.8000" /> 
<path style="fill:#C83434; fill-opacity:1.0000; stroke:none;fill-rule:evenodd;"
d="M 2.5900,66.8500
0.8900,66.8500
0.8900,65.1500
2.5900,65.1500
Z" /> 
<circle cx="4.2800" cy="66.0000" r="0.8500" /> 
<circle cx="6.8200" cy="66.0000" r="0.8500" /> 
<circle cx="9.3600" cy="66.0000" r="0.8500" /> 
<circle cx="11.9000" cy="66.0000" r="0.8500" /> 
<circle cx="14.4400" cy="66.0000" r="0.8500" /> 
<circle cx="16.9800" cy="66.0000" r="0.8500" /> 
<circle cx="19.5200" cy="66.0000" r="0.8500" /> 
<circle cx="22.0600" cy="66.0000" r="0.8500" /> 
<circle cx="24.6000" cy="66.0000" r="0.8500" /> 
<circle cx="27.1400" cy="66.0000" r="0.8500" /> 
<circle cx="29.6800" cy="66.0000" r="0.8500" /> 
<circle cx="32.2200" cy="66.0000" r="0.8500" /> 
<circle cx="34.7600" cy="66.0000" r="0.8500" /> 
<circle cx="37.3000" cy="66.0000" r="0.8500" /> 
<circle cx="39.8400" cy="66.0000" r="0.8500" /> 
<circle cx="42.3800" cy="66.0000" r="0.8500" /> 
<circle cx="44.9200" cy="66.0000" r="0.8500" /> 
<circle cx="47.4600" cy="66.0000" r="0.8500" /> 
<circle cx="50.0000" cy="66.0000" r="0.8500" /> 
<circle cx="52.5400" cy="66.0000" r="0.8500" /> 
<circle cx="55.0800" cy="66.0000" r="0.8500" /> 
<circle cx="57.6200" cy="66.0000" r="0.8500" /> 
<circle cx="60.1600" cy="66.0000" r="0.8500" /> 
<circle cx="62.7000" cy="66.0000" r="0.8500" /> 
<circle cx="65.2400" cy="66.0000" r="0.8500" /> 
<circle cx="67.7800" cy="66.0000" r="0.8500" /> 
<circle cx="70.3200" cy="66.0000" r="0.8500" /> 
<circle cx="72.8600" cy="66.0000" r="0.8500" /> 
<circle cx="75.4000" cy="66.0000" r="0.8500" /> 
<circle cx="77.9400" cy="66.0000" r="0.8500" /> 
<circle cx="80.4800" cy="66.0000" r="0.8500" /> 
<circle cx="83.0200" cy="66.0000" r="0.8500" /> 
<circle cx="85.5600" cy="66.0000" r="0.8500" /> 
<circle cx="88.1000" cy="66.0000" r="0.8500" /> 
<circle cx="90.6400" cy="66.0000" r="0.8500" /> 
<circle cx="93.1800" cy="66.0000" r="0.8500" /> 
<circle cx="95.7200" cy="66.0000" r="0.8500" /> 
<circle cx="98.2600" cy="66.0000" r="0.8500" /> 
<circle cx="17.3313" cy="58.6980" r="0.3000" /> 
<circle cx="48.1930" cy="44.8448" r="0.3000" /> 
<circle cx="30.4107" cy="47.5142" r="0.3000" /> 
<circle cx="69.1708" cy="32.6183" r="0.3000" /> 
<circle cx="35.6827" cy="50.8151" r="0.3000" /> 
<circle cx="37.2163" cy="44.2111" r="0.3000" /> 
<circle cx="68.5272" cy="31.1007" r="0.3000" /> 
<circle cx="62.8507" cy="55.1217" r="0.3000" /> 
<circle cx="63.2038" cy="33.1245" r="0.3000" /> 
<circle cx="65.7553" cy="28.2888" r="0.3000" /> 
<circle cx="45.5801" cy="39.3875" r="0.3000" /> 
<circle cx="19.9233" cy="22.9102" r="0.3000" /> 
<circle cx="63.0472" cy="49.0752" r="0.3000" /> 
<circle cx="36.7407" cy="26.0498" r="0.3000" /> 
<circle cx="27.7025" cy="31.2475" r="0.3000" /> 
<circle cx="28.9205" cy="33.5375" r="0.3000" /> 
<circle cx="26.5597" cy="28.3098" r="0.3000" /> 
<circle cx="28.9205" cy="64.5307" r="0.3000" /> 
</g>
<g style="fill:none; 
stroke:#C83434; stroke-width:0.2000; stroke-opacity:1; 
stroke-linecap:round; stroke-linejoin:round;">
<path d="M12.0283 61.2417
L12.0283 60.4627
" />
<path d="M6.8200 66.0000
L7.2700 66.0000
" />
<path d="M13.7930 58.6980
L17.3313 58.6980
" />
<path d="M7.2700 66.0000
L12.0283 61.2417
" />
<path d="M12.0283 60.4627
L13.7930 58.6980
" />
<path d="M36.0717 45.7121
L36.9390 44.8448
" />
<path d="M83.3702 23.4398
L35.7552 23.4398
" />
<path d="M34.9200 46.0000
L31.9249 46.0000
" />
<path d="M36.9390 44.8448
L48.1930 44.8448
" />
<path d="M34.9200 46.0000
L36.0717 46.0000
" />
<path d="M36.0717 46.0000
L36.0717 45.7121
" />
<path d="M31.9249 46.0000
L30.4107 47.5142
" />
<path d="M92.6200 14.1900
L83.3702 23.4398
" />
<path d="M35.7552 23.4398
L29.5750 29.6200
" />
<path d="M32.1150 29.6200
L34.8899 26.8451
" />
<path d="M69.1708 29.5269
L69.1708 32.6183
" />
<path d="M34.8899 26.8451
L66.4890 26.8451
" />
<path d="M66.4890 26.8451
L69.1708 29.5269
" />
<path d="M75.4000 66.0000
L60.2151 50.8151
" />
<path d="M60.2151 50.8151
L35.6827 50.8151
" />
<path d="M80.4800 65.6571
L59.0340 44.2111
" />
<path d="M59.0340 44.2111
L37.2163 44.2111
" />
<path d="M80.4800 66.0000
L80.4800 65.6571
" />
<path d="M42.1054 27.2496
L66.2308 27.2496
" />
<path d="M66.2308 27.2496
L68.5272 29.5460
" />
<path d="M68.5272 29.5460
L68.5272 31.1007
" />
<path d="M39.7350 29.6200
L42.1054 27.2496
" />
<path d="M24.5025 59.8375
L44.9200 59.8375
" />
<path d="M66.3736 28.0522
L66.3736 33.1264
" />
<path d="M44.9200 59.8375
L58.1349 59.8375
" />
<path d="M23.3400 61.0000
L24.5025 59.8375
" />
<path d="M44.2259 27.6691
L65.9905 27.6691
" />
<path d="M44.9200 59.8375
L44.9200 66.0000
" />
<path d="M85.5000 42.0000
L69.5000 42.0000
" />
<path d="M58.1349 59.8375
L62.8507 55.1217
" />
<path d="M69.5000 42.0000
L63.5000 36.0000
" />
<path d="M66.3736 33.1264
L63.5000 36.0000
" />
<path d="M42.2750 29.6200
L44.2259 27.6691
" />
<path d="M65.9905 27.6691
L66.3736 28.0522
" />
<path d="M61.3250 31.2457
L63.2038 33.1245
" />
<path d="M48.4835 29.4735
L49.4797 28.4773
" />
<path d="M49.4797 28.4773
L60.5418 28.4773
" />
<path d="M48.4835 30.1069
L48.4835 29.4735
" />
<path d="M60.5418 28.4773
L61.3250 29.2605
" />
<path d="M44.8150 29.6200
L45.9432 30.7482
" />
<path d="M61.3250 29.2605
L61.3250 31.2457
" />
<path d="M47.8422 30.7482
L48.4835 30.1069
" />
<path d="M45.9432 30.7482
L47.8422 30.7482
" />
<path d="M48.8994 28.0756
L65.5421 28.0756
" />
<path d="M65.5421 28.0756
L65.7553 28.2888
" />
<path d="M47.3550 29.6200
L48.8994 28.0756
" />
<path d="M34.8050 31.7550
L55.3800 31.7550
" />
<path d="M55.3800 31.7550
L57.5150 29.6200
" />
<path d="M5.5600 61.0000
L34.8050 31.7550
" />
<path d="M15.8802 61.0000
L35.4576 41.4226
" />
<path d="M48.2524 41.4226
L60.0550 29.6200
" />
<path d="M15.7200 61.0000
L15.8802 61.0000
" />
<path d="M35.4576 41.4226
L48.2524 41.4226
" />
<path d="M32.2525 39.3875
L10.6400 61.0000
" />
<path d="M45.5801 39.3875
L32.2525 39.3875
" />
<path d="M54.9750 14.3800
L46.4448 22.9102
" />
<path d="M46.4448 22.9102
L19.9233 22.9102
" />
<path d="M29.1750 48.4285
L17.1083 60.4952
" />
<path d="M40.0000 46.0000
L37.5715 48.4285
" />
<path d="M37.5715 48.4285
L29.1750 48.4285
" />
<path d="M17.1083 60.4952
L17.1083 61.2756
" />
<path d="M14.3745 62.1945
L13.1800 61.0000
" />
<path d="M16.1894 62.1945
L14.3745 62.1945
" />
<path d="M17.1083 61.2756
L16.1894 62.1945
" />
<path d="M68.5000 36.0000
L84.5000 36.0000
" />
<path d="M63.0472 49.0752
L48.1552 49.0752
" />
<path d="M84.5000 36.0000
L90.5000 42.0000
" />
<path d="M25.8800 61.0000
L37.3800 61.0000
" />
<path d="M48.1552 49.0752
L45.0800 46.0000
" />
<path d="M37.3800 61.0000
L42.3800 66.0000
" />
<path d="M30.7493 29.4245
L34.1240 26.0498
" />
<path d="M29.5135 31.2475
L30.7493 30.0117
" />
<path d="M27.7025 31.2475
L29.5135 31.2475
" />
<path d="M34.1240 26.0498
L36.7407 26.0498
" />
<path d="M30.7493 30.0117
L30.7493 29.4245
" />
<path d="M28.9205 33.5375
L25.8940 30.5110
" />
<path d="M24.6000 66.0000
L26.0693 64.5307
" />
<path d="M25.8940 28.9755
L26.5597 28.3098
" />
<path d="M26.0693 64.5307
L28.9205 64.5307
" />
<path d="M25.8940 30.5110
L25.8940 28.9755
" />
<path style="fill:#4D7FC4; fill-opacity:1.0000; stroke:none;fill-rule:evenodd;"
d="M 16.3250,30.4200
16.2293,30.4010
16.1482,30.3468
16.0940,30.2657
16.0750,30.1700
16.0750,29.0700
16.0940,28.9743
16.1482,28.8932
16.2293,28.8390
16.3250,28.8200
17.4250,28.8200
17.5207,28.8390
17.6018,28.8932
17.6560,28.9743
17.6750,29.0700
17.6750,30.1700
17.6560,30.2657
17.6018,30.3468
17.5207,30.4010
17.4250,30.4200
Z" /> 
</g>
<g style="fill:#4D7FC4; fill-opacity:1.0000; stroke:none;">
<circle cx="19.4150" cy="29.6200" r="0.8000" /> 
<circle cx="21.9550" cy="29.6200" r="0.8000" /> 
<circle cx="24.4950" cy="29.6200" r="0.8000" /> 
<circle cx="27.0350" cy="29.6200" r="0.8000" /> 
<circle cx="29.5750" cy="29.6200" r="0.8000" /> 
<circle cx="32.1150" cy="29.6200" r="0.8000" /> 
<circle cx="34.6550" cy="29.6200" r="0.8000" /> 
<circle cx="37.1950" cy="29.6200" r="0.8000" /> 
<circle cx="39.7350" cy="29.6200" r="0.8000" /> 
<circle cx="42.2750" cy="29.6200" r="0.8000" /> 
<circle cx="44.8150" cy="29.6200" r="0.8000" /> 
<circle cx="47.3550" cy="29.6200" r="0.8000" /> 
<circle cx="49.8950" cy="29.6200" r="0.8000" /> 
<circle cx="52.4350" cy="29.6200" r="0.8000" /> 
<circle cx="54.9750" cy="29.6200" r="0.8000" /> 
<circle cx="57.5150" cy="29.6200" r="0.8000" /> 
<circle cx="60.0550" cy="29.6200" r="0.8000" /> 
<circle cx="62.5950" cy="29.6200" r="0.8000" /> 
<circle cx="65.1350" cy="29.6200" r="0.8000" /> 
<circle cx="65.1350" cy="14.3800" r="0.8000" /> 
<circle cx="62.5950" cy="14.3800" r="0.8000" /> 
<circle cx="60.0550" cy="14.3800" r="0.8000" /> 
<circle cx="57.5150" cy="14.3800" r="0.8000" /> 
<circle cx="54.9750" cy="14.3800" r="0.8000" /> 
<circle cx="52.4350" cy="14.3800" r="0.8000" /> 
<circle cx="49.8950" cy="14.3800" r="0.8000" /> 
<circle cx="47.3550" cy="14.3800" r="0.8000" /> 
<circle cx="44.8150" cy="14.3800" r="0.8000" /> 
<circle cx="42.2750" cy="14.3800" r="0.8000" /> 
<circle cx="39.7350" cy="14.3800" r="0.8000" /> 
<circle cx="37.1950" cy="14.3800" r="0.8000" /> 
<circle cx="34.6550" cy="14.3800" r="0.8000" /> 
<circle cx="32.1150" cy="14.3800" r="0.8000" /> 
<circle cx="29.5750" cy="14.3800" r="0.8000" /> 
<circle cx="27.0350" cy="14.3800" r="0.8000" /> 
<circle cx="24.4950" cy="14.3800" r="0.8000" /> 
<circle cx="21.9550" cy="14.3800" r="0.8000" /> 
<circle cx="19.4150" cy="14.3800" r="0.8000" /> 
<circle cx="16.8750" cy="14.3800" r="0.8000" /> 
<path style="fill:#4D7FC4; fill-opacity:1.0000; stroke:none;fill-rule:evenodd;"
d="M 35.7700,46.8500
34.0700,46.8500
34.0700,45.1500
35.7700,45.1500
Z" /> 
<circle cx="37.4600" cy="46.0000" r="0.8500" /> 
<circle cx="40.0000" cy="46.0000" r="0.8500" /> 
<circle cx="42.5400" cy="46.0000" r="0.8500" /> 
<circle cx="45.0800" cy="46.0000" r="0.8500" /> 
<path style="fill:#4D7FC4; fill-opacity:1.0000; stroke:none;fill-rule:evenodd;"
d="M 3.8700,61.8500
2.1700,61.8500
2.1700,60.1500
3.8700,60.1500
Z" /> 
<circle cx="5.5600" cy="61.0000" r="0.8500" /> 
<circle cx="8.1000" cy="61.0000" r="0.8500" /> 
<circle cx="10.6400" cy="61.0000" r="0.8500" /> 
<circle cx="13.1800" cy="61.0000" r="0.8500" /> 
<circle cx="15.7200" cy="61.0000" r="0.8500" /> 
<circle cx="18.2600" cy="61.0000" r="0.8500" /> 
<circle cx="20.8000" cy="61.0000" r="0.8500" /> 
<circle cx="23.3400" cy="61.0000" r="0.8500" /> 
<circle cx="25.8800" cy="61.0000" r="0.8500" /> 
<circle cx="85.5000" cy="42.0000" r="0.8000" /> 
<circle cx="90.5000" cy="42.0000" r="0.8000" /> 
<path style="fill:#4D7FC4; fill-opacity:1.0000; stroke:none;fill-rule:evenodd;"
d="M 76.5800,22.6100
76.5800,21.0100
78.1800,21.0100
78.1800,22.6100
Z" /> 
<circle cx="92.6200" cy="21.8100" r="0.8000" /> 
<circle cx="92.6200" cy="14.1900" r="0.8000" /> 
<circle cx="77.3800" cy="14.1900" r="0.8000" /> 
<circle cx="63.5000" cy="36.0000" r="0.8000" /> 
<circle cx="68.5000" cy="36.0000" r="0.8000" /> 
<path style="fill:#4D7FC4; fill-opacity:1.0000; stroke:none;fill-rule:evenodd;"
d="M 2.5900,66.8500
0.8900,66.8500
0.8900,65.1500
2.5900,65.1500
Z" /> 
<circle cx="4.2800" cy="66.0000" r="0.8500" /> 
<circle cx="6.8200" cy="66.0000" r="0.8500" /> 
<circle cx="9.3600" cy="66.0000" r="0.8500" /> 
<circle cx="11.9000" cy="66.0000" r="0.8500" /> 
<circle cx="14.4400" cy="66.0000" r="0.8500" /> 
<circle cx="16.9800" cy="66.0000" r="0.8500" /> 
<circle cx="19.5200" cy="66.0000" r="0.8500" /> 
<circle cx="22.0600" cy="66.0000" r="0.8500" /> 
<circle cx="24.6000" cy="66.0000" r="0.8500" /> 
<circle cx="27.1400" cy="66.0000" r="0.8500" /> 
<circle cx="29.6800" cy="66.0000" r="0.8500" /> 
<circle cx="32.2200" cy="66.0000" r="0.8500" /> 
<circle cx="34.7600" cy="66.0000" r="0.8500" /> 
<circle cx="37.3000" cy="66.0000" r="0.8500" /> 
<circle cx="39.8400" cy="66.0000" r="0.8500" /> 
<circle cx="42.3800" cy="66.0000" r="0.8500" /> 
<circle cx="44.9200" cy="66.0000" r="0.8500" /> 
<circle cx="47.4600" cy="66.0000" r="0.8500" /> 
<circle cx="50.0000" cy="66.0000" r="0.8500" /> 
<circle cx="52.5400" cy="66.0000" r="0.8500" /> 
<circle cx="55.0800" cy="66.0000" r="0.8500" /> 
<circle cx="57.6200" cy="66.0000" r="0.8500" /> 
<circle cx="60.1600" cy="66.0000" r="0.8500" /> 
<circle cx="62.7000" cy="66.0000" r="0.8500" /> 
<circle cx="65.2400" cy="66.0000" r="0.8500" /> 
<circle cx="67.7800" cy="66.0000" r="0.8500" /> 
<circle cx="70.3200" cy="66.0000" r="0.8500" /> 
<circle cx="72.8600" cy="66.0000" r="0.8500" /> 
<circle cx="75.4000" cy="66.0000" r="0.8500" /> 
<circle cx="77.9400" cy="66.0000" r="0.8500" /> 
<circle cx="80.4800" cy="66.0000" r="0.8500" /> 
<circle cx="83.0200" cy="66.0000" r="0.8500" /> 
<circle cx="85.5600" cy="66.0000" r="0.8500" /> 
<circle cx="88.1000" cy="66.0000" r="0.8500" /> 
<circle cx="90.6400" cy="66.0000" r="0.8500" /> 
<circle cx="93.1800" cy="66.0000" r="0.8500" /> 
<circle cx="95.7200" cy="66.0000" r="0.8500" /> 
<circle cx="98.2600" cy="66.0000" r="0.8500" /> 
<circle cx="17.3313" cy="58.6980" r="0.3000" /> 
<circle cx="48.1930" cy="44.8448" r="0.3000" /> 
<circle cx="30.4107" cy="47.5142" r="0.3000" /> 
<circle cx="69.1708" cy="32.6183" r="0.3000" /> 
<circle cx="35.6827" cy="50.8151" r="0.3000" /> 
<circle cx="37.2163" cy="44.2111" r="0.3000" /> 
<circle cx="68.5272" cy="31.1007" r="0.3000" /> 
<circle cx="62.8507" cy="55.1217" r="0.3000" /> 
<circle cx="63.2038" cy="33.1245" r="0.3000" /> 
<circle cx="65.7553" cy="28.2888" r="0.3000" /> 
<circle cx="45.5801" cy="39.3875" r="0.3000" /> 
<circle cx="19.9233" cy="22.9102" r="0.3000" /> 
<circle cx="63.0472" cy="49.0752" r="0.3000" /> 
<circle cx="36.7407" cy="26.0498" r="0.3000" /> 
<circle cx="27.7025" cy="31.2475" r="0.3000" /> 
<circle cx="28.9205" cy="33.5375" r="0.3000" /> 
<circle cx="26.5597" cy="28.3098" r="0.3000" /> 
<circle cx="28.9205" cy="64.5307" r="0.3000" /> 
</g>
<g style="fill:none; 
stroke:#4D7FC4; stroke-width:0.2000; stroke-opacity:1; 
stroke-linecap:round; stroke-linejoin:round;">
<path d="M11.9000 66.0000
L11.9000 34.5950
" />
<path d="M11.9000 34.5950
L16.8750 29.6200
" />
<path d="M19.4150 29.6200
L14.4500 34.5850
" />
<path d="M13.1700 64.3819
L13.1700 66.4143
" />
<path d="M10.5666 67.2066
L9.3600 66.0000
" />
<path d="M13.1700 66.4143
L12.3777 67.2066
" />
<path d="M14.4500 34.5850
L14.4500 63.1019
" />
<path d="M14.4500 63.1019
L13.1700 64.3819
" />
<path d="M12.3777 67.2066
L10.5666 67.2066
" />
<path d="M17.3313 58.6980
L17.3313 34.2437
" />
<path d="M17.3313 34.2437
L21.9550 29.6200
" />
<path d="M19.1404 68.0588
L6.3388 68.0588
" />
<path d="M24.4950 29.6200
L24.0933 30.0217
" />
<path d="M22.1384 63.0335
L20.7900 64.3819
" />
<path d="M20.7900 66.4092
L19.1404 68.0588
" />
<path d="M24.0933 30.0217
L24.0933 31.4299
" />
<path d="M22.1384 33.3848
L22.1384 63.0335
" />
<path d="M20.7900 64.3819
L20.7900 66.4092
" />
<path d="M6.3388 68.0588
L4.2800 66.0000
" />
<path d="M24.0933 31.4299
L22.1384 33.3848
" />
<path d="M21.2702 68.4690
L5.0728 68.4690
" />
<path d="M1.7400 66.0000
L2.8917 66.0000
" />
<path d="M27.0350 29.6200
L27.0350 61.9131
" />
<path d="M27.0350 61.9131
L23.4483 65.4998
" />
<path d="M23.4483 66.2909
L21.2702 68.4690
" />
<path d="M5.0728 68.4690
L2.8917 66.2879
" />
<path d="M23.4483 65.4998
L23.4483 66.2909
" />
<path d="M2.8917 66.2879
L2.8917 66.0000
" />
<path d="M30.4107 47.5142
L29.5750 46.6785
" />
<path d="M29.5750 46.6785
L29.5750 29.6200
" />
<path d="M48.1930 44.8448
L52.5400 49.1918
" />
<path d="M52.5400 49.1918
L52.5400 66.0000
" />
<path d="M77.9400 66.0000
L77.9400 41.3875
" />
<path d="M77.9400 41.3875
L69.1708 32.6183
" />
<path d="M33.7683 30.5067
L33.7683 48.9007
" />
<path d="M33.7683 48.9007
L35.6827 50.8151
" />
<path d="M34.6550 29.6200
L33.7683 30.5067
" />
<path d="M37.1950 29.6200
L37.1950 44.1898
" />
<path d="M37.1950 44.1898
L37.2163 44.2111
" />
<path d="M83.0200 45.5935
L68.5272 31.1007
" />
<path d="M83.0200 66.0000
L83.0200 45.5935
" />
<path d="M77.3800 14.1900
L85.5000 22.3100
" />
<path d="M62.3974 54.6684
L62.8507 55.1217
" />
<path d="M85.5000 22.3100
L85.5000 42.0000
" />
<path d="M62.3974 46.5323
L62.3974 54.6684
" />
<path d="M63.5000 45.4297
L62.3974 46.5323
" />
<path d="M63.5000 36.0000
L63.5000 45.4297
" />
<path d="M61.9957 46.1658
L61.9957 55.1357
" />
<path d="M63.2038 33.1245
L62.3974 33.9309
" />
<path d="M61.9957 55.1357
L72.8600 66.0000
" />
<path d="M62.3974 33.9309
L62.3974 45.7641
" />
<path d="M62.3974 45.7641
L61.9957 46.1658
" />
<path d="M66.5896 28.2888
L65.7553 28.2888
" />
<path d="M85.5600 66.0000
L85.5600 47.2592
" />
<path d="M85.5600 47.2592
L66.5896 28.2888
" />
<path d="M49.8950 29.6200
L49.8950 34.2157
" />
<path d="M51.2211 66.3303
L52.9310 68.0402
" />
<path d="M44.9556 43.6788
L51.2211 49.9443
" />
<path d="M49.8950 34.2157
L44.9556 39.1551
" />
<path d="M51.2211 49.9443
L51.2211 66.3303
" />
<path d="M65.7398 68.0402
L67.7800 66.0000
" />
<path d="M44.9556 39.1551
L44.9556 43.6788
" />
<path d="M52.9310 68.0402
L65.7398 68.0402
" />
<path d="M53.8748 31.0598
L52.4350 29.6200
" />
<path d="M70.3200 66.0000
L69.1213 64.8013
" />
<path d="M66.3917 65.7530
L66.3917 66.5367
" />
<path d="M69.1213 64.8013
L67.3434 64.8013
" />
<path d="M67.3434 64.8013
L66.3917 65.7530
" />
<path d="M66.3917 66.5367
L65.2899 67.6385
" />
<path d="M53.8748 66.4674
L53.8748 31.0598
" />
<path d="M55.0459 67.6385
L53.8748 66.4674
" />
<path d="M65.2899 67.6385
L55.0459 67.6385
" />
<path d="M54.9750 65.8950
L54.9750 29.6200
" />
<path d="M55.0800 66.0000
L54.9750 65.8950
" />
<path d="M61.5940 30.6210
L61.5940 32.7271
" />
<path d="M61.3117 64.3664
L61.3117 66.5428
" />
<path d="M61.3117 66.5428
L60.6229 67.2316
" />
<path d="M61.5940 32.7271
L61.1923 33.1288
" />
<path d="M61.1923 45.2652
L60.7906 45.6669
" />
<path d="M60.7906 45.6669
L60.7906 63.8453
" />
<path d="M60.7906 63.8453
L61.3117 64.3664
" />
<path d="M58.8516 67.2316
L57.6200 66.0000
" />
<path d="M60.6229 67.2316
L58.8516 67.2316
" />
<path d="M61.1923 33.1288
L61.1923 45.2652
" />
<path d="M62.5950 29.6200
L61.5940 30.6210
" />
<path d="M64.1238 31.4747
L63.9824 31.4747
" />
<path d="M61.9957 33.4614
L61.9957 45.5978
" />
<path d="M65.1350 30.4635
L64.1238 31.4747
" />
<path d="M61.5940 45.9995
L61.5940 56.6550
" />
<path d="M61.9957 45.5978
L61.5940 45.9995
" />
<path d="M63.9824 31.4747
L61.9957 33.4614
" />
<path d="M61.5940 56.6550
L65.2400 60.3010
" />
<path d="M65.2400 60.3010
L65.2400 66.0000
" />
<path d="M65.1350 29.6200
L65.1350 30.4635
" />
<path d="M63.8650 15.6500
L63.8650 31.0241
" />
<path d="M61.5940 45.4315
L61.1923 45.8332
" />
<path d="M65.1350 14.3800
L63.8650 15.6500
" />
<path d="M62.7000 58.4289
L62.7000 66.0000
" />
<path d="M61.1923 56.9212
L62.7000 58.4289
" />
<path d="M61.1923 45.8332
L61.1923 56.9212
" />
<path d="M61.5940 33.2951
L61.5940 45.4315
" />
<path d="M63.8650 31.0241
L61.5940 33.2951
" />
<path d="M60.1600 33.5931
L60.1600 66.0000
" />
<path d="M62.5950 14.3800
L61.1923 15.7827
" />
<path d="M61.1923 15.7827
L61.1923 32.5608
" />
<path d="M61.1923 32.5608
L60.1600 33.5931
" />
<path d="M51.1650 23.2700
L60.0550 14.3800
" />
<path d="M51.1650 33.8026
L51.1650 23.2700
" />
<path d="M45.5801 39.3875
L51.1650 33.8026
" />
<path d="M57.5150 14.3800
L55.5698 12.4348
" />
<path d="M17.2092 12.4348
L3.0200 26.6240
" />
<path d="M3.0200 26.6240
L3.0200 61.0000
" />
<path d="M55.5698 12.4348
L17.2092 12.4348
" />
<path d="M8.1000 34.7335
L19.9233 22.9102
" />
<path d="M8.1000 61.0000
L8.1000 34.7335
" />
<path d="M50.0000 66.0000
L48.7383 64.7383
" />
<path d="M42.5400 46.0000
L42.5400 40.5940
" />
<path d="M48.7383 64.7383
L48.7383 48.0295
" />
<path d="M45.3985 44.6897
L43.8503 44.6897
" />
<path d="M43.8503 44.6897
L42.5400 46.0000
" />
<path d="M48.7383 48.0295
L45.3985 44.6897
" />
<path d="M42.5400 40.5940
L48.6250 34.5090
" />
<path d="M48.6250 34.5090
L48.6250 18.1900
" />
<path d="M48.6250 18.1900
L52.4350 14.3800
" />
<path d="M42.2534 12.8365
L48.3515 12.8365
" />
<path d="M40.8638 16.1368
L40.8638 14.2261
" />
<path d="M41.2655 16.5385
L40.8638 16.1368
" />
<path d="M37.4600 46.0000
L37.4600 63.6202
" />
<path d="M38.6883 64.8485
L38.6883 66.5276
" />
<path d="M38.4007 30.7187
L38.4007 19.8189
" />
<path d="M37.8180 45.6420
L37.8180 31.3014
" />
<path d="M48.3515 12.8365
L49.8950 14.3800
" />
<path d="M40.8638 14.2261
L42.2534 12.8365
" />
<path d="M37.8180 31.3014
L38.4007 30.7187
" />
<path d="M38.4007 19.8189
L41.2655 16.9541
" />
<path d="M39.3605 67.1998
L46.2602 67.1998
" />
<path d="M37.4600 46.0000
L37.8180 45.6420
" />
<path d="M37.4600 63.6202
L38.6883 64.8485
" />
<path d="M41.2655 16.9541
L41.2655 16.5385
" />
<path d="M46.2602 67.1998
L47.4600 66.0000
" />
<path d="M38.6883 66.5276
L39.3605 67.1998
" />
<path d="M47.3550 14.3800
L46.2533 13.2783
" />
<path d="M44.3587 13.2783
L43.7042 13.9328
" />
<path d="M43.7042 13.9328
L43.7042 37.5096
" />
<path d="M46.2533 13.2783
L44.3587 13.2783
" />
<path d="M43.7042 37.5096
L40.0000 41.2138
" />
<path d="M40.0000 41.2138
L40.0000 46.0000
" />
<path d="M41.3683 46.4740
L41.3683 40.4537
" />
<path d="M68.5000 43.6224
L63.0472 49.0752
" />
<path d="M92.6200 21.8100
L90.5000 23.9300
" />
<path d="M43.9283 47.1517
L42.0460 47.1517
" />
<path d="M90.5000 23.9300
L90.5000 42.0000
" />
<path d="M45.0800 63.3000
L45.0800 46.0000
" />
<path d="M45.0800 46.0000
L43.9283 47.1517
" />
<path d="M45.9167 15.4817
L44.8150 14.3800
" />
<path d="M42.3800 66.0000
L45.0800 63.3000
" />
<path d="M68.5000 36.0000
L68.5000 43.6224
" />
<path d="M41.3683 40.4537
L45.9167 35.9053
" />
<path d="M42.0460 47.1517
L41.3683 46.4740
" />
<path d="M45.9167 35.9053
L45.9167 15.4817
" />
<path d="M42.2750 16.5126
L42.2750 14.3800
" />
<path d="M39.8400 66.0000
L39.8400 65.4320
" />
<path d="M41.0051 34.3372
L41.0051 17.7825
" />
<path d="M39.8400 65.4320
L38.7995 64.3915
" />
<path d="M38.7995 36.5428
L41.0051 34.3372
" />
<path d="M38.7995 64.3915
L38.7995 36.5428
" />
<path d="M41.0051 17.7825
L42.2750 16.5126
" />
<path d="M38.3007 19.2509
L36.7407 20.8109
" />
<path d="M40.8638 16.7048
L40.8638 16.7878
" />
<path d="M26.6568 67.1588
L25.9683 66.4703
" />
<path d="M40.5637 16.5048
L40.6638 16.5048
" />
<path d="M37.3000 66.0000
L36.1412 67.1588
" />
<path d="M40.8638 16.7878
L38.4007 19.2509
" />
<path d="M36.1412 67.1588
L26.6568 67.1588
" />
<path d="M27.7025 63.2557
L27.7025 31.2475
" />
<path d="M25.9683 64.9899
L27.7025 63.2557
" />
<path d="M39.7350 14.3800
L39.7350 15.6761
" />
<path d="M40.6638 16.5048
L40.8638 16.7048
" />
<path d="M25.9683 66.4703
L25.9683 64.9899
" />
<path d="M39.7350 15.6761
L40.5637 16.5048
" />
<path d="M36.7407 20.8109
L36.7407 26.0498
" />
<path d="M38.4007 19.2509
L38.3007 19.2509
" />
<path d="M36.2948 30.6849
L36.0392 30.4293
" />
<path d="M34.7600 66.0000
L36.2948 64.4652
" />
<path d="M36.0392 15.5358
L37.1950 14.3800
" />
<path d="M36.2948 64.4652
L36.2948 30.6849
" />
<path d="M36.0392 30.4293
L36.0392 15.5358
" />
<path d="M33.3000 15.7350
L34.6550 14.3800
" />
<path d="M32.2200 66.0000
L33.3000 64.9200
" />
<path d="M33.3000 64.9200
L33.3000 15.7350
" />
<path d="M31.0124 64.6676
L31.0124 15.4826
" />
<path d="M29.6800 66.0000
L31.0124 64.6676
" />
<path d="M31.0124 15.4826
L32.1150 14.3800
" />
<path d="M29.5750 14.3800
L28.3188 15.6362
" />
<path d="M28.3188 15.6362
L28.3188 64.8212
" />
<path d="M28.3188 64.8212
L27.1400 66.0000
" />
<path d="M28.9205 64.5307
L28.9205 33.5375
" />
<path d="M27.0350 14.3800
L27.0350 27.8345
" />
<path d="M27.0350 27.8345
L26.5597 28.3098
" />
<path d="M24.4950 14.3800
L25.6064 15.4914
" />
<path d="M25.6064 30.2007
L24.6000 31.2071
" />
<path d="M24.6000 31.2071
L24.6000 63.4600
" />
<path d="M25.6064 15.4914
L25.6064 30.2007
" />
<path d="M24.6000 63.4600
L22.0600 66.0000
" />
<path d="M19.5200 66.0000
L19.5200 34.9892
" />
<path d="M19.5200 34.9892
L23.0587 31.4505
" />
<path d="M23.0587 15.4837
L21.9550 14.3800
" />
<path d="M23.0587 31.4505
L23.0587 15.4837
" />
<path d="M20.5327 15.4977
L20.5327 30.3023
" />
<path d="M16.7296 34.1054
L16.7296 58.9471
" />
<path d="M19.4150 14.3800
L20.5327 15.4977
" />
<path d="M20.5327 30.3023
L16.7296 34.1054
" />
<path d="M16.7296 58.9471
L16.9800 59.1975
" />
<path d="M16.9800 59.1975
L16.9800 66.0000
" />
<path d="M6.9342 63.2061
L6.9342 24.3208
" />
<path d="M6.9342 24.3208
L16.8750 14.3800
" />
<path d="M12.8230 67.6170
L9.3190 67.6170
" />
<path d="M9.3190 67.6170
L8.0900 66.3880
" />
<path d="M8.0900 66.3880
L8.0900 64.3619
" />
<path d="M8.0900 64.3619
L6.9342 63.2061
" />
<path d="M14.4400 66.0000
L12.8230 67.6170
" />
</g>
<g style="fill:none; 
stroke:#D0D2CD; stroke-width:0.1500; stroke-opacity:1; 
stroke-linecap:round; stroke-linejoin:round;">
<path d="M0.0000 0.0000
L100.0000 0.0000
" />
<path d="M0.0000 70.0000
L0.0000 0.0000
" />
<path d="M100.0000 0.0000
L100.0000 70.0000
" />
<path d="M100.0000 70.0000
L0.0000 70.0000
" />
</g>
<g style="fill:#FFFFFF; fill-opacity:1.0000; stroke:none;">
<circle cx="17.3313" cy="58.6980" r="0.1500" /> 
<circle cx="48.1930" cy="44.8448" r="0.1500" /> 
<circle cx="30.4107" cy="47.5142" r="0.1500" /> 
<circle cx="69.1708" cy="32.6183" r="0.1500" /> 
<circle cx="35.6827" cy="50.8151" r="0.1500" /> 
<circle cx="37.2163" cy="44.2111" r="0.1500" /> 
<circle cx="68.5272" cy="31.1007" r="0.1500" /> 
<circle cx="62.8507" cy="55.1217" r="0.1500" /> 
<circle cx="63.2038" cy="33.1245" r="0.1500" /> 
<circle cx="65.7553" cy="28.2888" r="0.1500" /> 
<circle cx="45.5801" cy="39.3875" r="0.1500" /> 
<circle cx="19.9233" cy="22.9102" r="0.1500" /> 
<circle cx="63.0472" cy="49.0752" r="0.1500" /> 
<circle cx="36.7407" cy="26.0498" r="0.1500" /> 
<circle cx="27.7025" cy="31.2475" r="0.1500" /> 
<circle cx="28.9205" cy="33.5375" r="0.1500" /> 
<circle cx="26.5597" cy="28.3098" r="0.1500" /> 
<circle cx="28.9205" cy="64.5307" r="0.1500" /> 
</g>
<g style="fill:#FFFFFF; fill-opacity:1.0000; stroke:none;">
<circle cx="16.8750" cy="29.6200" r="0.4000" /> 
</g>
<g style="fill:#FFFFFF; fill-opacity:1.0000; stroke:none;">
<circle cx="19.4150" cy="29.6200" r="0.4000" /> 
</g>
<g style="fill:#FFFFFF; fill-opacity:1.0000; stroke:none;">
<circle cx="21.9550" cy="29.6200" r="0.4000" /> 
</g>
<g style="fill:#FFFFFF; fill-opacity:1.0000; stroke:none;">
<circle cx="24.4950" cy="29.6200" r="0.4000" /> 
</g>
<g style="fill:#FFFFFF; fill-opacity:1.0000; stroke:none;">
<circle cx="27.0350" cy="29.6200" r="0.4000" /> 
</g>
<g style="fill:#FFFFFF; fill-opacity:1.0000; stroke:none;">
<circle cx="29.5750" cy="29.6200" r="0.4000" /> 
</g>
<g style="fill:#FFFFFF; fill-opacity:1.0000; stroke:none;">
<circle cx="32.1150" cy="29.6200" r="0.4000" /> 
</g>
<g style="fill:#FFFFFF; fill-opacity:1.0000; stroke:none;">
<circle cx="34.6550" cy="29.6200" r="0.4000" /> 
</g>
<g style="fill:#FFFFFF; fill-opacity:1.0000; stroke:none;">
<circle cx="37.1950" cy="29.6200" r="0.4000" /> 
</g>
<g style="fill:#FFFFFF; fill-opacity:1.0000; stroke:none;">
<circle cx="39.7350" cy="29.6200" r="0.4000" /> 
</g>
<g style="fill:#FFFFFF; fill-opacity:1.0000; stroke:none;">
<circle cx="42.2750" cy="29.6200" r="0.4000" /> 
</g>
<g style="fill:#FFFFFF; fill-opacity:1.0000; stroke:none;">
<circle cx="44.8150" cy="29.6200" r="0.4000" /> 
</g>
<g style="fill:#FFFFFF; fill-opacity:1.0000; stroke:none;">
<circle cx="47.3550" cy="29.6200" r="0.4000" /> 
</g>
<g style="fill:#FFFFFF; fill-opacity:1.0000; stroke:none;">
<circle cx="49.8950" cy="29.6200" r="0.4000" /> 
</g>
<g style="fill:#FFFFFF; fill-opacity:1.0000; stroke:none;">
<circle cx="52.4350" cy="29.6200" r="0.4000" /> 
</g>
<g style="fill:#FFFFFF; fill-opacity:1.0000; stroke:none;">
<circle cx="54.9750" cy="29.6200" r="0.4000" /> 
</g>
<g style="fill:#FFFFFF; fill-opacity:1.0000; stroke:none;">
<circle cx="57.5150" cy="29.6200" r="0.4000" /> 
</g>
<g style="fill:#FFFFFF; fill-opacity:1.0000; stroke:none;">
<circle cx="60.0550" cy="29.6200" r="0.4000" /> 
</g>
<g style="fill:#FFFFFF; fill-opacity:1.0000; stroke:none;">
<circle cx="62.5950" cy="29.6200" r="0.4000" /> 
</g>
<g style="fill:#FFFFFF; fill-opacity:1.0000; stroke:none;">
<circle cx="65.1350" cy="29.6200" r="0.4000" /> 
</g>
<g style="fill:#FFFFFF; fill-opacity:1.0000; stroke:none;">
<circle cx="65.1350" cy="14.3800" r="0.4000" /> 
</g>
<g style="fill:#FFFFFF; fill-opacity:1.0000; stroke:none;">
<circle cx="62.5950" cy="14.3800" r="0.4000" /> 
</g>
<g style="fill:#FFFFFF; fill-opacity:1.0000; stroke:none;">
<circle cx="60.0550" cy="14.3800" r="0.4000" /> 
</g>
<g style="fill:#FFFFFF; fill-opacity:1.0000; stroke:none;">
<circle cx="57.5150" cy="14.3800" r="0.4000" /> 
</g>
<g style="fill:#FFFFFF; fill-opacity:1.0000; stroke:none;">
<circle cx="54.9750" cy="14.3800" r="0.4000" /> 
</g>
<g style="fill:#FFFFFF; fill-opacity:1.0000; stroke:none;">
<circle cx="52.4350" cy="14.3800" r="0.4000" /> 
</g>
<g style="fill:#FFFFFF; fill-opacity:1.0000; stroke:none;">
<circle cx="49.8950" cy="14.3800" r="0.4000" /> 
</g>
<g style="fill:#FFFFFF; fill-opacity:1.0000; stroke:none;">
<circle cx="47.3550" cy="14.3800" r="0.4000" /> 
</g>
<g style="fill:#FFFFFF; fill-opacity:1.0000; stroke:none;">
<circle cx="44.8150" cy="14.3800" r="0.4000" /> 
</g>
<g style="fill:#FFFFFF; fill-opacity:1.0000; stroke:none;">
<circle cx="42.2750" cy="14.3800" r="0.4000" /> 
</g>
<g style="fill:#FFFFFF; fill-opacity:1.0000; stroke:none;">
<circle cx="39.7350" cy="14.3800" r="0.4000" /> 
</g>
<g style="fill:#FFFFFF; fill-opacity:1.0000; stroke:none;">
<circle cx="37.1950" cy="14.3800" r="0.4000" /> 
</g>
<g style="fill:#FFFFFF; fill-opacity:1.0000; stroke:none;">
<circle cx="34.6550" cy="14.3800" r="0.4000" /> 
</g>
<g style="fill:#FFFFFF; fill-opacity:1.0000; stroke:none;">
<circle cx="32.1150" cy="14.3800" r="0.4000" /> 
</g>
<g style="fill:#FFFFFF; fill-opacity:1.0000; stroke:none;">
<circle cx="29.5750" cy="14.3800" r="0.4000" /> 
</g>
<g style="fill:#FFFFFF; fill-opacity:1.0000; stroke:none;">
<circle cx="27.0350" cy="14.3800" r="0.4000" /> 
</g>
<g style="fill:#FFFFFF; fill-opacity:1.0000; stroke:none;">
<circle cx="24.4950" cy="14.3800" r="0.4000" /> 
</g>
<g style="fill:#FFFFFF; fill-opacity:1.0000; stroke:none;">
<circle cx="21.9550" cy="14.3800" r="0.4000" /> 
</g>
<g style="fill:#FFFFFF; fill-opacity:1.0000; stroke:none;">
<circle cx="19.4150" cy="14.3800" r="0.4000" /> 
</g>
<g style="fill:#FFFFFF; fill-opacity:1.0000; stroke:none;">
<circle cx="16.8750" cy="14.3800" r="0.4000" /> 
</g>
<g style="fill:#FFFFFF; fill-opacity:1.0000; stroke:none;">
<circle cx="34.9200" cy="46.0000" r="0.5000" /> 
</g>
<g style="fill:#FFFFFF; fill-opacity:1.0000; stroke:none;">
<circle cx="37.4600" cy="46.0000" r="0.5000" /> 
</g>
<g style="fill:#FFFFFF; fill-opacity:1.0000; stroke:none;">
<circle cx="40.0000" cy="46.0000" r="0.5000" /> 
</g>
<g style="fill:#FFFFFF; fill-opacity:1.0000; stroke:none;">
<circle cx="42.5400" cy="46.0000" r="0.5000" /> 
</g>
<g style="fill:#FFFFFF; fill-opacity:1.0000; stroke:none;">
<circle cx="45.0800" cy="46.0000" r="0.5000" /> 
</g>
<g style="fill:#FFFFFF; fill-opacity:1.0000; stroke:none;">
<circle cx="3.0200" cy="61.0000" r="0.5000" /> 
</g>
<g style="fill:#FFFFFF; fill-opacity:1.0000; stroke:none;">
<circle cx="5.5600" cy="61.0000" r="0.5000" /> 
</g>
<g style="fill:#FFFFFF; fill-opacity:1.0000; stroke:none;">
<circle cx="8.1000" cy="61.0000" r="0.5000" /> 
</g>
<g style="fill:#FFFFFF; fill-opacity:1.0000; stroke:none;">
<circle cx="10.6400" cy="61.0000" r="0.5000" /> 
</g>
<g style="fill:#FFFFFF; fill-opacity:1.0000; stroke:none;">
<circle cx="13.1800" cy="61.0000" r="0.5000" /> 
</g>
<g style="fill:#FFFFFF; fill-opacity:1.0000; stroke:none;">
<circle cx="15.7200" cy="61.0000" r="0.5000" /> 
</g>
<g style="fill:#FFFFFF; fill-opacity:1.0000; stroke:none;">
<circle cx="18.2600" cy="61.0000" r="0.5000" /> 
</g>
<g style="fill:#FFFFFF; fill-opacity:1.0000; stroke:none;">
<circle cx="20.8000" cy="61.0000" r="0.5000" /> 
</g>
<g style="fill:#FFFFFF; fill-opacity:1.0000; stroke:none;">
<circle cx="23.3400" cy="61.0000" r="0.5000" /> 
</g>
<g style="fill:#FFFFFF; fill-opacity:1.0000; stroke:none;">
<circle cx="25.8800" cy="61.0000" r="0.5000" /> 
</g>
<g style="fill:#FFFFFF; fill-opacity:1.0000; stroke:none;">
<circle cx="85.5000" cy="42.0000" r="0.4000" /> 
</g>
<g style="fill:#FFFFFF; fill-opacity:1.0000; stroke:none;">
<circle cx="90.5000" cy="42.0000" r="0.4000" /> 
</g>
<g style="fill:#FFFFFF; fill-opacity:1.0000; stroke:none;">
<circle cx="77.3800" cy="21.8100" r="0.4000" /> 
</g>
<g style="fill:#FFFFFF; fill-opacity:1.0000; stroke:none;">
<circle cx="92.6200" cy="21.8100" r="0.4000" /> 
</g>
<g style="fill:#FFFFFF; fill-opacity:1.0000; stroke:none;">
<circle cx="92.6200" cy="14.1900" r="0.4000" /> 
</g>
<g style="fill:#FFFFFF; fill-opacity:1.0000; stroke:none;">
<circle cx="77.3800" cy="14.1900" r="0.4000" /> 
</g>
<g style="fill:#FFFFFF; fill-opacity:1.0000; stroke:none;">
<circle cx="63.5000" cy="36.0000" r="0.4000" /> 
</g>
<g style="fill:#FFFFFF; fill-opacity:1.0000; stroke:none;">
<circle cx="68.5000" cy="36.0000" r="0.4000" /> 
</g>
<g style="fill:#FFFFFF; fill-opacity:1.0000; stroke:none;">
<circle cx="1.7400" cy="66.0000" r="0.5000" /> 
</g>
<g style="fill:#FFFFFF; fill-opacity:1.0000; stroke:none;">
<circle cx="4.2800" cy="66.0000" r="0.5000" /> 
</g>
<g style="fill:#FFFFFF; fill-opacity:1.0000; stroke:none;">
<circle cx="6.8200" cy="66.0000" r="0.5000" /> 
</g>
<g style="fill:#FFFFFF; fill-opacity:1.0000; stroke:none;">
<circle cx="9.3600" cy="66.0000" r="0.5000" /> 
</g>
<g style="fill:#FFFFFF; fill-opacity:1.0000; stroke:none;">
<circle cx="11.9000" cy="66.0000" r="0.5000" /> 
</g>
<g style="fill:#FFFFFF; fill-opacity:1.0000; stroke:none;">
<circle cx="14.4400" cy="66.0000" r="0.5000" /> 
</g>
<g style="fill:#FFFFFF; fill-opacity:1.0000; stroke:none;">
<circle cx="16.9800" cy="66.0000" r="0.5000" /> 
</g>
<g style="fill:#FFFFFF; fill-opacity:1.0000; stroke:none;">
<circle cx="19.5200" cy="66.0000" r="0.5000" /> 
</g>
<g style="fill:#FFFFFF; fill-opacity:1.0000; stroke:none;">
<circle cx="22.0600" cy="66.0000" r="0.5000" /> 
</g>
<g style="fill:#FFFFFF; fill-opacity:1.0000; stroke:none;">
<circle cx="24.6000" cy="66.0000" r="0.5000" /> 
</g>
<g style="fill:#FFFFFF; fill-opacity:1.0000; stroke:none;">
<circle cx="27.1400" cy="66.0000" r="0.5000" /> 
</g>
<g style="fill:#FFFFFF; fill-opacity:1.0000; stroke:none;">
<circle cx="29.6800" cy="66.0000" r="0.5000" /> 
</g>
<g style="fill:#FFFFFF; fill-opacity:1.0000; stroke:none;">
<circle cx="32.2200" cy="66.0000" r="0.5000" /> 
</g>
<g style="fill:#FFFFFF; fill-opacity:1.0000; stroke:none;">
<circle cx="34.7600" cy="66.0000" r="0.5000" /> 
</g>
<g style="fill:#FFFFFF; fill-opacity:1.0000; stroke:none;">
<circle cx="37.3000" cy="66.0000" r="0.5000" /> 
</g>
<g style="fill:#FFFFFF; fill-opacity:1.0000; stroke:none;">
<circle cx="39.8400" cy="66.0000" r="0.5000" /> 
</g>
<g style="fill:#FFFFFF; fill-opacity:1.0000; stroke:none;">
<circle cx="42.3800" cy="66.0000" r="0.5000" /> 
</g>
<g style="fill:#FFFFFF; fill-opacity:1.0000; stroke:none;">
<circle cx="44.9200" cy="66.0000" r="0.5000" /> 
</g>
<g style="fill:#FFFFFF; fill-opacity:1.0000; stroke:none;">
<circle cx="47.4600" cy="66.0000" r="0.5000" /> 
</g>
<g style="fill:#FFFFFF; fill-opacity:1.0000; stroke:none;">
<circle cx="50.0000" cy="66.0000" r="0.5000" /> 
</g>
<g style="fill:#FFFFFF; fill-opacity:1.0000; stroke:none;">
<circle cx="52.5400" cy="66.0000" r="0.5000" /> 
</g>
<g style="fill:#FFFFFF; fill-opacity:1.0000; stroke:none;">
<circle cx="55.0800" cy="66.0000" r="0.5000" /> 
</g>
<g style="fill:#FFFFFF; fill-opacity:1.0000; stroke:none;">
<circle cx="57.6200" cy="66.0000" r="0.5000" /> 
</g>
<g style="fill:#FFFFFF; fill-opacity:1.0000; stroke:none;">
<circle cx="60.1600" cy="66.0000" r="0.5000" /> 
</g>
<g style="fill:#FFFFFF; fill-opacity:1.0000; stroke:none;">
<circle cx="62.7000" cy="66.0000" r="0.5000" /> 
</g>
<g style="fill:#FFFFFF; fill-opacity:1.0000; stroke:none;">
<circle cx="65.2400" cy="66.0000" r="0.5000" /> 
</g>
<g style="fill:#FFFFFF; fill-opacity:1.0000; stroke:none;">
<circle cx="67.7800" cy="66.0000" r="0.5000" /> 
</g>
<g style="fill:#FFFFFF; fill-opacity:1.0000; stroke:none;">
<circle cx="70.3200" cy="66.0000" r="0.5000" /> 
</g>
<g style="fill:#FFFFFF; fill-opacity:1.0000; stroke:none;">
<circle cx="72.8600" cy="66.0000" r="0.5000" /> 
</g>
<g style="fill:#FFFFFF; fill-opacity:1.0000; stroke:none;">
<circle cx="75.4000" cy="66.0000" r="0.5000" /> 
</g>
<g style="fill:#FFFFFF; fill-opacity:1.0000; stroke:none;">
<circle cx="77.9400" cy="66.0000" r="0.5000" /> 
</g>
<g style="fill:#FFFFFF; fill-opacity:1.0000; stroke:none;">
<circle cx="80.4800" cy="66.0000" r="0.5000" /> 
</g>
<g style="fill:#FFFFFF; fill-opacity:1.0000; stroke:none;">
<circle cx="83.0200" cy="66.0000" r="0.5000" /> 
</g>
<g style="fill:#FFFFFF; fill-opacity:1.0000; stroke:none;">
<circle cx="85.5600" cy="66.0000" r="0.5000" /> 
</g>
<g style="fill:#FFFFFF; fill-opacity:1.0000; stroke:none;">
<circle cx="88.1000" cy="66.0000" r="0.5000" /> 
</g>
<g style="fill:#FFFFFF; fill-opacity:1.0000; stroke:none;">
<circle cx="90.6400" cy="66.0000" r="0.5000" /> 
</g>
<g style="fill:#FFFFFF; fill-opacity:1.0000; stroke:none;">
<circle cx="93.1800" cy="66.0000" r="0.5000" /> 
</g>
<g style="fill:#FFFFFF; fill-opacity:1.0000; stroke:none;">
<circle cx="95.7200" cy="66.0000" r="0.5000" /> 
</g>
<g style="fill:#FFFFFF; fill-opacity:1.0000; stroke:none;">
<circle cx="98.2600" cy="66.0000" r="0.5000" /> 
</g> 
</svg>
