<?xml version="1.0" standalone="no"?>
 <!DOCTYPE svg PUBLIC "-//W3C//DTD SVG 1.1//EN"
 "http://www.w3.org/Graphics/SVG/1.1/DTD/svg11.dtd">
<svg
  xmlns:svg="http://www.w3.org/2000/svg"
  xmlns="http://www.w3.org/2000/svg"
  xmlns:xlink="http://www.w3.org/1999/xlink"
  xmlns:inkscape="http://www.inkscape.org/namespaces/inkscape"
  version="1.1"
  width="99.9998mm" height="69.9770mm" viewBox="0.0000 0.0000 99.9998 69.9770">
<title>SVG Image created as cpu-top.svg</title>
  <desc>Image generated by PCBNEW </desc>
<g style="fill:#000000; fill-opacity:1.0000;stroke:#000000; stroke-opacity:1.0000;
stroke-linecap:round; stroke-linejoin:round;"
 transform="translate(0 0) scale(1 1)">
</g>
<g style="fill:#C83434; fill-opacity:1.0000; stroke:none;">
<circle cx="85.5000" cy="42.0000" r="0.8000" />
<circle cx="90.5000" cy="42.0000" r="0.8000" />
<path style="fill:#C83434; fill-opacity:1.0000; stroke:none;fill-rule:evenodd;"
d="M 76.5800,22.6100
76.5800,21.0100
78.1800,21.0100
78.1800,22.6100
Z" />
<circle cx="92.6200" cy="21.8100" r="0.8000" />
<circle cx="92.6200" cy="14.1900" r="0.8000" />
<circle cx="77.3800" cy="14.1900" r="0.8000" />
<path style="fill:#C83434; fill-opacity:1.0000; stroke:none;fill-rule:evenodd;"
d="M 35.7700,46.8500
34.0700,46.8500
34.0700,45.1500
35.7700,45.1500
Z" />
<circle cx="37.4600" cy="46.0000" r="0.8500" />
<circle cx="40.0000" cy="46.0000" r="0.8500" />
<circle cx="42.5400" cy="46.0000" r="0.8500" />
<circle cx="45.0800" cy="46.0000" r="0.8500" />
<path style="fill:#C83434; fill-opacity:1.0000; stroke:none;fill-rule:evenodd;"
d="M 14.3250,30.4200
14.2293,30.4010
14.1482,30.3468
14.0940,30.2657
14.0750,30.1700
14.0750,29.0700
14.0940,28.9743
14.1482,28.8932
14.2293,28.8390
14.3250,28.8200
15.4250,28.8200
15.5207,28.8390
15.6018,28.8932
15.6560,28.9743
15.6750,29.0700
15.6750,30.1700
15.6560,30.2657
15.6018,30.3468
15.5207,30.4010
15.4250,30.4200
Z" />
<circle cx="17.4150" cy="29.6200" r="0.8000" />
<circle cx="19.9550" cy="29.6200" r="0.8000" />
<circle cx="22.4950" cy="29.6200" r="0.8000" />
<circle cx="25.0350" cy="29.6200" r="0.8000" />
<circle cx="27.5750" cy="29.6200" r="0.8000" />
<circle cx="30.1150" cy="29.6200" r="0.8000" />
<circle cx="32.6550" cy="29.6200" r="0.8000" />
<circle cx="35.1950" cy="29.6200" r="0.8000" />
<circle cx="37.7350" cy="29.6200" r="0.8000" />
<circle cx="40.2750" cy="29.6200" r="0.8000" />
<circle cx="42.8150" cy="29.6200" r="0.8000" />
<circle cx="45.3550" cy="29.6200" r="0.8000" />
<circle cx="47.8950" cy="29.6200" r="0.8000" />
<circle cx="50.4350" cy="29.6200" r="0.8000" />
<circle cx="52.9750" cy="29.6200" r="0.8000" />
<circle cx="55.5150" cy="29.6200" r="0.8000" />
<circle cx="58.0550" cy="29.6200" r="0.8000" />
<circle cx="60.5950" cy="29.6200" r="0.8000" />
<circle cx="63.1350" cy="29.6200" r="0.8000" />
<circle cx="63.1350" cy="14.3800" r="0.8000" />
<circle cx="60.5950" cy="14.3800" r="0.8000" />
<circle cx="58.0550" cy="14.3800" r="0.8000" />
<circle cx="55.5150" cy="14.3800" r="0.8000" />
<circle cx="52.9750" cy="14.3800" r="0.8000" />
<circle cx="50.4350" cy="14.3800" r="0.8000" />
<circle cx="47.8950" cy="14.3800" r="0.8000" />
<circle cx="45.3550" cy="14.3800" r="0.8000" />
<circle cx="42.8150" cy="14.3800" r="0.8000" />
<circle cx="40.2750" cy="14.3800" r="0.8000" />
<circle cx="37.7350" cy="14.3800" r="0.8000" />
<circle cx="35.1950" cy="14.3800" r="0.8000" />
<circle cx="32.6550" cy="14.3800" r="0.8000" />
<circle cx="30.1150" cy="14.3800" r="0.8000" />
<circle cx="27.5750" cy="14.3800" r="0.8000" />
<circle cx="25.0350" cy="14.3800" r="0.8000" />
<circle cx="22.4950" cy="14.3800" r="0.8000" />
<circle cx="19.9550" cy="14.3800" r="0.8000" />
<circle cx="17.4150" cy="14.3800" r="0.8000" />
<circle cx="14.8750" cy="14.3800" r="0.8000" />
<circle cx="63.5000" cy="36.0000" r="0.8000" />
<circle cx="68.5000" cy="36.0000" r="0.8000" />
<path style="fill:#C83434; fill-opacity:1.0000; stroke:none;fill-rule:evenodd;"
d="M 97.4100,65.1500
99.1100,65.1500
99.1100,66.8500
97.4100,66.8500
Z" />
<circle cx="95.7200" cy="66.0000" r="0.8500" />
<circle cx="93.1800" cy="66.0000" r="0.8500" />
<circle cx="90.6400" cy="66.0000" r="0.8500" />
<circle cx="88.1000" cy="66.0000" r="0.8500" />
<circle cx="85.5600" cy="66.0000" r="0.8500" />
<circle cx="83.0200" cy="66.0000" r="0.8500" />
<circle cx="80.4800" cy="66.0000" r="0.8500" />
<circle cx="77.9400" cy="66.0000" r="0.8500" />
<circle cx="75.4000" cy="66.0000" r="0.8500" />
<circle cx="72.8600" cy="66.0000" r="0.8500" />
<circle cx="70.3200" cy="66.0000" r="0.8500" />
<circle cx="67.7800" cy="66.0000" r="0.8500" />
<circle cx="65.2400" cy="66.0000" r="0.8500" />
<circle cx="62.7000" cy="66.0000" r="0.8500" />
<circle cx="60.1600" cy="66.0000" r="0.8500" />
<circle cx="57.6200" cy="66.0000" r="0.8500" />
<circle cx="55.0800" cy="66.0000" r="0.8500" />
<circle cx="52.5400" cy="66.0000" r="0.8500" />
<circle cx="50.0000" cy="66.0000" r="0.8500" />
<circle cx="47.4600" cy="66.0000" r="0.8500" />
<circle cx="44.9200" cy="66.0000" r="0.8500" />
<circle cx="42.3800" cy="66.0000" r="0.8500" />
<circle cx="39.8400" cy="66.0000" r="0.8500" />
<circle cx="37.3000" cy="66.0000" r="0.8500" />
<circle cx="34.7600" cy="66.0000" r="0.8500" />
<circle cx="32.2200" cy="66.0000" r="0.8500" />
<circle cx="29.6800" cy="66.0000" r="0.8500" />
<circle cx="27.1400" cy="66.0000" r="0.8500" />
<circle cx="24.6000" cy="66.0000" r="0.8500" />
<circle cx="22.0600" cy="66.0000" r="0.8500" />
<circle cx="19.5200" cy="66.0000" r="0.8500" />
<circle cx="16.9800" cy="66.0000" r="0.8500" />
<circle cx="14.4400" cy="66.0000" r="0.8500" />
<circle cx="11.9000" cy="66.0000" r="0.8500" />
<circle cx="9.3600" cy="66.0000" r="0.8500" />
<circle cx="6.8200" cy="66.0000" r="0.8500" />
<circle cx="4.2800" cy="66.0000" r="0.8500" />
<circle cx="1.7400" cy="66.0000" r="0.8500" />
<path style="fill:#C83434; fill-opacity:1.0000; stroke:none;fill-rule:evenodd;"
d="M 2.1700,60.1500
3.8700,60.1500
3.8700,61.8500
2.1700,61.8500
Z" />
<circle cx="5.5600" cy="61.0000" r="0.8500" />
<circle cx="8.1000" cy="61.0000" r="0.8500" />
<circle cx="10.6400" cy="61.0000" r="0.8500" />
<circle cx="13.1800" cy="61.0000" r="0.8500" />
<circle cx="15.7200" cy="61.0000" r="0.8500" />
<circle cx="18.2600" cy="61.0000" r="0.8500" />
<circle cx="20.8000" cy="61.0000" r="0.8500" />
<circle cx="23.3400" cy="61.0000" r="0.8500" />
<circle cx="25.8800" cy="61.0000" r="0.8500" />
<circle cx="57.3685" cy="46.4564" r="0.3000" />
<circle cx="29.5476" cy="63.5189" r="0.3000" />
<circle cx="26.6489" cy="33.2446" r="0.3000" />
<circle cx="38.9092" cy="60.0339" r="0.3000" />
<circle cx="23.8230" cy="50.3430" r="0.3000" />
<circle cx="49.0714" cy="15.5086" r="0.3000" />
<circle cx="39.8137" cy="61.4248" r="0.3000" />
<circle cx="25.9445" cy="62.6584" r="0.3000" />
<circle cx="43.4126" cy="62.0848" r="0.3000" />
<circle cx="53.6022" cy="50.2521" r="0.3000" />
<circle cx="54.3040" cy="51.0875" r="0.3000" />
<circle cx="55.0386" cy="20.3360" r="0.3000" />
<circle cx="50.3756" cy="22.0271" r="0.3000" />
<circle cx="15.6049" cy="20.5542" r="0.3000" />
<circle cx="15.2942" cy="12.3664" r="0.3000" />
<circle cx="15.5924" cy="16.3533" r="0.3000" />
<circle cx="71.0077" cy="62.7572" r="0.3000" />
<circle cx="53.9474" cy="16.0923" r="0.3000" />
<circle cx="51.4389" cy="16.1073" r="0.3000" />
<circle cx="54.0003" cy="16.9694" r="0.3000" />
<circle cx="54.3859" cy="17.7194" r="0.3000" />
<circle cx="21.8237" cy="55.2991" r="0.3000" />
<circle cx="21.8135" cy="56.4564" r="0.3000" />
<circle cx="21.7785" cy="59.0305" r="0.3000" />
</g>
<g style="fill:none;
stroke:#C83434; stroke-width:0.2000; stroke-opacity:1;
stroke-linecap:round; stroke-linejoin:round;">
<path d="M24.9078 59.4322
L48.5122 59.4322
" />
<path d="M69.5000 42.0000
L85.5000 42.0000
" />
<path d="M46.6550 36.0000
L63.5000 36.0000
" />
<path d="M40.2750 29.6200
L46.6550 36.0000
" />
<path d="M63.5000 36.0000
L69.5000 42.0000
" />
<path d="M23.3400 61.0000
L24.9078 59.4322
" />
<path d="M48.5122 59.4322
L55.0800 66.0000
" />
<path d="M84.5000 36.0000
L90.5000 42.0000
" />
<path d="M46.4641 60.8106
L26.0694 60.8106
" />
<path d="M51.2700 66.3831
L51.2700 65.6165
" />
<path d="M56.4391 67.1809
L52.0678 67.1809
" />
<path d="M45.0800 46.0000
L45.5364 46.4564
" />
<path d="M52.0678 67.1809
L51.2700 66.3831
" />
<path d="M26.0694 60.8106
L25.8800 61.0000
" />
<path d="M51.2700 65.6165
L46.4641 60.8106
" />
<path d="M45.5364 46.4564
L57.3685 46.4564
" />
<path d="M68.5000 36.0000
L84.5000 36.0000
" />
<path d="M57.6200 66.0000
L56.4391 67.1809
" />
<path d="M28.5106 66.4648
L28.5106 64.5559
" />
<path d="M28.7280 28.4670
L27.5750 29.6200
" />
<path d="M47.4600 66.0000
L46.2910 67.1690
" />
<path d="M46.2910 67.1690
L29.2148 67.1690
" />
<path d="M34.9200 46.0000
L34.9200 44.8483
" />
<path d="M29.2148 67.1690
L28.5106 66.4648
" />
<path d="M34.9200 44.8483
L26.6489 36.5772
" />
<path d="M26.6489 36.5772
L26.6489 33.2446
" />
<path d="M78.3430 28.4670
L28.7280 28.4670
" />
<path d="M28.5106 64.5559
L29.5476 63.5189
" />
<path d="M92.6200 14.1900
L78.3430 28.4670
" />
<path d="M52.5400 66.0000
L46.5739 60.0339
" />
<path d="M46.5739 60.0339
L38.9092 60.0339
" />
<path d="M36.1496 49.8504
L40.0000 46.0000
" />
<path d="M23.8230 50.3570
L23.8230 50.3430
" />
<path d="M24.3156 49.8504
L36.1496 49.8504
" />
<path d="M23.8230 50.3430
L24.3156 49.8504
" />
<path d="M13.1800 61.0000
L23.8230 50.3570
" />
<path d="M50.0000 66.0000
L45.4248 61.4248
" />
<path d="M45.4248 61.4248
L39.8137 61.4248
" />
<path d="M50.2000 14.3800
L49.0714 15.5086
" />
<path d="M50.4350 14.3800
L50.2000 14.3800
" />
<path d="M30.8363 32.6428
L43.8100 45.6165
" />
<path d="M14.8750 29.6200
L17.8978 32.6428
" />
<path d="M43.8100 46.3831
L45.0193 47.5924
" />
<path d="M43.8100 45.6165
L43.8100 46.3831
" />
<path d="M45.0193 47.5924
L69.6924 47.5924
" />
<path d="M69.6924 47.5924
L88.1000 66.0000
" />
<path d="M17.8978 32.6428
L30.8363 32.6428
" />
<path d="M49.8959 45.8547
L36.2823 32.2411
" />
<path d="M70.4947 45.8547
L49.8959 45.8547
" />
<path d="M36.2823 32.2411
L20.0361 32.2411
" />
<path d="M20.0361 32.2411
L17.4150 29.6200
" />
<path d="M90.6400 66.0000
L70.4947 45.8547
" />
<path d="M72.6330 45.4530
L53.4049 45.4530
" />
<path d="M22.1744 31.8394
L19.9550 29.6200
" />
<path d="M93.1800 66.0000
L72.6330 45.4530
" />
<path d="M39.7913 31.8394
L22.1744 31.8394
" />
<path d="M53.4049 45.4530
L39.7913 31.8394
" />
<path d="M74.7713 45.0513
L54.1371 45.0513
" />
<path d="M95.7200 66.0000
L74.7713 45.0513
" />
<path d="M54.1371 45.0513
L40.5235 31.4377
" />
<path d="M24.3127 31.4377
L22.4950 29.6200
" />
<path d="M40.5235 31.4377
L24.3127 31.4377
" />
<path d="M97.1083 65.7121
L75.6233 44.2271
" />
<path d="M98.2600 66.0000
L97.1083 66.0000
" />
<path d="M53.8820 44.2271
L40.3766 30.7217
" />
<path d="M75.6233 44.2271
L53.8820 44.2271
" />
<path d="M40.3766 30.7217
L26.1367 30.7217
" />
<path d="M97.1083 66.0000
L97.1083 65.7121
" />
<path d="M26.1367 30.7217
L25.0350 29.6200
" />
<path d="M22.8616 62.6584
L25.9445 62.6584
" />
<path d="M19.5200 66.0000
L22.8616 62.6584
" />
<path d="M33.5952 62.0848
L43.4126 62.0848
" />
<path d="M29.6800 66.0000
L33.5952 62.0848
" />
<path d="M5.5600 61.0000
L6.7541 62.1941
" />
<path d="M14.3317 61.5087
L14.3317 60.7198
" />
<path d="M24.7994 50.2521
L53.6022 50.2521
" />
<path d="M6.7541 62.1941
L13.6463 62.1941
" />
<path d="M13.6463 62.1941
L14.3317 61.5087
" />
<path d="M14.3317 60.7198
L24.7994 50.2521
" />
<path d="M25.1821 51.0875
L15.7200 60.5496
" />
<path d="M54.3040 51.0875
L25.1821 51.0875
" />
<path d="M15.7200 60.5496
L15.7200 61.0000
" />
<path d="M55.0386 20.3360
L57.1790 20.3360
" />
<path d="M57.1790 20.3360
L63.1350 14.3800
" />
<path d="M60.1438 14.3800
L52.4967 22.0271
" />
<path d="M60.5950 14.3800
L60.1438 14.3800
" />
<path d="M52.4967 22.0271
L50.3756 22.0271
" />
<path d="M58.0550 14.9015
L52.4023 20.5542
" />
<path d="M58.0550 14.3800
L58.0550 14.9015
" />
<path d="M52.4023 20.5542
L15.6049 20.5542
" />
<path d="M53.5014 12.3664
L15.2942 12.3664
" />
<path d="M55.5150 14.3800
L53.5014 12.3664
" />
<path d="M16.1450 15.8007
L16.1450 14.0138
" />
<path d="M16.9297 13.2291
L51.8241 13.2291
" />
<path d="M15.5924 16.3533
L16.1450 15.8007
" />
<path d="M51.8241 13.2291
L52.9750 14.3800
" />
<path d="M16.1450 14.0138
L16.9297 13.2291
" />
<path d="M65.9428 62.7572
L71.0077 62.7572
" />
<path d="M62.7000 66.0000
L65.9428 62.7572
" />
<path d="M51.0187 15.4338
L52.2242 15.4338
" />
<path d="M37.7350 14.3800
L39.4710 16.1160
" />
<path d="M52.2242 15.4338
L52.8827 16.0923
" />
<path d="M50.3365 16.1160
L51.0187 15.4338
" />
<path d="M39.4710 16.1160
L50.3365 16.1160
" />
<path d="M52.8827 16.0923
L53.9474 16.0923
" />
<path d="M50.9785 16.5677
L51.4389 16.1073
" />
<path d="M37.3827 16.5677
L50.9785 16.5677
" />
<path d="M35.1950 14.3800
L37.3827 16.5677
" />
<path d="M35.2444 16.9694
L54.0003 16.9694
" />
<path d="M32.6550 14.3800
L35.2444 16.9694
" />
<path d="M30.9144 17.7194
L54.3859 17.7194
" />
<path d="M27.5750 14.3800
L30.9144 17.7194
" />
<path d="M64.9685 55.2991
L21.8237 55.2991
" />
<path d="M75.4000 65.7306
L64.9685 55.2991
" />
<path d="M75.4000 66.0000
L75.4000 65.7306
" />
<path d="M71.2569 62.1555
L70.7044 62.1555
" />
<path d="M76.7710 67.1690
L74.9378 67.1690
" />
<path d="M74.9378 67.1690
L74.0117 66.2429
" />
<path d="M74.0117 66.2429
L74.0117 65.4628
" />
<path d="M71.6094 63.0605
L71.6094 62.5080
" />
<path d="M77.9400 66.0000
L76.7710 67.1690
" />
<path d="M74.0117 65.4628
L71.6094 63.0605
" />
<path d="M70.7044 62.1555
L65.0053 56.4564
" />
<path d="M65.0053 56.4564
L21.8135 56.4564
" />
<path d="M71.6094 62.5080
L71.2569 62.1555
" />
<path d="M62.5489 67.5707
L83.9893 67.5707
" />
<path d="M83.9893 67.5707
L85.5600 66.0000
" />
<path d="M21.7785 59.0305
L54.8681 59.0305
" />
<path d="M61.3117 65.4741
L61.3117 66.3335
" />
<path d="M54.8681 59.0305
L61.3117 65.4741
" />
<path d="M61.3117 66.3335
L62.5489 67.5707
" />
<path style="fill:#F2EDA1; fill-opacity:1.0000; stroke:none;fill-rule:evenodd;"
d="M 64.2079,53.5723
64.1812,53.6102
64.1611,53.6211
64.1413,53.6245
64.1156,53.6184
64.1002,53.5938
63.8646,52.4810
63.5910,53.5713
63.5822,53.5943
63.5664,53.6112
63.5476,53.6211
63.5254,53.6245
63.4916,53.6112
63.4824,53.5887
63.4855,53.5702
63.8195,52.2382
63.8261,52.2225
63.8426,52.2038
63.8635,52.1901
63.8841,52.1859
63.9086,52.1926
63.9186,52.2017
63.9250,52.2177
64.1607,53.3294
64.4354,52.2392
64.4420,52.2226
64.4584,52.2038
64.4794,52.1901
64.4998,52.1859
64.5179,52.1893
64.5326,52.1993
64.5429,52.2248
64.5409,52.2402
Z" />
<path style="fill:#F2EDA1; fill-opacity:1.0000; stroke:none;fill-rule:evenodd;"
d="M 65.2713,52.1965
65.3356,52.2264
65.3877,52.2761
65.4139,52.3191
65.4295,52.3662
65.4349,52.4185
65.4236,52.4964
65.2187,53.3151
65.1896,53.3948
65.1423,53.4671
65.0747,53.5334
64.9955,53.5850
64.9154,53.6147
64.8323,53.6245
64.7299,53.6245
64.6550,53.6143
64.5921,53.5846
64.5383,53.5344
64.5097,53.4904
64.4928,53.4431
64.4870,53.3910
64.4902,53.3693
64.5972,53.3693
64.6062,53.4162
64.6294,53.4581
64.6639,53.4913
64.7052,53.5111
64.7555,53.5180
64.8580,53.5180
64.9108,53.5118
64.9628,53.4930
65.0152,53.4601
65.0602,53.4177
65.0928,53.3697
65.1141,53.3151
65.3191,52.4954
65.3249,52.4404
65.3163,52.3934
65.2939,52.3519
65.2604,52.3193
65.2184,52.2995
65.1653,52.2925
65.0629,52.2925
65.0089,52.2989
64.9563,52.3182
64.9040,52.3519
64.8594,52.3952
64.8281,52.4423
64.8088,52.4944
64.6028,53.3151
64.5972,53.3693
64.4902,53.3693
64.4983,53.3151
64.7033,52.4944
64.7315,52.4173
64.7782,52.3458
64.8457,52.2787
64.9247,52.2261
65.0050,52.1959
65.0885,52.1859
65.1910,52.1859
Z" />
<path style="fill:#F2EDA1; fill-opacity:1.0000; stroke:none;fill-rule:evenodd;"
d="M 66.6069,52.8018
66.7493,52.2392
66.7560,52.2226
66.7724,52.2038
66.7934,52.1901
66.8139,52.1859
66.8319,52.1893
66.8467,52.1993
66.8569,52.2248
66.8548,52.2402
66.5208,53.5723
66.5120,53.5944
66.4963,53.6112
66.4775,53.6211
66.4552,53.6245
66.4214,53.6112
66.4135,53.5964
66.4153,53.5713
66.5802,52.9083
66.0720,52.9083
65.9050,53.5713
65.8962,53.5942
65.8804,53.6112
65.8616,53.6211
65.8395,53.6245
65.8056,53.6112
65.7964,53.5887
65.7994,53.5702
66.1335,52.2382
66.1401,52.2225
66.1565,52.2038
66.1775,52.1901
66.1980,52.1859
66.2161,52.1893
66.2314,52.1997
66.2398,52.2157
66.2381,52.2392
66.0987,52.8018
Z" />
<path style="fill:#F2EDA1; fill-opacity:1.0000; stroke:none;fill-rule:evenodd;"
d="M 67.5471,52.1965
67.6114,52.2264
67.6636,52.2761
67.6897,52.3191
67.7054,52.3662
67.7108,52.4185
67.6995,52.4964
67.4945,53.3151
67.4654,53.3948
67.4181,53.4671
67.3505,53.5334
67.2714,53.5850
67.1912,53.6147
67.1082,53.6245
67.0058,53.6245
66.9308,53.6143
66.8680,53.5846
66.8142,53.5344
66.7856,53.4904
66.7686,53.4431
66.7629,53.3910
66.7661,53.3693
66.8730,53.3693
66.8821,53.4162
66.9053,53.4581
66.9398,53.4913
66.9810,53.5111
67.0313,53.5180
67.1338,53.5180
67.1866,53.5118
67.2387,53.4930
67.2911,53.4601
67.3361,53.4177
67.3687,53.3697
67.3900,53.3151
67.5950,52.4954
67.6008,52.4404
67.5921,52.3934
67.5698,52.3519
67.5363,52.3193
67.4943,52.2995
67.4412,52.2925
67.3388,52.2925
67.2847,52.2989
67.2321,52.3182
67.1799,52.3519
67.1353,52.3952
67.1040,52.4423
67.0846,52.4944
66.8787,53.3151
66.8730,53.3693
66.7661,53.3693
66.7741,53.3151
66.9791,52.4944
67.0074,52.4173
67.0540,52.3458
67.1215,52.2787
67.2005,52.2261
67.2808,52.1959
67.3644,52.1859
67.4668,52.1859
Z" />
<path style="fill:#F2EDA1; fill-opacity:1.0000; stroke:none;fill-rule:evenodd;"
d="M 68.2339,52.2925
67.9809,52.2925
67.9589,52.2884
67.9450,52.2771
67.9394,52.2597
67.9408,52.2382
67.9613,52.2070
67.9820,52.1911
68.0064,52.1859
68.6223,52.1859
68.6400,52.1897
68.6541,52.2013
68.6643,52.2299
68.6633,52.2402
68.6553,52.2577
68.6402,52.2756
68.6205,52.2882
68.5966,52.2925
68.3415,52.2925
68.0208,53.5713
68.0120,53.5943
67.9962,53.6112
67.9774,53.6211
67.9552,53.6245
67.9214,53.6112
67.9122,53.5887
67.9153,53.5702
Z" />
<path style="fill:#F2EDA1; fill-opacity:1.0000; stroke:none;fill-rule:evenodd;"
d="M 69.0045,53.1634
68.3896,53.1634
68.3675,53.1596
68.3527,53.1491
68.3466,53.1245
68.3487,53.1091
68.3701,53.0773
68.3908,53.0619
68.4153,53.0568
69.0300,53.0568
69.0477,53.0611
69.0628,53.0743
69.0711,53.0999
69.0701,53.1111
69.0628,53.1287
69.0480,53.1466
69.0282,53.1592
Z" />
<path style="fill:#F2EDA1; fill-opacity:1.0000; stroke:none;fill-rule:evenodd;"
d="M 69.9695,52.1974
70.0342,52.2270
70.0869,52.2761
70.1145,52.3231
70.1299,52.3765
70.1320,52.4308
70.1289,52.4636
70.1227,52.4964
70.0705,52.7013
70.0414,52.7810
69.9942,52.8530
69.9270,52.9186
69.8482,52.9696
69.7679,52.9990
69.6842,53.0087
69.3788,53.0087
69.2374,53.5702
69.2286,53.5932
69.2128,53.6102
69.1941,53.6201
69.1718,53.6235
69.1380,53.6102
69.1288,53.5877
69.1319,53.5692
69.2990,52.9021
69.4055,52.9021
69.7098,52.9021
69.7633,52.8959
69.8157,52.8771
69.8681,52.8442
69.9131,52.8019
69.9453,52.7545
69.9660,52.7013
70.0172,52.4954
70.0230,52.4411
70.0145,52.3944
69.9921,52.3530
69.9585,52.3203
69.9165,52.3005
69.8635,52.2935
69.5581,52.2935
69.4055,52.9021
69.2990,52.9021
69.4649,52.2402
69.4781,52.2100
69.4991,52.1930
69.5305,52.1869
69.8892,52.1869
Z" />
<path style="fill:#F2EDA1; fill-opacity:1.0000; stroke:none;fill-rule:evenodd;"
d="M 70.4848,53.6245
70.0749,53.6245
70.0495,53.6201
70.0364,53.6091
70.0319,53.5907
70.0349,53.5702
70.3689,52.2382
70.3755,52.2225
70.3920,52.2038
70.4129,52.1901
70.4335,52.1859
70.4516,52.1893
70.4668,52.1997
70.4753,52.2157
70.4735,52.2392
70.1548,53.5180
70.5103,53.5180
70.5280,53.5218
70.5421,53.5334
70.5524,53.5620
70.5514,53.5723
70.5434,53.5898
70.5283,53.6077
70.5085,53.6203
Z" />
<path style="fill:#F2EDA1; fill-opacity:1.0000; stroke:none;fill-rule:evenodd;"
d="M 71.5055,53.3151
71.4764,53.3948
71.4291,53.4671
71.3615,53.5334
71.2823,53.5850
71.2022,53.6147
71.1191,53.6245
71.0167,53.6245
70.9418,53.6143
70.8789,53.5846
70.8251,53.5344
70.7965,53.4904
70.7796,53.4431
70.7738,53.3910
70.7851,53.3151
71.0536,52.2392
71.0604,52.2227
71.0772,52.2038
71.0986,52.1901
71.1191,52.1859
71.1371,52.1895
71.1519,52.2003
71.1603,52.2165
71.1592,52.2392
70.8896,53.3151
70.8840,53.3693
70.8930,53.4162
70.9163,53.4581
70.9507,53.4913
70.9920,53.5111
71.0423,53.5180
71.1448,53.5180
71.1976,53.5118
71.2496,53.4930
71.3020,53.4601
71.3470,53.4177
71.3796,53.3697
71.4010,53.3151
71.6694,52.2392
71.6762,52.2227
71.6930,52.2038
71.7144,52.1901
71.7350,52.1859
71.7529,52.1895
71.7678,52.2003
71.7770,52.2248
71.7749,52.2392
Z" />
<path style="fill:#F2EDA1; fill-opacity:1.0000; stroke:none;fill-rule:evenodd;"
d="M 72.3851,53.5713
72.3720,53.6015
72.3512,53.6185
72.3205,53.6245
71.9620,53.6245
71.8870,53.6143
71.8241,53.5846
71.7703,53.5344
71.7418,53.4904
71.7248,53.4431
71.7191,53.3910
71.7303,53.3151
71.9353,52.4944
71.9635,52.4173
72.0102,52.3458
72.0777,52.2787
72.1567,52.2261
72.2370,52.1959
72.3205,52.1859
72.6792,52.1859
72.6969,52.1901
72.7120,52.2033
72.7202,52.2289
72.7191,52.2402
72.7120,52.2576
72.6972,52.2756
72.6774,52.2882
72.6536,52.2925
72.2950,52.2925
72.2409,52.2989
72.1883,52.3182
72.1361,52.3519
72.0914,52.3952
72.0601,52.4423
72.0408,52.4944
71.8349,53.3151
71.8292,53.3693
71.8383,53.4162
71.8615,53.4581
71.8959,53.4913
71.9372,53.5111
71.9876,53.5180
72.2929,53.5180
72.4445,52.9083
72.2950,52.9083
72.2731,52.9042
72.2591,52.8929
72.2538,52.8757
72.2561,52.8551
72.2765,52.8223
72.2963,52.8069
72.3205,52.8018
72.5245,52.8018
72.5539,52.8081
72.5661,52.8244
72.5644,52.8551
Z" />
<path style="fill:#F2EDA1; fill-opacity:1.0000; stroke:none;fill-rule:evenodd;"
d="M 90.0660,60.1974
90.1307,60.2270
90.1834,60.2761
90.2110,60.3231
90.2264,60.3765
90.2284,60.4308
90.2253,60.4636
90.2192,60.4964
90.1670,60.7013
90.1378,60.7810
90.0907,60.8530
90.0235,60.9186
89.9447,60.9696
89.8644,60.9990
89.7807,61.0087
89.4753,61.0087
89.3339,61.5702
89.3250,61.5932
89.3093,61.6102
89.2906,61.6201
89.2683,61.6235
89.2345,61.6102
89.2252,61.5877
89.2284,61.5692
89.3955,60.9021
89.5019,60.9021
89.8063,60.9021
89.8598,60.8959
89.9121,60.8771
89.9646,60.8442
90.0095,60.8019
90.0418,60.7545
90.0625,60.7013
90.1137,60.4954
90.1195,60.4411
90.1109,60.3944
90.0886,60.3530
90.0550,60.3203
90.0130,60.3005
89.9600,60.2935
89.6546,60.2935
89.5019,60.9021
89.3955,60.9021
89.5614,60.2402
89.5745,60.2100
89.5956,60.1930
89.6270,60.1869
89.9856,60.1869
Z" />
<path style="fill:#F2EDA1; fill-opacity:1.0000; stroke:none;fill-rule:evenodd;"
d="M 90.3332,61.5723
90.3245,61.5944
90.3087,61.6112
90.2899,61.6211
90.2676,61.6245
90.2338,61.6112
90.2246,61.5887
90.2277,61.5702
90.5617,60.2382
90.5684,60.2225
90.5848,60.2038
90.6058,60.1901
90.6263,60.1859
90.6443,60.1893
90.6591,60.1993
90.6694,60.2248
90.6673,60.2402
Z" />
<path style="fill:#F2EDA1; fill-opacity:1.0000; stroke:none;fill-rule:evenodd;"
d="M 91.3825,61.5723
91.3558,61.6102
91.3357,61.6211
91.3159,61.6245
91.2903,61.6184
91.2749,61.5938
91.0392,60.4810
90.7656,61.5713
90.7568,61.5943
90.7411,61.6112
90.7223,61.6211
90.7000,61.6245
90.6662,61.6112
90.6570,61.5887
90.6601,61.5702
90.9941,60.2382
91.0008,60.2225
91.0172,60.2038
91.0382,60.1901
91.0587,60.1859
91.0833,60.1926
91.0932,60.2017
91.0997,60.2177
91.3353,61.3294
91.6100,60.2392
91.6166,60.2226
91.6330,60.2038
91.6540,60.1901
91.6745,60.1859
91.6925,60.1893
91.7073,60.1993
91.7175,60.2248
91.7155,60.2402
Z" />
<path style="fill:#F2EDA1; fill-opacity:1.0000; stroke:none;fill-rule:evenodd;"
d="M 92.3966,61.5723
92.3880,61.5945
92.3730,61.6112
92.3543,61.6211
92.3320,61.6245
92.2982,61.6112
92.2900,61.5956
92.2911,61.5713
92.5923,60.3672
92.3218,60.5835
92.3016,60.5961
92.2828,60.5999
92.2626,60.5957
92.2480,60.5835
92.2388,60.5578
92.2409,60.5456
92.2654,60.5097
92.6497,60.2013
92.6683,60.1904
92.6887,60.1869
92.7085,60.1903
92.7245,60.2003
92.7327,60.2258
92.7306,60.2392
Z" />
<path style="fill:#F2EDA1; fill-opacity:1.0000; stroke:none;fill-rule:evenodd;"
d="M 93.7508,61.1573
93.1749,61.4145
93.1483,61.4206
93.1298,61.4165
93.1155,61.4042
93.1073,61.3786
93.1093,61.3653
93.1211,61.3443
93.1504,61.3192
93.6196,61.1101
93.2569,60.9021
93.2379,60.8821
93.2385,60.8551
93.2463,60.8335
93.2620,60.8156
93.2823,60.8034
93.3020,60.7996
93.3266,60.8059
93.7754,61.0620
93.7909,61.0769
93.7959,61.0959
93.7918,61.1101
93.7815,61.1348
Z" />
<path style="fill:#F2EDA1; fill-opacity:1.0000; stroke:none;fill-rule:evenodd;"
d="M 37.3392,22.3361
37.3082,22.4211
37.2578,22.4982
37.1857,22.5689
37.1012,22.6240
37.0157,22.6557
36.9272,22.6661
36.8179,22.6661
36.7380,22.6552
36.6709,22.6235
36.6136,22.5700
36.5831,22.5231
36.5650,22.4726
36.5588,22.4170
36.5709,22.3361
36.8572,21.1885
36.8645,21.1709
36.8824,21.1508
36.9052,21.1361
36.9272,21.1316
36.9463,21.1355
36.9621,21.1470
36.9711,21.1642
36.9699,21.1885
36.6823,22.3361
36.6763,22.3939
36.6860,22.4439
36.7108,22.4886
36.7475,22.5241
36.7915,22.5452
36.8452,22.5525
36.9545,22.5525
37.0108,22.5459
37.0663,22.5259
37.1223,22.4908
37.1702,22.4455
37.2050,22.3943
37.2278,22.3361
37.5141,21.1885
37.5214,21.1708
37.5392,21.1508
37.5621,21.1361
37.5841,21.1316
37.6032,21.1355
37.6191,21.1470
37.6289,21.1731
37.6267,21.1885
Z" />
<path style="fill:#F2EDA1; fill-opacity:1.0000; stroke:none;fill-rule:evenodd;"
d="M 37.8742,22.6105
37.8651,22.6341
37.8491,22.6520
37.8291,22.6625
37.8054,22.6661
37.7693,22.6520
37.7605,22.6353
37.7617,22.6094
38.0830,21.3251
37.7944,21.5557
37.7730,21.5691
37.7529,21.5732
37.7314,21.5687
37.7158,21.5557
37.7059,21.5284
37.7082,21.5153
37.7343,21.4770
38.1442,21.1480
38.1640,21.1365
38.1858,21.1327
38.2070,21.1363
38.2240,21.1470
38.2328,21.1742
38.2305,21.1885
Z" />
<path style="fill:#F2EDA1; fill-opacity:1.0000; stroke:none;fill-rule:evenodd;"
d="M 39.7592,21.2125
38.8050,22.5525
39.3723,22.5525
39.3910,22.5570
39.4067,22.5711
39.4157,22.5902
39.4149,22.6094
39.4072,22.6289
39.3914,22.6482
39.3704,22.6616
39.3450,22.6661
38.6881,22.6661
38.6568,22.6616
38.6416,22.6506
38.6367,22.6334
38.6389,22.6202
38.6444,22.6017
38.6476,22.5940
38.6564,22.5853
39.6105,21.2453
39.0433,21.2453
39.0200,21.2410
39.0051,21.2289
38.9991,21.2104
39.0007,21.1874
39.0225,21.1541
39.0445,21.1372
39.0706,21.1316
39.7276,21.1316
39.7588,21.1362
39.7739,21.1472
39.7788,21.1644
39.7767,21.1775
39.7712,21.1961
39.7679,21.2037
Z" />
<path style="fill:#F2EDA1; fill-opacity:1.0000; stroke:none;fill-rule:evenodd;"
d="M 40.4599,21.1428
40.5288,21.1744
40.5850,21.2267
40.6145,21.2768
40.6310,21.3339
40.6331,21.3918
40.6299,21.4268
40.6232,21.4617
40.5937,21.5721
40.5682,21.6489
40.5298,21.7148
40.4786,21.7726
40.4112,21.8267
40.4495,21.8538
40.4811,21.8919
40.5063,21.9432
40.5206,21.9987
40.5229,22.0567
40.5128,22.1186
40.4582,22.3361
40.4265,22.4225
40.3760,22.5000
40.3046,22.5700
40.2210,22.6244
40.1358,22.6558
40.0473,22.6661
39.9380,22.6661
39.8580,22.6552
39.7910,22.6235
39.7336,22.5700
39.7031,22.5231
39.6850,22.4726
39.6789,22.4170
39.6823,22.3939
39.7964,22.3939
39.8061,22.4439
39.8308,22.4886
39.8676,22.5241
39.9116,22.5452
39.9653,22.5525
40.0746,22.5525
40.1330,22.5457
40.1890,22.5252
40.2440,22.4897
40.2910,22.4439
40.3248,22.3927
40.3468,22.3351
40.4014,22.1175
40.4078,22.0588
40.3991,22.0086
40.3763,21.9645
40.3414,21.9298
40.2965,21.9087
40.2385,21.9011
40.1293,21.9011
40.0716,21.9079
40.0155,21.9285
39.9598,21.9645
39.9121,22.0106
39.8788,22.0610
39.8582,22.1164
39.8025,22.3361
39.7964,22.3939
39.6823,22.3939
39.6909,22.3361
39.7456,22.1175
39.7767,22.0357
39.8314,21.9552
39.9031,21.8850
39.9905,21.8267
39.9555,21.7774
39.9319,21.7158
39.9244,21.6483
39.9269,21.6315
40.0410,21.6315
40.0501,21.6816
40.0735,21.7251
40.1089,21.7593
40.1535,21.7801
40.2102,21.7875
40.2665,21.7809
40.3220,21.7608
40.3779,21.7257
40.4258,21.6804
40.4602,21.6296
40.4823,21.5721
40.5107,21.4607
40.5170,21.4012
40.5081,21.3512
40.4850,21.3077
40.4499,21.2735
40.4056,21.2527
40.3489,21.2453
40.2912,21.2520
40.2352,21.2724
40.1795,21.3077
40.1319,21.3531
40.0977,21.4038
40.0756,21.4607
40.0473,21.5721
40.0410,21.6315
39.9269,21.6315
39.9357,21.5721
39.9642,21.4607
39.9935,21.3811
40.0434,21.3043
40.1173,21.2289
40.1798,21.1852
40.2397,21.1557
40.3030,21.1392
40.3391,21.1338
40.3741,21.1316
Z" />
<path style="fill:#F2EDA1; fill-opacity:1.0000; stroke:none;fill-rule:evenodd;"
d="M 41.4918,21.1429
41.5604,21.1749
41.6160,21.2279
41.6439,21.2737
41.6605,21.3239
41.6663,21.3798
41.6542,21.4628
41.4357,22.3361
41.4046,22.4211
41.3542,22.4982
41.2821,22.5689
41.1977,22.6240
41.1122,22.6557
41.0236,22.6661
40.9143,22.6661
40.8344,22.6552
40.7673,22.6236
40.7099,22.5700
40.6795,22.5232
40.6614,22.4726
40.6553,22.4170
40.6587,22.3939
40.7728,22.3939
40.7824,22.4439
40.8072,22.4886
40.8440,22.5241
40.8880,22.5452
40.9416,22.5525
41.0510,22.5525
41.1073,22.5459
41.1628,22.5259
41.2187,22.4908
41.2666,22.4456
41.3014,22.3943
41.3242,22.3361
41.5428,21.4617
41.5490,21.4031
41.5398,21.3530
41.5160,21.3087
41.4802,21.2739
41.4355,21.2528
41.3788,21.2453
41.2695,21.2453
41.2119,21.2521
41.1558,21.2728
41.1001,21.3087
41.0525,21.3548
41.0191,21.4052
40.9985,21.4607
40.7788,22.3361
40.7728,22.3939
40.6587,22.3939
40.6673,22.3361
40.8859,21.4607
40.9161,21.3784
40.9658,21.3021
41.0378,21.2306
41.1220,21.1746
41.2077,21.1423
41.2969,21.1316
41.4062,21.1316
Z" />
<path style="fill:#F2EDA1; fill-opacity:1.0000; stroke:none;fill-rule:evenodd;"
d="M 38.0676,40.3246
38.0358,40.4110
37.9853,40.4884
37.9140,40.5585
37.8303,40.6128
37.7451,40.6442
37.6565,40.6546
37.4926,40.6546
37.4690,40.6505
37.4532,40.6394
37.4467,40.6131
37.4489,40.5967
37.4718,40.5629
37.4938,40.5464
37.5200,40.5410
37.6839,40.5410
37.7415,40.5342
37.7973,40.5135
37.8527,40.4776
37.9002,40.4315
37.9342,40.3808
37.9561,40.3246
38.2424,39.1769
38.2496,39.1593
38.2675,39.1392
38.2904,39.1246
38.3124,39.1201
38.3315,39.1239
38.3474,39.1354
38.3571,39.1616
38.3550,39.1769
Z" />
<path style="fill:#F2EDA1; fill-opacity:1.0000; stroke:none;fill-rule:evenodd;"
d="M 39.1038,40.8732
38.2250,40.8732
38.2535,40.7595
39.1323,40.7595
Z" />
<path style="fill:#F2EDA1; fill-opacity:1.0000; stroke:none;fill-rule:evenodd;"
d="M 40.0939,39.1313
40.1625,39.1633
40.2182,39.2163
40.2460,39.2621
40.2628,39.3124
40.2685,39.3682
40.2564,39.4513
40.0378,40.3246
40.0067,40.4095
39.9563,40.4867
39.8842,40.5574
39.7998,40.6124
39.7143,40.6441
39.6257,40.6546
39.2432,40.6546
39.2161,40.6499
39.2022,40.6382
39.1973,40.6185
39.2005,40.5967
39.2145,40.5410
39.3284,40.5410
39.6531,40.5410
39.7101,40.5344
39.7660,40.5143
39.8219,40.4792
39.8698,40.4340
39.9042,40.3828
39.9263,40.3246
40.1449,39.4502
40.1511,39.3915
40.1419,39.3414
40.1181,39.2972
40.0823,39.2624
40.0376,39.2413
39.9809,39.2338
39.6552,39.2338
39.3284,40.5410
39.2145,40.5410
39.5568,39.1769
39.5709,39.1446
39.5931,39.1265
39.6257,39.1201
40.0083,39.1201
Z" />
<path style="fill:#F2EDA1; fill-opacity:1.0000; stroke:none;fill-rule:evenodd;"
d="M 40.3616,40.5989
40.3522,40.6225
40.3354,40.6404
40.3154,40.6510
40.2916,40.6546
40.2556,40.6404
40.2457,40.6164
40.2490,40.5967
40.6053,39.1758
40.6124,39.1591
40.6300,39.1392
40.6523,39.1246
40.6742,39.1201
40.6934,39.1237
40.7092,39.1343
40.7201,39.1616
40.7179,39.1780
Z" />
<path style="fill:#F2EDA1; fill-opacity:1.0000; stroke:none;fill-rule:evenodd;"
d="M 41.4960,39.1266
41.5098,39.1424
41.5158,39.1725
41.5453,40.5825
41.5431,40.5989
41.5347,40.6182
41.5158,40.6383
41.4926,40.6500
41.4721,40.6535
41.4419,40.6437
41.4334,40.6317
41.4294,40.6120
41.4207,40.2163
40.9780,40.2163
40.7737,40.6120
40.7463,40.6426
40.7092,40.6535
40.6884,40.6496
40.6730,40.6383
40.6633,40.6131
40.6654,40.5978
40.6709,40.5814
40.9206,40.1027
41.0381,40.1027
41.4185,40.1027
41.4054,39.3933
41.0381,40.1027
40.9206,40.1027
41.4064,39.1715
41.4379,39.1325
41.4732,39.1211
Z" />
<path style="fill:#F2EDA1; fill-opacity:1.0000; stroke:none;fill-rule:evenodd;"
d="M 42.3999,40.5978
42.3860,40.6301
42.3638,40.6482
42.3311,40.6546
41.9486,40.6546
41.8686,40.6437
41.8016,40.6120
41.7442,40.5585
41.7137,40.5116
41.6956,40.4610
41.6895,40.4055
41.7015,40.3246
41.9201,39.4491
41.9503,39.3669
42.0000,39.2906
42.0721,39.2190
42.1563,39.1630
42.2420,39.1307
42.3311,39.1201
42.7136,39.1201
42.7325,39.1246
42.7486,39.1386
42.7574,39.1660
42.7562,39.1780
42.7486,39.1966
42.7328,39.2157
42.7117,39.2292
42.6863,39.2338
42.3038,39.2338
42.2461,39.2406
42.1900,39.2612
42.1343,39.2972
42.0867,39.3433
42.0533,39.3936
42.0327,39.4491
41.8131,40.3246
41.8070,40.3824
41.8166,40.4323
41.8414,40.4771
41.8782,40.5125
41.9222,40.5336
41.9759,40.5410
42.3015,40.5410
42.4633,39.8906
42.3038,39.8906
42.2804,39.8862
42.2655,39.8742
42.2598,39.8558
42.2623,39.8338
42.2841,39.7989
42.3052,39.7824
42.3311,39.7770
42.5486,39.7770
42.5799,39.7838
42.5930,39.8011
42.5912,39.8338
Z" />
<path style="fill:#F2EDA1; fill-opacity:1.0000; stroke:none;fill-rule:evenodd;"
d="M 36.2126,41.8193
36.2812,41.8513
36.3368,41.9043
36.3647,41.9501
36.3814,42.0004
36.3872,42.0562
36.3750,42.1393
36.1565,43.0126
36.1254,43.0975
36.0750,43.1747
36.0029,43.2454
35.9185,43.3004
35.8330,43.3321
35.7444,43.3426
35.3619,43.3426
35.3348,43.3379
35.3209,43.3262
35.3160,43.3065
35.3192,43.2847
35.3332,43.2290
35.4471,43.2290
35.7718,43.2290
35.8288,43.2224
35.8847,43.2023
35.9406,43.1672
35.9885,43.1220
36.0229,43.0708
36.0450,43.0126
36.2636,42.1382
36.2698,42.0795
36.2606,42.0294
36.2368,41.9852
36.2010,41.9504
36.1563,41.9293
36.0996,41.9218
35.7739,41.9218
35.4471,43.2290
35.3332,43.2290
35.6755,41.8649
35.6896,41.8326
35.7117,41.8145
35.7444,41.8081
36.1270,41.8081
Z" />
<path style="fill:#F2EDA1; fill-opacity:1.0000; stroke:none;fill-rule:evenodd;"
d="M 36.4803,43.2869
36.4709,43.3105
36.4541,43.3284
36.4341,43.3390
36.4103,43.3426
36.3743,43.3284
36.3644,43.3044
36.3677,43.2847
36.7240,41.8638
36.7311,41.8471
36.7486,41.8272
36.7710,41.8126
36.7929,41.8081
36.8121,41.8117
36.8279,41.8223
36.8388,41.8496
36.8366,41.8660
Z" />
<path style="fill:#F2EDA1; fill-opacity:1.0000; stroke:none;fill-rule:evenodd;"
d="M 37.6147,41.8146
37.6285,41.8304
37.6345,41.8605
37.6640,43.2705
37.6618,43.2869
37.6534,43.3062
37.6345,43.3263
37.6113,43.3380
37.5908,43.3415
37.5606,43.3317
37.5521,43.3197
37.5481,43.3000
37.5394,42.9043
37.0967,42.9043
36.8924,43.3000
36.8650,43.3306
36.8279,43.3415
36.8070,43.3376
36.7917,43.3263
36.7820,43.3011
36.7841,43.2858
36.7896,43.2694
37.0393,42.7907
37.1568,42.7907
37.5372,42.7907
37.5241,42.0813
37.1568,42.7907
37.0393,42.7907
37.5251,41.8595
37.5566,41.8205
37.5919,41.8091
Z" />
<path style="fill:#F2EDA1; fill-opacity:1.0000; stroke:none;fill-rule:evenodd;"
d="M 38.5186,43.2858
38.5046,43.3181
38.4825,43.3362
38.4497,43.3426
38.0673,43.3426
37.9873,43.3317
37.9202,43.3000
37.8629,43.2465
37.8324,43.1996
37.8143,43.1490
37.8082,43.0935
37.8202,43.0126
38.0388,42.1371
38.0690,42.0549
38.1187,41.9786
38.1907,41.9070
38.2750,41.8510
38.3606,41.8187
38.4497,41.8081
38.8323,41.8081
38.8512,41.8126
38.8673,41.8266
38.8761,41.8540
38.8749,41.8660
38.8673,41.8846
38.8515,41.9037
38.8304,41.9172
38.8050,41.9218
38.4225,41.9218
38.3648,41.9286
38.3087,41.9492
38.2530,41.9852
38.2054,42.0313
38.1720,42.0816
38.1514,42.1371
37.9318,43.0126
37.9257,43.0704
37.9353,43.1203
37.9601,43.1651
37.9968,43.2005
38.0409,43.2216
38.0946,43.2290
38.4202,43.2290
38.5820,42.5786
38.4225,42.5786
38.3991,42.5742
38.3842,42.5622
38.3785,42.5438
38.3810,42.5218
38.4027,42.4869
38.4239,42.4704
38.4497,42.4650
38.6673,42.4650
38.6986,42.4718
38.7117,42.4891
38.7099,42.5218
Z" />
<path style="fill:#F2EDA1; fill-opacity:1.0000; stroke:none;fill-rule:evenodd;"
d="M 40.0647,42.4650
40.2166,41.8649
40.2237,41.8473
40.2412,41.8272
40.2636,41.8126
40.2855,41.8081
40.3047,41.8117
40.3204,41.8223
40.3314,41.8496
40.3291,41.8660
39.9728,43.2869
39.9635,43.3105
39.9467,43.3284
39.9266,43.3390
39.9029,43.3426
39.8668,43.3284
39.8584,43.3126
39.8603,43.2858
40.0362,42.5786
39.4941,42.5786
39.3160,43.2858
39.3066,43.3103
39.2897,43.3284
39.2697,43.3390
39.2461,43.3426
39.2099,43.3284
39.2002,43.3044
39.2034,43.2847
39.5597,41.8638
39.5667,41.8471
39.5843,41.8272
39.6066,41.8126
39.6286,41.8081
39.6478,41.8118
39.6641,41.8228
39.6731,41.8398
39.6712,41.8649
39.5226,42.4650
Z" />
<path style="fill:#F2EDA1; fill-opacity:1.0000; stroke:none;fill-rule:evenodd;"
d="M 40.4573,42.5786
40.2945,43.2290
40.7830,43.2290
40.8018,43.2335
40.8174,43.2475
40.8264,43.2667
40.8256,43.2858
40.8180,43.3053
40.8022,43.3246
40.7811,43.3381
40.7557,43.3426
40.2093,43.3426
40.1822,43.3379
40.1682,43.3262
40.1634,43.3065
40.1666,43.2847
40.5229,41.8649
40.5369,41.8326
40.5591,41.8145
40.5918,41.8081
41.1383,41.8081
41.1571,41.8121
41.1722,41.8245
41.1831,41.8551
41.1819,41.8660
41.1734,41.8846
41.1573,41.9037
41.1363,41.9172
41.1109,41.9218
40.6213,41.9218
40.4857,42.4650
40.7557,42.4650
40.7745,42.4694
40.7902,42.4831
40.7988,42.5018
40.7972,42.5218
40.7896,42.5414
40.7742,42.5606
40.7537,42.5740
40.7284,42.5786
Z" />
<path style="fill:#F2EDA1; fill-opacity:1.0000; stroke:none;fill-rule:evenodd;"
d="M 41.8258,41.8146
41.8397,41.8304
41.8456,41.8605
41.8751,43.2705
41.8730,43.2869
41.8645,43.3062
41.8456,43.3263
41.8224,43.3380
41.8019,43.3415
41.7717,43.3317
41.7632,43.3197
41.7592,43.3000
41.7505,42.9043
41.3079,42.9043
41.1035,43.3000
41.0761,43.3306
41.0390,43.3415
41.0182,43.3376
41.0029,43.3263
40.9931,43.3011
40.9952,43.2858
41.0007,43.2694
41.2505,42.7907
41.3680,42.7907
41.7483,42.7907
41.7352,42.0813
41.3680,42.7907
41.2505,42.7907
41.7363,41.8595
41.7677,41.8205
41.8030,41.8091
Z" />
<path style="fill:#F2EDA1; fill-opacity:1.0000; stroke:none;fill-rule:evenodd;"
d="M 42.8482,41.8193
42.9168,41.8513
42.9724,41.9043
43.0003,41.9501
43.0170,42.0004
43.0227,42.0562
43.0106,42.1393
42.7921,43.0126
42.7610,43.0975
42.7106,43.1747
42.6385,43.2454
42.5541,43.3004
42.4686,43.3321
42.3800,43.3426
41.9975,43.3426
41.9704,43.3379
41.9565,43.3262
41.9516,43.3065
41.9548,43.2847
41.9688,43.2290
42.0827,43.2290
42.4074,43.2290
42.4644,43.2224
42.5202,43.2023
42.5762,43.1672
42.6241,43.1220
42.6585,43.0708
42.6806,43.0126
42.8992,42.1382
42.9054,42.0795
42.8962,42.0294
42.8724,41.9852
42.8366,41.9504
42.7918,41.9293
42.7352,41.9218
42.4095,41.9218
42.0827,43.2290
41.9688,43.2290
42.3111,41.8649
42.3252,41.8326
42.3473,41.8145
42.3800,41.8081
42.7626,41.8081
Z" />
<path style="fill:#F2EDA1; fill-opacity:1.0000; stroke:none;fill-rule:evenodd;"
d="M 43.2022,42.5786
43.0394,43.2290
43.5279,43.2290
43.5467,43.2335
43.5623,43.2475
43.5713,43.2667
43.5705,43.2858
43.5629,43.3053
43.5471,43.3246
43.5260,43.3381
43.5006,43.3426
42.9542,43.3426
42.9271,43.3379
42.9131,43.3262
42.9082,43.3065
42.9115,43.2847
43.2678,41.8649
43.2818,41.8326
43.3040,41.8145
43.3367,41.8081
43.8832,41.8081
43.9020,41.8121
43.9171,41.8245
43.9280,41.8551
43.9268,41.8660
43.9183,41.8846
43.9022,41.9037
43.8812,41.9172
43.8558,41.9218
43.3662,41.9218
43.2306,42.4650
43.5006,42.4650
43.5194,42.4694
43.5351,42.4831
43.5437,42.5018
43.5421,42.5218
43.5345,42.5414
43.5191,42.5606
43.4986,42.5740
43.4733,42.5786
Z" />
<path style="fill:#F2EDA1; fill-opacity:1.0000; stroke:none;fill-rule:evenodd;"
d="M 44.6565,41.8193
44.7251,41.8513
44.7807,41.9043
44.8085,41.9501
44.8252,42.0003
44.8309,42.0562
44.8189,42.1393
44.7643,42.3567
44.7332,42.4417
44.6828,42.5186
44.6107,42.5891
44.4900,42.6858
44.3555,42.7294
44.5326,43.2574
44.5336,43.2858
44.5244,43.3054
44.5052,43.3263
44.4818,43.3388
44.4605,43.3426
44.4342,43.3360
44.4200,43.3142
44.2102,42.6858
44.0265,42.6858
43.8756,43.2858
43.8662,43.3103
43.8495,43.3284
43.8295,43.3390
43.8057,43.3426
43.7696,43.3284
43.7599,43.3044
43.7631,43.2847
43.9419,42.5721
44.0549,42.5721
44.3796,42.5721
44.4366,42.5655
44.4925,42.5453
44.5484,42.5103
44.5963,42.4651
44.6307,42.4142
44.6528,42.3567
44.7074,42.1382
44.7137,42.0795
44.7045,42.0294
44.6807,41.9852
44.6448,41.9503
44.6001,41.9293
44.5435,41.9218
44.2178,41.9218
44.0549,42.5721
43.9419,42.5721
44.1194,41.8649
44.1334,41.8326
44.1556,41.8145
44.1883,41.8081
44.5709,41.8081
Z" />
<path style="fill:#F2EDA1; fill-opacity:1.0000; stroke:none;fill-rule:evenodd;"
d="M 48.3184,60.3246
48.2867,60.4110
48.2362,60.4884
48.1649,60.5585
48.0812,60.6128
47.9960,60.6442
47.9074,60.6546
47.7435,60.6546
47.7199,60.6505
47.7041,60.6394
47.6976,60.6131
47.6998,60.5967
47.7227,60.5629
47.7447,60.5464
47.7708,60.5410
47.9348,60.5410
47.9924,60.5342
48.0482,60.5135
48.1036,60.4776
48.1511,60.4315
48.1851,60.3808
48.2070,60.3246
48.4933,59.1769
48.5005,59.1593
48.5184,59.1392
48.5413,59.1246
48.5633,59.1201
48.5823,59.1239
48.5982,59.1354
48.6080,59.1616
48.6059,59.1769
Z" />
<path style="fill:#F2EDA1; fill-opacity:1.0000; stroke:none;fill-rule:evenodd;"
d="M 49.3547,60.8732
48.4759,60.8732
48.5044,60.7595
49.3831,60.7595
Z" />
<path style="fill:#F2EDA1; fill-opacity:1.0000; stroke:none;fill-rule:evenodd;"
d="M 50.2902,59.1313
50.3588,59.1633
50.4144,59.2163
50.4445,59.2663
50.4603,59.3223
50.4625,59.3813
50.4592,59.4163
50.4526,59.4513
50.4242,59.5594
50.3987,59.6362
50.3608,59.7016
50.3101,59.7591
50.2428,59.8141
50.2805,59.8443
50.3116,59.8844
50.3362,59.9360
50.3503,59.9915
50.3528,60.0481
50.3433,60.1070
50.2887,60.3256
50.2581,60.4074
50.2061,60.4836
50.1296,60.5557
50.0410,60.6127
49.9574,60.6444
49.8766,60.6546
49.4941,60.6546
49.4670,60.6499
49.4531,60.6382
49.4482,60.6185
49.4514,60.5967
49.4654,60.5410
49.5793,60.5410
49.9040,60.5410
49.9610,60.5344
50.0169,60.5143
50.0728,60.4792
50.1207,60.4340
50.1551,60.3828
50.1772,60.3246
50.2318,60.1059
50.2373,60.0504
50.2274,60.0010
50.2023,59.9557
50.1655,59.9195
50.1215,59.8981
50.0679,59.8906
49.7422,59.8906
49.5793,60.5410
49.4654,60.5410
49.6571,59.7770
49.7706,59.7770
50.0405,59.7770
50.0975,59.7702
50.1532,59.7494
50.2089,59.7131
50.2567,59.6666
50.2909,59.6157
50.3127,59.5594
50.3401,59.4502
50.3464,59.3914
50.3377,59.3413
50.3149,59.2972
50.2800,59.2625
50.2352,59.2414
50.1772,59.2338
49.9061,59.2338
49.7706,59.7770
49.6571,59.7770
49.8077,59.1769
49.8218,59.1446
49.8439,59.1265
49.8766,59.1201
50.2046,59.1201
Z" />
<path style="fill:#F2EDA1; fill-opacity:1.0000; stroke:none;fill-rule:evenodd;"
d="M 51.2577,60.3246
51.2266,60.4095
51.1762,60.4867
51.1041,60.5574
51.0196,60.6124
50.9341,60.6441
50.8456,60.6546
50.7363,60.6546
50.6564,60.6437
50.5893,60.6120
50.5320,60.5585
50.5015,60.5116
50.4834,60.4610
50.4773,60.4055
50.4893,60.3246
50.7756,59.1769
50.7829,59.1593
50.8008,59.1392
50.8237,59.1246
50.8456,59.1201
50.8647,59.1239
50.8805,59.1354
50.8895,59.1527
50.8883,59.1769
50.6007,60.3246
50.5947,60.3824
50.6044,60.4323
50.6292,60.4771
50.6659,60.5125
50.7099,60.5336
50.7636,60.5410
50.8729,60.5410
50.9292,60.5344
50.9847,60.5143
51.0407,60.4792
51.0886,60.4340
51.1234,60.3828
51.1462,60.3246
51.4325,59.1769
51.4398,59.1593
51.4576,59.1392
51.4805,59.1246
51.5025,59.1201
51.5216,59.1239
51.5375,59.1354
51.5473,59.1616
51.5451,59.1769
Z" />
<path style="fill:#F2EDA1; fill-opacity:1.0000; stroke:none;fill-rule:evenodd;"
d="M 52.5075,59.1976
52.5189,59.2114
52.5227,59.2436
52.5135,59.2639
52.4949,59.2840
52.4718,59.2983
52.4506,59.3026
52.4211,59.2917
52.3724,59.2600
52.3155,59.2406
52.2484,59.2338
52.0878,59.2338
52.0267,59.2409
51.9697,59.2623
51.9155,59.2989
51.8695,59.3457
51.8370,59.3963
51.8167,59.4513
51.8091,59.4939
51.8080,59.5147
51.8112,59.5343
51.8430,59.6043
52.2069,60.0928
52.2369,60.1432
52.2528,60.2011
52.2549,60.2262
52.2561,60.2688
52.2539,60.2928
52.2473,60.3256
52.2168,60.4088
52.1682,60.4837
52.0998,60.5519
52.0152,60.6098
51.9274,60.6434
51.8342,60.6546
51.6746,60.6546
51.5843,60.6453
51.5084,60.6189
51.4440,60.5759
51.4287,60.5551
51.4298,60.5311
51.4368,60.5142
51.4549,60.4934
51.4777,60.4778
51.4987,60.4732
51.5293,60.4830
51.5799,60.5150
51.6369,60.5343
51.7020,60.5410
51.8615,60.5410
51.9177,60.5341
51.9735,60.5131
52.0303,60.4760
52.0792,60.4288
52.1135,60.3778
52.1348,60.3223
52.1403,60.2863
52.1403,60.2677
52.1380,60.2481
52.1295,60.2113
52.1085,60.1704
51.7413,59.6818
51.7168,59.6388
51.6953,59.5747
51.6921,59.5142
51.7020,59.4502
51.7326,59.3664
51.7811,59.2911
51.8495,59.2228
51.9340,59.1649
52.0218,59.1313
52.1150,59.1201
52.2758,59.1201
52.3324,59.1247
52.3971,59.1398
52.4585,59.1646
Z" />
<path style="fill:#F2EDA1; fill-opacity:1.0000; stroke:none;fill-rule:evenodd;"
d="M 47.6927,62.5021
47.7310,62.5298
47.7626,62.5683
47.7877,62.6196
47.8020,62.6751
47.8044,62.7332
47.7944,62.7950
47.7397,63.0126
47.7079,63.0990
47.6574,63.1764
47.5861,63.2465
47.5024,63.3008
47.4173,63.3322
47.3288,63.3426
47.0555,63.3426
47.0321,63.3382
47.0172,63.3263
47.0107,63.3011
47.0129,63.2858
47.0353,63.2509
47.0568,63.2344
47.0829,63.2290
47.3560,63.2290
47.4144,63.2222
47.4705,63.2017
47.5254,63.1662
47.5724,63.1203
47.6063,63.0691
47.6282,63.0115
47.6829,62.7939
47.6893,62.7352
47.6806,62.6851
47.6577,62.6409
47.6228,62.6063
47.5780,62.5851
47.5201,62.5775
47.4653,62.5775
47.4418,62.5732
47.4260,62.5611
47.4203,62.5427
47.4228,62.5207
47.4451,62.4858
47.4667,62.4693
47.4927,62.4639
47.5510,62.4571
47.6070,62.4366
47.6620,62.4011
47.7090,62.3553
47.7429,62.3040
47.7649,62.2463
47.7921,62.1382
47.7986,62.0794
47.7899,62.0293
47.7670,61.9852
47.7321,61.9505
47.6873,61.9294
47.6293,61.9218
47.4107,61.9218
47.3872,61.9174
47.3714,61.9054
47.3657,61.8870
47.3681,61.8649
47.3905,61.8299
47.4120,61.8135
47.4381,61.8081
47.6566,61.8081
47.7245,61.8146
47.7808,61.8331
47.8280,61.8627
47.8676,61.9043
47.8941,61.9493
47.9101,61.9988
47.9156,62.0540
47.9036,62.1382
47.8774,62.2486
47.8665,62.2846
47.8599,62.3065
47.8479,62.3283
47.8342,62.3573
47.8096,62.3906
47.7609,62.4457
Z" />
<path style="fill:#F2EDA1; fill-opacity:1.0000; stroke:none;fill-rule:evenodd;"
d="M 48.7050,61.8193
48.7735,61.8513
48.8292,61.9043
48.8587,61.9542
48.8751,62.0103
48.8762,62.0693
48.8730,62.1043
48.8675,62.1382
48.7440,62.6245
48.6948,62.7714
48.6217,62.9108
48.5232,63.0442
48.4288,63.1403
48.3260,63.2210
48.2143,63.2872
48.0926,63.3394
48.0685,63.3438
48.0336,63.3263
48.0270,63.3000
48.0292,63.2836
48.0444,63.2536
48.0569,63.2420
48.0783,63.2322
48.1789,63.1896
48.2270,63.1634
48.2434,63.1546
48.2751,63.1317
48.3524,63.0712
48.4412,62.9819
48.4964,62.9124
48.5477,62.8350
48.5901,62.7549
48.6149,62.6869
48.2915,62.6869
48.2236,62.6803
48.1673,62.6619
48.1201,62.6322
48.0805,62.5906
48.0532,62.5456
48.0369,62.4964
48.0313,62.4420
48.0352,62.4145
48.1499,62.4145
48.1595,62.4645
48.1843,62.5092
48.2211,62.5447
48.2651,62.5658
48.3188,62.5731
48.6445,62.5731
48.7548,62.1382
48.7613,62.0794
48.7526,62.0293
48.7297,61.9852
48.6948,61.9505
48.6500,61.9294
48.5921,61.9218
48.4828,61.9218
48.4244,61.9286
48.3683,61.9491
48.3133,61.9846
48.2664,62.0304
48.2325,62.0816
48.2106,62.1393
48.1560,62.3567
48.1499,62.4145
48.0352,62.4145
48.0433,62.3567
48.0991,62.1371
48.1292,62.0549
48.1790,61.9786
48.2510,61.9070
48.3353,61.8510
48.4209,61.8187
48.5100,61.8081
48.6193,61.8081
Z" />
<path style="fill:#F2EDA1; fill-opacity:1.0000; stroke:none;fill-rule:evenodd;"
d="M 49.6334,61.8203
49.7024,61.8519
49.7586,61.9043
49.7880,61.9544
49.8045,62.0114
49.8067,62.0693
49.8033,62.1043
49.7968,62.1393
49.7411,62.3578
49.7100,62.4428
49.6597,62.5196
49.5880,62.5896
49.5040,62.6440
49.4183,62.6754
49.3290,62.6858
49.0033,62.6858
48.8524,63.2847
48.8430,63.3092
48.8263,63.3274
48.8063,63.3379
48.7825,63.3415
48.7464,63.3274
48.7366,63.3033
48.7399,63.2836
48.9182,62.5721
49.0317,62.5721
49.3564,62.5721
49.4134,62.5655
49.4693,62.5453
49.5252,62.5103
49.5732,62.4651
49.6076,62.4146
49.6296,62.3578
49.6842,62.1382
49.6905,62.0803
49.6813,62.0305
49.6575,61.9863
49.6216,61.9514
49.5769,61.9303
49.5203,61.9229
49.1946,61.9229
49.0317,62.5721
48.9182,62.5721
49.0951,61.8660
49.1092,61.8338
49.1317,61.8156
49.1651,61.8091
49.5477,61.8091
Z" />
<path style="fill:#F2EDA1; fill-opacity:1.0000; stroke:none;fill-rule:evenodd;"
d="M 51.0296,61.8193
51.0981,61.8513
51.1538,61.9043
51.1838,61.9543
51.1996,62.0103
51.2019,62.0693
51.1985,62.1043
51.1920,62.1393
51.1636,62.2474
51.1381,62.3242
51.1002,62.3896
51.0495,62.4471
50.9821,62.5021
51.0199,62.5323
51.0510,62.5724
51.0755,62.6240
51.0897,62.6795
51.0921,62.7361
51.0827,62.7950
51.0281,63.0136
50.9974,63.0954
50.9455,63.1716
50.8690,63.2437
50.7804,63.3007
50.6967,63.3324
50.6160,63.3426
50.2335,63.3426
50.2064,63.3379
50.1924,63.3262
50.1876,63.3065
50.1908,63.2847
50.2048,63.2290
50.3187,63.2290
50.6433,63.2290
50.7004,63.2224
50.7562,63.2023
50.8122,63.1672
50.8600,63.1220
50.8945,63.0708
50.9166,63.0126
50.9712,62.7939
50.9767,62.7384
50.9668,62.6890
50.9417,62.6437
50.9049,62.6075
50.8609,62.5861
50.8073,62.5786
50.4815,62.5786
50.3187,63.2290
50.2048,63.2290
50.3965,62.4650
50.5100,62.4650
50.7799,62.4650
50.8369,62.4582
50.8926,62.4374
50.9482,62.4011
50.9961,62.3546
51.0302,62.3037
51.0521,62.2474
51.0795,62.1382
51.0858,62.0794
51.0771,62.0293
51.0542,61.9852
51.0194,61.9505
50.9746,61.9294
50.9166,61.9218
50.6455,61.9218
50.5100,62.4650
50.3965,62.4650
50.5471,61.8649
50.5611,61.8326
50.5833,61.8145
50.6160,61.8081
50.9440,61.8081
Z" />
<path style="fill:#F2EDA1; fill-opacity:1.0000; stroke:none;fill-rule:evenodd;"
d="M 51.9970,63.0126
51.9660,63.0975
51.9156,63.1747
51.8434,63.2454
51.7590,63.3004
51.6735,63.3321
51.5849,63.3426
51.4757,63.3426
51.3958,63.3317
51.3287,63.3000
51.2713,63.2465
51.2408,63.1996
51.2228,63.1490
51.2166,63.0935
51.2286,63.0126
51.5150,61.8649
51.5222,61.8473
51.5402,61.8272
51.5630,61.8126
51.5849,61.8081
51.6041,61.8119
51.6199,61.8234
51.6288,61.8407
51.6276,61.8649
51.3401,63.0126
51.3341,63.0704
51.3438,63.1203
51.3685,63.1651
51.4053,63.2005
51.4493,63.2216
51.5030,63.2290
51.6123,63.2290
51.6686,63.2224
51.7241,63.2023
51.7800,63.1672
51.8280,63.1220
51.8628,63.0708
51.8856,63.0126
52.1719,61.8649
52.1791,61.8473
52.1970,61.8272
52.2199,61.8126
52.2419,61.8081
52.2610,61.8119
52.2768,61.8234
52.2867,61.8496
52.2845,61.8649
Z" />
<path style="fill:#F2EDA1; fill-opacity:1.0000; stroke:none;fill-rule:evenodd;"
d="M 53.2469,61.8856
53.2583,61.8994
53.2621,61.9316
53.2529,61.9519
53.2343,61.9720
53.2112,61.9863
53.1900,61.9906
53.1605,61.9797
53.1118,61.9480
53.0549,61.9286
52.9878,61.9218
52.8272,61.9218
52.7660,61.9289
52.7091,61.9503
52.6549,61.9869
52.6089,62.0337
52.5764,62.0843
52.5560,62.1393
52.5484,62.1819
52.5474,62.2027
52.5506,62.2223
52.5823,62.2923
52.9463,62.7808
52.9763,62.8312
52.9922,62.8891
52.9943,62.9142
52.9955,62.9568
52.9932,62.9808
52.9867,63.0136
52.9561,63.0968
52.9076,63.1717
52.8392,63.2399
52.7546,63.2978
52.6668,63.3314
52.5735,63.3426
52.4140,63.3426
52.3237,63.3333
52.2478,63.3069
52.1833,63.2639
52.1681,63.2431
52.1692,63.2191
52.1762,63.2022
52.1943,63.1814
52.2170,63.1658
52.2380,63.1612
52.2686,63.1710
52.3193,63.2030
52.3763,63.2223
52.4414,63.2290
52.6009,63.2290
52.6571,63.2221
52.7129,63.2011
52.7697,63.1640
52.8186,63.1168
52.8529,63.0658
52.8742,63.0103
52.8796,62.9743
52.8796,62.9557
52.8774,62.9361
52.8689,62.8993
52.8479,62.8584
52.4806,62.3698
52.4562,62.3268
52.4347,62.2627
52.4315,62.2022
52.4414,62.1382
52.4719,62.0544
52.5205,61.9791
52.5889,61.9108
52.6734,61.8529
52.7612,61.8193
52.8544,61.8081
53.0151,61.8081
53.0718,61.8127
53.1365,61.8278
53.1979,61.8526
Z" />
<path style="fill:#F2EDA1; fill-opacity:1.0000; stroke:none;fill-rule:evenodd;"
d="M 63.4758,33.6126
63.2036,33.6126
63.1223,33.6015
63.0546,33.5694
62.9971,33.5154
62.9672,33.4686
62.9495,33.4180
62.9434,33.3623
62.9544,33.2826
63.1741,32.4071
63.2042,32.3249
63.2540,32.2486
63.3260,32.1770
63.4103,32.1211
63.4963,32.0888
63.5862,32.0781
63.8583,32.0781
63.8771,32.0822
63.8922,32.0945
63.9031,32.1251
63.9021,32.1360
63.8936,32.1546
63.8774,32.1737
63.8564,32.1872
63.8310,32.1918
63.5588,32.1918
63.5012,32.1985
63.4453,32.2188
63.3899,32.2541
63.3426,32.2995
63.3082,32.3506
63.2856,32.4082
63.0670,33.2826
63.0608,33.3412
63.0700,33.3913
63.0937,33.4356
63.1295,33.4704
63.1743,33.4915
63.2310,33.4990
63.5031,33.4990
63.5218,33.5035
63.5375,33.5175
63.5465,33.5367
63.5457,33.5558
63.5380,33.5753
63.5222,33.5946
63.5011,33.6081
Z" />
<path style="fill:#F2EDA1; fill-opacity:1.0000; stroke:none;fill-rule:evenodd;"
d="M 64.0739,33.5569
64.0648,33.5806
64.0488,33.5984
64.0288,33.6090
64.0050,33.6126
63.9690,33.5984
63.9602,33.5817
63.9614,33.5558
64.2827,32.2715
63.9941,32.5022
63.9726,32.5156
63.9526,32.5197
63.9310,32.5152
63.9154,32.5022
63.9056,32.4748
63.9078,32.4617
63.9340,32.4234
64.3438,32.0945
64.3637,32.0829
64.3855,32.0791
64.4067,32.0828
64.4237,32.0934
64.4324,32.1207
64.4302,32.1349
Z" />
<path style="fill:#F2EDA1; fill-opacity:1.0000; stroke:none;fill-rule:evenodd;"
d="M 65.2134,33.5569
65.2043,33.5806
65.1883,33.5984
65.1683,33.6090
65.1446,33.6126
65.1085,33.5984
65.0997,33.5817
65.1009,33.5558
65.4222,32.2715
65.1336,32.5022
65.1122,32.5156
65.0921,32.5197
65.0706,32.5152
65.0550,32.5022
65.0451,32.4748
65.0474,32.4617
65.0735,32.4234
65.4834,32.0945
65.5032,32.0829
65.5250,32.0791
65.5462,32.0828
65.5632,32.0934
65.5720,32.1207
65.5697,32.1349
Z" />
<path style="fill:#F2EDA1; fill-opacity:1.0000; stroke:none;fill-rule:evenodd;"
d="M 66.3925,32.0893
66.4611,32.1213
66.5167,32.1743
66.5445,32.2201
66.5612,32.2703
66.5669,32.3262
66.5549,32.4093
66.3364,33.2826
66.3053,33.3675
66.2549,33.4447
66.1828,33.5154
66.0984,33.5704
66.0128,33.6021
65.9243,33.6126
65.8150,33.6126
65.7351,33.6017
65.6680,33.5700
65.6106,33.5165
65.5801,33.4696
65.5621,33.4190
65.5560,33.3635
65.5594,33.3404
65.6735,33.3404
65.6831,33.3903
65.7079,33.4351
65.7446,33.4705
65.7887,33.4916
65.8423,33.4990
65.9516,33.4990
66.0080,33.4924
66.0635,33.4723
66.1194,33.4372
66.1673,33.3920
66.2021,33.3408
66.2249,33.2826
66.4434,32.4082
66.4497,32.3495
66.4405,32.2994
66.4167,32.2552
66.3809,32.2204
66.3361,32.1993
66.2795,32.1918
66.1702,32.1918
66.1126,32.1986
66.0565,32.2192
66.0008,32.2552
65.9532,32.3013
65.9198,32.3516
65.8992,32.4071
65.6795,33.2826
65.6735,33.3404
65.5594,33.3404
65.5680,33.2826
65.7866,32.4071
65.8168,32.3248
65.8665,32.2486
65.9385,32.1770
66.0227,32.1210
66.1084,32.0887
66.1975,32.0781
66.3069,32.0781
Z" />
<path style="fill:#F2EDA1; fill-opacity:1.0000; stroke:none;fill-rule:evenodd;"
d="M 67.3663,32.0893
67.4349,32.1213
67.4906,32.1743
67.5184,32.2201
67.5351,32.2703
67.5408,32.3262
67.5288,32.4093
67.3102,33.2826
67.2791,33.3675
67.2287,33.4447
67.1566,33.5154
67.0722,33.5704
66.9867,33.6021
66.8981,33.6126
66.7888,33.6126
66.7089,33.6017
66.6418,33.5700
66.5844,33.5165
66.5540,33.4696
66.5359,33.4190
66.5298,33.3635
66.5332,33.3404
66.6473,33.3404
66.6570,33.3903
66.6817,33.4351
66.7185,33.4705
66.7625,33.4916
66.8162,33.4990
66.9255,33.4990
66.9818,33.4924
67.0373,33.4723
67.0932,33.4372
67.1412,33.3920
67.1760,33.3408
67.1987,33.2826
67.4173,32.4082
67.4235,32.3495
67.4143,32.2994
67.3905,32.2552
67.3547,32.2204
67.3100,32.1993
67.2534,32.1918
67.1440,32.1918
67.0864,32.1986
67.0304,32.2192
66.9746,32.2552
66.9270,32.3013
66.8936,32.3516
66.8730,32.4071
66.6533,33.2826
66.6473,33.3404
66.5332,33.3404
66.5418,33.2826
66.7605,32.4071
66.7906,32.3248
66.8403,32.2486
66.9123,32.1770
66.9965,32.1210
67.0822,32.0887
67.1714,32.0781
67.2807,32.0781
Z" />
<path style="fill:#F2EDA1; fill-opacity:1.0000; stroke:none;fill-rule:evenodd;"
d="M 68.0829,33.5558
68.0735,33.5803
68.0567,33.5984
68.0367,33.6090
68.0130,33.6126
67.9769,33.5984
67.9684,33.5826
67.9704,33.5558
68.1758,32.7361
68.1773,32.6929
68.1627,32.6596
68.1350,32.6370
68.0949,32.6290
67.7693,32.6290
67.5365,33.5558
67.5271,33.5803
67.5102,33.5984
67.4902,33.6090
67.4665,33.6126
67.4304,33.5984
67.4206,33.5744
67.4238,33.5547
67.6709,32.5721
67.6849,32.5398
67.7071,32.5217
67.7398,32.5153
68.1223,32.5153
68.1805,32.5227
68.2265,32.5435
68.2633,32.5776
68.2878,32.6245
68.2961,32.6792
68.2885,32.7361
Z" />
<path style="fill:#F2EDA1; fill-opacity:1.0000; stroke:none;fill-rule:evenodd;"
d="M 68.6308,32.7350
69.1194,32.7350
69.1382,32.7394
69.1539,32.7531
69.1625,32.7718
69.1609,32.7918
69.1533,32.8114
69.1379,32.8306
69.1174,32.8440
69.0921,32.8486
68.6025,32.8486
68.4243,33.5558
68.4148,33.5803
68.3981,33.5984
68.3780,33.6090
68.3543,33.6126
68.3183,33.5984
68.3084,33.5744
68.3117,33.5547
68.6680,32.1349
68.6820,32.1026
68.7042,32.0845
68.7369,32.0781
69.2833,32.0781
69.3022,32.0822
69.3172,32.0945
69.3281,32.1251
69.3271,32.1360
69.3186,32.1546
69.3025,32.1737
69.2814,32.1872
69.2561,32.1918
68.7664,32.1918
Z" />
<path style="fill:#F2EDA1; fill-opacity:1.0000; stroke:none;fill-rule:evenodd;"
d="M 81.0445,18.3361
81.0135,18.4211
80.9631,18.4982
80.8910,18.5689
80.8065,18.6240
80.7210,18.6557
80.6324,18.6661
80.5232,18.6661
80.4433,18.6552
80.3762,18.6235
80.3188,18.5700
80.2883,18.5231
80.2703,18.4726
80.2641,18.4170
80.2761,18.3361
80.5625,17.1885
80.5698,17.1709
80.5877,17.1508
80.6105,17.1361
80.6324,17.1316
80.6516,17.1355
80.6674,17.1470
80.6763,17.1642
80.6751,17.1885
80.3876,18.3361
80.3816,18.3939
80.3913,18.4439
80.4160,18.4886
80.4528,18.5241
80.4968,18.5452
80.5505,18.5525
80.6598,18.5525
80.7161,18.5459
80.7716,18.5259
80.8276,18.4908
80.8755,18.4456
80.9103,18.3943
80.9331,18.3361
81.2194,17.1885
81.2267,17.1708
81.2445,17.1508
81.2674,17.1361
81.2894,17.1316
81.3085,17.1355
81.3243,17.1470
81.3342,17.1731
81.3320,17.1885
Z" />
<path style="fill:#F2EDA1; fill-opacity:1.0000; stroke:none;fill-rule:evenodd;"
d="M 81.9489,18.6661
81.2953,18.6661
81.2772,18.6618
81.2603,18.6476
81.2527,18.6202
81.2549,18.6039
81.2702,18.5776
82.0965,17.6693
82.1304,17.6267
82.1555,17.5885
82.1754,17.5485
82.1884,17.5087
82.1956,17.4372
82.1813,17.3770
82.1457,17.3240
82.1122,17.2929
82.0681,17.2677
82.0188,17.2518
81.9664,17.2464
81.8924,17.2565
81.8161,17.2879
81.7700,17.3200
81.7233,17.3666
81.6758,17.4311
81.6495,17.4584
81.6166,17.4683
81.5939,17.4643
81.5779,17.4530
81.5691,17.4357
81.5697,17.4114
81.5784,17.3918
81.6372,17.3080
81.7016,17.2417
81.7719,17.1906
81.8417,17.1571
81.9134,17.1372
81.9883,17.1305
82.0651,17.1377
82.1322,17.1581
82.1914,17.1915
82.2441,17.2387
82.2844,17.2959
82.3082,17.3573
82.3162,17.4245
82.3041,17.5087
82.2878,17.5621
82.2620,17.6147
82.1763,17.7338
81.4298,18.5525
81.9763,18.5525
81.9951,18.5569
82.0107,18.5706
82.0193,18.5894
82.0178,18.6094
82.0102,18.6289
81.9948,18.6482
81.9742,18.6616
Z" />
<path style="fill:#F2EDA1; fill-opacity:1.0000; stroke:none;fill-rule:evenodd;"
d="M 83.4370,18.6661
82.7834,18.6661
82.7654,18.6618
82.7485,18.6476
82.7409,18.6202
82.7430,18.6039
82.7583,18.5776
83.5847,17.6693
83.6186,17.6267
83.6437,17.5885
83.6635,17.5485
83.6765,17.5087
83.6838,17.4372
83.6694,17.3770
83.6338,17.3240
83.6003,17.2929
83.5562,17.2677
83.5069,17.2518
83.4545,17.2464
83.3805,17.2565
83.3043,17.2879
83.2582,17.3200
83.2115,17.3666
83.1639,17.4311
83.1376,17.4584
83.1048,17.4683
83.0820,17.4643
83.0660,17.4530
83.0573,17.4357
83.0578,17.4114
83.0666,17.3918
83.1253,17.3080
83.1897,17.2417
83.2600,17.1906
83.3298,17.1571
83.4016,17.1372
83.4764,17.1305
83.5532,17.1377
83.6203,17.1581
83.6795,17.1915
83.7322,17.2387
83.7726,17.2959
83.7963,17.3573
83.8043,17.4245
83.7923,17.5087
83.7759,17.5621
83.7502,17.6147
83.6644,17.7338
82.9179,18.5525
83.4644,18.5525
83.4832,18.5569
83.4988,18.5706
83.5074,18.5894
83.5059,18.6094
83.4983,18.6289
83.4830,18.6482
83.4624,18.6616
Z" />
<path style="fill:#F2EDA1; fill-opacity:1.0000; stroke:none;fill-rule:evenodd;"
d="M 83.7588,18.5525
83.7776,18.5570
83.7937,18.5711
83.8025,18.5984
83.8014,18.6105
83.7937,18.6291
83.7779,18.6482
83.7568,18.6616
83.7314,18.6661
83.7078,18.6621
83.6921,18.6509
83.6855,18.6246
83.6877,18.6082
83.7106,18.5744
83.7326,18.5579
Z" />
<path style="fill:#F2EDA1; fill-opacity:1.0000; stroke:none;fill-rule:evenodd;"
d="M 84.8876,17.1429
84.9562,17.1749
85.0118,17.2279
85.0396,17.2737
85.0563,17.3239
85.0620,17.3798
85.0500,17.4628
84.8315,18.3361
84.8004,18.4211
84.7500,18.4982
84.6779,18.5689
84.5935,18.6240
84.5079,18.6557
84.4194,18.6661
84.3101,18.6661
84.2302,18.6552
84.1631,18.6236
84.1057,18.5700
84.0752,18.5232
84.0572,18.4726
84.0511,18.4170
84.0545,18.3939
84.1686,18.3939
84.1782,18.4439
84.2030,18.4886
84.2397,18.5241
84.2838,18.5452
84.3374,18.5525
84.4467,18.5525
84.5031,18.5459
84.5586,18.5259
84.6145,18.4908
84.6624,18.4456
84.6972,18.3943
84.7200,18.3361
84.9385,17.4617
84.9448,17.4031
84.9356,17.3530
84.9118,17.3087
84.8760,17.2739
84.8312,17.2528
84.7746,17.2453
84.6653,17.2453
84.6077,17.2521
84.5516,17.2728
84.4959,17.3087
84.4483,17.3548
84.4149,17.4052
84.3943,17.4607
84.1746,18.3361
84.1686,18.3939
84.0545,18.3939
84.0631,18.3361
84.2817,17.4607
84.3119,17.3784
84.3616,17.3021
84.4336,17.2306
84.5178,17.1746
84.6035,17.1423
84.6926,17.1316
84.8020,17.1316
Z" />
<path style="fill:#F2EDA1; fill-opacity:1.0000; stroke:none;fill-rule:evenodd;"
d="M 85.8614,17.1429
85.9300,17.1749
85.9857,17.2279
86.0135,17.2737
86.0302,17.3239
86.0359,17.3798
86.0239,17.4628
85.8053,18.3361
85.7742,18.4211
85.7238,18.4982
85.6517,18.5689
85.5673,18.6240
85.4818,18.6557
85.3932,18.6661
85.2839,18.6661
85.2040,18.6552
85.1370,18.6236
85.0795,18.5700
85.0491,18.5232
85.0310,18.4726
85.0249,18.4170
85.0283,18.3939
85.1424,18.3939
85.1521,18.4439
85.1768,18.4886
85.2136,18.5241
85.2576,18.5452
85.3113,18.5525
85.4206,18.5525
85.4769,18.5459
85.5324,18.5259
85.5883,18.4908
85.6363,18.4456
85.6711,18.3943
85.6938,18.3361
85.9124,17.4617
85.9186,17.4031
85.9094,17.3530
85.8856,17.3087
85.8498,17.2739
85.8051,17.2528
85.7485,17.2453
85.6391,17.2453
85.5815,17.2521
85.5255,17.2728
85.4697,17.3087
85.4221,17.3548
85.3887,17.4052
85.3681,17.4607
85.1484,18.3361
85.1424,18.3939
85.0283,18.3939
85.0369,18.3361
85.2556,17.4607
85.2857,17.3784
85.3354,17.3021
85.4074,17.2306
85.4916,17.1746
85.5773,17.1423
85.6665,17.1316
85.7758,17.1316
Z" />
<path style="fill:#F2EDA1; fill-opacity:1.0000; stroke:none;fill-rule:evenodd;"
d="M 86.8353,17.1429
86.9039,17.1749
86.9595,17.2279
86.9873,17.2737
87.0040,17.3239
87.0097,17.3798
86.9977,17.4628
86.7792,18.3361
86.7481,18.4211
86.6976,18.4982
86.6256,18.5689
86.5412,18.6240
86.4556,18.6557
86.3671,18.6661
86.2578,18.6661
86.1779,18.6552
86.1108,18.6236
86.0534,18.5700
86.0229,18.5232
86.0049,18.4726
85.9988,18.4170
86.0022,18.3939
86.1163,18.3939
86.1259,18.4439
86.1507,18.4886
86.1874,18.5241
86.2315,18.5452
86.2851,18.5525
86.3944,18.5525
86.4507,18.5459
86.5063,18.5259
86.5622,18.4908
86.6101,18.4456
86.6449,18.3943
86.6677,18.3361
86.8862,17.4617
86.8925,17.4031
86.8833,17.3530
86.8595,17.3087
86.8237,17.2739
86.7789,17.2528
86.7223,17.2453
86.6130,17.2453
86.5554,17.2521
86.4993,17.2728
86.4436,17.3087
86.3960,17.3548
86.3626,17.4052
86.3420,17.4607
86.1222,18.3361
86.1163,18.3939
86.0022,18.3939
86.0108,18.3361
86.2294,17.4607
86.2595,17.3784
86.3093,17.3021
86.3812,17.2306
86.4655,17.1746
86.5512,17.1423
86.6403,17.1316
86.7497,17.1316
Z" />
<path style="fill:#F2EDA1; fill-opacity:1.0000; stroke:none;fill-rule:evenodd;"
d="M 87.9005,18.6082
87.8911,18.6328
87.8743,18.6509
87.8543,18.6615
87.8306,18.6651
87.7945,18.6509
87.7860,18.6350
87.7880,18.6082
88.0918,17.3918
87.6251,17.9284
87.5949,17.9557
87.5683,17.9634
87.5455,17.9555
87.5278,17.9284
87.3333,17.3918
87.0272,18.6094
87.0179,18.6330
87.0010,18.6509
86.9810,18.6615
86.9573,18.6651
86.9212,18.6509
86.9114,18.6269
86.9147,18.6071
87.2699,17.1896
87.2798,17.1616
87.2950,17.1415
87.3150,17.1282
87.3365,17.1240
87.3628,17.1305
87.3814,17.1600
87.6120,17.7907
88.1574,17.1590
88.1908,17.1318
88.2208,17.1240
88.2392,17.1288
88.2536,17.1436
88.2591,17.1677
88.2558,17.1896
Z" />
<path style="fill:#F2EDA1; fill-opacity:1.0000; stroke:none;fill-rule:evenodd;"
d="M 88.9405,17.7885
89.0924,17.1885
89.0996,17.1708
89.1171,17.1508
89.1394,17.1361
89.1613,17.1316
89.1805,17.1352
89.1963,17.1459
89.2072,17.1731
89.2050,17.1896
88.8487,18.6105
88.8393,18.6340
88.8225,18.6520
88.8025,18.6625
88.7787,18.6661
88.7427,18.6520
88.7342,18.6361
88.7361,18.6094
88.9121,17.9022
88.3700,17.9022
88.1919,18.6094
88.1824,18.6339
88.1656,18.6520
88.1456,18.6625
88.1219,18.6661
88.0858,18.6520
88.0760,18.6279
88.0792,18.6082
88.4355,17.1874
88.4426,17.1707
88.4601,17.1508
88.4825,17.1361
88.5044,17.1316
88.5237,17.1353
88.5400,17.1464
88.5490,17.1634
88.5471,17.1885
88.3984,17.7885
Z" />
<path style="fill:#F2EDA1; fill-opacity:1.0000; stroke:none;fill-rule:evenodd;"
d="M 89.8949,17.6530
89.1703,18.5525
89.6195,18.5525
89.6383,18.5570
89.6539,18.5711
89.6629,18.5902
89.6622,18.6094
89.6544,18.6289
89.6387,18.6482
89.6176,18.6616
89.5923,18.6661
89.0457,18.6661
89.0144,18.6616
88.9993,18.6506
88.9943,18.6334
88.9965,18.6202
89.0173,18.5820
89.7409,17.6825
89.2916,17.6825
89.2683,17.6781
89.2533,17.6661
89.2474,17.6476
89.2490,17.6246
89.2708,17.5913
89.2929,17.5744
89.3190,17.5688
89.8654,17.5688
89.8974,17.5734
89.9129,17.5845
89.9179,17.6016
89.9157,17.6158
Z" />
<path style="fill:#F2EDA1; fill-opacity:1.0000; stroke:none;fill-rule:evenodd;"
d="M 85.3015,39.6126
85.0293,39.6126
84.9480,39.6015
84.8803,39.5694
84.8228,39.5154
84.7929,39.4686
84.7752,39.4180
84.7692,39.3623
84.7801,39.2826
84.9998,38.4071
85.0299,38.3249
85.0797,38.2486
85.1517,38.1770
85.2360,38.1211
85.3220,38.0888
85.4119,38.0781
85.6840,38.0781
85.7029,38.0822
85.7179,38.0945
85.7288,38.1251
85.7278,38.1360
85.7193,38.1546
85.7031,38.1737
85.6821,38.1872
85.6567,38.1918
85.3845,38.1918
85.3269,38.1985
85.2710,38.2188
85.2156,38.2541
85.1683,38.2995
85.1339,38.3506
85.1113,38.4082
84.8927,39.2826
84.8865,39.3412
84.8957,39.3913
84.9194,39.4356
84.9553,39.4704
85.0001,39.4915
85.0567,39.4990
85.3288,39.4990
85.3476,39.5035
85.3633,39.5175
85.3722,39.5367
85.3715,39.5558
85.3637,39.5753
85.3479,39.5946
85.3268,39.6081
Z" />
<path style="fill:#F2EDA1; fill-opacity:1.0000; stroke:none;fill-rule:evenodd;"
d="M 86.2690,39.6126
85.6154,39.6126
85.5973,39.6082
85.5804,39.5940
85.5728,39.5667
85.5750,39.5504
85.5903,39.5241
86.4166,38.6158
86.4505,38.5732
86.4756,38.5349
86.4955,38.4949
86.5085,38.4552
86.5157,38.3837
86.5014,38.3234
86.4658,38.2704
86.4323,38.2394
86.3882,38.2142
86.3389,38.1982
86.2865,38.1929
86.2125,38.2029
86.1362,38.2344
86.0901,38.2664
86.0434,38.3131
85.9958,38.3775
85.9696,38.4049
85.9367,38.4147
85.9140,38.4107
85.8979,38.3995
85.8892,38.3822
85.8897,38.3579
85.8985,38.3382
85.9573,38.2545
86.0217,38.1881
86.0920,38.1371
86.1617,38.1035
86.2335,38.0836
86.3084,38.0770
86.3852,38.0841
86.4522,38.1046
86.5115,38.1380
86.5641,38.1851
86.6045,38.2424
86.6282,38.3037
86.6362,38.3710
86.6242,38.4552
86.6079,38.5086
86.5821,38.5612
86.4963,38.6803
85.7498,39.4990
86.2964,39.4990
86.3152,39.5034
86.3307,39.5170
86.3394,39.5358
86.3379,39.5558
86.3303,39.5754
86.3149,39.5946
86.2943,39.6080
Z" />
<path style="fill:#F2EDA1; fill-opacity:1.0000; stroke:none;fill-rule:evenodd;"
d="M 87.3877,39.5569
87.3786,39.5806
87.3626,39.5984
87.3426,39.6090
87.3189,39.6126
87.2828,39.5984
87.2740,39.5817
87.2752,39.5558
87.5965,38.2715
87.3079,38.5022
87.2865,38.5156
87.2664,38.5197
87.2449,38.5152
87.2293,38.5022
87.2194,38.4748
87.2216,38.4617
87.2478,38.4234
87.6577,38.0945
87.6775,38.0829
87.6993,38.0791
87.7205,38.0828
87.7375,38.0934
87.7463,38.1207
87.7440,38.1349
Z" />
<path style="fill:#F2EDA1; fill-opacity:1.0000; stroke:none;fill-rule:evenodd;"
d="M 88.5668,38.0893
88.6354,38.1213
88.6910,38.1743
88.7188,38.2201
88.7355,38.2703
88.7412,38.3262
88.7292,38.4093
88.5107,39.2826
88.4796,39.3675
88.4291,39.4447
88.3571,39.5154
88.2727,39.5704
88.1871,39.6021
88.0986,39.6126
87.9893,39.6126
87.9094,39.6017
87.8423,39.5700
87.7849,39.5165
87.7544,39.4696
87.7364,39.4190
87.7303,39.3635
87.7337,39.3404
87.8478,39.3404
87.8574,39.3903
87.8822,39.4351
87.9189,39.4705
87.9630,39.4916
88.0166,39.4990
88.1259,39.4990
88.1822,39.4924
88.2378,39.4723
88.2937,39.4372
88.3416,39.3920
88.3764,39.3408
88.3992,39.2826
88.6177,38.4082
88.6240,38.3495
88.6148,38.2994
88.5910,38.2552
88.5552,38.2204
88.5104,38.1993
88.4538,38.1918
88.3445,38.1918
88.2869,38.1986
88.2308,38.2192
88.1751,38.2552
88.1275,38.3013
88.0941,38.3516
88.0735,38.4071
87.8537,39.2826
87.8478,39.3404
87.7337,39.3404
87.7423,39.2826
87.9609,38.4071
87.9910,38.3248
88.0408,38.2486
88.1127,38.1770
88.1970,38.1210
88.2827,38.0887
88.3718,38.0781
88.4812,38.0781
Z" />
<path style="fill:#F2EDA1; fill-opacity:1.0000; stroke:none;fill-rule:evenodd;"
d="M 89.5406,38.0893
89.6092,38.1213
89.6649,38.1743
89.6927,38.2201
89.7094,38.2703
89.7151,38.3262
89.7031,38.4093
89.4845,39.2826
89.4534,39.3675
89.4030,39.4447
89.3309,39.5154
89.2465,39.5704
89.1610,39.6021
89.0724,39.6126
88.9631,39.6126
88.8832,39.6017
88.8161,39.5700
88.7587,39.5165
88.7283,39.4696
88.7102,39.4190
88.7041,39.3635
88.7075,39.3404
88.8216,39.3404
88.8313,39.3903
88.8560,39.4351
88.8928,39.4705
88.9368,39.4916
88.9905,39.4990
89.0998,39.4990
89.1561,39.4924
89.2116,39.4723
89.2675,39.4372
89.3154,39.3920
89.3502,39.3408
89.3730,39.2826
89.5916,38.4082
89.5978,38.3495
89.5886,38.2994
89.5648,38.2552
89.5290,38.2204
89.4843,38.1993
89.4276,38.1918
89.3183,38.1918
89.2607,38.1986
89.2047,38.2192
89.1489,38.2552
89.1013,38.3013
89.0679,38.3516
89.0473,38.4071
88.8276,39.2826
88.8216,39.3404
88.7075,39.3404
88.7161,39.2826
88.9348,38.4071
88.9649,38.3248
89.0146,38.2486
89.0866,38.1770
89.1708,38.1210
89.2565,38.0887
89.3457,38.0781
89.4550,38.0781
Z" />
<path style="fill:#F2EDA1; fill-opacity:1.0000; stroke:none;fill-rule:evenodd;"
d="M 90.2572,39.5558
90.2478,39.5803
90.2310,39.5984
90.2110,39.6090
90.1872,39.6126
90.1512,39.5984
90.1427,39.5826
90.1446,39.5558
90.3501,38.7361
90.3516,38.6929
90.3370,38.6596
90.3093,38.6370
90.2692,38.6290
89.9436,38.6290
89.7108,39.5558
89.7013,39.5803
89.6845,39.5984
89.6645,39.6090
89.6408,39.6126
89.6047,39.5984
89.5949,39.5744
89.5981,39.5547
89.8452,38.5721
89.8592,38.5398
89.8814,38.5217
89.9141,38.5153
90.2966,38.5153
90.3548,38.5227
90.4008,38.5435
90.4375,38.5776
90.4620,38.6245
90.4704,38.6792
90.4627,38.7361
Z" />
<path style="fill:#F2EDA1; fill-opacity:1.0000; stroke:none;fill-rule:evenodd;"
d="M 90.8051,38.7350
91.2937,38.7350
91.3125,38.7394
91.3282,38.7531
91.3368,38.7718
91.3352,38.7918
91.3276,38.8114
91.3122,38.8306
91.2916,38.8440
91.2664,38.8486
90.7767,38.8486
90.5985,39.5558
90.5891,39.5803
90.5724,39.5984
90.5523,39.6090
90.5286,39.6126
90.4925,39.5984
90.4827,39.5744
90.4860,39.5547
90.8423,38.1349
90.8563,38.1026
90.8785,38.0845
90.9112,38.0781
91.4576,38.0781
91.4765,38.0822
91.4915,38.0945
91.5024,38.1251
91.5014,38.1360
91.4929,38.1546
91.4767,38.1737
91.4557,38.1872
91.4303,38.1918
90.9407,38.1918
Z" />
<path style="fill:#F2EDA1; fill-opacity:1.0000; stroke:none;fill-rule:evenodd;"
d="M 62.4227,45.1067
61.5977,46.6929
61.5614,46.7366
61.5214,46.7494
61.4958,46.7432
61.4807,46.7256
61.4747,46.6917
61.4403,45.1055
61.4427,45.0870
61.4519,45.0654
61.4716,45.0446
61.4967,45.0301
61.5226,45.0255
61.5496,45.0354
61.5608,45.0468
61.5718,45.0735
61.6013,46.4310
62.3096,45.0723
62.3366,45.0403
62.3809,45.0255
62.4035,45.0299
62.4214,45.0427
62.4325,45.0735
62.4313,45.0882
Z" />
<path style="fill:#F2EDA1; fill-opacity:1.0000; stroke:none;fill-rule:evenodd;"
d="M 62.8936,46.3781
62.8579,46.4753
62.8011,46.5625
62.7208,46.6413
62.6267,46.7024
62.5309,46.7377
62.4312,46.7494
62.2468,46.7494
62.2202,46.7448
62.2025,46.7323
62.1951,46.7027
62.1977,46.6842
62.2234,46.6462
62.2482,46.6277
62.2776,46.6216
62.4620,46.6216
62.5268,46.6139
62.5896,46.5907
62.6519,46.5503
62.7053,46.4984
62.7436,46.4414
62.7682,46.3781
63.0904,45.0870
63.0984,45.0672
63.1186,45.0446
63.1443,45.0281
63.1690,45.0231
63.1905,45.0274
63.2084,45.0403
63.2194,45.0698
63.2170,45.0870
Z" />
<path style="fill:#F2EDA1; fill-opacity:1.0000; stroke:none;fill-rule:evenodd;"
d="M 64.0495,46.3781
64.0146,46.4737
63.9579,46.5605
63.8768,46.6401
63.7818,46.7020
63.6856,46.7376
63.5859,46.7494
63.4631,46.7494
63.3731,46.7371
63.2977,46.7015
63.2331,46.6413
63.1988,46.5885
63.1785,46.5317
63.1716,46.4691
63.1851,46.3781
63.5072,45.0870
63.5154,45.0672
63.5356,45.0446
63.5613,45.0281
63.5859,45.0231
63.6075,45.0274
63.6253,45.0403
63.6353,45.0598
63.6340,45.0870
63.3105,46.3781
63.3038,46.4432
63.3146,46.4994
63.3425,46.5497
63.3838,46.5896
63.4334,46.6133
63.4937,46.6216
63.6167,46.6216
63.6801,46.6142
63.7425,46.5916
63.8054,46.5521
63.8594,46.5012
63.8985,46.4436
63.9241,46.3781
64.2463,45.0870
64.2544,45.0672
64.2745,45.0446
64.3002,45.0281
64.3250,45.0231
64.3465,45.0274
64.3643,45.0403
64.3754,45.0698
64.3729,45.0870
Z" />
<path style="fill:#F2EDA1; fill-opacity:1.0000; stroke:none;fill-rule:evenodd;"
d="M 65.1051,46.6856
65.0894,46.7218
65.0644,46.7422
65.0276,46.7494
64.5973,46.7494
64.5074,46.7371
64.4319,46.7015
64.3674,46.6413
64.3331,46.5885
64.3127,46.5317
64.3058,46.4691
64.3194,46.3781
64.5653,45.3932
64.5992,45.3007
64.6552,45.2149
64.7362,45.1344
64.8310,45.0714
64.9274,45.0351
65.0276,45.0231
65.4580,45.0231
65.4793,45.0281
65.4974,45.0440
65.5073,45.0747
65.5059,45.0882
65.4974,45.1092
65.4796,45.1307
65.4558,45.1459
65.4272,45.1510
64.9969,45.1510
64.9320,45.1587
64.8690,45.1819
64.8063,45.2223
64.7527,45.2742
64.7152,45.3308
64.6919,45.3932
64.4449,46.3781
64.4381,46.4432
64.4489,46.4994
64.4767,46.5497
64.5181,46.5896
64.5677,46.6133
64.6281,46.6216
64.9944,46.6216
65.1764,45.8899
64.9969,45.8899
64.9707,45.8850
64.9539,45.8715
64.9475,45.8508
64.9502,45.8261
64.9747,45.7867
64.9985,45.7682
65.0276,45.7621
65.2724,45.7621
65.3076,45.7697
65.3223,45.7893
65.3203,45.8261
Z" />
<path style="fill:#F2EDA1; fill-opacity:1.0000; stroke:none;fill-rule:evenodd;"
d="M 66.2600,45.0305
66.2756,45.0482
66.2822,45.0821
66.3154,46.6683
66.3130,46.6868
66.3035,46.7085
66.2822,46.7311
66.2561,46.7442
66.2331,46.7482
66.1991,46.7372
66.1895,46.7236
66.1851,46.7015
66.1753,46.2564
65.6773,46.2564
65.4474,46.7015
65.4166,46.7359
65.3748,46.7482
65.3514,46.7438
65.3341,46.7311
65.3232,46.7027
65.3256,46.6856
65.3317,46.6671
65.6127,46.1285
65.7449,46.1285
66.1728,46.1285
66.1580,45.3305
65.7449,46.1285
65.6127,46.1285
66.1592,45.0809
66.1946,45.0371
66.2343,45.0243
Z" />
<path style="fill:#F2EDA1; fill-opacity:1.0000; stroke:none;fill-rule:evenodd;"
d="M 67.9638,45.0358
68.0409,45.0717
68.1035,45.1313
68.1348,45.1829
68.1536,45.2394
68.1600,45.3022
68.1465,45.3957
68.0851,45.6403
68.0501,45.7359
67.9933,45.8225
67.9123,45.9017
67.7764,46.0105
67.6252,46.0596
67.8244,46.6536
67.8256,46.6856
67.8152,46.7076
67.7936,46.7311
67.7673,46.7451
67.7433,46.7494
67.7137,46.7421
67.6977,46.7174
67.4617,46.0105
67.2550,46.0105
67.0853,46.6856
67.0747,46.7131
67.0559,46.7335
67.0334,46.7454
67.0066,46.7494
66.9661,46.7335
66.9551,46.7064
66.9587,46.6842
67.1599,45.8826
67.2870,45.8826
67.6522,45.8826
67.7164,45.8751
67.7792,45.8525
67.8422,45.8131
67.8961,45.7622
67.9348,45.7050
67.9597,45.6403
68.0211,45.3945
68.0281,45.3284
68.0178,45.2721
67.9910,45.2223
67.9507,45.1831
67.9003,45.1594
67.8367,45.1510
67.4702,45.1510
67.2870,45.8826
67.1599,45.8826
67.3596,45.0870
67.3753,45.0507
67.4002,45.0303
67.4370,45.0231
67.8674,45.0231
Z" />
<path style="fill:#F2EDA1; fill-opacity:1.0000; stroke:none;fill-rule:evenodd;"
d="M 68.3870,45.8899
68.2038,46.6216
68.7534,46.6216
68.7745,46.6267
68.7921,46.6425
68.8022,46.6640
68.8013,46.6856
68.7927,46.7075
68.7750,46.7292
68.7513,46.7443
68.7227,46.7494
68.1079,46.7494
68.0774,46.7442
68.0617,46.7309
68.0563,46.7089
68.0599,46.6842
68.4607,45.0870
68.4765,45.0507
68.5015,45.0303
68.5382,45.0231
69.1531,45.0231
69.1742,45.0277
69.1912,45.0415
69.2035,45.0759
69.2022,45.0882
69.1926,45.1092
69.1745,45.1307
69.1509,45.1459
69.1223,45.1510
68.5714,45.1510
68.4190,45.7621
68.7227,45.7621
68.7438,45.7671
68.7615,45.7824
68.7711,45.8036
68.7694,45.8261
68.7608,45.8481
68.7435,45.8697
68.7204,45.8848
68.6920,45.8899
Z" />
<path style="fill:#F2EDA1; fill-opacity:1.0000; stroke:none;fill-rule:evenodd;"
d="M 70.3115,45.1067
69.4865,46.6929
69.4502,46.7366
69.4102,46.7494
69.3847,46.7432
69.3695,46.7256
69.3635,46.6917
69.3291,45.1055
69.3316,45.0870
69.3408,45.0654
69.3605,45.0446
69.3856,45.0301
69.4115,45.0255
69.4385,45.0354
69.4497,45.0468
69.4607,45.0735
69.4901,46.4310
70.1984,45.0723
70.2254,45.0403
70.2697,45.0255
70.2923,45.0299
70.3103,45.0427
70.3214,45.0735
70.3202,45.0882
Z" />
<path style="fill:#F2EDA1; fill-opacity:1.0000; stroke:none;fill-rule:evenodd;"
d="M 69.8956,46.6216
69.9168,46.6267
69.9350,46.6425
69.9448,46.6732
69.9435,46.6868
69.9350,46.7077
69.9171,46.7292
69.8934,46.7443
69.8648,46.7494
69.8383,46.7448
69.8206,46.7323
69.8132,46.7027
69.8157,46.6842
69.8414,46.6462
69.8662,46.6277
Z" />
<path style="fill:#F2EDA1; fill-opacity:1.0000; stroke:none;fill-rule:evenodd;"
d="M 71.0979,45.0358
71.1751,45.0717
71.2377,45.1313
71.2715,45.1876
71.2893,45.2506
71.2918,45.3170
71.2880,45.3563
71.2807,45.3957
71.2487,45.5173
71.2200,45.6037
71.1774,45.6773
71.1204,45.7420
71.0446,45.8039
71.0871,45.8379
71.1220,45.8829
71.1497,45.9410
71.1656,46.0034
71.1683,46.0671
71.1577,46.1334
71.0963,46.3794
71.0618,46.4713
71.0034,46.5571
70.9173,46.6382
70.8176,46.7023
70.7235,46.7380
70.6327,46.7494
70.2024,46.7494
70.1719,46.7442
70.1562,46.7309
70.1507,46.7089
70.1543,46.6842
70.1701,46.6216
70.2982,46.6216
70.6634,46.6216
70.7276,46.6142
70.7904,46.5915
70.8534,46.5521
70.9072,46.5012
70.9459,46.4436
70.9708,46.3781
71.0323,46.1322
71.0384,46.0696
71.0273,46.0142
70.9991,45.9631
70.9577,45.9225
70.9082,45.8983
70.8479,45.8899
70.4814,45.8899
70.2982,46.6216
70.1701,46.6216
70.3858,45.7621
70.5134,45.7621
70.8171,45.7621
70.8812,45.7544
70.9438,45.7311
71.0065,45.6902
71.0603,45.6379
71.0987,45.5806
71.1233,45.5173
71.1541,45.3945
71.1612,45.3283
71.1514,45.2720
71.1257,45.2223
71.0865,45.1833
71.0361,45.1595
70.9708,45.1510
70.6658,45.1510
70.5134,45.7621
70.3858,45.7621
70.5552,45.0870
70.5710,45.0507
70.5959,45.0303
70.6327,45.0231
71.0016,45.0231
Z" />
<path style="fill:#F2EDA1; fill-opacity:1.0000; stroke:none;fill-rule:evenodd;"
d="M 72.4301,46.7494
72.1239,46.7494
72.0324,46.7369
71.9562,46.7009
71.8916,46.6401
71.8580,46.5874
71.8380,46.5305
71.8312,46.4678
71.8435,46.3781
72.0907,45.3932
72.1246,45.3007
72.1806,45.2149
72.2616,45.1344
72.3564,45.0714
72.4532,45.0351
72.5543,45.0231
72.8604,45.0231
72.8816,45.0277
72.8985,45.0415
72.9109,45.0759
72.9096,45.0882
72.9001,45.1092
72.8820,45.1307
72.8582,45.1459
72.8297,45.1510
72.5235,45.1510
72.4587,45.1586
72.3958,45.1814
72.3335,45.2211
72.2802,45.2722
72.2415,45.3296
72.2161,45.3945
71.9703,46.3781
71.9632,46.4441
71.9735,46.5005
72.0003,46.5503
72.0406,46.5895
72.0910,46.6132
72.1547,46.6216
72.4608,46.6216
72.4819,46.6267
72.4996,46.6425
72.5096,46.6640
72.5088,46.6856
72.5001,46.7075
72.4823,46.7292
72.4586,46.7443
Z" />
<path style="fill:#F2EDA1; fill-opacity:1.0000; stroke:none;fill-rule:evenodd;"
d="M 73.7073,45.0368
73.7849,45.0724
73.8482,45.1313
73.8813,45.1877
73.8998,45.2518
73.9022,45.3170
73.8985,45.3563
73.8911,45.3957
73.8285,45.6415
73.7935,45.7372
73.7369,45.8236
73.6563,45.9023
73.5618,45.9635
73.4654,45.9988
73.3649,46.0105
72.9985,46.0105
72.8288,46.6842
72.8182,46.7119
72.7993,46.7323
72.7768,46.7441
72.7501,46.7482
72.7095,46.7323
72.6984,46.7052
72.7021,46.6830
72.9027,45.8826
73.0304,45.8826
73.3957,45.8826
73.4598,45.8751
73.5227,45.8525
73.5856,45.8131
73.6396,45.7623
73.6782,45.7054
73.7031,45.6415
73.7645,45.3945
73.7715,45.3293
73.7612,45.2733
73.7344,45.2235
73.6941,45.1843
73.6437,45.1606
73.5801,45.1522
73.2137,45.1522
73.0304,45.8826
72.9027,45.8826
73.1018,45.0882
73.1176,45.0520
73.1429,45.0316
73.1805,45.0243
73.6109,45.0243
Z" />
<path style="fill:#F2EDA1; fill-opacity:1.0000; stroke:none;fill-rule:evenodd;"
d="M 74.7485,46.3781
74.7136,46.4737
74.6569,46.5605
74.5758,46.6401
74.4808,46.7020
74.3846,46.7376
74.2849,46.7494
74.1621,46.7494
74.0721,46.7371
73.9967,46.7015
73.9321,46.6413
73.8978,46.5885
73.8775,46.5317
73.8706,46.4691
73.8841,46.3781
74.2062,45.0870
74.2144,45.0672
74.2346,45.0446
74.2603,45.0281
74.2849,45.0231
74.3065,45.0274
74.3243,45.0403
74.3343,45.0598
74.3330,45.0870
74.0095,46.3781
74.0028,46.4432
74.0136,46.4994
74.0415,46.5497
74.0828,46.5896
74.1324,46.6133
74.1927,46.6216
74.3157,46.6216
74.3791,46.6142
74.4415,46.5916
74.5044,46.5521
74.5584,46.5012
74.5975,46.4436
74.6231,46.3781
74.9453,45.0870
74.9534,45.0672
74.9735,45.0446
74.9992,45.0281
75.0240,45.0231
75.0455,45.0274
75.0633,45.0403
75.0744,45.0698
75.0719,45.0870
Z" />
</g>
<g style="fill:none;
stroke:#F2EDA1; stroke-width:0.1500; stroke-opacity:1;
stroke-linecap:round; stroke-linejoin:round;">
<path d="M85.3800 40.6300
L90.6200 40.6300
" />
<path d="M85.3800 40.9670
L85.3800 40.6300
" />
<path d="M85.3800 43.3700
L85.3800 43.0330
" />
<path d="M90.6200 40.6300
L90.6200 40.9670
" />
<path d="M90.6200 43.0330
L90.6200 43.3700
" />
<path d="M90.6200 43.3700
L85.3800 43.3700
" />
<path d="M74.5500 12.3000
L74.5500 24.4500
" />
<path d="M74.5500 24.4500
L94.7000 24.4500
" />
<path d="M94.7000 11.5500
L75.3000 11.5500
" />
<path d="M95.4500 23.7000
L95.4500 12.3000
" />
<path d="M75.3000 11.5500 A0.7500 0.7500 0.0 0 0 74.5500 12.3000" />
<path d="M95.4500 12.3000 A0.7500 0.7500 0.0 0 0 94.7000 11.5500" />
<path d="M94.7000 24.4500 A0.7500 0.7500 0.0 0 0 95.4500 23.7000" />
<path d="M33.5400 47.3800
L33.5400 46.0000
" />
<path d="M34.9200 47.3800
L33.5400 47.3800
" />
<path d="M36.1900 44.6200
L46.4600 44.6200
" />
<path d="M36.1900 47.3800
L36.1900 44.6200
" />
<path d="M36.1900 47.3800
L46.4600 47.3800
" />
<path d="M46.4600 47.3800
L46.4600 44.6200
" />
<path d="M13.5450 15.5400
L13.5450 21.0000
" />
<path d="M13.5450 23.0000
L13.5450 28.4600
" />
<path d="M13.5450 28.4600
L64.4650 28.4600
" />
<path d="M64.4650 15.5400
L13.5450 15.5400
" />
<path d="M64.4650 28.4600
L64.4650 15.5400
" />
<path d="M13.5450 23.0000 A1.0000 1.0000 0.0 0 0 13.5450 21.0000" />
<path d="M63.3800 34.6300
L68.6200 34.6300
" />
<path d="M63.3800 34.9670
L63.3800 34.6300
" />
<path d="M63.3800 37.3700
L63.3800 37.0330
" />
<path d="M68.6200 34.6300
L68.6200 34.9670
" />
<path d="M68.6200 37.0330
L68.6200 37.3700
" />
<path d="M68.6200 37.3700
L63.3800 37.3700
" />
</g>
<g style="fill:none;
stroke:#D0D2CD; stroke-width:0.1500; stroke-opacity:1;
stroke-linecap:round; stroke-linejoin:round;">
<path d="M0.0000 0.0000
L100.0000 0.0000
" />
<path d="M0.0000 70.0000
L0.0000 0.0000
" />
<path d="M100.0000 0.0000
L100.0000 70.0000
" />
<path d="M100.0000 70.0000
L0.0000 70.0000
" />
</g>
<g style="fill:#FFFFFF; fill-opacity:1.0000; stroke:none;">
<circle cx="57.3685" cy="46.4564" r="0.1500" />
<circle cx="29.5476" cy="63.5189" r="0.1500" />
<circle cx="26.6489" cy="33.2446" r="0.1500" />
<circle cx="38.9092" cy="60.0339" r="0.1500" />
<circle cx="23.8230" cy="50.3430" r="0.1500" />
<circle cx="49.0714" cy="15.5086" r="0.1500" />
<circle cx="39.8137" cy="61.4248" r="0.1500" />
<circle cx="25.9445" cy="62.6584" r="0.1500" />
<circle cx="43.4126" cy="62.0848" r="0.1500" />
<circle cx="53.6022" cy="50.2521" r="0.1500" />
<circle cx="54.3040" cy="51.0875" r="0.1500" />
<circle cx="55.0386" cy="20.3360" r="0.1500" />
<circle cx="50.3756" cy="22.0271" r="0.1500" />
<circle cx="15.6049" cy="20.5542" r="0.1500" />
<circle cx="15.2942" cy="12.3664" r="0.1500" />
<circle cx="15.5924" cy="16.3533" r="0.1500" />
<circle cx="71.0077" cy="62.7572" r="0.1500" />
<circle cx="53.9474" cy="16.0923" r="0.1500" />
<circle cx="51.4389" cy="16.1073" r="0.1500" />
<circle cx="54.0003" cy="16.9694" r="0.1500" />
<circle cx="54.3859" cy="17.7194" r="0.1500" />
<circle cx="21.8237" cy="55.2991" r="0.1500" />
<circle cx="21.8135" cy="56.4564" r="0.1500" />
<circle cx="21.7785" cy="59.0305" r="0.1500" />
</g>
<g style="fill:#FFFFFF; fill-opacity:1.0000; stroke:none;">
<circle cx="85.5000" cy="42.0000" r="0.4000" />
</g>
<g style="fill:#FFFFFF; fill-opacity:1.0000; stroke:none;">
<circle cx="90.5000" cy="42.0000" r="0.4000" />
</g>
<g style="fill:#FFFFFF; fill-opacity:1.0000; stroke:none;">
<circle cx="77.3800" cy="21.8100" r="0.4000" />
</g>
<g style="fill:#FFFFFF; fill-opacity:1.0000; stroke:none;">
<circle cx="92.6200" cy="21.8100" r="0.4000" />
</g>
<g style="fill:#FFFFFF; fill-opacity:1.0000; stroke:none;">
<circle cx="92.6200" cy="14.1900" r="0.4000" />
</g>
<g style="fill:#FFFFFF; fill-opacity:1.0000; stroke:none;">
<circle cx="77.3800" cy="14.1900" r="0.4000" />
</g>
<g style="fill:#FFFFFF; fill-opacity:1.0000; stroke:none;">
<circle cx="34.9200" cy="46.0000" r="0.5000" />
</g>
<g style="fill:#FFFFFF; fill-opacity:1.0000; stroke:none;">
<circle cx="37.4600" cy="46.0000" r="0.5000" />
</g>
<g style="fill:#FFFFFF; fill-opacity:1.0000; stroke:none;">
<circle cx="40.0000" cy="46.0000" r="0.5000" />
</g>
<g style="fill:#FFFFFF; fill-opacity:1.0000; stroke:none;">
<circle cx="42.5400" cy="46.0000" r="0.5000" />
</g>
<g style="fill:#FFFFFF; fill-opacity:1.0000; stroke:none;">
<circle cx="45.0800" cy="46.0000" r="0.5000" />
</g>
<g style="fill:#FFFFFF; fill-opacity:1.0000; stroke:none;">
<circle cx="14.8750" cy="29.6200" r="0.4000" />
</g>
<g style="fill:#FFFFFF; fill-opacity:1.0000; stroke:none;">
<circle cx="17.4150" cy="29.6200" r="0.4000" />
</g>
<g style="fill:#FFFFFF; fill-opacity:1.0000; stroke:none;">
<circle cx="19.9550" cy="29.6200" r="0.4000" />
</g>
<g style="fill:#FFFFFF; fill-opacity:1.0000; stroke:none;">
<circle cx="22.4950" cy="29.6200" r="0.4000" />
</g>
<g style="fill:#FFFFFF; fill-opacity:1.0000; stroke:none;">
<circle cx="25.0350" cy="29.6200" r="0.4000" />
</g>
<g style="fill:#FFFFFF; fill-opacity:1.0000; stroke:none;">
<circle cx="27.5750" cy="29.6200" r="0.4000" />
</g>
<g style="fill:#FFFFFF; fill-opacity:1.0000; stroke:none;">
<circle cx="30.1150" cy="29.6200" r="0.4000" />
</g>
<g style="fill:#FFFFFF; fill-opacity:1.0000; stroke:none;">
<circle cx="32.6550" cy="29.6200" r="0.4000" />
</g>
<g style="fill:#FFFFFF; fill-opacity:1.0000; stroke:none;">
<circle cx="35.1950" cy="29.6200" r="0.4000" />
</g>
<g style="fill:#FFFFFF; fill-opacity:1.0000; stroke:none;">
<circle cx="37.7350" cy="29.6200" r="0.4000" />
</g>
<g style="fill:#FFFFFF; fill-opacity:1.0000; stroke:none;">
<circle cx="40.2750" cy="29.6200" r="0.4000" />
</g>
<g style="fill:#FFFFFF; fill-opacity:1.0000; stroke:none;">
<circle cx="42.8150" cy="29.6200" r="0.4000" />
</g>
<g style="fill:#FFFFFF; fill-opacity:1.0000; stroke:none;">
<circle cx="45.3550" cy="29.6200" r="0.4000" />
</g>
<g style="fill:#FFFFFF; fill-opacity:1.0000; stroke:none;">
<circle cx="47.8950" cy="29.6200" r="0.4000" />
</g>
<g style="fill:#FFFFFF; fill-opacity:1.0000; stroke:none;">
<circle cx="50.4350" cy="29.6200" r="0.4000" />
</g>
<g style="fill:#FFFFFF; fill-opacity:1.0000; stroke:none;">
<circle cx="52.9750" cy="29.6200" r="0.4000" />
</g>
<g style="fill:#FFFFFF; fill-opacity:1.0000; stroke:none;">
<circle cx="55.5150" cy="29.6200" r="0.4000" />
</g>
<g style="fill:#FFFFFF; fill-opacity:1.0000; stroke:none;">
<circle cx="58.0550" cy="29.6200" r="0.4000" />
</g>
<g style="fill:#FFFFFF; fill-opacity:1.0000; stroke:none;">
<circle cx="60.5950" cy="29.6200" r="0.4000" />
</g>
<g style="fill:#FFFFFF; fill-opacity:1.0000; stroke:none;">
<circle cx="63.1350" cy="29.6200" r="0.4000" />
</g>
<g style="fill:#FFFFFF; fill-opacity:1.0000; stroke:none;">
<circle cx="63.1350" cy="14.3800" r="0.4000" />
</g>
<g style="fill:#FFFFFF; fill-opacity:1.0000; stroke:none;">
<circle cx="60.5950" cy="14.3800" r="0.4000" />
</g>
<g style="fill:#FFFFFF; fill-opacity:1.0000; stroke:none;">
<circle cx="58.0550" cy="14.3800" r="0.4000" />
</g>
<g style="fill:#FFFFFF; fill-opacity:1.0000; stroke:none;">
<circle cx="55.5150" cy="14.3800" r="0.4000" />
</g>
<g style="fill:#FFFFFF; fill-opacity:1.0000; stroke:none;">
<circle cx="52.9750" cy="14.3800" r="0.4000" />
</g>
<g style="fill:#FFFFFF; fill-opacity:1.0000; stroke:none;">
<circle cx="50.4350" cy="14.3800" r="0.4000" />
</g>
<g style="fill:#FFFFFF; fill-opacity:1.0000; stroke:none;">
<circle cx="47.8950" cy="14.3800" r="0.4000" />
</g>
<g style="fill:#FFFFFF; fill-opacity:1.0000; stroke:none;">
<circle cx="45.3550" cy="14.3800" r="0.4000" />
</g>
<g style="fill:#FFFFFF; fill-opacity:1.0000; stroke:none;">
<circle cx="42.8150" cy="14.3800" r="0.4000" />
</g>
<g style="fill:#FFFFFF; fill-opacity:1.0000; stroke:none;">
<circle cx="40.2750" cy="14.3800" r="0.4000" />
</g>
<g style="fill:#FFFFFF; fill-opacity:1.0000; stroke:none;">
<circle cx="37.7350" cy="14.3800" r="0.4000" />
</g>
<g style="fill:#FFFFFF; fill-opacity:1.0000; stroke:none;">
<circle cx="35.1950" cy="14.3800" r="0.4000" />
</g>
<g style="fill:#FFFFFF; fill-opacity:1.0000; stroke:none;">
<circle cx="32.6550" cy="14.3800" r="0.4000" />
</g>
<g style="fill:#FFFFFF; fill-opacity:1.0000; stroke:none;">
<circle cx="30.1150" cy="14.3800" r="0.4000" />
</g>
<g style="fill:#FFFFFF; fill-opacity:1.0000; stroke:none;">
<circle cx="27.5750" cy="14.3800" r="0.4000" />
</g>
<g style="fill:#FFFFFF; fill-opacity:1.0000; stroke:none;">
<circle cx="25.0350" cy="14.3800" r="0.4000" />
</g>
<g style="fill:#FFFFFF; fill-opacity:1.0000; stroke:none;">
<circle cx="22.4950" cy="14.3800" r="0.4000" />
</g>
<g style="fill:#FFFFFF; fill-opacity:1.0000; stroke:none;">
<circle cx="19.9550" cy="14.3800" r="0.4000" />
</g>
<g style="fill:#FFFFFF; fill-opacity:1.0000; stroke:none;">
<circle cx="17.4150" cy="14.3800" r="0.4000" />
</g>
<g style="fill:#FFFFFF; fill-opacity:1.0000; stroke:none;">
<circle cx="14.8750" cy="14.3800" r="0.4000" />
</g>
<g style="fill:#FFFFFF; fill-opacity:1.0000; stroke:none;">
<circle cx="63.5000" cy="36.0000" r="0.4000" />
</g>
<g style="fill:#FFFFFF; fill-opacity:1.0000; stroke:none;">
<circle cx="68.5000" cy="36.0000" r="0.4000" />
</g>
<g style="fill:#FFFFFF; fill-opacity:1.0000; stroke:none;">
<circle cx="98.2600" cy="66.0000" r="0.5000" />
</g>
<g style="fill:#FFFFFF; fill-opacity:1.0000; stroke:none;">
<circle cx="95.7200" cy="66.0000" r="0.5000" />
</g>
<g style="fill:#FFFFFF; fill-opacity:1.0000; stroke:none;">
<circle cx="93.1800" cy="66.0000" r="0.5000" />
</g>
<g style="fill:#FFFFFF; fill-opacity:1.0000; stroke:none;">
<circle cx="90.6400" cy="66.0000" r="0.5000" />
</g>
<g style="fill:#FFFFFF; fill-opacity:1.0000; stroke:none;">
<circle cx="88.1000" cy="66.0000" r="0.5000" />
</g>
<g style="fill:#FFFFFF; fill-opacity:1.0000; stroke:none;">
<circle cx="85.5600" cy="66.0000" r="0.5000" />
</g>
<g style="fill:#FFFFFF; fill-opacity:1.0000; stroke:none;">
<circle cx="83.0200" cy="66.0000" r="0.5000" />
</g>
<g style="fill:#FFFFFF; fill-opacity:1.0000; stroke:none;">
<circle cx="80.4800" cy="66.0000" r="0.5000" />
</g>
<g style="fill:#FFFFFF; fill-opacity:1.0000; stroke:none;">
<circle cx="77.9400" cy="66.0000" r="0.5000" />
</g>
<g style="fill:#FFFFFF; fill-opacity:1.0000; stroke:none;">
<circle cx="75.4000" cy="66.0000" r="0.5000" />
</g>
<g style="fill:#FFFFFF; fill-opacity:1.0000; stroke:none;">
<circle cx="72.8600" cy="66.0000" r="0.5000" />
</g>
<g style="fill:#FFFFFF; fill-opacity:1.0000; stroke:none;">
<circle cx="70.3200" cy="66.0000" r="0.5000" />
</g>
<g style="fill:#FFFFFF; fill-opacity:1.0000; stroke:none;">
<circle cx="67.7800" cy="66.0000" r="0.5000" />
</g>
<g style="fill:#FFFFFF; fill-opacity:1.0000; stroke:none;">
<circle cx="65.2400" cy="66.0000" r="0.5000" />
</g>
<g style="fill:#FFFFFF; fill-opacity:1.0000; stroke:none;">
<circle cx="62.7000" cy="66.0000" r="0.5000" />
</g>
<g style="fill:#FFFFFF; fill-opacity:1.0000; stroke:none;">
<circle cx="60.1600" cy="66.0000" r="0.5000" />
</g>
<g style="fill:#FFFFFF; fill-opacity:1.0000; stroke:none;">
<circle cx="57.6200" cy="66.0000" r="0.5000" />
</g>
<g style="fill:#FFFFFF; fill-opacity:1.0000; stroke:none;">
<circle cx="55.0800" cy="66.0000" r="0.5000" />
</g>
<g style="fill:#FFFFFF; fill-opacity:1.0000; stroke:none;">
<circle cx="52.5400" cy="66.0000" r="0.5000" />
</g>
<g style="fill:#FFFFFF; fill-opacity:1.0000; stroke:none;">
<circle cx="50.0000" cy="66.0000" r="0.5000" />
</g>
<g style="fill:#FFFFFF; fill-opacity:1.0000; stroke:none;">
<circle cx="47.4600" cy="66.0000" r="0.5000" />
</g>
<g style="fill:#FFFFFF; fill-opacity:1.0000; stroke:none;">
<circle cx="44.9200" cy="66.0000" r="0.5000" />
</g>
<g style="fill:#FFFFFF; fill-opacity:1.0000; stroke:none;">
<circle cx="42.3800" cy="66.0000" r="0.5000" />
</g>
<g style="fill:#FFFFFF; fill-opacity:1.0000; stroke:none;">
<circle cx="39.8400" cy="66.0000" r="0.5000" />
</g>
<g style="fill:#FFFFFF; fill-opacity:1.0000; stroke:none;">
<circle cx="37.3000" cy="66.0000" r="0.5000" />
</g>
<g style="fill:#FFFFFF; fill-opacity:1.0000; stroke:none;">
<circle cx="34.7600" cy="66.0000" r="0.5000" />
</g>
<g style="fill:#FFFFFF; fill-opacity:1.0000; stroke:none;">
<circle cx="32.2200" cy="66.0000" r="0.5000" />
</g>
<g style="fill:#FFFFFF; fill-opacity:1.0000; stroke:none;">
<circle cx="29.6800" cy="66.0000" r="0.5000" />
</g>
<g style="fill:#FFFFFF; fill-opacity:1.0000; stroke:none;">
<circle cx="27.1400" cy="66.0000" r="0.5000" />
</g>
<g style="fill:#FFFFFF; fill-opacity:1.0000; stroke:none;">
<circle cx="24.6000" cy="66.0000" r="0.5000" />
</g>
<g style="fill:#FFFFFF; fill-opacity:1.0000; stroke:none;">
<circle cx="22.0600" cy="66.0000" r="0.5000" />
</g>
<g style="fill:#FFFFFF; fill-opacity:1.0000; stroke:none;">
<circle cx="19.5200" cy="66.0000" r="0.5000" />
</g>
<g style="fill:#FFFFFF; fill-opacity:1.0000; stroke:none;">
<circle cx="16.9800" cy="66.0000" r="0.5000" />
</g>
<g style="fill:#FFFFFF; fill-opacity:1.0000; stroke:none;">
<circle cx="14.4400" cy="66.0000" r="0.5000" />
</g>
<g style="fill:#FFFFFF; fill-opacity:1.0000; stroke:none;">
<circle cx="11.9000" cy="66.0000" r="0.5000" />
</g>
<g style="fill:#FFFFFF; fill-opacity:1.0000; stroke:none;">
<circle cx="9.3600" cy="66.0000" r="0.5000" />
</g>
<g style="fill:#FFFFFF; fill-opacity:1.0000; stroke:none;">
<circle cx="6.8200" cy="66.0000" r="0.5000" />
</g>
<g style="fill:#FFFFFF; fill-opacity:1.0000; stroke:none;">
<circle cx="4.2800" cy="66.0000" r="0.5000" />
</g>
<g style="fill:#FFFFFF; fill-opacity:1.0000; stroke:none;">
<circle cx="1.7400" cy="66.0000" r="0.5000" />
</g>
<g style="fill:#FFFFFF; fill-opacity:1.0000; stroke:none;">
<circle cx="3.0200" cy="61.0000" r="0.5000" />
</g>
<g style="fill:#FFFFFF; fill-opacity:1.0000; stroke:none;">
<circle cx="5.5600" cy="61.0000" r="0.5000" />
</g>
<g style="fill:#FFFFFF; fill-opacity:1.0000; stroke:none;">
<circle cx="8.1000" cy="61.0000" r="0.5000" />
</g>
<g style="fill:#FFFFFF; fill-opacity:1.0000; stroke:none;">
<circle cx="10.6400" cy="61.0000" r="0.5000" />
</g>
<g style="fill:#FFFFFF; fill-opacity:1.0000; stroke:none;">
<circle cx="13.1800" cy="61.0000" r="0.5000" />
</g>
<g style="fill:#FFFFFF; fill-opacity:1.0000; stroke:none;">
<circle cx="15.7200" cy="61.0000" r="0.5000" />
</g>
<g style="fill:#FFFFFF; fill-opacity:1.0000; stroke:none;">
<circle cx="18.2600" cy="61.0000" r="0.5000" />
</g>
<g style="fill:#FFFFFF; fill-opacity:1.0000; stroke:none;">
<circle cx="20.8000" cy="61.0000" r="0.5000" />
</g>
<g style="fill:#FFFFFF; fill-opacity:1.0000; stroke:none;">
<circle cx="23.3400" cy="61.0000" r="0.5000" />
</g>
<g style="fill:#FFFFFF; fill-opacity:1.0000; stroke:none;">
<circle cx="25.8800" cy="61.0000" r="0.5000" />
</g>
</svg>
