<?xml version="1.0" standalone="no"?>
 <!DOCTYPE svg PUBLIC "-//W3C//DTD SVG 1.1//EN" 
 "http://www.w3.org/Graphics/SVG/1.1/DTD/svg11.dtd"> 
<svg
  xmlns:svg="http://www.w3.org/2000/svg"
  xmlns="http://www.w3.org/2000/svg"
  xmlns:xlink="http://www.w3.org/1999/xlink"
  xmlns:inkscape="http://www.inkscape.org/namespaces/inkscape"
  version="1.1"
  width="99.9998mm" height="69.9770mm" viewBox="0.0000 0.0000 99.9998 69.9770">
<title>SVG Image created as cpu-top.svg date 2026-07-18T17:24:42 </title>
  <desc>Image generated by PCBNEW </desc>
<g style="fill:#000000; fill-opacity:1.0000;stroke:#000000; stroke-opacity:1.0000;
stroke-linecap:round; stroke-linejoin:round;"
 transform="translate(0 0) scale(1 1)">
</g>
<g style="fill:none; 
stroke:#C872AB; stroke-width:0.1500; stroke-opacity:1; 
stroke-linecap:round; stroke-linejoin:round;">
<path d="M-20.0000 26.0000
L88.0000 26.0000
L88.0000 58.0000
L-20.0000 58.0000
L-20.0000 26.0000
" />
<path d="M10.0000 10.0000
L90.0000 10.0000
L90.0000 60.0000
L10.0000 60.0000
L10.0000 10.0000
" />
<path d="M12.0000 12.0000
L88.0000 12.0000
L88.0000 58.0000
L12.0000 58.0000
L12.0000 12.0000
" />
<path d="M60.0000 12.0000
L60.0000 10.0000
" />
<text x="35.0000" y="11.6500"
textLength="1.4281" font-size="1.7333" lengthAdjust="spacingAndGlyphs"
text-anchor="start" opacity="0" stroke-opacity="0">1</text>
<g class="stroked-text"><desc>1</desc>
<path d="M36.0892 11.5936
L35.3463 11.5936
" />
<path d="M35.7177 11.5936
L35.7177 10.2936
" />
<path d="M35.7177 10.2936
L35.5939 10.4793
" />
<path d="M35.5939 10.4793
L35.4701 10.6031
" />
<path d="M35.4701 10.6031
L35.3463 10.6650
" />
</g><text x="85.0000" y="11.6500"
textLength="1.4281" font-size="1.7333" lengthAdjust="spacingAndGlyphs"
text-anchor="start" opacity="0" stroke-opacity="0">2</text>
<g class="stroked-text"><desc>2</desc>
<path d="M85.3463 10.4174
L85.4082 10.3555
" />
<path d="M85.4082 10.3555
L85.5320 10.2936
" />
<path d="M85.5320 10.2936
L85.8415 10.2936
" />
<path d="M85.8415 10.2936
L85.9654 10.3555
" />
<path d="M85.9654 10.3555
L86.0273 10.4174
" />
<path d="M86.0273 10.4174
L86.0892 10.5412
" />
<path d="M86.0892 10.5412
L86.0892 10.6650
" />
<path d="M86.0892 10.6650
L86.0273 10.8507
" />
<path d="M86.0273 10.8507
L85.2844 11.5936
" />
<path d="M85.2844 11.5936
L86.0892 11.5936
" />
</g><path d="M60.0000 58.0000
L60.0000 60.0000
" />
<text x="35.0000" y="59.6500"
textLength="1.4281" font-size="1.7333" lengthAdjust="spacingAndGlyphs"
text-anchor="start" opacity="0" stroke-opacity="0">1</text>
<g class="stroked-text"><desc>1</desc>
<path d="M36.0892 59.5936
L35.3463 59.5936
" />
<path d="M35.7177 59.5936
L35.7177 58.2936
" />
<path d="M35.7177 58.2936
L35.5939 58.4793
" />
<path d="M35.5939 58.4793
L35.4701 58.6031
" />
<path d="M35.4701 58.6031
L35.3463 58.6650
" />
</g><text x="85.0000" y="59.6500"
textLength="1.4281" font-size="1.7333" lengthAdjust="spacingAndGlyphs"
text-anchor="start" opacity="0" stroke-opacity="0">2</text>
<g class="stroked-text"><desc>2</desc>
<path d="M85.3463 58.4174
L85.4082 58.3555
" />
<path d="M85.4082 58.3555
L85.5320 58.2936
" />
<path d="M85.5320 58.2936
L85.8415 58.2936
" />
<path d="M85.8415 58.2936
L85.9654 58.3555
" />
<path d="M85.9654 58.3555
L86.0273 58.4174
" />
<path d="M86.0273 58.4174
L86.0892 58.5412
" />
<path d="M86.0892 58.5412
L86.0892 58.6650
" />
<path d="M86.0892 58.6650
L86.0273 58.8507
" />
<path d="M86.0273 58.8507
L85.2844 59.5936
" />
<path d="M85.2844 59.5936
L86.0892 59.5936
" />
</g><path d="M10.0000 60.0000
L12.0000 60.0000
" />
<text x="11.0000" y="35.6500"
textLength="1.3043" font-size="1.7333" lengthAdjust="spacingAndGlyphs"
text-anchor="middle" opacity="0" stroke-opacity="0">A</text>
<g class="stroked-text"><desc>A</desc>
<path d="M10.6905 35.2222
L11.3095 35.2222
" />
<path d="M10.5667 35.5936
L11.0000 34.2936
" />
<path d="M11.0000 34.2936
L11.4333 35.5936
" />
</g><path d="M90.0000 60.0000
L88.0000 60.0000
" />
<text x="89.0000" y="35.6500"
textLength="1.3043" font-size="1.7333" lengthAdjust="spacingAndGlyphs"
text-anchor="middle" opacity="0" stroke-opacity="0">A</text>
<g class="stroked-text"><desc>A</desc>
<path d="M88.6905 35.2222
L89.3095 35.2222
" />
<path d="M88.5667 35.5936
L89.0000 34.2936
" />
<path d="M89.0000 34.2936
L89.4333 35.5936
" />
</g><text x="3.0000" y="53.8500"
textLength="7.0071" font-size="2.0000" lengthAdjust="spacingAndGlyphs"
text-anchor="start" opacity="0" stroke-opacity="0">Date: </text>
<g class="stroked-text"><desc>Date: </desc>
<path d="M3.4558 53.7861
L3.4558 52.2861
" />
<path d="M3.4558 52.2861
L3.8130 52.2861
" />
<path d="M3.8130 52.2861
L4.0273 52.3576
" />
<path d="M4.0273 52.3576
L4.1701 52.5004
" />
<path d="M4.1701 52.5004
L4.2415 52.6433
" />
<path d="M4.2415 52.6433
L4.3130 52.9290
" />
<path d="M4.3130 52.9290
L4.3130 53.1433
" />
<path d="M4.3130 53.1433
L4.2415 53.4290
" />
<path d="M4.2415 53.4290
L4.1701 53.5718
" />
<path d="M4.1701 53.5718
L4.0273 53.7147
" />
<path d="M4.0273 53.7147
L3.8130 53.7861
" />
<path d="M3.8130 53.7861
L3.4558 53.7861
" />
<path d="M5.5987 53.7861
L5.5987 53.0004
" />
<path d="M5.5987 53.0004
L5.5273 52.8576
" />
<path d="M5.5273 52.8576
L5.3844 52.7861
" />
<path d="M5.3844 52.7861
L5.0987 52.7861
" />
<path d="M5.0987 52.7861
L4.9558 52.8576
" />
<path d="M5.5987 53.7147
L5.4558 53.7861
" />
<path d="M5.4558 53.7861
L5.0987 53.7861
" />
<path d="M5.0987 53.7861
L4.9558 53.7147
" />
<path d="M4.9558 53.7147
L4.8844 53.5718
" />
<path d="M4.8844 53.5718
L4.8844 53.4290
" />
<path d="M4.8844 53.4290
L4.9558 53.2861
" />
<path d="M4.9558 53.2861
L5.0987 53.2147
" />
<path d="M5.0987 53.2147
L5.4558 53.2147
" />
<path d="M5.4558 53.2147
L5.5987 53.1433
" />
<path d="M6.0987 52.7861
L6.6701 52.7861
" />
<path d="M6.3130 52.2861
L6.3130 53.5718
" />
<path d="M6.3130 53.5718
L6.3844 53.7147
" />
<path d="M6.3844 53.7147
L6.5273 53.7861
" />
<path d="M6.5273 53.7861
L6.6701 53.7861
" />
<path d="M7.7415 53.7147
L7.5987 53.7861
" />
<path d="M7.5987 53.7861
L7.3130 53.7861
" />
<path d="M7.3130 53.7861
L7.1701 53.7147
" />
<path d="M7.1701 53.7147
L7.0987 53.5718
" />
<path d="M7.0987 53.5718
L7.0987 53.0004
" />
<path d="M7.0987 53.0004
L7.1701 52.8576
" />
<path d="M7.1701 52.8576
L7.3130 52.7861
" />
<path d="M7.3130 52.7861
L7.5987 52.7861
" />
<path d="M7.5987 52.7861
L7.7415 52.8576
" />
<path d="M7.7415 52.8576
L7.8130 53.0004
" />
<path d="M7.8130 53.0004
L7.8130 53.1433
" />
<path d="M7.8130 53.1433
L7.0987 53.2861
" />
<path d="M8.4558 53.6433
L8.5273 53.7147
" />
<path d="M8.5273 53.7147
L8.4558 53.7861
" />
<path d="M8.4558 53.7861
L8.3844 53.7147
" />
<path d="M8.3844 53.7147
L8.4558 53.6433
" />
<path d="M8.4558 53.6433
L8.4558 53.7861
" />
<path d="M8.4558 52.8576
L8.5273 52.9290
" />
<path d="M8.5273 52.9290
L8.4558 53.0004
" />
<path d="M8.4558 53.0004
L8.3844 52.9290
" />
<path d="M8.3844 52.9290
L8.4558 52.8576
" />
<path d="M8.4558 52.8576
L8.4558 53.0004
" />
</g><path d="M-20.0000 54.5000
L88.0000 54.5000
" />
<text x="-19.0000" y="56.6500"
textLength="22.2929" font-size="2.0000" lengthAdjust="spacingAndGlyphs"
text-anchor="start" opacity="0" stroke-opacity="0">KiCad E.D.A. 10.0.4</text>
<g class="stroked-text"><desc>KiCad E.D.A. 10.0.4</desc>
<path d="M-18.5442 56.5861
L-18.5442 55.0861
" />
<path d="M-17.6870 56.5861
L-18.3299 55.7290
" />
<path d="M-17.6870 55.0861
L-18.5442 55.9433
" />
<path d="M-17.0442 56.5861
L-17.0442 55.5861
" />
<path d="M-17.0442 55.0861
L-17.1156 55.1576
" />
<path d="M-17.1156 55.1576
L-17.0442 55.2290
" />
<path d="M-17.0442 55.2290
L-16.9727 55.1576
" />
<path d="M-16.9727 55.1576
L-17.0442 55.0861
" />
<path d="M-17.0442 55.0861
L-17.0442 55.2290
" />
<path d="M-15.4727 56.4433
L-15.5442 56.5147
" />
<path d="M-15.5442 56.5147
L-15.7585 56.5861
" />
<path d="M-15.7585 56.5861
L-15.9013 56.5861
" />
<path d="M-15.9013 56.5861
L-16.1156 56.5147
" />
<path d="M-16.1156 56.5147
L-16.2585 56.3718
" />
<path d="M-16.2585 56.3718
L-16.3299 56.2290
" />
<path d="M-16.3299 56.2290
L-16.4013 55.9433
" />
<path d="M-16.4013 55.9433
L-16.4013 55.7290
" />
<path d="M-16.4013 55.7290
L-16.3299 55.4433
" />
<path d="M-16.3299 55.4433
L-16.2585 55.3004
" />
<path d="M-16.2585 55.3004
L-16.1156 55.1576
" />
<path d="M-16.1156 55.1576
L-15.9013 55.0861
" />
<path d="M-15.9013 55.0861
L-15.7585 55.0861
" />
<path d="M-15.7585 55.0861
L-15.5442 55.1576
" />
<path d="M-15.5442 55.1576
L-15.4727 55.2290
" />
<path d="M-14.1870 56.5861
L-14.1870 55.8004
" />
<path d="M-14.1870 55.8004
L-14.2585 55.6576
" />
<path d="M-14.2585 55.6576
L-14.4013 55.5861
" />
<path d="M-14.4013 55.5861
L-14.6870 55.5861
" />
<path d="M-14.6870 55.5861
L-14.8299 55.6576
" />
<path d="M-14.1870 56.5147
L-14.3299 56.5861
" />
<path d="M-14.3299 56.5861
L-14.6870 56.5861
" />
<path d="M-14.6870 56.5861
L-14.8299 56.5147
" />
<path d="M-14.8299 56.5147
L-14.9013 56.3718
" />
<path d="M-14.9013 56.3718
L-14.9013 56.2290
" />
<path d="M-14.9013 56.2290
L-14.8299 56.0861
" />
<path d="M-14.8299 56.0861
L-14.6870 56.0147
" />
<path d="M-14.6870 56.0147
L-14.3299 56.0147
" />
<path d="M-14.3299 56.0147
L-14.1870 55.9433
" />
<path d="M-12.8299 56.5861
L-12.8299 55.0861
" />
<path d="M-12.8299 56.5147
L-12.9727 56.5861
" />
<path d="M-12.9727 56.5861
L-13.2585 56.5861
" />
<path d="M-13.2585 56.5861
L-13.4013 56.5147
" />
<path d="M-13.4013 56.5147
L-13.4727 56.4433
" />
<path d="M-13.4727 56.4433
L-13.5442 56.3004
" />
<path d="M-13.5442 56.3004
L-13.5442 55.8718
" />
<path d="M-13.5442 55.8718
L-13.4727 55.7290
" />
<path d="M-13.4727 55.7290
L-13.4013 55.6576
" />
<path d="M-13.4013 55.6576
L-13.2585 55.5861
" />
<path d="M-13.2585 55.5861
L-12.9727 55.5861
" />
<path d="M-12.9727 55.5861
L-12.8299 55.6576
" />
<path d="M-10.9727 55.8004
L-10.4727 55.8004
" />
<path d="M-10.2585 56.5861
L-10.9727 56.5861
" />
<path d="M-10.9727 56.5861
L-10.9727 55.0861
" />
<path d="M-10.9727 55.0861
L-10.2585 55.0861
" />
<path d="M-9.6156 56.4433
L-9.5442 56.5147
" />
<path d="M-9.5442 56.5147
L-9.6156 56.5861
" />
<path d="M-9.6156 56.5861
L-9.6870 56.5147
" />
<path d="M-9.6870 56.5147
L-9.6156 56.4433
" />
<path d="M-9.6156 56.4433
L-9.6156 56.5861
" />
<path d="M-8.9013 56.5861
L-8.9013 55.0861
" />
<path d="M-8.9013 55.0861
L-8.5442 55.0861
" />
<path d="M-8.5442 55.0861
L-8.3299 55.1576
" />
<path d="M-8.3299 55.1576
L-8.1870 55.3004
" />
<path d="M-8.1870 55.3004
L-8.1156 55.4433
" />
<path d="M-8.1156 55.4433
L-8.0442 55.7290
" />
<path d="M-8.0442 55.7290
L-8.0442 55.9433
" />
<path d="M-8.0442 55.9433
L-8.1156 56.2290
" />
<path d="M-8.1156 56.2290
L-8.1870 56.3718
" />
<path d="M-8.1870 56.3718
L-8.3299 56.5147
" />
<path d="M-8.3299 56.5147
L-8.5442 56.5861
" />
<path d="M-8.5442 56.5861
L-8.9013 56.5861
" />
<path d="M-7.4013 56.4433
L-7.3299 56.5147
" />
<path d="M-7.3299 56.5147
L-7.4013 56.5861
" />
<path d="M-7.4013 56.5861
L-7.4727 56.5147
" />
<path d="M-7.4727 56.5147
L-7.4013 56.4433
" />
<path d="M-7.4013 56.4433
L-7.4013 56.5861
" />
<path d="M-6.7585 56.1576
L-6.0442 56.1576
" />
<path d="M-6.9013 56.5861
L-6.4013 55.0861
" />
<path d="M-6.4013 55.0861
L-5.9013 56.5861
" />
<path d="M-5.4013 56.4433
L-5.3299 56.5147
" />
<path d="M-5.3299 56.5147
L-5.4013 56.5861
" />
<path d="M-5.4013 56.5861
L-5.4727 56.5147
" />
<path d="M-5.4727 56.5147
L-5.4013 56.4433
" />
<path d="M-5.4013 56.4433
L-5.4013 56.5861
" />
<path d="M-2.7585 56.5861
L-3.6156 56.5861
" />
<path d="M-3.1870 56.5861
L-3.1870 55.0861
" />
<path d="M-3.1870 55.0861
L-3.3299 55.3004
" />
<path d="M-3.3299 55.3004
L-3.4727 55.4433
" />
<path d="M-3.4727 55.4433
L-3.6156 55.5147
" />
<path d="M-1.8299 55.0861
L-1.6870 55.0861
" />
<path d="M-1.6870 55.0861
L-1.5442 55.1576
" />
<path d="M-1.5442 55.1576
L-1.4727 55.2290
" />
<path d="M-1.4727 55.2290
L-1.4013 55.3718
" />
<path d="M-1.4013 55.3718
L-1.3299 55.6576
" />
<path d="M-1.3299 55.6576
L-1.3299 56.0147
" />
<path d="M-1.3299 56.0147
L-1.4013 56.3004
" />
<path d="M-1.4013 56.3004
L-1.4727 56.4433
" />
<path d="M-1.4727 56.4433
L-1.5442 56.5147
" />
<path d="M-1.5442 56.5147
L-1.6870 56.5861
" />
<path d="M-1.6870 56.5861
L-1.8299 56.5861
" />
<path d="M-1.8299 56.5861
L-1.9727 56.5147
" />
<path d="M-1.9727 56.5147
L-2.0442 56.4433
" />
<path d="M-2.0442 56.4433
L-2.1156 56.3004
" />
<path d="M-2.1156 56.3004
L-2.1870 56.0147
" />
<path d="M-2.1870 56.0147
L-2.1870 55.6576
" />
<path d="M-2.1870 55.6576
L-2.1156 55.3718
" />
<path d="M-2.1156 55.3718
L-2.0442 55.2290
" />
<path d="M-2.0442 55.2290
L-1.9727 55.1576
" />
<path d="M-1.9727 55.1576
L-1.8299 55.0861
" />
<path d="M-0.6870 56.4433
L-0.6156 56.5147
" />
<path d="M-0.6156 56.5147
L-0.6870 56.5861
" />
<path d="M-0.6870 56.5861
L-0.7585 56.5147
" />
<path d="M-0.7585 56.5147
L-0.6870 56.4433
" />
<path d="M-0.6870 56.4433
L-0.6870 56.5861
" />
<path d="M0.3130 55.0861
L0.4558 55.0861
" />
<path d="M0.4558 55.0861
L0.5987 55.1576
" />
<path d="M0.5987 55.1576
L0.6701 55.2290
" />
<path d="M0.6701 55.2290
L0.7415 55.3718
" />
<path d="M0.7415 55.3718
L0.8130 55.6576
" />
<path d="M0.8130 55.6576
L0.8130 56.0147
" />
<path d="M0.8130 56.0147
L0.7415 56.3004
" />
<path d="M0.7415 56.3004
L0.6701 56.4433
" />
<path d="M0.6701 56.4433
L0.5987 56.5147
" />
<path d="M0.5987 56.5147
L0.4558 56.5861
" />
<path d="M0.4558 56.5861
L0.3130 56.5861
" />
<path d="M0.3130 56.5861
L0.1701 56.5147
" />
<path d="M0.1701 56.5147
L0.0987 56.4433
" />
<path d="M0.0987 56.4433
L0.0273 56.3004
" />
<path d="M0.0273 56.3004
L-0.0442 56.0147
" />
<path d="M-0.0442 56.0147
L-0.0442 55.6576
" />
<path d="M-0.0442 55.6576
L0.0273 55.3718
" />
<path d="M0.0273 55.3718
L0.0987 55.2290
" />
<path d="M0.0987 55.2290
L0.1701 55.1576
" />
<path d="M0.1701 55.1576
L0.3130 55.0861
" />
<path d="M1.4558 56.4433
L1.5273 56.5147
" />
<path d="M1.5273 56.5147
L1.4558 56.5861
" />
<path d="M1.4558 56.5861
L1.3844 56.5147
" />
<path d="M1.3844 56.5147
L1.4558 56.4433
" />
<path d="M1.4558 56.4433
L1.4558 56.5861
" />
<path d="M2.8130 55.5861
L2.8130 56.5861
" />
<path d="M2.4558 55.0147
L2.0987 56.0861
" />
<path d="M2.0987 56.0861
L3.0273 56.0861
" />
</g><path d="M-20.0000 51.5000
L88.0000 51.5000
" />
</g>
<g style="fill:none; 
stroke:#C872AB; stroke-width:0.3000; stroke-opacity:1; 
stroke-linecap:round; stroke-linejoin:round;">
<text x="66.0000" y="53.8500"
textLength="6.3857" font-size="2.0000" lengthAdjust="spacingAndGlyphs"
text-anchor="start" opacity="0" stroke-opacity="0">Rev: </text>
<g class="stroked-text"><desc>Rev: </desc>
<path d="M67.4117 53.7783
L66.9117 53.0640
" />
<path d="M66.5545 53.7783
L66.5545 52.2783
" />
<path d="M66.5545 52.2783
L67.1259 52.2783
" />
<path d="M67.1259 52.2783
L67.2688 52.3498
" />
<path d="M67.2688 52.3498
L67.3402 52.4212
" />
<path d="M67.3402 52.4212
L67.4117 52.5640
" />
<path d="M67.4117 52.5640
L67.4117 52.7783
" />
<path d="M67.4117 52.7783
L67.3402 52.9212
" />
<path d="M67.3402 52.9212
L67.2688 52.9926
" />
<path d="M67.2688 52.9926
L67.1259 53.0640
" />
<path d="M67.1259 53.0640
L66.5545 53.0640
" />
<path d="M68.6259 53.7069
L68.4831 53.7783
" />
<path d="M68.4831 53.7783
L68.1974 53.7783
" />
<path d="M68.1974 53.7783
L68.0545 53.7069
" />
<path d="M68.0545 53.7069
L67.9831 53.5640
" />
<path d="M67.9831 53.5640
L67.9831 52.9926
" />
<path d="M67.9831 52.9926
L68.0545 52.8498
" />
<path d="M68.0545 52.8498
L68.1974 52.7783
" />
<path d="M68.1974 52.7783
L68.4831 52.7783
" />
<path d="M68.4831 52.7783
L68.6259 52.8498
" />
<path d="M68.6259 52.8498
L68.6974 52.9926
" />
<path d="M68.6974 52.9926
L68.6974 53.1355
" />
<path d="M68.6974 53.1355
L67.9831 53.2783
" />
<path d="M69.1974 52.7783
L69.5545 53.7783
" />
<path d="M69.5545 53.7783
L69.9117 52.7783
" />
<path d="M70.4831 53.6355
L70.5545 53.7069
" />
<path d="M70.5545 53.7069
L70.4831 53.7783
" />
<path d="M70.4831 53.7783
L70.4117 53.7069
" />
<path d="M70.4117 53.7069
L70.4831 53.6355
" />
<path d="M70.4831 53.6355
L70.4831 53.7783
" />
<path d="M70.4831 52.8498
L70.5545 52.9212
" />
<path d="M70.5545 52.9212
L70.4831 52.9926
" />
<path d="M70.4831 52.9926
L70.4117 52.9212
" />
<path d="M70.4117 52.9212
L70.4831 52.8498
" />
<path d="M70.4831 52.8498
L70.4831 52.9926
" />
</g></g>
<g style="fill:none; 
stroke:#C872AB; stroke-width:0.1500; stroke-opacity:1; 
stroke-linecap:round; stroke-linejoin:round;">
<text x="-19.0000" y="53.8500"
textLength="11.6500" font-size="2.0000" lengthAdjust="spacingAndGlyphs"
text-anchor="start" opacity="0" stroke-opacity="0">Size: User</text>
<g class="stroked-text"><desc>Size: User</desc>
<path d="M-18.6156 53.7147
L-18.4013 53.7861
" />
<path d="M-18.4013 53.7861
L-18.0442 53.7861
" />
<path d="M-18.0442 53.7861
L-17.9013 53.7147
" />
<path d="M-17.9013 53.7147
L-17.8299 53.6433
" />
<path d="M-17.8299 53.6433
L-17.7585 53.5004
" />
<path d="M-17.7585 53.5004
L-17.7585 53.3576
" />
<path d="M-17.7585 53.3576
L-17.8299 53.2147
" />
<path d="M-17.8299 53.2147
L-17.9013 53.1433
" />
<path d="M-17.9013 53.1433
L-18.0442 53.0718
" />
<path d="M-18.0442 53.0718
L-18.3299 53.0004
" />
<path d="M-18.3299 53.0004
L-18.4727 52.9290
" />
<path d="M-18.4727 52.9290
L-18.5442 52.8576
" />
<path d="M-18.5442 52.8576
L-18.6156 52.7147
" />
<path d="M-18.6156 52.7147
L-18.6156 52.5718
" />
<path d="M-18.6156 52.5718
L-18.5442 52.4290
" />
<path d="M-18.5442 52.4290
L-18.4727 52.3576
" />
<path d="M-18.4727 52.3576
L-18.3299 52.2861
" />
<path d="M-18.3299 52.2861
L-17.9727 52.2861
" />
<path d="M-17.9727 52.2861
L-17.7585 52.3576
" />
<path d="M-17.1156 53.7861
L-17.1156 52.7861
" />
<path d="M-17.1156 52.2861
L-17.1870 52.3576
" />
<path d="M-17.1870 52.3576
L-17.1156 52.4290
" />
<path d="M-17.1156 52.4290
L-17.0442 52.3576
" />
<path d="M-17.0442 52.3576
L-17.1156 52.2861
" />
<path d="M-17.1156 52.2861
L-17.1156 52.4290
" />
<path d="M-16.5442 52.7861
L-15.7585 52.7861
" />
<path d="M-15.7585 52.7861
L-16.5442 53.7861
" />
<path d="M-16.5442 53.7861
L-15.7585 53.7861
" />
<path d="M-14.6156 53.7147
L-14.7585 53.7861
" />
<path d="M-14.7585 53.7861
L-15.0442 53.7861
" />
<path d="M-15.0442 53.7861
L-15.1870 53.7147
" />
<path d="M-15.1870 53.7147
L-15.2585 53.5718
" />
<path d="M-15.2585 53.5718
L-15.2585 53.0004
" />
<path d="M-15.2585 53.0004
L-15.1870 52.8576
" />
<path d="M-15.1870 52.8576
L-15.0442 52.7861
" />
<path d="M-15.0442 52.7861
L-14.7585 52.7861
" />
<path d="M-14.7585 52.7861
L-14.6156 52.8576
" />
<path d="M-14.6156 52.8576
L-14.5442 53.0004
" />
<path d="M-14.5442 53.0004
L-14.5442 53.1433
" />
<path d="M-14.5442 53.1433
L-15.2585 53.2861
" />
<path d="M-13.9013 53.6433
L-13.8299 53.7147
" />
<path d="M-13.8299 53.7147
L-13.9013 53.7861
" />
<path d="M-13.9013 53.7861
L-13.9727 53.7147
" />
<path d="M-13.9727 53.7147
L-13.9013 53.6433
" />
<path d="M-13.9013 53.6433
L-13.9013 53.7861
" />
<path d="M-13.9013 52.8576
L-13.8299 52.9290
" />
<path d="M-13.8299 52.9290
L-13.9013 53.0004
" />
<path d="M-13.9013 53.0004
L-13.9727 52.9290
" />
<path d="M-13.9727 52.9290
L-13.9013 52.8576
" />
<path d="M-13.9013 52.8576
L-13.9013 53.0004
" />
<path d="M-12.0442 52.2861
L-12.0442 53.5004
" />
<path d="M-12.0442 53.5004
L-11.9727 53.6433
" />
<path d="M-11.9727 53.6433
L-11.9013 53.7147
" />
<path d="M-11.9013 53.7147
L-11.7585 53.7861
" />
<path d="M-11.7585 53.7861
L-11.4727 53.7861
" />
<path d="M-11.4727 53.7861
L-11.3299 53.7147
" />
<path d="M-11.3299 53.7147
L-11.2585 53.6433
" />
<path d="M-11.2585 53.6433
L-11.1870 53.5004
" />
<path d="M-11.1870 53.5004
L-11.1870 52.2861
" />
<path d="M-10.5442 53.7147
L-10.4013 53.7861
" />
<path d="M-10.4013 53.7861
L-10.1156 53.7861
" />
<path d="M-10.1156 53.7861
L-9.9727 53.7147
" />
<path d="M-9.9727 53.7147
L-9.9013 53.5718
" />
<path d="M-9.9013 53.5718
L-9.9013 53.5004
" />
<path d="M-9.9013 53.5004
L-9.9727 53.3576
" />
<path d="M-9.9727 53.3576
L-10.1156 53.2861
" />
<path d="M-10.1156 53.2861
L-10.3299 53.2861
" />
<path d="M-10.3299 53.2861
L-10.4727 53.2147
" />
<path d="M-10.4727 53.2147
L-10.5442 53.0718
" />
<path d="M-10.5442 53.0718
L-10.5442 53.0004
" />
<path d="M-10.5442 53.0004
L-10.4727 52.8576
" />
<path d="M-10.4727 52.8576
L-10.3299 52.7861
" />
<path d="M-10.3299 52.7861
L-10.1156 52.7861
" />
<path d="M-10.1156 52.7861
L-9.9727 52.8576
" />
<path d="M-8.6870 53.7147
L-8.8299 53.7861
" />
<path d="M-8.8299 53.7861
L-9.1156 53.7861
" />
<path d="M-9.1156 53.7861
L-9.2585 53.7147
" />
<path d="M-9.2585 53.7147
L-9.3299 53.5718
" />
<path d="M-9.3299 53.5718
L-9.3299 53.0004
" />
<path d="M-9.3299 53.0004
L-9.2585 52.8576
" />
<path d="M-9.2585 52.8576
L-9.1156 52.7861
" />
<path d="M-9.1156 52.7861
L-8.8299 52.7861
" />
<path d="M-8.8299 52.7861
L-8.6870 52.8576
" />
<path d="M-8.6870 52.8576
L-8.6156 53.0004
" />
<path d="M-8.6156 53.0004
L-8.6156 53.1433
" />
<path d="M-8.6156 53.1433
L-9.3299 53.2861
" />
<path d="M-7.9727 53.7861
L-7.9727 52.7861
" />
<path d="M-7.9727 53.0718
L-7.9013 52.9290
" />
<path d="M-7.9013 52.9290
L-7.8299 52.8576
" />
<path d="M-7.8299 52.8576
L-7.6870 52.7861
" />
<path d="M-7.6870 52.7861
L-7.5442 52.7861
" />
</g><text x="66.0000" y="56.6500"
textLength="8.5071" font-size="2.0000" lengthAdjust="spacingAndGlyphs"
text-anchor="start" opacity="0" stroke-opacity="0">Id: 1/1</text>
<g class="stroked-text"><desc>Id: 1/1</desc>
<path d="M66.4558 56.5861
L66.4558 55.0861
" />
<path d="M67.8130 56.5861
L67.8130 55.0861
" />
<path d="M67.8130 56.5147
L67.6701 56.5861
" />
<path d="M67.6701 56.5861
L67.3844 56.5861
" />
<path d="M67.3844 56.5861
L67.2415 56.5147
" />
<path d="M67.2415 56.5147
L67.1701 56.4433
" />
<path d="M67.1701 56.4433
L67.0987 56.3004
" />
<path d="M67.0987 56.3004
L67.0987 55.8718
" />
<path d="M67.0987 55.8718
L67.1701 55.7290
" />
<path d="M67.1701 55.7290
L67.2415 55.6576
" />
<path d="M67.2415 55.6576
L67.3844 55.5861
" />
<path d="M67.3844 55.5861
L67.6701 55.5861
" />
<path d="M67.6701 55.5861
L67.8130 55.6576
" />
<path d="M68.5273 56.4433
L68.5987 56.5147
" />
<path d="M68.5987 56.5147
L68.5273 56.5861
" />
<path d="M68.5273 56.5861
L68.4558 56.5147
" />
<path d="M68.4558 56.5147
L68.5273 56.4433
" />
<path d="M68.5273 56.4433
L68.5273 56.5861
" />
<path d="M68.5273 55.6576
L68.5987 55.7290
" />
<path d="M68.5987 55.7290
L68.5273 55.8004
" />
<path d="M68.5273 55.8004
L68.4558 55.7290
" />
<path d="M68.4558 55.7290
L68.5273 55.6576
" />
<path d="M68.5273 55.6576
L68.5273 55.8004
" />
<path d="M71.1701 56.5861
L70.3130 56.5861
" />
<path d="M70.7415 56.5861
L70.7415 55.0861
" />
<path d="M70.7415 55.0861
L70.5987 55.3004
" />
<path d="M70.5987 55.3004
L70.4558 55.4433
" />
<path d="M70.4558 55.4433
L70.3130 55.5147
" />
<path d="M72.8844 55.0147
L71.5987 56.9433
" />
<path d="M74.1701 56.5861
L73.3130 56.5861
" />
<path d="M73.7415 56.5861
L73.7415 55.0861
" />
<path d="M73.7415 55.0861
L73.5987 55.3004
" />
<path d="M73.5987 55.3004
L73.4558 55.4433
" />
<path d="M73.4558 55.4433
L73.3130 55.5147
" />
</g><path d="M-20.0000 47.5000
L88.0000 47.5000
" />
</g>
<g style="fill:none; 
stroke:#C872AB; stroke-width:0.4000; stroke-opacity:1; 
stroke-linecap:round; stroke-linejoin:round;">
<text x="-19.0000" y="50.3000"
textLength="9.6571" font-size="2.6667" lengthAdjust="spacingAndGlyphs"
text-anchor="start" opacity="0" stroke-opacity="0">Title: </text>
<g class="stroked-text"><desc>Title: </desc>
<path d="M-18.3083 48.2044
L-17.1654 48.2044
" />
<path d="M-17.9868 50.2044
L-17.7368 48.2044
" />
<path d="M-16.7487 50.2044
L-16.5821 48.8711
" />
<path d="M-16.4987 48.2044
L-16.6059 48.2997
" />
<path d="M-16.6059 48.2997
L-16.5226 48.3949
" />
<path d="M-16.5226 48.3949
L-16.4154 48.2997
" />
<path d="M-16.4154 48.2997
L-16.4987 48.2044
" />
<path d="M-16.4987 48.2044
L-16.5226 48.3949
" />
<path d="M-15.9154 48.8711
L-15.1535 48.8711
" />
<path d="M-15.5464 48.2044
L-15.7607 49.9187
" />
<path d="M-15.7607 49.9187
L-15.6892 50.1092
" />
<path d="M-15.6892 50.1092
L-15.5107 50.2044
" />
<path d="M-15.5107 50.2044
L-15.3202 50.2044
" />
<path d="M-14.3678 50.2044
L-14.5464 50.1092
" />
<path d="M-14.5464 50.1092
L-14.6178 49.9187
" />
<path d="M-14.6178 49.9187
L-14.4035 48.2044
" />
<path d="M-12.8321 50.1092
L-13.0345 50.2044
" />
<path d="M-13.0345 50.2044
L-13.4154 50.2044
" />
<path d="M-13.4154 50.2044
L-13.5940 50.1092
" />
<path d="M-13.5940 50.1092
L-13.6654 49.9187
" />
<path d="M-13.6654 49.9187
L-13.5702 49.1568
" />
<path d="M-13.5702 49.1568
L-13.4511 48.9663
" />
<path d="M-13.4511 48.9663
L-13.2487 48.8711
" />
<path d="M-13.2487 48.8711
L-12.8678 48.8711
" />
<path d="M-12.8678 48.8711
L-12.6892 48.9663
" />
<path d="M-12.6892 48.9663
L-12.6178 49.1568
" />
<path d="M-12.6178 49.1568
L-12.6416 49.3473
" />
<path d="M-12.6416 49.3473
L-13.6178 49.5378
" />
<path d="M-11.8678 50.0140
L-11.7845 50.1092
" />
<path d="M-11.7845 50.1092
L-11.8916 50.2044
" />
<path d="M-11.8916 50.2044
L-11.9749 50.1092
" />
<path d="M-11.9749 50.1092
L-11.8678 50.0140
" />
<path d="M-11.8678 50.0140
L-11.8916 50.2044
" />
<path d="M-11.7368 48.9663
L-11.6535 49.0616
" />
<path d="M-11.6535 49.0616
L-11.7607 49.1568
" />
<path d="M-11.7607 49.1568
L-11.8440 49.0616
" />
<path d="M-11.8440 49.0616
L-11.7368 48.9663
" />
<path d="M-11.7368 48.9663
L-11.7607 49.1568
" />
</g></g>
<g style="fill:none; 
stroke:#C872AB; stroke-width:0.1500; stroke-opacity:1; 
stroke-linecap:round; stroke-linejoin:round;">
<text x="-19.0000" y="46.4500"
textLength="21.8643" font-size="2.0000" lengthAdjust="spacingAndGlyphs"
text-anchor="start" opacity="0" stroke-opacity="0">File: cpu.kicad_pcb</text>
<g class="stroked-text"><desc>File: cpu.kicad_pcb</desc>
<path d="M-18.0442 45.6004
L-18.5442 45.6004
" />
<path d="M-18.5442 46.3861
L-18.5442 44.8861
" />
<path d="M-18.5442 44.8861
L-17.8299 44.8861
" />
<path d="M-17.2585 46.3861
L-17.2585 45.3861
" />
<path d="M-17.2585 44.8861
L-17.3299 44.9576
" />
<path d="M-17.3299 44.9576
L-17.2585 45.0290
" />
<path d="M-17.2585 45.0290
L-17.1870 44.9576
" />
<path d="M-17.1870 44.9576
L-17.2585 44.8861
" />
<path d="M-17.2585 44.8861
L-17.2585 45.0290
" />
<path d="M-16.3299 46.3861
L-16.4727 46.3147
" />
<path d="M-16.4727 46.3147
L-16.5442 46.1718
" />
<path d="M-16.5442 46.1718
L-16.5442 44.8861
" />
<path d="M-15.1870 46.3147
L-15.3299 46.3861
" />
<path d="M-15.3299 46.3861
L-15.6156 46.3861
" />
<path d="M-15.6156 46.3861
L-15.7585 46.3147
" />
<path d="M-15.7585 46.3147
L-15.8299 46.1718
" />
<path d="M-15.8299 46.1718
L-15.8299 45.6004
" />
<path d="M-15.8299 45.6004
L-15.7585 45.4576
" />
<path d="M-15.7585 45.4576
L-15.6156 45.3861
" />
<path d="M-15.6156 45.3861
L-15.3299 45.3861
" />
<path d="M-15.3299 45.3861
L-15.1870 45.4576
" />
<path d="M-15.1870 45.4576
L-15.1156 45.6004
" />
<path d="M-15.1156 45.6004
L-15.1156 45.7433
" />
<path d="M-15.1156 45.7433
L-15.8299 45.8861
" />
<path d="M-14.4727 46.2433
L-14.4013 46.3147
" />
<path d="M-14.4013 46.3147
L-14.4727 46.3861
" />
<path d="M-14.4727 46.3861
L-14.5442 46.3147
" />
<path d="M-14.5442 46.3147
L-14.4727 46.2433
" />
<path d="M-14.4727 46.2433
L-14.4727 46.3861
" />
<path d="M-14.4727 45.4576
L-14.4013 45.5290
" />
<path d="M-14.4013 45.5290
L-14.4727 45.6004
" />
<path d="M-14.4727 45.6004
L-14.5442 45.5290
" />
<path d="M-14.5442 45.5290
L-14.4727 45.4576
" />
<path d="M-14.4727 45.4576
L-14.4727 45.6004
" />
<path d="M-11.9727 46.3147
L-12.1156 46.3861
" />
<path d="M-12.1156 46.3861
L-12.4013 46.3861
" />
<path d="M-12.4013 46.3861
L-12.5442 46.3147
" />
<path d="M-12.5442 46.3147
L-12.6156 46.2433
" />
<path d="M-12.6156 46.2433
L-12.6870 46.1004
" />
<path d="M-12.6870 46.1004
L-12.6870 45.6718
" />
<path d="M-12.6870 45.6718
L-12.6156 45.5290
" />
<path d="M-12.6156 45.5290
L-12.5442 45.4576
" />
<path d="M-12.5442 45.4576
L-12.4013 45.3861
" />
<path d="M-12.4013 45.3861
L-12.1156 45.3861
" />
<path d="M-12.1156 45.3861
L-11.9727 45.4576
" />
<path d="M-11.3299 45.3861
L-11.3299 46.8861
" />
<path d="M-11.3299 45.4576
L-11.1870 45.3861
" />
<path d="M-11.1870 45.3861
L-10.9013 45.3861
" />
<path d="M-10.9013 45.3861
L-10.7585 45.4576
" />
<path d="M-10.7585 45.4576
L-10.6870 45.5290
" />
<path d="M-10.6870 45.5290
L-10.6156 45.6718
" />
<path d="M-10.6156 45.6718
L-10.6156 46.1004
" />
<path d="M-10.6156 46.1004
L-10.6870 46.2433
" />
<path d="M-10.6870 46.2433
L-10.7585 46.3147
" />
<path d="M-10.7585 46.3147
L-10.9013 46.3861
" />
<path d="M-10.9013 46.3861
L-11.1870 46.3861
" />
<path d="M-11.1870 46.3861
L-11.3299 46.3147
" />
<path d="M-9.3299 45.3861
L-9.3299 46.3861
" />
<path d="M-9.9727 45.3861
L-9.9727 46.1718
" />
<path d="M-9.9727 46.1718
L-9.9013 46.3147
" />
<path d="M-9.9013 46.3147
L-9.7585 46.3861
" />
<path d="M-9.7585 46.3861
L-9.5442 46.3861
" />
<path d="M-9.5442 46.3861
L-9.4013 46.3147
" />
<path d="M-9.4013 46.3147
L-9.3299 46.2433
" />
<path d="M-8.6156 46.2433
L-8.5442 46.3147
" />
<path d="M-8.5442 46.3147
L-8.6156 46.3861
" />
<path d="M-8.6156 46.3861
L-8.6870 46.3147
" />
<path d="M-8.6870 46.3147
L-8.6156 46.2433
" />
<path d="M-8.6156 46.2433
L-8.6156 46.3861
" />
<path d="M-7.9013 46.3861
L-7.9013 44.8861
" />
<path d="M-7.7585 45.8147
L-7.3299 46.3861
" />
<path d="M-7.3299 45.3861
L-7.9013 45.9576
" />
<path d="M-6.6870 46.3861
L-6.6870 45.3861
" />
<path d="M-6.6870 44.8861
L-6.7585 44.9576
" />
<path d="M-6.7585 44.9576
L-6.6870 45.0290
" />
<path d="M-6.6870 45.0290
L-6.6156 44.9576
" />
<path d="M-6.6156 44.9576
L-6.6870 44.8861
" />
<path d="M-6.6870 44.8861
L-6.6870 45.0290
" />
<path d="M-5.3299 46.3147
L-5.4727 46.3861
" />
<path d="M-5.4727 46.3861
L-5.7585 46.3861
" />
<path d="M-5.7585 46.3861
L-5.9013 46.3147
" />
<path d="M-5.9013 46.3147
L-5.9727 46.2433
" />
<path d="M-5.9727 46.2433
L-6.0442 46.1004
" />
<path d="M-6.0442 46.1004
L-6.0442 45.6718
" />
<path d="M-6.0442 45.6718
L-5.9727 45.5290
" />
<path d="M-5.9727 45.5290
L-5.9013 45.4576
" />
<path d="M-5.9013 45.4576
L-5.7585 45.3861
" />
<path d="M-5.7585 45.3861
L-5.4727 45.3861
" />
<path d="M-5.4727 45.3861
L-5.3299 45.4576
" />
<path d="M-4.0442 46.3861
L-4.0442 45.6004
" />
<path d="M-4.0442 45.6004
L-4.1156 45.4576
" />
<path d="M-4.1156 45.4576
L-4.2585 45.3861
" />
<path d="M-4.2585 45.3861
L-4.5442 45.3861
" />
<path d="M-4.5442 45.3861
L-4.6870 45.4576
" />
<path d="M-4.0442 46.3147
L-4.1870 46.3861
" />
<path d="M-4.1870 46.3861
L-4.5442 46.3861
" />
<path d="M-4.5442 46.3861
L-4.6870 46.3147
" />
<path d="M-4.6870 46.3147
L-4.7585 46.1718
" />
<path d="M-4.7585 46.1718
L-4.7585 46.0290
" />
<path d="M-4.7585 46.0290
L-4.6870 45.8861
" />
<path d="M-4.6870 45.8861
L-4.5442 45.8147
" />
<path d="M-4.5442 45.8147
L-4.1870 45.8147
" />
<path d="M-4.1870 45.8147
L-4.0442 45.7433
" />
<path d="M-2.6870 46.3861
L-2.6870 44.8861
" />
<path d="M-2.6870 46.3147
L-2.8299 46.3861
" />
<path d="M-2.8299 46.3861
L-3.1156 46.3861
" />
<path d="M-3.1156 46.3861
L-3.2585 46.3147
" />
<path d="M-3.2585 46.3147
L-3.3299 46.2433
" />
<path d="M-3.3299 46.2433
L-3.4013 46.1004
" />
<path d="M-3.4013 46.1004
L-3.4013 45.6718
" />
<path d="M-3.4013 45.6718
L-3.3299 45.5290
" />
<path d="M-3.3299 45.5290
L-3.2585 45.4576
" />
<path d="M-3.2585 45.4576
L-3.1156 45.3861
" />
<path d="M-3.1156 45.3861
L-2.8299 45.3861
" />
<path d="M-2.8299 45.3861
L-2.6870 45.4576
" />
<path d="M-2.3299 46.5290
L-1.1870 46.5290
" />
<path d="M-0.8299 45.3861
L-0.8299 46.8861
" />
<path d="M-0.8299 45.4576
L-0.6870 45.3861
" />
<path d="M-0.6870 45.3861
L-0.4013 45.3861
" />
<path d="M-0.4013 45.3861
L-0.2585 45.4576
" />
<path d="M-0.2585 45.4576
L-0.1870 45.5290
" />
<path d="M-0.1870 45.5290
L-0.1156 45.6718
" />
<path d="M-0.1156 45.6718
L-0.1156 46.1004
" />
<path d="M-0.1156 46.1004
L-0.1870 46.2433
" />
<path d="M-0.1870 46.2433
L-0.2585 46.3147
" />
<path d="M-0.2585 46.3147
L-0.4013 46.3861
" />
<path d="M-0.4013 46.3861
L-0.6870 46.3861
" />
<path d="M-0.6870 46.3861
L-0.8299 46.3147
" />
<path d="M1.1701 46.3147
L1.0273 46.3861
" />
<path d="M1.0273 46.3861
L0.7415 46.3861
" />
<path d="M0.7415 46.3861
L0.5987 46.3147
" />
<path d="M0.5987 46.3147
L0.5273 46.2433
" />
<path d="M0.5273 46.2433
L0.4558 46.1004
" />
<path d="M0.4558 46.1004
L0.4558 45.6718
" />
<path d="M0.4558 45.6718
L0.5273 45.5290
" />
<path d="M0.5273 45.5290
L0.5987 45.4576
" />
<path d="M0.5987 45.4576
L0.7415 45.3861
" />
<path d="M0.7415 45.3861
L1.0273 45.3861
" />
<path d="M1.0273 45.3861
L1.1701 45.4576
" />
<path d="M1.8130 46.3861
L1.8130 44.8861
" />
<path d="M1.8130 45.4576
L1.9558 45.3861
" />
<path d="M1.9558 45.3861
L2.2415 45.3861
" />
<path d="M2.2415 45.3861
L2.3844 45.4576
" />
<path d="M2.3844 45.4576
L2.4558 45.5290
" />
<path d="M2.4558 45.5290
L2.5273 45.6718
" />
<path d="M2.5273 45.6718
L2.5273 46.1004
" />
<path d="M2.5273 46.1004
L2.4558 46.2433
" />
<path d="M2.4558 46.2433
L2.3844 46.3147
" />
<path d="M2.3844 46.3147
L2.2415 46.3861
" />
<path d="M2.2415 46.3861
L1.9558 46.3861
" />
<path d="M1.9558 46.3861
L1.8130 46.3147
" />
</g><path d="M-20.0000 41.5000
L88.0000 41.5000
" />
<text x="-19.0000" y="43.7500"
textLength="8.2214" font-size="2.0000" lengthAdjust="spacingAndGlyphs"
text-anchor="start" opacity="0" stroke-opacity="0">Sheet: </text>
<g class="stroked-text"><desc>Sheet: </desc>
<path d="M-18.6156 43.6147
L-18.4013 43.6861
" />
<path d="M-18.4013 43.6861
L-18.0442 43.6861
" />
<path d="M-18.0442 43.6861
L-17.9013 43.6147
" />
<path d="M-17.9013 43.6147
L-17.8299 43.5433
" />
<path d="M-17.8299 43.5433
L-17.7585 43.4004
" />
<path d="M-17.7585 43.4004
L-17.7585 43.2576
" />
<path d="M-17.7585 43.2576
L-17.8299 43.1147
" />
<path d="M-17.8299 43.1147
L-17.9013 43.0433
" />
<path d="M-17.9013 43.0433
L-18.0442 42.9718
" />
<path d="M-18.0442 42.9718
L-18.3299 42.9004
" />
<path d="M-18.3299 42.9004
L-18.4727 42.8290
" />
<path d="M-18.4727 42.8290
L-18.5442 42.7576
" />
<path d="M-18.5442 42.7576
L-18.6156 42.6147
" />
<path d="M-18.6156 42.6147
L-18.6156 42.4718
" />
<path d="M-18.6156 42.4718
L-18.5442 42.3290
" />
<path d="M-18.5442 42.3290
L-18.4727 42.2576
" />
<path d="M-18.4727 42.2576
L-18.3299 42.1861
" />
<path d="M-18.3299 42.1861
L-17.9727 42.1861
" />
<path d="M-17.9727 42.1861
L-17.7585 42.2576
" />
<path d="M-17.1156 43.6861
L-17.1156 42.1861
" />
<path d="M-16.4727 43.6861
L-16.4727 42.9004
" />
<path d="M-16.4727 42.9004
L-16.5442 42.7576
" />
<path d="M-16.5442 42.7576
L-16.6870 42.6861
" />
<path d="M-16.6870 42.6861
L-16.9013 42.6861
" />
<path d="M-16.9013 42.6861
L-17.0442 42.7576
" />
<path d="M-17.0442 42.7576
L-17.1156 42.8290
" />
<path d="M-15.1870 43.6147
L-15.3299 43.6861
" />
<path d="M-15.3299 43.6861
L-15.6156 43.6861
" />
<path d="M-15.6156 43.6861
L-15.7585 43.6147
" />
<path d="M-15.7585 43.6147
L-15.8299 43.4718
" />
<path d="M-15.8299 43.4718
L-15.8299 42.9004
" />
<path d="M-15.8299 42.9004
L-15.7585 42.7576
" />
<path d="M-15.7585 42.7576
L-15.6156 42.6861
" />
<path d="M-15.6156 42.6861
L-15.3299 42.6861
" />
<path d="M-15.3299 42.6861
L-15.1870 42.7576
" />
<path d="M-15.1870 42.7576
L-15.1156 42.9004
" />
<path d="M-15.1156 42.9004
L-15.1156 43.0433
" />
<path d="M-15.1156 43.0433
L-15.8299 43.1861
" />
<path d="M-13.9013 43.6147
L-14.0442 43.6861
" />
<path d="M-14.0442 43.6861
L-14.3299 43.6861
" />
<path d="M-14.3299 43.6861
L-14.4727 43.6147
" />
<path d="M-14.4727 43.6147
L-14.5442 43.4718
" />
<path d="M-14.5442 43.4718
L-14.5442 42.9004
" />
<path d="M-14.5442 42.9004
L-14.4727 42.7576
" />
<path d="M-14.4727 42.7576
L-14.3299 42.6861
" />
<path d="M-14.3299 42.6861
L-14.0442 42.6861
" />
<path d="M-14.0442 42.6861
L-13.9013 42.7576
" />
<path d="M-13.9013 42.7576
L-13.8299 42.9004
" />
<path d="M-13.8299 42.9004
L-13.8299 43.0433
" />
<path d="M-13.8299 43.0433
L-14.5442 43.1861
" />
<path d="M-13.4013 42.6861
L-12.8299 42.6861
" />
<path d="M-13.1870 42.1861
L-13.1870 43.4718
" />
<path d="M-13.1870 43.4718
L-13.1156 43.6147
" />
<path d="M-13.1156 43.6147
L-12.9727 43.6861
" />
<path d="M-12.9727 43.6861
L-12.8299 43.6861
" />
<path d="M-12.3299 43.5433
L-12.2585 43.6147
" />
<path d="M-12.2585 43.6147
L-12.3299 43.6861
" />
<path d="M-12.3299 43.6861
L-12.4013 43.6147
" />
<path d="M-12.4013 43.6147
L-12.3299 43.5433
" />
<path d="M-12.3299 43.5433
L-12.3299 43.6861
" />
<path d="M-12.3299 42.7576
L-12.2585 42.8290
" />
<path d="M-12.2585 42.8290
L-12.3299 42.9004
" />
<path d="M-12.3299 42.9004
L-12.4013 42.8290
" />
<path d="M-12.4013 42.8290
L-12.3299 42.7576
" />
<path d="M-12.3299 42.7576
L-12.3299 42.9004
" />
</g></g>
<g style="fill:none; 
stroke:#C872AB; stroke-width:0.3000; stroke-opacity:1; 
stroke-linecap:round; stroke-linejoin:round;">
<text x="-19.0000" y="40.7500"
textLength="0.9000" font-size="2.0000" lengthAdjust="spacingAndGlyphs"
text-anchor="start" opacity="0" stroke-opacity="0"></text>
<g class="stroked-text"><desc></desc>
</g></g>
<g style="fill:none; 
stroke:#C872AB; stroke-width:0.1500; stroke-opacity:1; 
stroke-linecap:round; stroke-linejoin:round;">
<text x="-19.0000" y="37.7500"
textLength="0.4500" font-size="2.0000" lengthAdjust="spacingAndGlyphs"
text-anchor="start" opacity="0" stroke-opacity="0"></text>
<g class="stroked-text"><desc></desc>
</g><text x="-19.0000" y="34.7500"
textLength="0.4500" font-size="2.0000" lengthAdjust="spacingAndGlyphs"
text-anchor="start" opacity="0" stroke-opacity="0"></text>
<g class="stroked-text"><desc></desc>
</g><text x="-19.0000" y="31.7500"
textLength="0.4500" font-size="2.0000" lengthAdjust="spacingAndGlyphs"
text-anchor="start" opacity="0" stroke-opacity="0"></text>
<g class="stroked-text"><desc></desc>
</g><text x="-19.0000" y="28.7500"
textLength="0.4500" font-size="2.0000" lengthAdjust="spacingAndGlyphs"
text-anchor="start" opacity="0" stroke-opacity="0"></text>
<g class="stroked-text"><desc></desc>
</g><path d="M0.0000 51.5000
L0.0000 54.5000
" />
<path d="M64.0000 51.5000
L64.0000 58.0000
" />
<path style="fill:#C83434; fill-opacity:1.0000; stroke:none;fill-rule:evenodd;"
d="M 2.5900,66.8500
0.8900,66.8500
0.8900,65.1500
2.5900,65.1500
Z" /> 
</g>
<g style="fill:#C83434; fill-opacity:1.0000; stroke:none;">
<circle cx="4.2800" cy="66.0000" r="0.8500" /> 
<circle cx="6.8200" cy="66.0000" r="0.8500" /> 
<circle cx="9.3600" cy="66.0000" r="0.8500" /> 
<circle cx="11.9000" cy="66.0000" r="0.8500" /> 
<circle cx="14.4400" cy="66.0000" r="0.8500" /> 
<circle cx="16.9800" cy="66.0000" r="0.8500" /> 
<circle cx="19.5200" cy="66.0000" r="0.8500" /> 
<circle cx="22.0600" cy="66.0000" r="0.8500" /> 
<circle cx="24.6000" cy="66.0000" r="0.8500" /> 
<circle cx="27.1400" cy="66.0000" r="0.8500" /> 
<circle cx="29.6800" cy="66.0000" r="0.8500" /> 
<circle cx="32.2200" cy="66.0000" r="0.8500" /> 
<circle cx="34.7600" cy="66.0000" r="0.8500" /> 
<circle cx="37.3000" cy="66.0000" r="0.8500" /> 
<circle cx="39.8400" cy="66.0000" r="0.8500" /> 
<circle cx="42.3800" cy="66.0000" r="0.8500" /> 
<circle cx="44.9200" cy="66.0000" r="0.8500" /> 
<circle cx="47.4600" cy="66.0000" r="0.8500" /> 
<circle cx="50.0000" cy="66.0000" r="0.8500" /> 
<circle cx="52.5400" cy="66.0000" r="0.8500" /> 
<circle cx="55.0800" cy="66.0000" r="0.8500" /> 
<circle cx="57.6200" cy="66.0000" r="0.8500" /> 
<circle cx="60.1600" cy="66.0000" r="0.8500" /> 
<circle cx="62.7000" cy="66.0000" r="0.8500" /> 
<circle cx="65.2400" cy="66.0000" r="0.8500" /> 
<circle cx="67.7800" cy="66.0000" r="0.8500" /> 
<circle cx="70.3200" cy="66.0000" r="0.8500" /> 
<circle cx="72.8600" cy="66.0000" r="0.8500" /> 
<circle cx="75.4000" cy="66.0000" r="0.8500" /> 
<circle cx="77.9400" cy="66.0000" r="0.8500" /> 
<circle cx="80.4800" cy="66.0000" r="0.8500" /> 
<circle cx="83.0200" cy="66.0000" r="0.8500" /> 
<circle cx="85.5600" cy="66.0000" r="0.8500" /> 
<circle cx="88.1000" cy="66.0000" r="0.8500" /> 
<circle cx="90.6400" cy="66.0000" r="0.8500" /> 
<circle cx="93.1800" cy="66.0000" r="0.8500" /> 
<circle cx="95.7200" cy="66.0000" r="0.8500" /> 
<circle cx="98.2600" cy="66.0000" r="0.8500" /> 
<path style="fill:#C83434; fill-opacity:1.0000; stroke:none;fill-rule:evenodd;"
d="M 16.3250,30.4200
16.2293,30.4010
16.1482,30.3468
16.0940,30.2657
16.0750,30.1700
16.0750,29.0700
16.0940,28.9743
16.1482,28.8932
16.2293,28.8390
16.3250,28.8200
17.4250,28.8200
17.5207,28.8390
17.6018,28.8932
17.6560,28.9743
17.6750,29.0700
17.6750,30.1700
17.6560,30.2657
17.6018,30.3468
17.5207,30.4010
17.4250,30.4200
Z" /> 
<circle cx="19.4150" cy="29.6200" r="0.8000" /> 
<circle cx="21.9550" cy="29.6200" r="0.8000" /> 
<circle cx="24.4950" cy="29.6200" r="0.8000" /> 
<circle cx="27.0350" cy="29.6200" r="0.8000" /> 
<circle cx="29.5750" cy="29.6200" r="0.8000" /> 
<circle cx="32.1150" cy="29.6200" r="0.8000" /> 
<circle cx="34.6550" cy="29.6200" r="0.8000" /> 
<circle cx="37.1950" cy="29.6200" r="0.8000" /> 
<circle cx="39.7350" cy="29.6200" r="0.8000" /> 
<circle cx="42.2750" cy="29.6200" r="0.8000" /> 
<circle cx="44.8150" cy="29.6200" r="0.8000" /> 
<circle cx="47.3550" cy="29.6200" r="0.8000" /> 
<circle cx="49.8950" cy="29.6200" r="0.8000" /> 
<circle cx="52.4350" cy="29.6200" r="0.8000" /> 
<circle cx="54.9750" cy="29.6200" r="0.8000" /> 
<circle cx="57.5150" cy="29.6200" r="0.8000" /> 
<circle cx="60.0550" cy="29.6200" r="0.8000" /> 
<circle cx="62.5950" cy="29.6200" r="0.8000" /> 
<circle cx="65.1350" cy="29.6200" r="0.8000" /> 
<circle cx="65.1350" cy="14.3800" r="0.8000" /> 
<circle cx="62.5950" cy="14.3800" r="0.8000" /> 
<circle cx="60.0550" cy="14.3800" r="0.8000" /> 
<circle cx="57.5150" cy="14.3800" r="0.8000" /> 
<circle cx="54.9750" cy="14.3800" r="0.8000" /> 
<circle cx="52.4350" cy="14.3800" r="0.8000" /> 
<circle cx="49.8950" cy="14.3800" r="0.8000" /> 
<circle cx="47.3550" cy="14.3800" r="0.8000" /> 
<circle cx="44.8150" cy="14.3800" r="0.8000" /> 
<circle cx="42.2750" cy="14.3800" r="0.8000" /> 
<circle cx="39.7350" cy="14.3800" r="0.8000" /> 
<circle cx="37.1950" cy="14.3800" r="0.8000" /> 
<circle cx="34.6550" cy="14.3800" r="0.8000" /> 
<circle cx="32.1150" cy="14.3800" r="0.8000" /> 
<circle cx="29.5750" cy="14.3800" r="0.8000" /> 
<circle cx="27.0350" cy="14.3800" r="0.8000" /> 
<circle cx="24.4950" cy="14.3800" r="0.8000" /> 
<circle cx="21.9550" cy="14.3800" r="0.8000" /> 
<circle cx="19.4150" cy="14.3800" r="0.8000" /> 
<circle cx="16.8750" cy="14.3800" r="0.8000" /> 
<circle cx="85.5000" cy="42.0000" r="0.8000" /> 
<circle cx="90.5000" cy="42.0000" r="0.8000" /> 
<circle cx="63.5000" cy="36.0000" r="0.8000" /> 
<circle cx="68.5000" cy="36.0000" r="0.8000" /> 
<path style="fill:#C83434; fill-opacity:1.0000; stroke:none;fill-rule:evenodd;"
d="M 3.8700,61.8500
2.1700,61.8500
2.1700,60.1500
3.8700,60.1500
Z" /> 
<circle cx="5.5600" cy="61.0000" r="0.8500" /> 
<circle cx="8.1000" cy="61.0000" r="0.8500" /> 
<circle cx="10.6400" cy="61.0000" r="0.8500" /> 
<circle cx="13.1800" cy="61.0000" r="0.8500" /> 
<circle cx="15.7200" cy="61.0000" r="0.8500" /> 
<circle cx="18.2600" cy="61.0000" r="0.8500" /> 
<circle cx="20.8000" cy="61.0000" r="0.8500" /> 
<circle cx="23.3400" cy="61.0000" r="0.8500" /> 
<circle cx="25.8800" cy="61.0000" r="0.8500" /> 
<path style="fill:#C83434; fill-opacity:1.0000; stroke:none;fill-rule:evenodd;"
d="M 35.7700,46.8500
34.0700,46.8500
34.0700,45.1500
35.7700,45.1500
Z" /> 
<circle cx="37.4600" cy="46.0000" r="0.8500" /> 
<circle cx="40.0000" cy="46.0000" r="0.8500" /> 
<circle cx="42.5400" cy="46.0000" r="0.8500" /> 
<circle cx="45.0800" cy="46.0000" r="0.8500" /> 
<path style="fill:#C83434; fill-opacity:1.0000; stroke:none;fill-rule:evenodd;"
d="M 76.5800,22.6100
76.5800,21.0100
78.1800,21.0100
78.1800,22.6100
Z" /> 
<circle cx="92.6200" cy="21.8100" r="0.8000" /> 
<circle cx="92.6200" cy="14.1900" r="0.8000" /> 
<circle cx="77.3800" cy="14.1900" r="0.8000" /> 
<circle cx="1.7236" cy="42.3125" r="0.3000" /> 
<circle cx="7.6238" cy="59.5511" r="0.3000" /> 
<circle cx="27.2452" cy="35.7193" r="0.3000" /> 
<circle cx="36.8853" cy="28.2908" r="0.3000" /> 
<circle cx="30.0155" cy="33.5375" r="0.3000" /> 
<circle cx="41.7765" cy="61.3595" r="0.3000" /> 
<circle cx="56.9851" cy="60.4147" r="0.3000" /> 
<circle cx="44.6600" cy="47.8216" r="0.3000" /> 
<circle cx="34.3751" cy="31.2459" r="0.3000" /> 
<circle cx="66.7349" cy="33.6471" r="0.3000" /> 
<circle cx="35.6471" cy="43.8853" r="0.3000" /> 
<circle cx="69.0953" cy="27.2107" r="0.3000" /> 
<circle cx="68.0016" cy="27.9926" r="0.3000" /> 
<circle cx="38.8779" cy="43.1933" r="0.3000" /> 
<circle cx="53.3289" cy="46.4000" r="0.3000" /> 
<circle cx="21.7506" cy="36.5387" r="0.3000" /> 
<circle cx="45.5821" cy="28.5183" r="0.3000" /> 
<circle cx="16.3876" cy="16.6058" r="0.3000" /> 
<circle cx="22.0033" cy="33.5375" r="0.3000" /> 
<circle cx="39.3982" cy="31.0230" r="0.3000" /> 
<circle cx="40.1292" cy="28.2662" r="0.3000" /> 
</g>
<g style="fill:none; 
stroke:#C83434; stroke-width:0.2000; stroke-opacity:1; 
stroke-linecap:round; stroke-linejoin:round;">
<path d="M11.8025 42.3125
L1.7236 42.3125
" />
<path d="M24.4950 29.6200
L11.8025 42.3125
" />
<path d="M8.3269 59.5511
L9.4069 60.6311
" />
<path d="M9.4069 60.6311
L9.4069 61.4907
" />
<path d="M7.6238 59.5511
L8.3269 59.5511
" />
<path d="M9.4069 61.4907
L11.6944 63.7782
" />
<path d="M17.2982 63.7782
L19.5200 66.0000
" />
<path d="M11.6944 63.7782
L17.2982 63.7782
" />
<path d="M15.7748 19.3417
L25.5967 29.1636
" />
<path d="M24.4950 14.3800
L22.9584 15.9166
" />
<path d="M22.7639 32.9103
L21.7762 32.9103
" />
<path d="M23.2411 35.7193
L27.2452 35.7193
" />
<path d="M21.3580 33.8362
L23.2411 35.7193
" />
<path d="M22.9584 15.9166
L16.1832 15.9166
" />
<path d="M25.5967 30.0775
L22.7639 32.9103
" />
<path d="M15.7748 16.3250
L15.7748 19.3417
" />
<path d="M25.5967 29.1636
L25.5967 30.0775
" />
<path d="M21.3580 33.3285
L21.3580 33.8362
" />
<path d="M21.7762 32.9103
L21.3580 33.3285
" />
<path d="M16.1832 15.9166
L15.7748 16.3250
" />
<path d="M36.8853 28.2908
L35.9250 29.2511
" />
<path d="M35.9250 30.5486
L32.9361 33.5375
" />
<path d="M35.9250 29.2511
L35.9250 30.5486
" />
<path d="M32.9361 33.5375
L30.0155 33.5375
" />
<path d="M84.5000 36.0000
L90.5000 42.0000
" />
<path d="M68.5000 36.0000
L84.5000 36.0000
" />
<path d="M37.3800 61.0000
L42.3800 66.0000
" />
<path d="M58.7017 45.7983
L45.2817 45.7983
" />
<path d="M25.8800 61.0000
L37.3800 61.0000
" />
<path d="M68.5000 36.0000
L58.7017 45.7983
" />
<path d="M45.2817 45.7983
L45.0800 46.0000
" />
<path d="M40.2217 59.8047
L41.7765 61.3595
" />
<path d="M47.8697 30.7446
L48.4835 30.1308
" />
<path d="M48.4835 29.4735
L49.4797 28.4773
" />
<path d="M41.7765 61.3595
L41.7765 62.8565
" />
<path d="M41.7765 62.8565
L44.9200 66.0000
" />
<path d="M24.5353 59.8047
L40.2217 59.8047
" />
<path d="M43.3996 30.7446
L47.8697 30.7446
" />
<path d="M48.4835 30.1308
L48.4835 29.4735
" />
<path d="M42.2750 29.6200
L43.3996 30.7446
" />
<path d="M61.3250 33.8250
L63.5000 36.0000
" />
<path d="M60.4705 28.4773
L61.3250 29.3318
" />
<path d="M61.3250 29.3318
L61.3250 33.8250
" />
<path d="M49.4797 28.4773
L60.4705 28.4773
" />
<path d="M23.3400 61.0000
L24.5353 59.8047
" />
<path d="M47.4600 66.0000
L53.0453 60.4147
" />
<path d="M53.0453 60.4147
L56.9851 60.4147
" />
<path d="M44.3616 47.8216
L44.6600 47.8216
" />
<path d="M42.5400 46.0000
L44.3616 47.8216
" />
<path d="M35.5889 23.6061
L83.2039 23.6061
" />
<path d="M83.2039 23.6061
L92.6200 14.1900
" />
<path d="M31.2009 31.2459
L34.3751 31.2459
" />
<path d="M29.5750 29.6200
L35.5889 23.6061
" />
<path d="M29.5750 29.6200
L31.2009 31.2459
" />
<path d="M45.5712 29.6200
L47.1271 28.0641
" />
<path d="M47.1271 28.0641
L65.2230 28.0641
" />
<path d="M44.8150 29.6200
L45.5712 29.6200
" />
<path d="M66.7349 29.5760
L66.7349 33.6471
" />
<path d="M65.2230 28.0641
L66.7349 29.5760
" />
<path d="M54.2432 59.4045
L41.2700 46.4313
" />
<path d="M68.8045 59.4045
L54.2432 59.4045
" />
<path d="M75.4000 66.0000
L68.8045 59.4045
" />
<path d="M41.2700 45.5804
L39.5749 43.8853
" />
<path d="M41.2700 46.4313
L41.2700 45.5804
" />
<path d="M39.5749 43.8853
L35.6471 43.8853
" />
<path d="M34.5243 27.2107
L32.1150 29.6200
" />
<path d="M69.0953 27.2107
L34.5243 27.2107
" />
<path d="M39.2026 27.6124
L37.1950 29.6200
" />
<path d="M68.0016 27.9926
L67.6214 27.6124
" />
<path d="M67.6214 27.6124
L39.2026 27.6124
" />
<path d="M64.2399 47.2199
L44.6118 47.2199
" />
<path d="M41.4024 43.1933
L38.8779 43.1933
" />
<path d="M43.8100 45.6009
L41.4024 43.1933
" />
<path d="M43.8100 46.4181
L43.8100 45.6009
" />
<path d="M44.6118 47.2199
L43.8100 46.4181
" />
<path d="M83.0200 66.0000
L64.2399 47.2199
" />
<path d="M65.9600 46.4000
L53.3289 46.4000
" />
<path d="M85.5600 66.0000
L65.9600 46.4000
" />
<path d="M48.8204 38.3146
L28.0094 38.3146
" />
<path d="M57.5150 29.6200
L48.8204 38.3146
" />
<path d="M5.5600 60.7640
L5.5600 61.0000
" />
<path d="M28.0094 38.3146
L5.5600 60.7640
" />
<path d="M50.4992 39.1758
L60.0550 29.6200
" />
<path d="M15.7200 61.0000
L14.5352 62.1848
" />
<path d="M12.6743 62.1848
L12.0055 61.5160
" />
<path d="M33.3547 39.1758
L50.4992 39.1758
" />
<path d="M12.0055 60.5250
L33.3547 39.1758
" />
<path d="M12.0055 61.5160
L12.0055 60.5250
" />
<path d="M14.5352 62.1848
L12.6743 62.1848
" />
<path d="M41.7793 28.5183
L45.5821 28.5183
" />
<path d="M41.0050 30.2671
L41.0050 29.2926
" />
<path d="M34.7334 36.5387
L41.0050 30.2671
" />
<path d="M21.7506 36.5387
L34.7334 36.5387
" />
<path d="M41.0050 29.2926
L41.7793 28.5183
" />
<path d="M51.7986 16.6058
L16.3876 16.6058
" />
<path d="M56.3762 13.2412
L54.5368 13.2412
" />
<path d="M53.5367 14.8677
L51.7986 16.6058
" />
<path d="M57.5150 14.3800
L56.3762 13.2412
" />
<path d="M54.5368 13.2412
L53.5367 14.2413
" />
<path d="M53.5367 14.2413
L53.5367 14.8677
" />
<path d="M54.9750 14.3800
L46.4448 22.9102
" />
<path d="M46.4448 22.9103
L34.6857 22.9103
" />
<path d="M24.6826 33.5375
L22.0033 33.5375
" />
<path d="M34.6857 22.9103
L28.3050 29.2910
" />
<path d="M46.4448 22.9102
L46.4448 22.9103
" />
<path d="M28.3050 29.2910
L28.3050 29.9151
" />
<path d="M28.3050 29.9151
L24.6826 33.5375
" />
<path d="M39.4909 28.2662
L40.1292 28.2662
" />
<path d="M13.1800 61.0000
L25.7073 48.4727
" />
<path d="M39.3982 31.0230
L38.6169 30.2417
" />
<path d="M37.5274 48.4727
L37.5274 48.4726
" />
<path d="M25.7073 48.4727
L37.5274 48.4727
" />
<path d="M38.6169 29.1402
L39.4909 28.2662
" />
<path d="M37.5274 48.4726
L40.0000 46.0000
" />
<path d="M38.6169 30.2417
L38.6169 29.1402
" />
</g>
<g style="fill:none; 
stroke:#F2EDA1; stroke-width:0.2000; stroke-opacity:1; 
stroke-linecap:round; stroke-linejoin:round;">
<text x="68.0000" y="53.6000"
textLength="13.3314" font-size="1.6000" lengthAdjust="spacingAndGlyphs"
text-anchor="middle" opacity="0" stroke-opacity="0">NO HOT-PLUG</text>
<g class="stroked-text"><desc>NO HOT-PLUG</desc>
<path d="M61.8000 53.5447
L61.8000 52.3447
" />
<path d="M61.8000 52.3447
L62.4857 53.5447
" />
<path d="M62.4857 53.5447
L62.4857 52.3447
" />
<path d="M63.2857 52.3447
L63.5143 52.3447
" />
<path d="M63.5143 52.3447
L63.6286 52.4019
" />
<path d="M63.6286 52.4019
L63.7429 52.5162
" />
<path d="M63.7429 52.5162
L63.8000 52.7447
" />
<path d="M63.8000 52.7447
L63.8000 53.1447
" />
<path d="M63.8000 53.1447
L63.7429 53.3733
" />
<path d="M63.7429 53.3733
L63.6286 53.4876
" />
<path d="M63.6286 53.4876
L63.5143 53.5447
" />
<path d="M63.5143 53.5447
L63.2857 53.5447
" />
<path d="M63.2857 53.5447
L63.1714 53.4876
" />
<path d="M63.1714 53.4876
L63.0571 53.3733
" />
<path d="M63.0571 53.3733
L63.0000 53.1447
" />
<path d="M63.0000 53.1447
L63.0000 52.7447
" />
<path d="M63.0000 52.7447
L63.0571 52.5162
" />
<path d="M63.0571 52.5162
L63.1714 52.4019
" />
<path d="M63.1714 52.4019
L63.2857 52.3447
" />
<path d="M65.2286 53.5447
L65.2286 52.3447
" />
<path d="M65.2286 52.9162
L65.9143 52.9162
" />
<path d="M65.9143 53.5447
L65.9143 52.3447
" />
<path d="M66.7143 52.3447
L66.9429 52.3447
" />
<path d="M66.9429 52.3447
L67.0571 52.4019
" />
<path d="M67.0571 52.4019
L67.1714 52.5162
" />
<path d="M67.1714 52.5162
L67.2286 52.7447
" />
<path d="M67.2286 52.7447
L67.2286 53.1447
" />
<path d="M67.2286 53.1447
L67.1714 53.3733
" />
<path d="M67.1714 53.3733
L67.0571 53.4876
" />
<path d="M67.0571 53.4876
L66.9429 53.5447
" />
<path d="M66.9429 53.5447
L66.7143 53.5447
" />
<path d="M66.7143 53.5447
L66.6000 53.4876
" />
<path d="M66.6000 53.4876
L66.4857 53.3733
" />
<path d="M66.4857 53.3733
L66.4286 53.1447
" />
<path d="M66.4286 53.1447
L66.4286 52.7447
" />
<path d="M66.4286 52.7447
L66.4857 52.5162
" />
<path d="M66.4857 52.5162
L66.6000 52.4019
" />
<path d="M66.6000 52.4019
L66.7143 52.3447
" />
<path d="M67.5714 52.3447
L68.2571 52.3447
" />
<path d="M67.9143 53.5447
L67.9143 52.3447
" />
<path d="M68.6571 53.0876
L69.5714 53.0876
" />
<path d="M70.1429 53.5447
L70.1429 52.3447
" />
<path d="M70.1429 52.3447
L70.6000 52.3447
" />
<path d="M70.6000 52.3447
L70.7143 52.4019
" />
<path d="M70.7143 52.4019
L70.7714 52.4590
" />
<path d="M70.7714 52.4590
L70.8286 52.5733
" />
<path d="M70.8286 52.5733
L70.8286 52.7447
" />
<path d="M70.8286 52.7447
L70.7714 52.8590
" />
<path d="M70.7714 52.8590
L70.7143 52.9162
" />
<path d="M70.7143 52.9162
L70.6000 52.9733
" />
<path d="M70.6000 52.9733
L70.1429 52.9733
" />
<path d="M71.9143 53.5447
L71.3429 53.5447
" />
<path d="M71.3429 53.5447
L71.3429 52.3447
" />
<path d="M72.3143 52.3447
L72.3143 53.3162
" />
<path d="M72.3143 53.3162
L72.3714 53.4305
" />
<path d="M72.3714 53.4305
L72.4286 53.4876
" />
<path d="M72.4286 53.4876
L72.5429 53.5447
" />
<path d="M72.5429 53.5447
L72.7714 53.5447
" />
<path d="M72.7714 53.5447
L72.8857 53.4876
" />
<path d="M72.8857 53.4876
L72.9429 53.4305
" />
<path d="M72.9429 53.4305
L73.0000 53.3162
" />
<path d="M73.0000 53.3162
L73.0000 52.3447
" />
<path d="M74.2000 52.4019
L74.0857 52.3447
" />
<path d="M74.0857 52.3447
L73.9143 52.3447
" />
<path d="M73.9143 52.3447
L73.7429 52.4019
" />
<path d="M73.7429 52.4019
L73.6286 52.5162
" />
<path d="M73.6286 52.5162
L73.5714 52.6305
" />
<path d="M73.5714 52.6305
L73.5143 52.8590
" />
<path d="M73.5143 52.8590
L73.5143 53.0305
" />
<path d="M73.5143 53.0305
L73.5714 53.2590
" />
<path d="M73.5714 53.2590
L73.6286 53.3733
" />
<path d="M73.6286 53.3733
L73.7429 53.4876
" />
<path d="M73.7429 53.4876
L73.9143 53.5447
" />
<path d="M73.9143 53.5447
L74.0286 53.5447
" />
<path d="M74.0286 53.5447
L74.2000 53.4876
" />
<path d="M74.2000 53.4876
L74.2571 53.4305
" />
<path d="M74.2571 53.4305
L74.2571 53.0305
" />
<path d="M74.2571 53.0305
L74.0286 53.0305
" />
</g><text x="68.0000" y="46.7000"
textLength="10.9200" font-size="1.8667" lengthAdjust="spacingAndGlyphs"
text-anchor="middle" opacity="0" stroke-opacity="0">REVB CPU</text>
<g class="stroked-text"><desc>REVB CPU</desc>
<path d="M63.8333 46.6373
L63.3667 45.9706
" />
<path d="M63.0333 46.6373
L63.0333 45.2373
" />
<path d="M63.0333 45.2373
L63.5667 45.2373
" />
<path d="M63.5667 45.2373
L63.7000 45.3039
" />
<path d="M63.7000 45.3039
L63.7667 45.3706
" />
<path d="M63.7667 45.3706
L63.8333 45.5039
" />
<path d="M63.8333 45.5039
L63.8333 45.7039
" />
<path d="M63.8333 45.7039
L63.7667 45.8373
" />
<path d="M63.7667 45.8373
L63.7000 45.9039
" />
<path d="M63.7000 45.9039
L63.5667 45.9706
" />
<path d="M63.5667 45.9706
L63.0333 45.9706
" />
<path d="M64.4333 45.9039
L64.9000 45.9039
" />
<path d="M65.1000 46.6373
L64.4333 46.6373
" />
<path d="M64.4333 46.6373
L64.4333 45.2373
" />
<path d="M64.4333 45.2373
L65.1000 45.2373
" />
<path d="M65.5000 45.2373
L65.9667 46.6373
" />
<path d="M65.9667 46.6373
L66.4333 45.2373
" />
<path d="M67.3667 45.9039
L67.5667 45.9706
" />
<path d="M67.5667 45.9706
L67.6333 46.0373
" />
<path d="M67.6333 46.0373
L67.7000 46.1706
" />
<path d="M67.7000 46.1706
L67.7000 46.3706
" />
<path d="M67.7000 46.3706
L67.6333 46.5039
" />
<path d="M67.6333 46.5039
L67.5667 46.5706
" />
<path d="M67.5667 46.5706
L67.4333 46.6373
" />
<path d="M67.4333 46.6373
L66.9000 46.6373
" />
<path d="M66.9000 46.6373
L66.9000 45.2373
" />
<path d="M66.9000 45.2373
L67.3667 45.2373
" />
<path d="M67.3667 45.2373
L67.5000 45.3039
" />
<path d="M67.5000 45.3039
L67.5667 45.3706
" />
<path d="M67.5667 45.3706
L67.6333 45.5039
" />
<path d="M67.6333 45.5039
L67.6333 45.6373
" />
<path d="M67.6333 45.6373
L67.5667 45.7706
" />
<path d="M67.5667 45.7706
L67.5000 45.8373
" />
<path d="M67.5000 45.8373
L67.3667 45.9039
" />
<path d="M67.3667 45.9039
L66.9000 45.9039
" />
<path d="M70.1667 46.5039
L70.1000 46.5706
" />
<path d="M70.1000 46.5706
L69.9000 46.6373
" />
<path d="M69.9000 46.6373
L69.7667 46.6373
" />
<path d="M69.7667 46.6373
L69.5667 46.5706
" />
<path d="M69.5667 46.5706
L69.4333 46.4373
" />
<path d="M69.4333 46.4373
L69.3667 46.3039
" />
<path d="M69.3667 46.3039
L69.3000 46.0373
" />
<path d="M69.3000 46.0373
L69.3000 45.8373
" />
<path d="M69.3000 45.8373
L69.3667 45.5706
" />
<path d="M69.3667 45.5706
L69.4333 45.4373
" />
<path d="M69.4333 45.4373
L69.5667 45.3039
" />
<path d="M69.5667 45.3039
L69.7667 45.2373
" />
<path d="M69.7667 45.2373
L69.9000 45.2373
" />
<path d="M69.9000 45.2373
L70.1000 45.3039
" />
<path d="M70.1000 45.3039
L70.1667 45.3706
" />
<path d="M70.7667 46.6373
L70.7667 45.2373
" />
<path d="M70.7667 45.2373
L71.3000 45.2373
" />
<path d="M71.3000 45.2373
L71.4333 45.3039
" />
<path d="M71.4333 45.3039
L71.5000 45.3706
" />
<path d="M71.5000 45.3706
L71.5667 45.5039
" />
<path d="M71.5667 45.5039
L71.5667 45.7039
" />
<path d="M71.5667 45.7039
L71.5000 45.8373
" />
<path d="M71.5000 45.8373
L71.4333 45.9039
" />
<path d="M71.4333 45.9039
L71.3000 45.9706
" />
<path d="M71.3000 45.9706
L70.7667 45.9706
" />
<path d="M72.1667 45.2373
L72.1667 46.3706
" />
<path d="M72.1667 46.3706
L72.2333 46.5039
" />
<path d="M72.2333 46.5039
L72.3000 46.5706
" />
<path d="M72.3000 46.5706
L72.4333 46.6373
" />
<path d="M72.4333 46.6373
L72.7000 46.6373
" />
<path d="M72.7000 46.6373
L72.8333 46.5706
" />
<path d="M72.8333 46.5706
L72.9000 46.5039
" />
<path d="M72.9000 46.5039
L72.9667 46.3706
" />
<path d="M72.9667 46.3706
L72.9667 45.2373
" />
</g></g>
<g style="fill:none; 
stroke:#F2EDA1; stroke-width:0.1200; stroke-opacity:1; 
stroke-linecap:round; stroke-linejoin:round;">
<path d="M0.3600 67.3800
L0.3600 66.0000
" />
<path d="M1.7400 67.3800
L0.3600 67.3800
" />
<path d="M3.0100 64.6200
L99.6400 64.6200
" />
<path d="M3.0100 67.3800
L3.0100 64.6200
" />
<path d="M3.0100 67.3800
L99.6400 67.3800
" />
<path d="M99.6400 67.3800
L99.6400 64.6200
" />
<path d="M15.5450 15.5400
L15.5450 21.0000
" />
<path d="M15.5450 23.0000
L15.5450 28.4600
" />
<path d="M15.5450 28.4600
L66.4650 28.4600
" />
<path d="M66.4650 15.5400
L15.5450 15.5400
" />
<path d="M66.4650 28.4600
L66.4650 15.5400
" />
<path d="M15.5450 23.0000 A1.0000 1.0000 0.0 0 0 15.5450 21.0000" />
<path d="M85.3800 40.6300
L90.6200 40.6300
" />
<path d="M85.3800 40.9670
L85.3800 40.6300
" />
<path d="M85.3800 43.3700
L85.3800 43.0330
" />
<path d="M90.6200 40.6300
L90.6200 40.9670
" />
<path d="M90.6200 43.0330
L90.6200 43.3700
" />
<path d="M90.6200 43.3700
L85.3800 43.3700
" />
<path d="M63.3800 34.6300
L68.6200 34.6300
" />
<path d="M63.3800 34.9670
L63.3800 34.6300
" />
<path d="M63.3800 37.3700
L63.3800 37.0330
" />
<path d="M68.6200 34.6300
L68.6200 34.9670
" />
<path d="M68.6200 37.0330
L68.6200 37.3700
" />
<path d="M68.6200 37.3700
L63.3800 37.3700
" />
<path d="M1.6400 62.3800
L1.6400 61.0000
" />
<path d="M3.0200 62.3800
L1.6400 62.3800
" />
<path d="M4.2900 59.6200
L27.2600 59.6200
" />
<path d="M4.2900 62.3800
L4.2900 59.6200
" />
<path d="M4.2900 62.3800
L27.2600 62.3800
" />
<path d="M27.2600 62.3800
L27.2600 59.6200
" />
<path d="M33.5400 47.3800
L33.5400 46.0000
" />
<path d="M34.9200 47.3800
L33.5400 47.3800
" />
<path d="M36.1900 44.6200
L46.4600 44.6200
" />
<path d="M36.1900 47.3800
L36.1900 44.6200
" />
<path d="M36.1900 47.3800
L46.4600 47.3800
" />
<path d="M46.4600 47.3800
L46.4600 44.6200
" />
<path d="M74.5500 12.3000
L74.5500 24.4500
" />
<path d="M74.5500 24.4500
L94.7000 24.4500
" />
<path d="M94.7000 11.5500
L75.3000 11.5500
" />
<path d="M95.4500 23.7000
L95.4500 12.3000
" />
<path d="M75.3000 11.5500 A0.7500 0.7500 0.0 0 0 74.5500 12.3000" />
<path d="M95.4500 12.3000 A0.7500 0.7500 0.0 0 0 94.7000 11.5500" />
<path d="M94.7000 24.4500 A0.7500 0.7500 0.0 0 0 95.4500 23.7000" />
</g>
<g style="fill:none; 
stroke:#D0D2CD; stroke-width:0.1500; stroke-opacity:1; 
stroke-linecap:round; stroke-linejoin:round;">
<path d="M0.0000 0.0000
L100.0000 0.0000
" />
<path d="M0.0000 70.0000
L0.0000 0.0000
" />
<path d="M100.0000 0.0000
L100.0000 70.0000
" />
<path d="M100.0000 70.0000
L0.0000 70.0000
" />
</g>
<g style="fill:#FFFFFF; fill-opacity:1.0000; stroke:none;">
<circle cx="1.7236" cy="42.3125" r="0.1500" /> 
<circle cx="7.6238" cy="59.5511" r="0.1500" /> 
<circle cx="27.2452" cy="35.7193" r="0.1500" /> 
<circle cx="36.8853" cy="28.2908" r="0.1500" /> 
<circle cx="30.0155" cy="33.5375" r="0.1500" /> 
<circle cx="41.7765" cy="61.3595" r="0.1500" /> 
<circle cx="56.9851" cy="60.4147" r="0.1500" /> 
<circle cx="44.6600" cy="47.8216" r="0.1500" /> 
<circle cx="34.3751" cy="31.2459" r="0.1500" /> 
<circle cx="66.7349" cy="33.6471" r="0.1500" /> 
<circle cx="35.6471" cy="43.8853" r="0.1500" /> 
<circle cx="69.0953" cy="27.2107" r="0.1500" /> 
<circle cx="68.0016" cy="27.9926" r="0.1500" /> 
<circle cx="38.8779" cy="43.1933" r="0.1500" /> 
<circle cx="53.3289" cy="46.4000" r="0.1500" /> 
<circle cx="21.7506" cy="36.5387" r="0.1500" /> 
<circle cx="45.5821" cy="28.5183" r="0.1500" /> 
<circle cx="16.3876" cy="16.6058" r="0.1500" /> 
<circle cx="22.0033" cy="33.5375" r="0.1500" /> 
<circle cx="39.3982" cy="31.0230" r="0.1500" /> 
<circle cx="40.1292" cy="28.2662" r="0.1500" /> 
</g>
<g style="fill:#FFFFFF; fill-opacity:1.0000; stroke:none;">
<circle cx="1.7400" cy="66.0000" r="0.5000" /> 
</g>
<g style="fill:#FFFFFF; fill-opacity:1.0000; stroke:none;">
<circle cx="4.2800" cy="66.0000" r="0.5000" /> 
</g>
<g style="fill:#FFFFFF; fill-opacity:1.0000; stroke:none;">
<circle cx="6.8200" cy="66.0000" r="0.5000" /> 
</g>
<g style="fill:#FFFFFF; fill-opacity:1.0000; stroke:none;">
<circle cx="9.3600" cy="66.0000" r="0.5000" /> 
</g>
<g style="fill:#FFFFFF; fill-opacity:1.0000; stroke:none;">
<circle cx="11.9000" cy="66.0000" r="0.5000" /> 
</g>
<g style="fill:#FFFFFF; fill-opacity:1.0000; stroke:none;">
<circle cx="14.4400" cy="66.0000" r="0.5000" /> 
</g>
<g style="fill:#FFFFFF; fill-opacity:1.0000; stroke:none;">
<circle cx="16.9800" cy="66.0000" r="0.5000" /> 
</g>
<g style="fill:#FFFFFF; fill-opacity:1.0000; stroke:none;">
<circle cx="19.5200" cy="66.0000" r="0.5000" /> 
</g>
<g style="fill:#FFFFFF; fill-opacity:1.0000; stroke:none;">
<circle cx="22.0600" cy="66.0000" r="0.5000" /> 
</g>
<g style="fill:#FFFFFF; fill-opacity:1.0000; stroke:none;">
<circle cx="24.6000" cy="66.0000" r="0.5000" /> 
</g>
<g style="fill:#FFFFFF; fill-opacity:1.0000; stroke:none;">
<circle cx="27.1400" cy="66.0000" r="0.5000" /> 
</g>
<g style="fill:#FFFFFF; fill-opacity:1.0000; stroke:none;">
<circle cx="29.6800" cy="66.0000" r="0.5000" /> 
</g>
<g style="fill:#FFFFFF; fill-opacity:1.0000; stroke:none;">
<circle cx="32.2200" cy="66.0000" r="0.5000" /> 
</g>
<g style="fill:#FFFFFF; fill-opacity:1.0000; stroke:none;">
<circle cx="34.7600" cy="66.0000" r="0.5000" /> 
</g>
<g style="fill:#FFFFFF; fill-opacity:1.0000; stroke:none;">
<circle cx="37.3000" cy="66.0000" r="0.5000" /> 
</g>
<g style="fill:#FFFFFF; fill-opacity:1.0000; stroke:none;">
<circle cx="39.8400" cy="66.0000" r="0.5000" /> 
</g>
<g style="fill:#FFFFFF; fill-opacity:1.0000; stroke:none;">
<circle cx="42.3800" cy="66.0000" r="0.5000" /> 
</g>
<g style="fill:#FFFFFF; fill-opacity:1.0000; stroke:none;">
<circle cx="44.9200" cy="66.0000" r="0.5000" /> 
</g>
<g style="fill:#FFFFFF; fill-opacity:1.0000; stroke:none;">
<circle cx="47.4600" cy="66.0000" r="0.5000" /> 
</g>
<g style="fill:#FFFFFF; fill-opacity:1.0000; stroke:none;">
<circle cx="50.0000" cy="66.0000" r="0.5000" /> 
</g>
<g style="fill:#FFFFFF; fill-opacity:1.0000; stroke:none;">
<circle cx="52.5400" cy="66.0000" r="0.5000" /> 
</g>
<g style="fill:#FFFFFF; fill-opacity:1.0000; stroke:none;">
<circle cx="55.0800" cy="66.0000" r="0.5000" /> 
</g>
<g style="fill:#FFFFFF; fill-opacity:1.0000; stroke:none;">
<circle cx="57.6200" cy="66.0000" r="0.5000" /> 
</g>
<g style="fill:#FFFFFF; fill-opacity:1.0000; stroke:none;">
<circle cx="60.1600" cy="66.0000" r="0.5000" /> 
</g>
<g style="fill:#FFFFFF; fill-opacity:1.0000; stroke:none;">
<circle cx="62.7000" cy="66.0000" r="0.5000" /> 
</g>
<g style="fill:#FFFFFF; fill-opacity:1.0000; stroke:none;">
<circle cx="65.2400" cy="66.0000" r="0.5000" /> 
</g>
<g style="fill:#FFFFFF; fill-opacity:1.0000; stroke:none;">
<circle cx="67.7800" cy="66.0000" r="0.5000" /> 
</g>
<g style="fill:#FFFFFF; fill-opacity:1.0000; stroke:none;">
<circle cx="70.3200" cy="66.0000" r="0.5000" /> 
</g>
<g style="fill:#FFFFFF; fill-opacity:1.0000; stroke:none;">
<circle cx="72.8600" cy="66.0000" r="0.5000" /> 
</g>
<g style="fill:#FFFFFF; fill-opacity:1.0000; stroke:none;">
<circle cx="75.4000" cy="66.0000" r="0.5000" /> 
</g>
<g style="fill:#FFFFFF; fill-opacity:1.0000; stroke:none;">
<circle cx="77.9400" cy="66.0000" r="0.5000" /> 
</g>
<g style="fill:#FFFFFF; fill-opacity:1.0000; stroke:none;">
<circle cx="80.4800" cy="66.0000" r="0.5000" /> 
</g>
<g style="fill:#FFFFFF; fill-opacity:1.0000; stroke:none;">
<circle cx="83.0200" cy="66.0000" r="0.5000" /> 
</g>
<g style="fill:#FFFFFF; fill-opacity:1.0000; stroke:none;">
<circle cx="85.5600" cy="66.0000" r="0.5000" /> 
</g>
<g style="fill:#FFFFFF; fill-opacity:1.0000; stroke:none;">
<circle cx="88.1000" cy="66.0000" r="0.5000" /> 
</g>
<g style="fill:#FFFFFF; fill-opacity:1.0000; stroke:none;">
<circle cx="90.6400" cy="66.0000" r="0.5000" /> 
</g>
<g style="fill:#FFFFFF; fill-opacity:1.0000; stroke:none;">
<circle cx="93.1800" cy="66.0000" r="0.5000" /> 
</g>
<g style="fill:#FFFFFF; fill-opacity:1.0000; stroke:none;">
<circle cx="95.7200" cy="66.0000" r="0.5000" /> 
</g>
<g style="fill:#FFFFFF; fill-opacity:1.0000; stroke:none;">
<circle cx="98.2600" cy="66.0000" r="0.5000" /> 
</g>
<g style="fill:#FFFFFF; fill-opacity:1.0000; stroke:none;">
<circle cx="16.8750" cy="29.6200" r="0.4000" /> 
</g>
<g style="fill:#FFFFFF; fill-opacity:1.0000; stroke:none;">
<circle cx="19.4150" cy="29.6200" r="0.4000" /> 
</g>
<g style="fill:#FFFFFF; fill-opacity:1.0000; stroke:none;">
<circle cx="21.9550" cy="29.6200" r="0.4000" /> 
</g>
<g style="fill:#FFFFFF; fill-opacity:1.0000; stroke:none;">
<circle cx="24.4950" cy="29.6200" r="0.4000" /> 
</g>
<g style="fill:#FFFFFF; fill-opacity:1.0000; stroke:none;">
<circle cx="27.0350" cy="29.6200" r="0.4000" /> 
</g>
<g style="fill:#FFFFFF; fill-opacity:1.0000; stroke:none;">
<circle cx="29.5750" cy="29.6200" r="0.4000" /> 
</g>
<g style="fill:#FFFFFF; fill-opacity:1.0000; stroke:none;">
<circle cx="32.1150" cy="29.6200" r="0.4000" /> 
</g>
<g style="fill:#FFFFFF; fill-opacity:1.0000; stroke:none;">
<circle cx="34.6550" cy="29.6200" r="0.4000" /> 
</g>
<g style="fill:#FFFFFF; fill-opacity:1.0000; stroke:none;">
<circle cx="37.1950" cy="29.6200" r="0.4000" /> 
</g>
<g style="fill:#FFFFFF; fill-opacity:1.0000; stroke:none;">
<circle cx="39.7350" cy="29.6200" r="0.4000" /> 
</g>
<g style="fill:#FFFFFF; fill-opacity:1.0000; stroke:none;">
<circle cx="42.2750" cy="29.6200" r="0.4000" /> 
</g>
<g style="fill:#FFFFFF; fill-opacity:1.0000; stroke:none;">
<circle cx="44.8150" cy="29.6200" r="0.4000" /> 
</g>
<g style="fill:#FFFFFF; fill-opacity:1.0000; stroke:none;">
<circle cx="47.3550" cy="29.6200" r="0.4000" /> 
</g>
<g style="fill:#FFFFFF; fill-opacity:1.0000; stroke:none;">
<circle cx="49.8950" cy="29.6200" r="0.4000" /> 
</g>
<g style="fill:#FFFFFF; fill-opacity:1.0000; stroke:none;">
<circle cx="52.4350" cy="29.6200" r="0.4000" /> 
</g>
<g style="fill:#FFFFFF; fill-opacity:1.0000; stroke:none;">
<circle cx="54.9750" cy="29.6200" r="0.4000" /> 
</g>
<g style="fill:#FFFFFF; fill-opacity:1.0000; stroke:none;">
<circle cx="57.5150" cy="29.6200" r="0.4000" /> 
</g>
<g style="fill:#FFFFFF; fill-opacity:1.0000; stroke:none;">
<circle cx="60.0550" cy="29.6200" r="0.4000" /> 
</g>
<g style="fill:#FFFFFF; fill-opacity:1.0000; stroke:none;">
<circle cx="62.5950" cy="29.6200" r="0.4000" /> 
</g>
<g style="fill:#FFFFFF; fill-opacity:1.0000; stroke:none;">
<circle cx="65.1350" cy="29.6200" r="0.4000" /> 
</g>
<g style="fill:#FFFFFF; fill-opacity:1.0000; stroke:none;">
<circle cx="65.1350" cy="14.3800" r="0.4000" /> 
</g>
<g style="fill:#FFFFFF; fill-opacity:1.0000; stroke:none;">
<circle cx="62.5950" cy="14.3800" r="0.4000" /> 
</g>
<g style="fill:#FFFFFF; fill-opacity:1.0000; stroke:none;">
<circle cx="60.0550" cy="14.3800" r="0.4000" /> 
</g>
<g style="fill:#FFFFFF; fill-opacity:1.0000; stroke:none;">
<circle cx="57.5150" cy="14.3800" r="0.4000" /> 
</g>
<g style="fill:#FFFFFF; fill-opacity:1.0000; stroke:none;">
<circle cx="54.9750" cy="14.3800" r="0.4000" /> 
</g>
<g style="fill:#FFFFFF; fill-opacity:1.0000; stroke:none;">
<circle cx="52.4350" cy="14.3800" r="0.4000" /> 
</g>
<g style="fill:#FFFFFF; fill-opacity:1.0000; stroke:none;">
<circle cx="49.8950" cy="14.3800" r="0.4000" /> 
</g>
<g style="fill:#FFFFFF; fill-opacity:1.0000; stroke:none;">
<circle cx="47.3550" cy="14.3800" r="0.4000" /> 
</g>
<g style="fill:#FFFFFF; fill-opacity:1.0000; stroke:none;">
<circle cx="44.8150" cy="14.3800" r="0.4000" /> 
</g>
<g style="fill:#FFFFFF; fill-opacity:1.0000; stroke:none;">
<circle cx="42.2750" cy="14.3800" r="0.4000" /> 
</g>
<g style="fill:#FFFFFF; fill-opacity:1.0000; stroke:none;">
<circle cx="39.7350" cy="14.3800" r="0.4000" /> 
</g>
<g style="fill:#FFFFFF; fill-opacity:1.0000; stroke:none;">
<circle cx="37.1950" cy="14.3800" r="0.4000" /> 
</g>
<g style="fill:#FFFFFF; fill-opacity:1.0000; stroke:none;">
<circle cx="34.6550" cy="14.3800" r="0.4000" /> 
</g>
<g style="fill:#FFFFFF; fill-opacity:1.0000; stroke:none;">
<circle cx="32.1150" cy="14.3800" r="0.4000" /> 
</g>
<g style="fill:#FFFFFF; fill-opacity:1.0000; stroke:none;">
<circle cx="29.5750" cy="14.3800" r="0.4000" /> 
</g>
<g style="fill:#FFFFFF; fill-opacity:1.0000; stroke:none;">
<circle cx="27.0350" cy="14.3800" r="0.4000" /> 
</g>
<g style="fill:#FFFFFF; fill-opacity:1.0000; stroke:none;">
<circle cx="24.4950" cy="14.3800" r="0.4000" /> 
</g>
<g style="fill:#FFFFFF; fill-opacity:1.0000; stroke:none;">
<circle cx="21.9550" cy="14.3800" r="0.4000" /> 
</g>
<g style="fill:#FFFFFF; fill-opacity:1.0000; stroke:none;">
<circle cx="19.4150" cy="14.3800" r="0.4000" /> 
</g>
<g style="fill:#FFFFFF; fill-opacity:1.0000; stroke:none;">
<circle cx="16.8750" cy="14.3800" r="0.4000" /> 
</g>
<g style="fill:#FFFFFF; fill-opacity:1.0000; stroke:none;">
<circle cx="85.5000" cy="42.0000" r="0.4000" /> 
</g>
<g style="fill:#FFFFFF; fill-opacity:1.0000; stroke:none;">
<circle cx="90.5000" cy="42.0000" r="0.4000" /> 
</g>
<g style="fill:#FFFFFF; fill-opacity:1.0000; stroke:none;">
<circle cx="63.5000" cy="36.0000" r="0.4000" /> 
</g>
<g style="fill:#FFFFFF; fill-opacity:1.0000; stroke:none;">
<circle cx="68.5000" cy="36.0000" r="0.4000" /> 
</g>
<g style="fill:#FFFFFF; fill-opacity:1.0000; stroke:none;">
<circle cx="3.0200" cy="61.0000" r="0.5000" /> 
</g>
<g style="fill:#FFFFFF; fill-opacity:1.0000; stroke:none;">
<circle cx="5.5600" cy="61.0000" r="0.5000" /> 
</g>
<g style="fill:#FFFFFF; fill-opacity:1.0000; stroke:none;">
<circle cx="8.1000" cy="61.0000" r="0.5000" /> 
</g>
<g style="fill:#FFFFFF; fill-opacity:1.0000; stroke:none;">
<circle cx="10.6400" cy="61.0000" r="0.5000" /> 
</g>
<g style="fill:#FFFFFF; fill-opacity:1.0000; stroke:none;">
<circle cx="13.1800" cy="61.0000" r="0.5000" /> 
</g>
<g style="fill:#FFFFFF; fill-opacity:1.0000; stroke:none;">
<circle cx="15.7200" cy="61.0000" r="0.5000" /> 
</g>
<g style="fill:#FFFFFF; fill-opacity:1.0000; stroke:none;">
<circle cx="18.2600" cy="61.0000" r="0.5000" /> 
</g>
<g style="fill:#FFFFFF; fill-opacity:1.0000; stroke:none;">
<circle cx="20.8000" cy="61.0000" r="0.5000" /> 
</g>
<g style="fill:#FFFFFF; fill-opacity:1.0000; stroke:none;">
<circle cx="23.3400" cy="61.0000" r="0.5000" /> 
</g>
<g style="fill:#FFFFFF; fill-opacity:1.0000; stroke:none;">
<circle cx="25.8800" cy="61.0000" r="0.5000" /> 
</g>
<g style="fill:#FFFFFF; fill-opacity:1.0000; stroke:none;">
<circle cx="34.9200" cy="46.0000" r="0.5000" /> 
</g>
<g style="fill:#FFFFFF; fill-opacity:1.0000; stroke:none;">
<circle cx="37.4600" cy="46.0000" r="0.5000" /> 
</g>
<g style="fill:#FFFFFF; fill-opacity:1.0000; stroke:none;">
<circle cx="40.0000" cy="46.0000" r="0.5000" /> 
</g>
<g style="fill:#FFFFFF; fill-opacity:1.0000; stroke:none;">
<circle cx="42.5400" cy="46.0000" r="0.5000" /> 
</g>
<g style="fill:#FFFFFF; fill-opacity:1.0000; stroke:none;">
<circle cx="45.0800" cy="46.0000" r="0.5000" /> 
</g>
<g style="fill:#FFFFFF; fill-opacity:1.0000; stroke:none;">
<circle cx="77.3800" cy="21.8100" r="0.4000" /> 
</g>
<g style="fill:#FFFFFF; fill-opacity:1.0000; stroke:none;">
<circle cx="92.6200" cy="21.8100" r="0.4000" /> 
</g>
<g style="fill:#FFFFFF; fill-opacity:1.0000; stroke:none;">
<circle cx="92.6200" cy="14.1900" r="0.4000" /> 
</g>
<g style="fill:#FFFFFF; fill-opacity:1.0000; stroke:none;">
<circle cx="77.3800" cy="14.1900" r="0.4000" /> 
</g> 
</svg>
