<?xml version="1.0" standalone="no"?>
 <!DOCTYPE svg PUBLIC "-//W3C//DTD SVG 1.1//EN" 
 "http://www.w3.org/Graphics/SVG/1.1/DTD/svg11.dtd"> 
<svg
  xmlns:svg="http://www.w3.org/2000/svg"
  xmlns="http://www.w3.org/2000/svg"
  xmlns:xlink="http://www.w3.org/1999/xlink"
  xmlns:inkscape="http://www.inkscape.org/namespaces/inkscape"
  version="1.1"
  width="99.9998mm" height="59.9948mm" viewBox="0.0000 0.0000 99.9998 59.9948">
<title>SVG Image created as mem-top.svg date 2026-07-17T17:30:42 </title>
  <desc>Image generated by PCBNEW </desc>
<g style="fill:#000000; fill-opacity:1.0000;stroke:#000000; stroke-opacity:1.0000;
stroke-linecap:round; stroke-linejoin:round;"
 transform="translate(0 0) scale(1 1)">
</g>
<g style="fill:none; 
stroke:#C872AB; stroke-width:0.1500; stroke-opacity:1; 
stroke-linecap:round; stroke-linejoin:round;">
<path d="M-20.0000 16.0000
L88.0000 16.0000
L88.0000 48.0000
L-20.0000 48.0000
L-20.0000 16.0000
" />
<path d="M10.0000 10.0000
L90.0000 10.0000
L90.0000 50.0000
L10.0000 50.0000
L10.0000 10.0000
" />
<path d="M12.0000 12.0000
L88.0000 12.0000
L88.0000 48.0000
L12.0000 48.0000
L12.0000 12.0000
" />
<path d="M60.0000 12.0000
L60.0000 10.0000
" />
<text x="35.0000" y="11.6500"
textLength="1.4281" font-size="1.7333" lengthAdjust="spacingAndGlyphs"
text-anchor="start" opacity="0" stroke-opacity="0">1</text>
<g class="stroked-text"><desc>1</desc>
<path d="M36.0892 11.5936
L35.3463 11.5936
" />
<path d="M35.7177 11.5936
L35.7177 10.2936
" />
<path d="M35.7177 10.2936
L35.5939 10.4793
" />
<path d="M35.5939 10.4793
L35.4701 10.6031
" />
<path d="M35.4701 10.6031
L35.3463 10.6650
" />
</g><text x="85.0000" y="11.6500"
textLength="1.4281" font-size="1.7333" lengthAdjust="spacingAndGlyphs"
text-anchor="start" opacity="0" stroke-opacity="0">2</text>
<g class="stroked-text"><desc>2</desc>
<path d="M85.3463 10.4174
L85.4082 10.3555
" />
<path d="M85.4082 10.3555
L85.5320 10.2936
" />
<path d="M85.5320 10.2936
L85.8415 10.2936
" />
<path d="M85.8415 10.2936
L85.9654 10.3555
" />
<path d="M85.9654 10.3555
L86.0273 10.4174
" />
<path d="M86.0273 10.4174
L86.0892 10.5412
" />
<path d="M86.0892 10.5412
L86.0892 10.6650
" />
<path d="M86.0892 10.6650
L86.0273 10.8507
" />
<path d="M86.0273 10.8507
L85.2844 11.5936
" />
<path d="M85.2844 11.5936
L86.0892 11.5936
" />
</g><path d="M60.0000 48.0000
L60.0000 50.0000
" />
<text x="35.0000" y="49.6500"
textLength="1.4281" font-size="1.7333" lengthAdjust="spacingAndGlyphs"
text-anchor="start" opacity="0" stroke-opacity="0">1</text>
<g class="stroked-text"><desc>1</desc>
<path d="M36.0892 49.5936
L35.3463 49.5936
" />
<path d="M35.7177 49.5936
L35.7177 48.2936
" />
<path d="M35.7177 48.2936
L35.5939 48.4793
" />
<path d="M35.5939 48.4793
L35.4701 48.6031
" />
<path d="M35.4701 48.6031
L35.3463 48.6650
" />
</g><text x="85.0000" y="49.6500"
textLength="1.4281" font-size="1.7333" lengthAdjust="spacingAndGlyphs"
text-anchor="start" opacity="0" stroke-opacity="0">2</text>
<g class="stroked-text"><desc>2</desc>
<path d="M85.3463 48.4174
L85.4082 48.3555
" />
<path d="M85.4082 48.3555
L85.5320 48.2936
" />
<path d="M85.5320 48.2936
L85.8415 48.2936
" />
<path d="M85.8415 48.2936
L85.9654 48.3555
" />
<path d="M85.9654 48.3555
L86.0273 48.4174
" />
<path d="M86.0273 48.4174
L86.0892 48.5412
" />
<path d="M86.0892 48.5412
L86.0892 48.6650
" />
<path d="M86.0892 48.6650
L86.0273 48.8507
" />
<path d="M86.0273 48.8507
L85.2844 49.5936
" />
<path d="M85.2844 49.5936
L86.0892 49.5936
" />
</g><path d="M10.0000 60.0000
L12.0000 60.0000
" />
<text x="11.0000" y="35.6500"
textLength="1.3043" font-size="1.7333" lengthAdjust="spacingAndGlyphs"
text-anchor="middle" opacity="0" stroke-opacity="0">A</text>
<g class="stroked-text"><desc>A</desc>
<path d="M10.6905 35.2222
L11.3095 35.2222
" />
<path d="M10.5667 35.5936
L11.0000 34.2936
" />
<path d="M11.0000 34.2936
L11.4333 35.5936
" />
</g><path d="M90.0000 60.0000
L88.0000 60.0000
" />
<text x="89.0000" y="35.6500"
textLength="1.3043" font-size="1.7333" lengthAdjust="spacingAndGlyphs"
text-anchor="middle" opacity="0" stroke-opacity="0">A</text>
<g class="stroked-text"><desc>A</desc>
<path d="M88.6905 35.2222
L89.3095 35.2222
" />
<path d="M88.5667 35.5936
L89.0000 34.2936
" />
<path d="M89.0000 34.2936
L89.4333 35.5936
" />
</g><text x="3.0000" y="43.8500"
textLength="7.0071" font-size="2.0000" lengthAdjust="spacingAndGlyphs"
text-anchor="start" opacity="0" stroke-opacity="0">Date: </text>
<g class="stroked-text"><desc>Date: </desc>
<path d="M3.4558 43.7861
L3.4558 42.2861
" />
<path d="M3.4558 42.2861
L3.8130 42.2861
" />
<path d="M3.8130 42.2861
L4.0273 42.3576
" />
<path d="M4.0273 42.3576
L4.1701 42.5004
" />
<path d="M4.1701 42.5004
L4.2415 42.6433
" />
<path d="M4.2415 42.6433
L4.3130 42.9290
" />
<path d="M4.3130 42.9290
L4.3130 43.1433
" />
<path d="M4.3130 43.1433
L4.2415 43.4290
" />
<path d="M4.2415 43.4290
L4.1701 43.5718
" />
<path d="M4.1701 43.5718
L4.0273 43.7147
" />
<path d="M4.0273 43.7147
L3.8130 43.7861
" />
<path d="M3.8130 43.7861
L3.4558 43.7861
" />
<path d="M5.5987 43.7861
L5.5987 43.0004
" />
<path d="M5.5987 43.0004
L5.5273 42.8576
" />
<path d="M5.5273 42.8576
L5.3844 42.7861
" />
<path d="M5.3844 42.7861
L5.0987 42.7861
" />
<path d="M5.0987 42.7861
L4.9558 42.8576
" />
<path d="M5.5987 43.7147
L5.4558 43.7861
" />
<path d="M5.4558 43.7861
L5.0987 43.7861
" />
<path d="M5.0987 43.7861
L4.9558 43.7147
" />
<path d="M4.9558 43.7147
L4.8844 43.5718
" />
<path d="M4.8844 43.5718
L4.8844 43.4290
" />
<path d="M4.8844 43.4290
L4.9558 43.2861
" />
<path d="M4.9558 43.2861
L5.0987 43.2147
" />
<path d="M5.0987 43.2147
L5.4558 43.2147
" />
<path d="M5.4558 43.2147
L5.5987 43.1433
" />
<path d="M6.0987 42.7861
L6.6701 42.7861
" />
<path d="M6.3130 42.2861
L6.3130 43.5718
" />
<path d="M6.3130 43.5718
L6.3844 43.7147
" />
<path d="M6.3844 43.7147
L6.5273 43.7861
" />
<path d="M6.5273 43.7861
L6.6701 43.7861
" />
<path d="M7.7415 43.7147
L7.5987 43.7861
" />
<path d="M7.5987 43.7861
L7.3130 43.7861
" />
<path d="M7.3130 43.7861
L7.1701 43.7147
" />
<path d="M7.1701 43.7147
L7.0987 43.5718
" />
<path d="M7.0987 43.5718
L7.0987 43.0004
" />
<path d="M7.0987 43.0004
L7.1701 42.8576
" />
<path d="M7.1701 42.8576
L7.3130 42.7861
" />
<path d="M7.3130 42.7861
L7.5987 42.7861
" />
<path d="M7.5987 42.7861
L7.7415 42.8576
" />
<path d="M7.7415 42.8576
L7.8130 43.0004
" />
<path d="M7.8130 43.0004
L7.8130 43.1433
" />
<path d="M7.8130 43.1433
L7.0987 43.2861
" />
<path d="M8.4558 43.6433
L8.5273 43.7147
" />
<path d="M8.5273 43.7147
L8.4558 43.7861
" />
<path d="M8.4558 43.7861
L8.3844 43.7147
" />
<path d="M8.3844 43.7147
L8.4558 43.6433
" />
<path d="M8.4558 43.6433
L8.4558 43.7861
" />
<path d="M8.4558 42.8576
L8.5273 42.9290
" />
<path d="M8.5273 42.9290
L8.4558 43.0004
" />
<path d="M8.4558 43.0004
L8.3844 42.9290
" />
<path d="M8.3844 42.9290
L8.4558 42.8576
" />
<path d="M8.4558 42.8576
L8.4558 43.0004
" />
</g><path d="M-20.0000 44.5000
L88.0000 44.5000
" />
<text x="-19.0000" y="46.6500"
textLength="22.2929" font-size="2.0000" lengthAdjust="spacingAndGlyphs"
text-anchor="start" opacity="0" stroke-opacity="0">KiCad E.D.A. 10.0.4</text>
<g class="stroked-text"><desc>KiCad E.D.A. 10.0.4</desc>
<path d="M-18.5442 46.5861
L-18.5442 45.0861
" />
<path d="M-17.6870 46.5861
L-18.3299 45.7290
" />
<path d="M-17.6870 45.0861
L-18.5442 45.9433
" />
<path d="M-17.0442 46.5861
L-17.0442 45.5861
" />
<path d="M-17.0442 45.0861
L-17.1156 45.1576
" />
<path d="M-17.1156 45.1576
L-17.0442 45.2290
" />
<path d="M-17.0442 45.2290
L-16.9727 45.1576
" />
<path d="M-16.9727 45.1576
L-17.0442 45.0861
" />
<path d="M-17.0442 45.0861
L-17.0442 45.2290
" />
<path d="M-15.4727 46.4433
L-15.5442 46.5147
" />
<path d="M-15.5442 46.5147
L-15.7585 46.5861
" />
<path d="M-15.7585 46.5861
L-15.9013 46.5861
" />
<path d="M-15.9013 46.5861
L-16.1156 46.5147
" />
<path d="M-16.1156 46.5147
L-16.2585 46.3718
" />
<path d="M-16.2585 46.3718
L-16.3299 46.2290
" />
<path d="M-16.3299 46.2290
L-16.4013 45.9433
" />
<path d="M-16.4013 45.9433
L-16.4013 45.7290
" />
<path d="M-16.4013 45.7290
L-16.3299 45.4433
" />
<path d="M-16.3299 45.4433
L-16.2585 45.3004
" />
<path d="M-16.2585 45.3004
L-16.1156 45.1576
" />
<path d="M-16.1156 45.1576
L-15.9013 45.0861
" />
<path d="M-15.9013 45.0861
L-15.7585 45.0861
" />
<path d="M-15.7585 45.0861
L-15.5442 45.1576
" />
<path d="M-15.5442 45.1576
L-15.4727 45.2290
" />
<path d="M-14.1870 46.5861
L-14.1870 45.8004
" />
<path d="M-14.1870 45.8004
L-14.2585 45.6576
" />
<path d="M-14.2585 45.6576
L-14.4013 45.5861
" />
<path d="M-14.4013 45.5861
L-14.6870 45.5861
" />
<path d="M-14.6870 45.5861
L-14.8299 45.6576
" />
<path d="M-14.1870 46.5147
L-14.3299 46.5861
" />
<path d="M-14.3299 46.5861
L-14.6870 46.5861
" />
<path d="M-14.6870 46.5861
L-14.8299 46.5147
" />
<path d="M-14.8299 46.5147
L-14.9013 46.3718
" />
<path d="M-14.9013 46.3718
L-14.9013 46.2290
" />
<path d="M-14.9013 46.2290
L-14.8299 46.0861
" />
<path d="M-14.8299 46.0861
L-14.6870 46.0147
" />
<path d="M-14.6870 46.0147
L-14.3299 46.0147
" />
<path d="M-14.3299 46.0147
L-14.1870 45.9433
" />
<path d="M-12.8299 46.5861
L-12.8299 45.0861
" />
<path d="M-12.8299 46.5147
L-12.9727 46.5861
" />
<path d="M-12.9727 46.5861
L-13.2585 46.5861
" />
<path d="M-13.2585 46.5861
L-13.4013 46.5147
" />
<path d="M-13.4013 46.5147
L-13.4727 46.4433
" />
<path d="M-13.4727 46.4433
L-13.5442 46.3004
" />
<path d="M-13.5442 46.3004
L-13.5442 45.8718
" />
<path d="M-13.5442 45.8718
L-13.4727 45.7290
" />
<path d="M-13.4727 45.7290
L-13.4013 45.6576
" />
<path d="M-13.4013 45.6576
L-13.2585 45.5861
" />
<path d="M-13.2585 45.5861
L-12.9727 45.5861
" />
<path d="M-12.9727 45.5861
L-12.8299 45.6576
" />
<path d="M-10.9727 45.8004
L-10.4727 45.8004
" />
<path d="M-10.2585 46.5861
L-10.9727 46.5861
" />
<path d="M-10.9727 46.5861
L-10.9727 45.0861
" />
<path d="M-10.9727 45.0861
L-10.2585 45.0861
" />
<path d="M-9.6156 46.4433
L-9.5442 46.5147
" />
<path d="M-9.5442 46.5147
L-9.6156 46.5861
" />
<path d="M-9.6156 46.5861
L-9.6870 46.5147
" />
<path d="M-9.6870 46.5147
L-9.6156 46.4433
" />
<path d="M-9.6156 46.4433
L-9.6156 46.5861
" />
<path d="M-8.9013 46.5861
L-8.9013 45.0861
" />
<path d="M-8.9013 45.0861
L-8.5442 45.0861
" />
<path d="M-8.5442 45.0861
L-8.3299 45.1576
" />
<path d="M-8.3299 45.1576
L-8.1870 45.3004
" />
<path d="M-8.1870 45.3004
L-8.1156 45.4433
" />
<path d="M-8.1156 45.4433
L-8.0442 45.7290
" />
<path d="M-8.0442 45.7290
L-8.0442 45.9433
" />
<path d="M-8.0442 45.9433
L-8.1156 46.2290
" />
<path d="M-8.1156 46.2290
L-8.1870 46.3718
" />
<path d="M-8.1870 46.3718
L-8.3299 46.5147
" />
<path d="M-8.3299 46.5147
L-8.5442 46.5861
" />
<path d="M-8.5442 46.5861
L-8.9013 46.5861
" />
<path d="M-7.4013 46.4433
L-7.3299 46.5147
" />
<path d="M-7.3299 46.5147
L-7.4013 46.5861
" />
<path d="M-7.4013 46.5861
L-7.4727 46.5147
" />
<path d="M-7.4727 46.5147
L-7.4013 46.4433
" />
<path d="M-7.4013 46.4433
L-7.4013 46.5861
" />
<path d="M-6.7585 46.1576
L-6.0442 46.1576
" />
<path d="M-6.9013 46.5861
L-6.4013 45.0861
" />
<path d="M-6.4013 45.0861
L-5.9013 46.5861
" />
<path d="M-5.4013 46.4433
L-5.3299 46.5147
" />
<path d="M-5.3299 46.5147
L-5.4013 46.5861
" />
<path d="M-5.4013 46.5861
L-5.4727 46.5147
" />
<path d="M-5.4727 46.5147
L-5.4013 46.4433
" />
<path d="M-5.4013 46.4433
L-5.4013 46.5861
" />
<path d="M-2.7585 46.5861
L-3.6156 46.5861
" />
<path d="M-3.1870 46.5861
L-3.1870 45.0861
" />
<path d="M-3.1870 45.0861
L-3.3299 45.3004
" />
<path d="M-3.3299 45.3004
L-3.4727 45.4433
" />
<path d="M-3.4727 45.4433
L-3.6156 45.5147
" />
<path d="M-1.8299 45.0861
L-1.6870 45.0861
" />
<path d="M-1.6870 45.0861
L-1.5442 45.1576
" />
<path d="M-1.5442 45.1576
L-1.4727 45.2290
" />
<path d="M-1.4727 45.2290
L-1.4013 45.3718
" />
<path d="M-1.4013 45.3718
L-1.3299 45.6576
" />
<path d="M-1.3299 45.6576
L-1.3299 46.0147
" />
<path d="M-1.3299 46.0147
L-1.4013 46.3004
" />
<path d="M-1.4013 46.3004
L-1.4727 46.4433
" />
<path d="M-1.4727 46.4433
L-1.5442 46.5147
" />
<path d="M-1.5442 46.5147
L-1.6870 46.5861
" />
<path d="M-1.6870 46.5861
L-1.8299 46.5861
" />
<path d="M-1.8299 46.5861
L-1.9727 46.5147
" />
<path d="M-1.9727 46.5147
L-2.0442 46.4433
" />
<path d="M-2.0442 46.4433
L-2.1156 46.3004
" />
<path d="M-2.1156 46.3004
L-2.1870 46.0147
" />
<path d="M-2.1870 46.0147
L-2.1870 45.6576
" />
<path d="M-2.1870 45.6576
L-2.1156 45.3718
" />
<path d="M-2.1156 45.3718
L-2.0442 45.2290
" />
<path d="M-2.0442 45.2290
L-1.9727 45.1576
" />
<path d="M-1.9727 45.1576
L-1.8299 45.0861
" />
<path d="M-0.6870 46.4433
L-0.6156 46.5147
" />
<path d="M-0.6156 46.5147
L-0.6870 46.5861
" />
<path d="M-0.6870 46.5861
L-0.7585 46.5147
" />
<path d="M-0.7585 46.5147
L-0.6870 46.4433
" />
<path d="M-0.6870 46.4433
L-0.6870 46.5861
" />
<path d="M0.3130 45.0861
L0.4558 45.0861
" />
<path d="M0.4558 45.0861
L0.5987 45.1576
" />
<path d="M0.5987 45.1576
L0.6701 45.2290
" />
<path d="M0.6701 45.2290
L0.7415 45.3718
" />
<path d="M0.7415 45.3718
L0.8130 45.6576
" />
<path d="M0.8130 45.6576
L0.8130 46.0147
" />
<path d="M0.8130 46.0147
L0.7415 46.3004
" />
<path d="M0.7415 46.3004
L0.6701 46.4433
" />
<path d="M0.6701 46.4433
L0.5987 46.5147
" />
<path d="M0.5987 46.5147
L0.4558 46.5861
" />
<path d="M0.4558 46.5861
L0.3130 46.5861
" />
<path d="M0.3130 46.5861
L0.1701 46.5147
" />
<path d="M0.1701 46.5147
L0.0987 46.4433
" />
<path d="M0.0987 46.4433
L0.0273 46.3004
" />
<path d="M0.0273 46.3004
L-0.0442 46.0147
" />
<path d="M-0.0442 46.0147
L-0.0442 45.6576
" />
<path d="M-0.0442 45.6576
L0.0273 45.3718
" />
<path d="M0.0273 45.3718
L0.0987 45.2290
" />
<path d="M0.0987 45.2290
L0.1701 45.1576
" />
<path d="M0.1701 45.1576
L0.3130 45.0861
" />
<path d="M1.4558 46.4433
L1.5273 46.5147
" />
<path d="M1.5273 46.5147
L1.4558 46.5861
" />
<path d="M1.4558 46.5861
L1.3844 46.5147
" />
<path d="M1.3844 46.5147
L1.4558 46.4433
" />
<path d="M1.4558 46.4433
L1.4558 46.5861
" />
<path d="M2.8130 45.5861
L2.8130 46.5861
" />
<path d="M2.4558 45.0147
L2.0987 46.0861
" />
<path d="M2.0987 46.0861
L3.0273 46.0861
" />
</g><path d="M-20.0000 41.5000
L88.0000 41.5000
" />
</g>
<g style="fill:none; 
stroke:#C872AB; stroke-width:0.3000; stroke-opacity:1; 
stroke-linecap:round; stroke-linejoin:round;">
<text x="66.0000" y="43.8500"
textLength="6.3857" font-size="2.0000" lengthAdjust="spacingAndGlyphs"
text-anchor="start" opacity="0" stroke-opacity="0">Rev: </text>
<g class="stroked-text"><desc>Rev: </desc>
<path d="M67.4117 43.7783
L66.9117 43.0640
" />
<path d="M66.5545 43.7783
L66.5545 42.2783
" />
<path d="M66.5545 42.2783
L67.1259 42.2783
" />
<path d="M67.1259 42.2783
L67.2688 42.3498
" />
<path d="M67.2688 42.3498
L67.3402 42.4212
" />
<path d="M67.3402 42.4212
L67.4117 42.5640
" />
<path d="M67.4117 42.5640
L67.4117 42.7783
" />
<path d="M67.4117 42.7783
L67.3402 42.9212
" />
<path d="M67.3402 42.9212
L67.2688 42.9926
" />
<path d="M67.2688 42.9926
L67.1259 43.0640
" />
<path d="M67.1259 43.0640
L66.5545 43.0640
" />
<path d="M68.6259 43.7069
L68.4831 43.7783
" />
<path d="M68.4831 43.7783
L68.1974 43.7783
" />
<path d="M68.1974 43.7783
L68.0545 43.7069
" />
<path d="M68.0545 43.7069
L67.9831 43.5640
" />
<path d="M67.9831 43.5640
L67.9831 42.9926
" />
<path d="M67.9831 42.9926
L68.0545 42.8498
" />
<path d="M68.0545 42.8498
L68.1974 42.7783
" />
<path d="M68.1974 42.7783
L68.4831 42.7783
" />
<path d="M68.4831 42.7783
L68.6259 42.8498
" />
<path d="M68.6259 42.8498
L68.6974 42.9926
" />
<path d="M68.6974 42.9926
L68.6974 43.1355
" />
<path d="M68.6974 43.1355
L67.9831 43.2783
" />
<path d="M69.1974 42.7783
L69.5545 43.7783
" />
<path d="M69.5545 43.7783
L69.9117 42.7783
" />
<path d="M70.4831 43.6355
L70.5545 43.7069
" />
<path d="M70.5545 43.7069
L70.4831 43.7783
" />
<path d="M70.4831 43.7783
L70.4117 43.7069
" />
<path d="M70.4117 43.7069
L70.4831 43.6355
" />
<path d="M70.4831 43.6355
L70.4831 43.7783
" />
<path d="M70.4831 42.8498
L70.5545 42.9212
" />
<path d="M70.5545 42.9212
L70.4831 42.9926
" />
<path d="M70.4831 42.9926
L70.4117 42.9212
" />
<path d="M70.4117 42.9212
L70.4831 42.8498
" />
<path d="M70.4831 42.8498
L70.4831 42.9926
" />
</g></g>
<g style="fill:none; 
stroke:#C872AB; stroke-width:0.1500; stroke-opacity:1; 
stroke-linecap:round; stroke-linejoin:round;">
<text x="-19.0000" y="43.8500"
textLength="11.6500" font-size="2.0000" lengthAdjust="spacingAndGlyphs"
text-anchor="start" opacity="0" stroke-opacity="0">Size: User</text>
<g class="stroked-text"><desc>Size: User</desc>
<path d="M-18.6156 43.7147
L-18.4013 43.7861
" />
<path d="M-18.4013 43.7861
L-18.0442 43.7861
" />
<path d="M-18.0442 43.7861
L-17.9013 43.7147
" />
<path d="M-17.9013 43.7147
L-17.8299 43.6433
" />
<path d="M-17.8299 43.6433
L-17.7585 43.5004
" />
<path d="M-17.7585 43.5004
L-17.7585 43.3576
" />
<path d="M-17.7585 43.3576
L-17.8299 43.2147
" />
<path d="M-17.8299 43.2147
L-17.9013 43.1433
" />
<path d="M-17.9013 43.1433
L-18.0442 43.0718
" />
<path d="M-18.0442 43.0718
L-18.3299 43.0004
" />
<path d="M-18.3299 43.0004
L-18.4727 42.9290
" />
<path d="M-18.4727 42.9290
L-18.5442 42.8576
" />
<path d="M-18.5442 42.8576
L-18.6156 42.7147
" />
<path d="M-18.6156 42.7147
L-18.6156 42.5718
" />
<path d="M-18.6156 42.5718
L-18.5442 42.4290
" />
<path d="M-18.5442 42.4290
L-18.4727 42.3576
" />
<path d="M-18.4727 42.3576
L-18.3299 42.2861
" />
<path d="M-18.3299 42.2861
L-17.9727 42.2861
" />
<path d="M-17.9727 42.2861
L-17.7585 42.3576
" />
<path d="M-17.1156 43.7861
L-17.1156 42.7861
" />
<path d="M-17.1156 42.2861
L-17.1870 42.3576
" />
<path d="M-17.1870 42.3576
L-17.1156 42.4290
" />
<path d="M-17.1156 42.4290
L-17.0442 42.3576
" />
<path d="M-17.0442 42.3576
L-17.1156 42.2861
" />
<path d="M-17.1156 42.2861
L-17.1156 42.4290
" />
<path d="M-16.5442 42.7861
L-15.7585 42.7861
" />
<path d="M-15.7585 42.7861
L-16.5442 43.7861
" />
<path d="M-16.5442 43.7861
L-15.7585 43.7861
" />
<path d="M-14.6156 43.7147
L-14.7585 43.7861
" />
<path d="M-14.7585 43.7861
L-15.0442 43.7861
" />
<path d="M-15.0442 43.7861
L-15.1870 43.7147
" />
<path d="M-15.1870 43.7147
L-15.2585 43.5718
" />
<path d="M-15.2585 43.5718
L-15.2585 43.0004
" />
<path d="M-15.2585 43.0004
L-15.1870 42.8576
" />
<path d="M-15.1870 42.8576
L-15.0442 42.7861
" />
<path d="M-15.0442 42.7861
L-14.7585 42.7861
" />
<path d="M-14.7585 42.7861
L-14.6156 42.8576
" />
<path d="M-14.6156 42.8576
L-14.5442 43.0004
" />
<path d="M-14.5442 43.0004
L-14.5442 43.1433
" />
<path d="M-14.5442 43.1433
L-15.2585 43.2861
" />
<path d="M-13.9013 43.6433
L-13.8299 43.7147
" />
<path d="M-13.8299 43.7147
L-13.9013 43.7861
" />
<path d="M-13.9013 43.7861
L-13.9727 43.7147
" />
<path d="M-13.9727 43.7147
L-13.9013 43.6433
" />
<path d="M-13.9013 43.6433
L-13.9013 43.7861
" />
<path d="M-13.9013 42.8576
L-13.8299 42.9290
" />
<path d="M-13.8299 42.9290
L-13.9013 43.0004
" />
<path d="M-13.9013 43.0004
L-13.9727 42.9290
" />
<path d="M-13.9727 42.9290
L-13.9013 42.8576
" />
<path d="M-13.9013 42.8576
L-13.9013 43.0004
" />
<path d="M-12.0442 42.2861
L-12.0442 43.5004
" />
<path d="M-12.0442 43.5004
L-11.9727 43.6433
" />
<path d="M-11.9727 43.6433
L-11.9013 43.7147
" />
<path d="M-11.9013 43.7147
L-11.7585 43.7861
" />
<path d="M-11.7585 43.7861
L-11.4727 43.7861
" />
<path d="M-11.4727 43.7861
L-11.3299 43.7147
" />
<path d="M-11.3299 43.7147
L-11.2585 43.6433
" />
<path d="M-11.2585 43.6433
L-11.1870 43.5004
" />
<path d="M-11.1870 43.5004
L-11.1870 42.2861
" />
<path d="M-10.5442 43.7147
L-10.4013 43.7861
" />
<path d="M-10.4013 43.7861
L-10.1156 43.7861
" />
<path d="M-10.1156 43.7861
L-9.9727 43.7147
" />
<path d="M-9.9727 43.7147
L-9.9013 43.5718
" />
<path d="M-9.9013 43.5718
L-9.9013 43.5004
" />
<path d="M-9.9013 43.5004
L-9.9727 43.3576
" />
<path d="M-9.9727 43.3576
L-10.1156 43.2861
" />
<path d="M-10.1156 43.2861
L-10.3299 43.2861
" />
<path d="M-10.3299 43.2861
L-10.4727 43.2147
" />
<path d="M-10.4727 43.2147
L-10.5442 43.0718
" />
<path d="M-10.5442 43.0718
L-10.5442 43.0004
" />
<path d="M-10.5442 43.0004
L-10.4727 42.8576
" />
<path d="M-10.4727 42.8576
L-10.3299 42.7861
" />
<path d="M-10.3299 42.7861
L-10.1156 42.7861
" />
<path d="M-10.1156 42.7861
L-9.9727 42.8576
" />
<path d="M-8.6870 43.7147
L-8.8299 43.7861
" />
<path d="M-8.8299 43.7861
L-9.1156 43.7861
" />
<path d="M-9.1156 43.7861
L-9.2585 43.7147
" />
<path d="M-9.2585 43.7147
L-9.3299 43.5718
" />
<path d="M-9.3299 43.5718
L-9.3299 43.0004
" />
<path d="M-9.3299 43.0004
L-9.2585 42.8576
" />
<path d="M-9.2585 42.8576
L-9.1156 42.7861
" />
<path d="M-9.1156 42.7861
L-8.8299 42.7861
" />
<path d="M-8.8299 42.7861
L-8.6870 42.8576
" />
<path d="M-8.6870 42.8576
L-8.6156 43.0004
" />
<path d="M-8.6156 43.0004
L-8.6156 43.1433
" />
<path d="M-8.6156 43.1433
L-9.3299 43.2861
" />
<path d="M-7.9727 43.7861
L-7.9727 42.7861
" />
<path d="M-7.9727 43.0718
L-7.9013 42.9290
" />
<path d="M-7.9013 42.9290
L-7.8299 42.8576
" />
<path d="M-7.8299 42.8576
L-7.6870 42.7861
" />
<path d="M-7.6870 42.7861
L-7.5442 42.7861
" />
</g><text x="66.0000" y="46.6500"
textLength="8.5071" font-size="2.0000" lengthAdjust="spacingAndGlyphs"
text-anchor="start" opacity="0" stroke-opacity="0">Id: 1/1</text>
<g class="stroked-text"><desc>Id: 1/1</desc>
<path d="M66.4558 46.5861
L66.4558 45.0861
" />
<path d="M67.8130 46.5861
L67.8130 45.0861
" />
<path d="M67.8130 46.5147
L67.6701 46.5861
" />
<path d="M67.6701 46.5861
L67.3844 46.5861
" />
<path d="M67.3844 46.5861
L67.2415 46.5147
" />
<path d="M67.2415 46.5147
L67.1701 46.4433
" />
<path d="M67.1701 46.4433
L67.0987 46.3004
" />
<path d="M67.0987 46.3004
L67.0987 45.8718
" />
<path d="M67.0987 45.8718
L67.1701 45.7290
" />
<path d="M67.1701 45.7290
L67.2415 45.6576
" />
<path d="M67.2415 45.6576
L67.3844 45.5861
" />
<path d="M67.3844 45.5861
L67.6701 45.5861
" />
<path d="M67.6701 45.5861
L67.8130 45.6576
" />
<path d="M68.5273 46.4433
L68.5987 46.5147
" />
<path d="M68.5987 46.5147
L68.5273 46.5861
" />
<path d="M68.5273 46.5861
L68.4558 46.5147
" />
<path d="M68.4558 46.5147
L68.5273 46.4433
" />
<path d="M68.5273 46.4433
L68.5273 46.5861
" />
<path d="M68.5273 45.6576
L68.5987 45.7290
" />
<path d="M68.5987 45.7290
L68.5273 45.8004
" />
<path d="M68.5273 45.8004
L68.4558 45.7290
" />
<path d="M68.4558 45.7290
L68.5273 45.6576
" />
<path d="M68.5273 45.6576
L68.5273 45.8004
" />
<path d="M71.1701 46.5861
L70.3130 46.5861
" />
<path d="M70.7415 46.5861
L70.7415 45.0861
" />
<path d="M70.7415 45.0861
L70.5987 45.3004
" />
<path d="M70.5987 45.3004
L70.4558 45.4433
" />
<path d="M70.4558 45.4433
L70.3130 45.5147
" />
<path d="M72.8844 45.0147
L71.5987 46.9433
" />
<path d="M74.1701 46.5861
L73.3130 46.5861
" />
<path d="M73.7415 46.5861
L73.7415 45.0861
" />
<path d="M73.7415 45.0861
L73.5987 45.3004
" />
<path d="M73.5987 45.3004
L73.4558 45.4433
" />
<path d="M73.4558 45.4433
L73.3130 45.5147
" />
</g><path d="M-20.0000 37.5000
L88.0000 37.5000
" />
</g>
<g style="fill:none; 
stroke:#C872AB; stroke-width:0.4000; stroke-opacity:1; 
stroke-linecap:round; stroke-linejoin:round;">
<text x="-19.0000" y="40.3000"
textLength="9.6571" font-size="2.6667" lengthAdjust="spacingAndGlyphs"
text-anchor="start" opacity="0" stroke-opacity="0">Title: </text>
<g class="stroked-text"><desc>Title: </desc>
<path d="M-18.3083 38.2044
L-17.1654 38.2044
" />
<path d="M-17.9868 40.2044
L-17.7368 38.2044
" />
<path d="M-16.7487 40.2044
L-16.5821 38.8711
" />
<path d="M-16.4987 38.2044
L-16.6059 38.2997
" />
<path d="M-16.6059 38.2997
L-16.5226 38.3949
" />
<path d="M-16.5226 38.3949
L-16.4154 38.2997
" />
<path d="M-16.4154 38.2997
L-16.4987 38.2044
" />
<path d="M-16.4987 38.2044
L-16.5226 38.3949
" />
<path d="M-15.9154 38.8711
L-15.1535 38.8711
" />
<path d="M-15.5464 38.2044
L-15.7607 39.9187
" />
<path d="M-15.7607 39.9187
L-15.6892 40.1092
" />
<path d="M-15.6892 40.1092
L-15.5107 40.2044
" />
<path d="M-15.5107 40.2044
L-15.3202 40.2044
" />
<path d="M-14.3678 40.2044
L-14.5464 40.1092
" />
<path d="M-14.5464 40.1092
L-14.6178 39.9187
" />
<path d="M-14.6178 39.9187
L-14.4035 38.2044
" />
<path d="M-12.8321 40.1092
L-13.0345 40.2044
" />
<path d="M-13.0345 40.2044
L-13.4154 40.2044
" />
<path d="M-13.4154 40.2044
L-13.5940 40.1092
" />
<path d="M-13.5940 40.1092
L-13.6654 39.9187
" />
<path d="M-13.6654 39.9187
L-13.5702 39.1568
" />
<path d="M-13.5702 39.1568
L-13.4511 38.9663
" />
<path d="M-13.4511 38.9663
L-13.2487 38.8711
" />
<path d="M-13.2487 38.8711
L-12.8678 38.8711
" />
<path d="M-12.8678 38.8711
L-12.6892 38.9663
" />
<path d="M-12.6892 38.9663
L-12.6178 39.1568
" />
<path d="M-12.6178 39.1568
L-12.6416 39.3473
" />
<path d="M-12.6416 39.3473
L-13.6178 39.5378
" />
<path d="M-11.8678 40.0140
L-11.7845 40.1092
" />
<path d="M-11.7845 40.1092
L-11.8916 40.2044
" />
<path d="M-11.8916 40.2044
L-11.9749 40.1092
" />
<path d="M-11.9749 40.1092
L-11.8678 40.0140
" />
<path d="M-11.8678 40.0140
L-11.8916 40.2044
" />
<path d="M-11.7368 38.9663
L-11.6535 39.0616
" />
<path d="M-11.6535 39.0616
L-11.7607 39.1568
" />
<path d="M-11.7607 39.1568
L-11.8440 39.0616
" />
<path d="M-11.8440 39.0616
L-11.7368 38.9663
" />
<path d="M-11.7368 38.9663
L-11.7607 39.1568
" />
</g></g>
<g style="fill:none; 
stroke:#C872AB; stroke-width:0.1500; stroke-opacity:1; 
stroke-linecap:round; stroke-linejoin:round;">
<text x="-19.0000" y="36.4500"
textLength="23.1500" font-size="2.0000" lengthAdjust="spacingAndGlyphs"
text-anchor="start" opacity="0" stroke-opacity="0">File: mem.kicad_pcb</text>
<g class="stroked-text"><desc>File: mem.kicad_pcb</desc>
<path d="M-18.0442 35.6004
L-18.5442 35.6004
" />
<path d="M-18.5442 36.3861
L-18.5442 34.8861
" />
<path d="M-18.5442 34.8861
L-17.8299 34.8861
" />
<path d="M-17.2585 36.3861
L-17.2585 35.3861
" />
<path d="M-17.2585 34.8861
L-17.3299 34.9576
" />
<path d="M-17.3299 34.9576
L-17.2585 35.0290
" />
<path d="M-17.2585 35.0290
L-17.1870 34.9576
" />
<path d="M-17.1870 34.9576
L-17.2585 34.8861
" />
<path d="M-17.2585 34.8861
L-17.2585 35.0290
" />
<path d="M-16.3299 36.3861
L-16.4727 36.3147
" />
<path d="M-16.4727 36.3147
L-16.5442 36.1718
" />
<path d="M-16.5442 36.1718
L-16.5442 34.8861
" />
<path d="M-15.1870 36.3147
L-15.3299 36.3861
" />
<path d="M-15.3299 36.3861
L-15.6156 36.3861
" />
<path d="M-15.6156 36.3861
L-15.7585 36.3147
" />
<path d="M-15.7585 36.3147
L-15.8299 36.1718
" />
<path d="M-15.8299 36.1718
L-15.8299 35.6004
" />
<path d="M-15.8299 35.6004
L-15.7585 35.4576
" />
<path d="M-15.7585 35.4576
L-15.6156 35.3861
" />
<path d="M-15.6156 35.3861
L-15.3299 35.3861
" />
<path d="M-15.3299 35.3861
L-15.1870 35.4576
" />
<path d="M-15.1870 35.4576
L-15.1156 35.6004
" />
<path d="M-15.1156 35.6004
L-15.1156 35.7433
" />
<path d="M-15.1156 35.7433
L-15.8299 35.8861
" />
<path d="M-14.4727 36.2433
L-14.4013 36.3147
" />
<path d="M-14.4013 36.3147
L-14.4727 36.3861
" />
<path d="M-14.4727 36.3861
L-14.5442 36.3147
" />
<path d="M-14.5442 36.3147
L-14.4727 36.2433
" />
<path d="M-14.4727 36.2433
L-14.4727 36.3861
" />
<path d="M-14.4727 35.4576
L-14.4013 35.5290
" />
<path d="M-14.4013 35.5290
L-14.4727 35.6004
" />
<path d="M-14.4727 35.6004
L-14.5442 35.5290
" />
<path d="M-14.5442 35.5290
L-14.4727 35.4576
" />
<path d="M-14.4727 35.4576
L-14.4727 35.6004
" />
<path d="M-12.6156 36.3861
L-12.6156 35.3861
" />
<path d="M-12.6156 35.5290
L-12.5442 35.4576
" />
<path d="M-12.5442 35.4576
L-12.4013 35.3861
" />
<path d="M-12.4013 35.3861
L-12.1870 35.3861
" />
<path d="M-12.1870 35.3861
L-12.0442 35.4576
" />
<path d="M-12.0442 35.4576
L-11.9727 35.6004
" />
<path d="M-11.9727 35.6004
L-11.9727 36.3861
" />
<path d="M-11.9727 35.6004
L-11.9013 35.4576
" />
<path d="M-11.9013 35.4576
L-11.7585 35.3861
" />
<path d="M-11.7585 35.3861
L-11.5442 35.3861
" />
<path d="M-11.5442 35.3861
L-11.4013 35.4576
" />
<path d="M-11.4013 35.4576
L-11.3299 35.6004
" />
<path d="M-11.3299 35.6004
L-11.3299 36.3861
" />
<path d="M-10.0442 36.3147
L-10.1870 36.3861
" />
<path d="M-10.1870 36.3861
L-10.4727 36.3861
" />
<path d="M-10.4727 36.3861
L-10.6156 36.3147
" />
<path d="M-10.6156 36.3147
L-10.6870 36.1718
" />
<path d="M-10.6870 36.1718
L-10.6870 35.6004
" />
<path d="M-10.6870 35.6004
L-10.6156 35.4576
" />
<path d="M-10.6156 35.4576
L-10.4727 35.3861
" />
<path d="M-10.4727 35.3861
L-10.1870 35.3861
" />
<path d="M-10.1870 35.3861
L-10.0442 35.4576
" />
<path d="M-10.0442 35.4576
L-9.9727 35.6004
" />
<path d="M-9.9727 35.6004
L-9.9727 35.7433
" />
<path d="M-9.9727 35.7433
L-10.6870 35.8861
" />
<path d="M-9.3299 36.3861
L-9.3299 35.3861
" />
<path d="M-9.3299 35.5290
L-9.2585 35.4576
" />
<path d="M-9.2585 35.4576
L-9.1156 35.3861
" />
<path d="M-9.1156 35.3861
L-8.9013 35.3861
" />
<path d="M-8.9013 35.3861
L-8.7585 35.4576
" />
<path d="M-8.7585 35.4576
L-8.6870 35.6004
" />
<path d="M-8.6870 35.6004
L-8.6870 36.3861
" />
<path d="M-8.6870 35.6004
L-8.6156 35.4576
" />
<path d="M-8.6156 35.4576
L-8.4727 35.3861
" />
<path d="M-8.4727 35.3861
L-8.2585 35.3861
" />
<path d="M-8.2585 35.3861
L-8.1156 35.4576
" />
<path d="M-8.1156 35.4576
L-8.0442 35.6004
" />
<path d="M-8.0442 35.6004
L-8.0442 36.3861
" />
<path d="M-7.3299 36.2433
L-7.2585 36.3147
" />
<path d="M-7.2585 36.3147
L-7.3299 36.3861
" />
<path d="M-7.3299 36.3861
L-7.4013 36.3147
" />
<path d="M-7.4013 36.3147
L-7.3299 36.2433
" />
<path d="M-7.3299 36.2433
L-7.3299 36.3861
" />
<path d="M-6.6156 36.3861
L-6.6156 34.8861
" />
<path d="M-6.4727 35.8147
L-6.0442 36.3861
" />
<path d="M-6.0442 35.3861
L-6.6156 35.9576
" />
<path d="M-5.4013 36.3861
L-5.4013 35.3861
" />
<path d="M-5.4013 34.8861
L-5.4727 34.9576
" />
<path d="M-5.4727 34.9576
L-5.4013 35.0290
" />
<path d="M-5.4013 35.0290
L-5.3299 34.9576
" />
<path d="M-5.3299 34.9576
L-5.4013 34.8861
" />
<path d="M-5.4013 34.8861
L-5.4013 35.0290
" />
<path d="M-4.0442 36.3147
L-4.1870 36.3861
" />
<path d="M-4.1870 36.3861
L-4.4727 36.3861
" />
<path d="M-4.4727 36.3861
L-4.6156 36.3147
" />
<path d="M-4.6156 36.3147
L-4.6870 36.2433
" />
<path d="M-4.6870 36.2433
L-4.7585 36.1004
" />
<path d="M-4.7585 36.1004
L-4.7585 35.6718
" />
<path d="M-4.7585 35.6718
L-4.6870 35.5290
" />
<path d="M-4.6870 35.5290
L-4.6156 35.4576
" />
<path d="M-4.6156 35.4576
L-4.4727 35.3861
" />
<path d="M-4.4727 35.3861
L-4.1870 35.3861
" />
<path d="M-4.1870 35.3861
L-4.0442 35.4576
" />
<path d="M-2.7585 36.3861
L-2.7585 35.6004
" />
<path d="M-2.7585 35.6004
L-2.8299 35.4576
" />
<path d="M-2.8299 35.4576
L-2.9727 35.3861
" />
<path d="M-2.9727 35.3861
L-3.2585 35.3861
" />
<path d="M-3.2585 35.3861
L-3.4013 35.4576
" />
<path d="M-2.7585 36.3147
L-2.9013 36.3861
" />
<path d="M-2.9013 36.3861
L-3.2585 36.3861
" />
<path d="M-3.2585 36.3861
L-3.4013 36.3147
" />
<path d="M-3.4013 36.3147
L-3.4727 36.1718
" />
<path d="M-3.4727 36.1718
L-3.4727 36.0290
" />
<path d="M-3.4727 36.0290
L-3.4013 35.8861
" />
<path d="M-3.4013 35.8861
L-3.2585 35.8147
" />
<path d="M-3.2585 35.8147
L-2.9013 35.8147
" />
<path d="M-2.9013 35.8147
L-2.7585 35.7433
" />
<path d="M-1.4013 36.3861
L-1.4013 34.8861
" />
<path d="M-1.4013 36.3147
L-1.5442 36.3861
" />
<path d="M-1.5442 36.3861
L-1.8299 36.3861
" />
<path d="M-1.8299 36.3861
L-1.9727 36.3147
" />
<path d="M-1.9727 36.3147
L-2.0442 36.2433
" />
<path d="M-2.0442 36.2433
L-2.1156 36.1004
" />
<path d="M-2.1156 36.1004
L-2.1156 35.6718
" />
<path d="M-2.1156 35.6718
L-2.0442 35.5290
" />
<path d="M-2.0442 35.5290
L-1.9727 35.4576
" />
<path d="M-1.9727 35.4576
L-1.8299 35.3861
" />
<path d="M-1.8299 35.3861
L-1.5442 35.3861
" />
<path d="M-1.5442 35.3861
L-1.4013 35.4576
" />
<path d="M-1.0442 36.5290
L0.0987 36.5290
" />
<path d="M0.4558 35.3861
L0.4558 36.8861
" />
<path d="M0.4558 35.4576
L0.5987 35.3861
" />
<path d="M0.5987 35.3861
L0.8844 35.3861
" />
<path d="M0.8844 35.3861
L1.0273 35.4576
" />
<path d="M1.0273 35.4576
L1.0987 35.5290
" />
<path d="M1.0987 35.5290
L1.1701 35.6718
" />
<path d="M1.1701 35.6718
L1.1701 36.1004
" />
<path d="M1.1701 36.1004
L1.0987 36.2433
" />
<path d="M1.0987 36.2433
L1.0273 36.3147
" />
<path d="M1.0273 36.3147
L0.8844 36.3861
" />
<path d="M0.8844 36.3861
L0.5987 36.3861
" />
<path d="M0.5987 36.3861
L0.4558 36.3147
" />
<path d="M2.4558 36.3147
L2.3130 36.3861
" />
<path d="M2.3130 36.3861
L2.0273 36.3861
" />
<path d="M2.0273 36.3861
L1.8844 36.3147
" />
<path d="M1.8844 36.3147
L1.8130 36.2433
" />
<path d="M1.8130 36.2433
L1.7415 36.1004
" />
<path d="M1.7415 36.1004
L1.7415 35.6718
" />
<path d="M1.7415 35.6718
L1.8130 35.5290
" />
<path d="M1.8130 35.5290
L1.8844 35.4576
" />
<path d="M1.8844 35.4576
L2.0273 35.3861
" />
<path d="M2.0273 35.3861
L2.3130 35.3861
" />
<path d="M2.3130 35.3861
L2.4558 35.4576
" />
<path d="M3.0987 36.3861
L3.0987 34.8861
" />
<path d="M3.0987 35.4576
L3.2415 35.3861
" />
<path d="M3.2415 35.3861
L3.5273 35.3861
" />
<path d="M3.5273 35.3861
L3.6701 35.4576
" />
<path d="M3.6701 35.4576
L3.7415 35.5290
" />
<path d="M3.7415 35.5290
L3.8130 35.6718
" />
<path d="M3.8130 35.6718
L3.8130 36.1004
" />
<path d="M3.8130 36.1004
L3.7415 36.2433
" />
<path d="M3.7415 36.2433
L3.6701 36.3147
" />
<path d="M3.6701 36.3147
L3.5273 36.3861
" />
<path d="M3.5273 36.3861
L3.2415 36.3861
" />
<path d="M3.2415 36.3861
L3.0987 36.3147
" />
</g><path d="M-20.0000 31.5000
L88.0000 31.5000
" />
<text x="-19.0000" y="33.7500"
textLength="8.2214" font-size="2.0000" lengthAdjust="spacingAndGlyphs"
text-anchor="start" opacity="0" stroke-opacity="0">Sheet: </text>
<g class="stroked-text"><desc>Sheet: </desc>
<path d="M-18.6156 33.6147
L-18.4013 33.6861
" />
<path d="M-18.4013 33.6861
L-18.0442 33.6861
" />
<path d="M-18.0442 33.6861
L-17.9013 33.6147
" />
<path d="M-17.9013 33.6147
L-17.8299 33.5433
" />
<path d="M-17.8299 33.5433
L-17.7585 33.4004
" />
<path d="M-17.7585 33.4004
L-17.7585 33.2576
" />
<path d="M-17.7585 33.2576
L-17.8299 33.1147
" />
<path d="M-17.8299 33.1147
L-17.9013 33.0433
" />
<path d="M-17.9013 33.0433
L-18.0442 32.9718
" />
<path d="M-18.0442 32.9718
L-18.3299 32.9004
" />
<path d="M-18.3299 32.9004
L-18.4727 32.8290
" />
<path d="M-18.4727 32.8290
L-18.5442 32.7576
" />
<path d="M-18.5442 32.7576
L-18.6156 32.6147
" />
<path d="M-18.6156 32.6147
L-18.6156 32.4718
" />
<path d="M-18.6156 32.4718
L-18.5442 32.3290
" />
<path d="M-18.5442 32.3290
L-18.4727 32.2576
" />
<path d="M-18.4727 32.2576
L-18.3299 32.1861
" />
<path d="M-18.3299 32.1861
L-17.9727 32.1861
" />
<path d="M-17.9727 32.1861
L-17.7585 32.2576
" />
<path d="M-17.1156 33.6861
L-17.1156 32.1861
" />
<path d="M-16.4727 33.6861
L-16.4727 32.9004
" />
<path d="M-16.4727 32.9004
L-16.5442 32.7576
" />
<path d="M-16.5442 32.7576
L-16.6870 32.6861
" />
<path d="M-16.6870 32.6861
L-16.9013 32.6861
" />
<path d="M-16.9013 32.6861
L-17.0442 32.7576
" />
<path d="M-17.0442 32.7576
L-17.1156 32.8290
" />
<path d="M-15.1870 33.6147
L-15.3299 33.6861
" />
<path d="M-15.3299 33.6861
L-15.6156 33.6861
" />
<path d="M-15.6156 33.6861
L-15.7585 33.6147
" />
<path d="M-15.7585 33.6147
L-15.8299 33.4718
" />
<path d="M-15.8299 33.4718
L-15.8299 32.9004
" />
<path d="M-15.8299 32.9004
L-15.7585 32.7576
" />
<path d="M-15.7585 32.7576
L-15.6156 32.6861
" />
<path d="M-15.6156 32.6861
L-15.3299 32.6861
" />
<path d="M-15.3299 32.6861
L-15.1870 32.7576
" />
<path d="M-15.1870 32.7576
L-15.1156 32.9004
" />
<path d="M-15.1156 32.9004
L-15.1156 33.0433
" />
<path d="M-15.1156 33.0433
L-15.8299 33.1861
" />
<path d="M-13.9013 33.6147
L-14.0442 33.6861
" />
<path d="M-14.0442 33.6861
L-14.3299 33.6861
" />
<path d="M-14.3299 33.6861
L-14.4727 33.6147
" />
<path d="M-14.4727 33.6147
L-14.5442 33.4718
" />
<path d="M-14.5442 33.4718
L-14.5442 32.9004
" />
<path d="M-14.5442 32.9004
L-14.4727 32.7576
" />
<path d="M-14.4727 32.7576
L-14.3299 32.6861
" />
<path d="M-14.3299 32.6861
L-14.0442 32.6861
" />
<path d="M-14.0442 32.6861
L-13.9013 32.7576
" />
<path d="M-13.9013 32.7576
L-13.8299 32.9004
" />
<path d="M-13.8299 32.9004
L-13.8299 33.0433
" />
<path d="M-13.8299 33.0433
L-14.5442 33.1861
" />
<path d="M-13.4013 32.6861
L-12.8299 32.6861
" />
<path d="M-13.1870 32.1861
L-13.1870 33.4718
" />
<path d="M-13.1870 33.4718
L-13.1156 33.6147
" />
<path d="M-13.1156 33.6147
L-12.9727 33.6861
" />
<path d="M-12.9727 33.6861
L-12.8299 33.6861
" />
<path d="M-12.3299 33.5433
L-12.2585 33.6147
" />
<path d="M-12.2585 33.6147
L-12.3299 33.6861
" />
<path d="M-12.3299 33.6861
L-12.4013 33.6147
" />
<path d="M-12.4013 33.6147
L-12.3299 33.5433
" />
<path d="M-12.3299 33.5433
L-12.3299 33.6861
" />
<path d="M-12.3299 32.7576
L-12.2585 32.8290
" />
<path d="M-12.2585 32.8290
L-12.3299 32.9004
" />
<path d="M-12.3299 32.9004
L-12.4013 32.8290
" />
<path d="M-12.4013 32.8290
L-12.3299 32.7576
" />
<path d="M-12.3299 32.7576
L-12.3299 32.9004
" />
</g></g>
<g style="fill:none; 
stroke:#C872AB; stroke-width:0.3000; stroke-opacity:1; 
stroke-linecap:round; stroke-linejoin:round;">
<text x="-19.0000" y="30.7500"
textLength="0.9000" font-size="2.0000" lengthAdjust="spacingAndGlyphs"
text-anchor="start" opacity="0" stroke-opacity="0"></text>
<g class="stroked-text"><desc></desc>
</g></g>
<g style="fill:none; 
stroke:#C872AB; stroke-width:0.1500; stroke-opacity:1; 
stroke-linecap:round; stroke-linejoin:round;">
<text x="-19.0000" y="27.7500"
textLength="0.4500" font-size="2.0000" lengthAdjust="spacingAndGlyphs"
text-anchor="start" opacity="0" stroke-opacity="0"></text>
<g class="stroked-text"><desc></desc>
</g><text x="-19.0000" y="24.7500"
textLength="0.4500" font-size="2.0000" lengthAdjust="spacingAndGlyphs"
text-anchor="start" opacity="0" stroke-opacity="0"></text>
<g class="stroked-text"><desc></desc>
</g><text x="-19.0000" y="21.7500"
textLength="0.4500" font-size="2.0000" lengthAdjust="spacingAndGlyphs"
text-anchor="start" opacity="0" stroke-opacity="0"></text>
<g class="stroked-text"><desc></desc>
</g><text x="-19.0000" y="18.7500"
textLength="0.4500" font-size="2.0000" lengthAdjust="spacingAndGlyphs"
text-anchor="start" opacity="0" stroke-opacity="0"></text>
<g class="stroked-text"><desc></desc>
</g><path d="M0.0000 41.5000
L0.0000 44.5000
" />
<path d="M64.0000 41.5000
L64.0000 48.0000
" />
<path style="fill:#C83434; fill-opacity:1.0000; stroke:none;fill-rule:evenodd;"
d="M 30.6900,47.8500
28.9900,47.8500
28.9900,46.1500
30.6900,46.1500
Z" /> 
</g>
<g style="fill:#C83434; fill-opacity:1.0000; stroke:none;">
<circle cx="32.3800" cy="47.0000" r="0.8500" /> 
<circle cx="34.9200" cy="47.0000" r="0.8500" /> 
<circle cx="37.4600" cy="47.0000" r="0.8500" /> 
<circle cx="40.0000" cy="47.0000" r="0.8500" /> 
<circle cx="42.5400" cy="47.0000" r="0.8500" /> 
<circle cx="45.0800" cy="47.0000" r="0.8500" /> 
<circle cx="47.6200" cy="47.0000" r="0.8500" /> 
<circle cx="50.1600" cy="47.0000" r="0.8500" /> 
<circle cx="61.5000" cy="10.0000" r="0.8000" /> 
<circle cx="66.5000" cy="10.0000" r="0.8000" /> 
<path style="fill:#C83434; fill-opacity:1.0000; stroke:none;fill-rule:evenodd;"
d="M 3.4200,50.8500
1.7200,50.8500
1.7200,49.1500
3.4200,49.1500
Z" /> 
<circle cx="5.1100" cy="50.0000" r="0.8500" /> 
<circle cx="7.6500" cy="50.0000" r="0.8500" /> 
<circle cx="10.1900" cy="50.0000" r="0.8500" /> 
<circle cx="12.7300" cy="50.0000" r="0.8500" /> 
<circle cx="15.2700" cy="50.0000" r="0.8500" /> 
<circle cx="17.8100" cy="50.0000" r="0.8500" /> 
<circle cx="20.3500" cy="50.0000" r="0.8500" /> 
<circle cx="22.8900" cy="50.0000" r="0.8500" /> 
<circle cx="25.4300" cy="50.0000" r="0.8500" /> 
<path style="fill:#C83434; fill-opacity:1.0000; stroke:none;fill-rule:evenodd;"
d="M 77.3950,9.4800
77.4140,9.3843
77.4682,9.3032
77.5493,9.2490
77.6450,9.2300
78.7450,9.2300
78.8407,9.2490
78.9218,9.3032
78.9760,9.3843
78.9950,9.4800
78.9950,10.5800
78.9760,10.6757
78.9218,10.7568
78.8407,10.8110
78.7450,10.8300
77.6450,10.8300
77.5493,10.8110
77.4682,10.7568
77.4140,10.6757
77.3950,10.5800
Z" /> 
<circle cx="78.1950" cy="12.5700" r="0.8000" /> 
<circle cx="78.1950" cy="15.1100" r="0.8000" /> 
<circle cx="78.1950" cy="17.6500" r="0.8000" /> 
<circle cx="78.1950" cy="20.1900" r="0.8000" /> 
<circle cx="78.1950" cy="22.7300" r="0.8000" /> 
<circle cx="78.1950" cy="25.2700" r="0.8000" /> 
<circle cx="78.1950" cy="27.8100" r="0.8000" /> 
<circle cx="78.1950" cy="30.3500" r="0.8000" /> 
<circle cx="78.1950" cy="32.8900" r="0.8000" /> 
<circle cx="78.1950" cy="35.4300" r="0.8000" /> 
<circle cx="78.1950" cy="37.9700" r="0.8000" /> 
<circle cx="85.8150" cy="37.9700" r="0.8000" /> 
<circle cx="85.8150" cy="35.4300" r="0.8000" /> 
<circle cx="85.8150" cy="32.8900" r="0.8000" /> 
<circle cx="85.8150" cy="30.3500" r="0.8000" /> 
<circle cx="85.8150" cy="27.8100" r="0.8000" /> 
<circle cx="85.8150" cy="25.2700" r="0.8000" /> 
<circle cx="85.8150" cy="22.7300" r="0.8000" /> 
<circle cx="85.8150" cy="20.1900" r="0.8000" /> 
<circle cx="85.8150" cy="17.6500" r="0.8000" /> 
<circle cx="85.8150" cy="15.1100" r="0.8000" /> 
<circle cx="85.8150" cy="12.5700" r="0.8000" /> 
<circle cx="85.8150" cy="10.0300" r="0.8000" /> 
<circle cx="89.5000" cy="10.0000" r="0.8000" /> 
<circle cx="94.5000" cy="10.0000" r="0.8000" /> 
<path style="fill:#C83434; fill-opacity:1.0000; stroke:none;fill-rule:evenodd;"
d="M 2.5900,55.8500
0.8900,55.8500
0.8900,54.1500
2.5900,54.1500
Z" /> 
<circle cx="4.2800" cy="55.0000" r="0.8500" /> 
<circle cx="6.8200" cy="55.0000" r="0.8500" /> 
<circle cx="9.3600" cy="55.0000" r="0.8500" /> 
<circle cx="11.9000" cy="55.0000" r="0.8500" /> 
<circle cx="14.4400" cy="55.0000" r="0.8500" /> 
<circle cx="16.9800" cy="55.0000" r="0.8500" /> 
<circle cx="19.5200" cy="55.0000" r="0.8500" /> 
<circle cx="22.0600" cy="55.0000" r="0.8500" /> 
<circle cx="24.6000" cy="55.0000" r="0.8500" /> 
<circle cx="27.1400" cy="55.0000" r="0.8500" /> 
<circle cx="29.6800" cy="55.0000" r="0.8500" /> 
<circle cx="32.2200" cy="55.0000" r="0.8500" /> 
<circle cx="34.7600" cy="55.0000" r="0.8500" /> 
<circle cx="37.3000" cy="55.0000" r="0.8500" /> 
<circle cx="39.8400" cy="55.0000" r="0.8500" /> 
<circle cx="42.3800" cy="55.0000" r="0.8500" /> 
<circle cx="44.9200" cy="55.0000" r="0.8500" /> 
<circle cx="47.4600" cy="55.0000" r="0.8500" /> 
<circle cx="50.0000" cy="55.0000" r="0.8500" /> 
<circle cx="52.5400" cy="55.0000" r="0.8500" /> 
<circle cx="55.0800" cy="55.0000" r="0.8500" /> 
<circle cx="57.6200" cy="55.0000" r="0.8500" /> 
<circle cx="60.1600" cy="55.0000" r="0.8500" /> 
<circle cx="62.7000" cy="55.0000" r="0.8500" /> 
<circle cx="65.2400" cy="55.0000" r="0.8500" /> 
<circle cx="67.7800" cy="55.0000" r="0.8500" /> 
<circle cx="70.3200" cy="55.0000" r="0.8500" /> 
<circle cx="72.8600" cy="55.0000" r="0.8500" /> 
<circle cx="75.4000" cy="55.0000" r="0.8500" /> 
<circle cx="77.9400" cy="55.0000" r="0.8500" /> 
<circle cx="80.4800" cy="55.0000" r="0.8500" /> 
<circle cx="83.0200" cy="55.0000" r="0.8500" /> 
<circle cx="85.5600" cy="55.0000" r="0.8500" /> 
<circle cx="88.1000" cy="55.0000" r="0.8500" /> 
<circle cx="90.6400" cy="55.0000" r="0.8500" /> 
<circle cx="93.1800" cy="55.0000" r="0.8500" /> 
<circle cx="95.7200" cy="55.0000" r="0.8500" /> 
<circle cx="98.2600" cy="55.0000" r="0.8500" /> 
<circle cx="29.5000" cy="10.0000" r="0.8000" /> 
<circle cx="34.5000" cy="10.0000" r="0.8000" /> 
<path style="fill:#C83434; fill-opacity:1.0000; stroke:none;fill-rule:evenodd;"
d="M 15.3950,6.9400
15.4140,6.8443
15.4682,6.7632
15.5493,6.7090
15.6450,6.6900
16.7450,6.6900
16.8407,6.7090
16.9218,6.7632
16.9760,6.8443
16.9950,6.9400
16.9950,8.0400
16.9760,8.1357
16.9218,8.2168
16.8407,8.2710
16.7450,8.2900
15.6450,8.2900
15.5493,8.2710
15.4682,8.2168
15.4140,8.1357
15.3950,8.0400
Z" /> 
<circle cx="16.1950" cy="10.0300" r="0.8000" /> 
<circle cx="16.1950" cy="12.5700" r="0.8000" /> 
<circle cx="16.1950" cy="15.1100" r="0.8000" /> 
<circle cx="16.1950" cy="17.6500" r="0.8000" /> 
<circle cx="16.1950" cy="20.1900" r="0.8000" /> 
<circle cx="16.1950" cy="22.7300" r="0.8000" /> 
<circle cx="16.1950" cy="25.2700" r="0.8000" /> 
<circle cx="16.1950" cy="27.8100" r="0.8000" /> 
<circle cx="16.1950" cy="30.3500" r="0.8000" /> 
<circle cx="16.1950" cy="32.8900" r="0.8000" /> 
<circle cx="16.1950" cy="35.4300" r="0.8000" /> 
<circle cx="16.1950" cy="37.9700" r="0.8000" /> 
<circle cx="16.1950" cy="40.5100" r="0.8000" /> 
<circle cx="23.8150" cy="40.5100" r="0.8000" /> 
<circle cx="23.8150" cy="37.9700" r="0.8000" /> 
<circle cx="23.8150" cy="35.4300" r="0.8000" /> 
<circle cx="23.8150" cy="32.8900" r="0.8000" /> 
<circle cx="23.8150" cy="30.3500" r="0.8000" /> 
<circle cx="23.8150" cy="27.8100" r="0.8000" /> 
<circle cx="23.8150" cy="25.2700" r="0.8000" /> 
<circle cx="23.8150" cy="22.7300" r="0.8000" /> 
<circle cx="23.8150" cy="20.1900" r="0.8000" /> 
<circle cx="23.8150" cy="17.6500" r="0.8000" /> 
<circle cx="23.8150" cy="15.1100" r="0.8000" /> 
<circle cx="23.8150" cy="12.5700" r="0.8000" /> 
<circle cx="23.8150" cy="10.0300" r="0.8000" /> 
<circle cx="23.8150" cy="7.4900" r="0.8000" /> 
<path style="fill:#C83434; fill-opacity:1.0000; stroke:none;fill-rule:evenodd;"
d="M 70.7700,47.8500
69.0700,47.8500
69.0700,46.1500
70.7700,46.1500
Z" /> 
<circle cx="72.4600" cy="47.0000" r="0.8500" /> 
<circle cx="75.0000" cy="47.0000" r="0.8500" /> 
<circle cx="77.5400" cy="47.0000" r="0.8500" /> 
<circle cx="80.0800" cy="47.0000" r="0.8500" /> 
<path style="fill:#C83434; fill-opacity:1.0000; stroke:none;fill-rule:evenodd;"
d="M 41.5800,3.4000
41.5990,3.3043
41.6532,3.2232
41.7343,3.1690
41.8300,3.1500
42.9300,3.1500
43.0257,3.1690
43.1068,3.2232
43.1610,3.3043
43.1800,3.4000
43.1800,4.5000
43.1610,4.5957
43.1068,4.6768
43.0257,4.7310
42.9300,4.7500
41.8300,4.7500
41.7343,4.7310
41.6532,4.6768
41.5990,4.5957
41.5800,4.5000
Z" /> 
<circle cx="42.3800" cy="6.4900" r="0.8000" /> 
<circle cx="42.3800" cy="9.0300" r="0.8000" /> 
<circle cx="42.3800" cy="11.5700" r="0.8000" /> 
<circle cx="42.3800" cy="14.1100" r="0.8000" /> 
<circle cx="42.3800" cy="16.6500" r="0.8000" /> 
<circle cx="42.3800" cy="19.1900" r="0.8000" /> 
<circle cx="42.3800" cy="21.7300" r="0.8000" /> 
<circle cx="42.3800" cy="24.2700" r="0.8000" /> 
<circle cx="42.3800" cy="26.8100" r="0.8000" /> 
<circle cx="42.3800" cy="29.3500" r="0.8000" /> 
<circle cx="42.3800" cy="31.8900" r="0.8000" /> 
<circle cx="42.3800" cy="34.4300" r="0.8000" /> 
<circle cx="42.3800" cy="36.9700" r="0.8000" /> 
<circle cx="42.3800" cy="39.5100" r="0.8000" /> 
<circle cx="42.3800" cy="42.0500" r="0.8000" /> 
<circle cx="57.6200" cy="42.0500" r="0.8000" /> 
<circle cx="57.6200" cy="39.5100" r="0.8000" /> 
<circle cx="57.6200" cy="36.9700" r="0.8000" /> 
<circle cx="57.6200" cy="34.4300" r="0.8000" /> 
<circle cx="57.6200" cy="31.8900" r="0.8000" /> 
<circle cx="57.6200" cy="29.3500" r="0.8000" /> 
<circle cx="57.6200" cy="26.8100" r="0.8000" /> 
<circle cx="57.6200" cy="24.2700" r="0.8000" /> 
<circle cx="57.6200" cy="21.7300" r="0.8000" /> 
<circle cx="57.6200" cy="19.1900" r="0.8000" /> 
<circle cx="57.6200" cy="16.6500" r="0.8000" /> 
<circle cx="57.6200" cy="14.1100" r="0.8000" /> 
<circle cx="57.6200" cy="11.5700" r="0.8000" /> 
<circle cx="57.6200" cy="9.0300" r="0.8000" /> 
<circle cx="57.6200" cy="6.4900" r="0.8000" /> 
<circle cx="57.6200" cy="3.9500" r="0.8000" /> 
</g>
<g style="fill:none; 
stroke:#F2EDA1; stroke-width:0.2000; stroke-opacity:1; 
stroke-linecap:round; stroke-linejoin:round;">
<text x="89.0000" y="49.6000"
textLength="13.3314" font-size="1.6000" lengthAdjust="spacingAndGlyphs"
text-anchor="middle" opacity="0" stroke-opacity="0">NO HOT-PLUG</text>
<g class="stroked-text"><desc>NO HOT-PLUG</desc>
<path d="M82.8000 49.5447
L82.8000 48.3447
" />
<path d="M82.8000 48.3447
L83.4857 49.5447
" />
<path d="M83.4857 49.5447
L83.4857 48.3447
" />
<path d="M84.2857 48.3447
L84.5143 48.3447
" />
<path d="M84.5143 48.3447
L84.6286 48.4019
" />
<path d="M84.6286 48.4019
L84.7429 48.5162
" />
<path d="M84.7429 48.5162
L84.8000 48.7447
" />
<path d="M84.8000 48.7447
L84.8000 49.1447
" />
<path d="M84.8000 49.1447
L84.7429 49.3733
" />
<path d="M84.7429 49.3733
L84.6286 49.4876
" />
<path d="M84.6286 49.4876
L84.5143 49.5447
" />
<path d="M84.5143 49.5447
L84.2857 49.5447
" />
<path d="M84.2857 49.5447
L84.1714 49.4876
" />
<path d="M84.1714 49.4876
L84.0571 49.3733
" />
<path d="M84.0571 49.3733
L84.0000 49.1447
" />
<path d="M84.0000 49.1447
L84.0000 48.7447
" />
<path d="M84.0000 48.7447
L84.0571 48.5162
" />
<path d="M84.0571 48.5162
L84.1714 48.4019
" />
<path d="M84.1714 48.4019
L84.2857 48.3447
" />
<path d="M86.2286 49.5447
L86.2286 48.3447
" />
<path d="M86.2286 48.9162
L86.9143 48.9162
" />
<path d="M86.9143 49.5447
L86.9143 48.3447
" />
<path d="M87.7143 48.3447
L87.9429 48.3447
" />
<path d="M87.9429 48.3447
L88.0571 48.4019
" />
<path d="M88.0571 48.4019
L88.1714 48.5162
" />
<path d="M88.1714 48.5162
L88.2286 48.7447
" />
<path d="M88.2286 48.7447
L88.2286 49.1447
" />
<path d="M88.2286 49.1447
L88.1714 49.3733
" />
<path d="M88.1714 49.3733
L88.0571 49.4876
" />
<path d="M88.0571 49.4876
L87.9429 49.5447
" />
<path d="M87.9429 49.5447
L87.7143 49.5447
" />
<path d="M87.7143 49.5447
L87.6000 49.4876
" />
<path d="M87.6000 49.4876
L87.4857 49.3733
" />
<path d="M87.4857 49.3733
L87.4286 49.1447
" />
<path d="M87.4286 49.1447
L87.4286 48.7447
" />
<path d="M87.4286 48.7447
L87.4857 48.5162
" />
<path d="M87.4857 48.5162
L87.6000 48.4019
" />
<path d="M87.6000 48.4019
L87.7143 48.3447
" />
<path d="M88.5714 48.3447
L89.2571 48.3447
" />
<path d="M88.9143 49.5447
L88.9143 48.3447
" />
<path d="M89.6571 49.0876
L90.5714 49.0876
" />
<path d="M91.1429 49.5447
L91.1429 48.3447
" />
<path d="M91.1429 48.3447
L91.6000 48.3447
" />
<path d="M91.6000 48.3447
L91.7143 48.4019
" />
<path d="M91.7143 48.4019
L91.7714 48.4590
" />
<path d="M91.7714 48.4590
L91.8286 48.5733
" />
<path d="M91.8286 48.5733
L91.8286 48.7447
" />
<path d="M91.8286 48.7447
L91.7714 48.8590
" />
<path d="M91.7714 48.8590
L91.7143 48.9162
" />
<path d="M91.7143 48.9162
L91.6000 48.9733
" />
<path d="M91.6000 48.9733
L91.1429 48.9733
" />
<path d="M92.9143 49.5447
L92.3429 49.5447
" />
<path d="M92.3429 49.5447
L92.3429 48.3447
" />
<path d="M93.3143 48.3447
L93.3143 49.3162
" />
<path d="M93.3143 49.3162
L93.3714 49.4305
" />
<path d="M93.3714 49.4305
L93.4286 49.4876
" />
<path d="M93.4286 49.4876
L93.5429 49.5447
" />
<path d="M93.5429 49.5447
L93.7714 49.5447
" />
<path d="M93.7714 49.5447
L93.8857 49.4876
" />
<path d="M93.8857 49.4876
L93.9429 49.4305
" />
<path d="M93.9429 49.4305
L94.0000 49.3162
" />
<path d="M94.0000 49.3162
L94.0000 48.3447
" />
<path d="M95.2000 48.4019
L95.0857 48.3447
" />
<path d="M95.0857 48.3447
L94.9143 48.3447
" />
<path d="M94.9143 48.3447
L94.7429 48.4019
" />
<path d="M94.7429 48.4019
L94.6286 48.5162
" />
<path d="M94.6286 48.5162
L94.5714 48.6305
" />
<path d="M94.5714 48.6305
L94.5143 48.8590
" />
<path d="M94.5143 48.8590
L94.5143 49.0305
" />
<path d="M94.5143 49.0305
L94.5714 49.2590
" />
<path d="M94.5714 49.2590
L94.6286 49.3733
" />
<path d="M94.6286 49.3733
L94.7429 49.4876
" />
<path d="M94.7429 49.4876
L94.9143 49.5447
" />
<path d="M94.9143 49.5447
L95.0286 49.5447
" />
<path d="M95.0286 49.5447
L95.2000 49.4876
" />
<path d="M95.2000 49.4876
L95.2571 49.4305
" />
<path d="M95.2571 49.4305
L95.2571 49.0305
" />
<path d="M95.2571 49.0305
L95.0286 49.0305
" />
</g><text x="60.0000" y="49.6500"
textLength="10.3686" font-size="1.7333" lengthAdjust="spacingAndGlyphs"
text-anchor="middle" opacity="0" stroke-opacity="0">REVB MEM</text>
<g class="stroked-text"><desc>REVB MEM</desc>
<path d="M56.0381 49.5910
L55.6048 48.9720
" />
<path d="M55.2952 49.5910
L55.2952 48.2910
" />
<path d="M55.2952 48.2910
L55.7905 48.2910
" />
<path d="M55.7905 48.2910
L55.9143 48.3529
" />
<path d="M55.9143 48.3529
L55.9762 48.4148
" />
<path d="M55.9762 48.4148
L56.0381 48.5386
" />
<path d="M56.0381 48.5386
L56.0381 48.7243
" />
<path d="M56.0381 48.7243
L55.9762 48.8481
" />
<path d="M55.9762 48.8481
L55.9143 48.9101
" />
<path d="M55.9143 48.9101
L55.7905 48.9720
" />
<path d="M55.7905 48.9720
L55.2952 48.9720
" />
<path d="M56.5952 48.9101
L57.0286 48.9101
" />
<path d="M57.2143 49.5910
L56.5952 49.5910
" />
<path d="M56.5952 49.5910
L56.5952 48.2910
" />
<path d="M56.5952 48.2910
L57.2143 48.2910
" />
<path d="M57.5857 48.2910
L58.0190 49.5910
" />
<path d="M58.0190 49.5910
L58.4524 48.2910
" />
<path d="M59.3190 48.9101
L59.5048 48.9720
" />
<path d="M59.5048 48.9720
L59.5667 49.0339
" />
<path d="M59.5667 49.0339
L59.6286 49.1577
" />
<path d="M59.6286 49.1577
L59.6286 49.3434
" />
<path d="M59.6286 49.3434
L59.5667 49.4672
" />
<path d="M59.5667 49.4672
L59.5048 49.5291
" />
<path d="M59.5048 49.5291
L59.3810 49.5910
" />
<path d="M59.3810 49.5910
L58.8857 49.5910
" />
<path d="M58.8857 49.5910
L58.8857 48.2910
" />
<path d="M58.8857 48.2910
L59.3190 48.2910
" />
<path d="M59.3190 48.2910
L59.4429 48.3529
" />
<path d="M59.4429 48.3529
L59.5048 48.4148
" />
<path d="M59.5048 48.4148
L59.5667 48.5386
" />
<path d="M59.5667 48.5386
L59.5667 48.6624
" />
<path d="M59.5667 48.6624
L59.5048 48.7862
" />
<path d="M59.5048 48.7862
L59.4429 48.8481
" />
<path d="M59.4429 48.8481
L59.3190 48.9101
" />
<path d="M59.3190 48.9101
L58.8857 48.9101
" />
<path d="M61.1762 49.5910
L61.1762 48.2910
" />
<path d="M61.1762 48.2910
L61.6095 49.2196
" />
<path d="M61.6095 49.2196
L62.0429 48.2910
" />
<path d="M62.0429 48.2910
L62.0429 49.5910
" />
<path d="M62.6619 48.9101
L63.0952 48.9101
" />
<path d="M63.2810 49.5910
L62.6619 49.5910
" />
<path d="M62.6619 49.5910
L62.6619 48.2910
" />
<path d="M62.6619 48.2910
L63.2810 48.2910
" />
<path d="M63.8381 49.5910
L63.8381 48.2910
" />
<path d="M63.8381 48.2910
L64.2714 49.2196
" />
<path d="M64.2714 49.2196
L64.7048 48.2910
" />
<path d="M64.7048 48.2910
L64.7048 49.5910
" />
</g></g>
<g style="fill:none; 
stroke:#F2EDA1; stroke-width:0.1200; stroke-opacity:1; 
stroke-linecap:round; stroke-linejoin:round;">
<path d="M28.4600 48.3800
L28.4600 47.0000
" />
<path d="M29.8400 48.3800
L28.4600 48.3800
" />
<path d="M31.1100 45.6200
L51.5400 45.6200
" />
<path d="M31.1100 48.3800
L31.1100 45.6200
" />
<path d="M31.1100 48.3800
L51.5400 48.3800
" />
<path d="M51.5400 48.3800
L51.5400 45.6200
" />
<path d="M61.3800 8.6300
L66.6200 8.6300
" />
<path d="M61.3800 8.9670
L61.3800 8.6300
" />
<path d="M61.3800 11.3700
L61.3800 11.0330
" />
<path d="M66.6200 8.6300
L66.6200 8.9670
" />
<path d="M66.6200 11.0330
L66.6200 11.3700
" />
<path d="M66.6200 11.3700
L61.3800 11.3700
" />
<path d="M1.1900 51.3800
L1.1900 50.0000
" />
<path d="M2.5700 51.3800
L1.1900 51.3800
" />
<path d="M3.8400 48.6200
L26.8100 48.6200
" />
<path d="M3.8400 51.3800
L3.8400 48.6200
" />
<path d="M3.8400 51.3800
L26.8100 51.3800
" />
<path d="M26.8100 51.3800
L26.8100 48.6200
" />
<path d="M79.3550 8.7000
L79.3550 39.3000
" />
<path d="M79.3550 39.3000
L84.6550 39.3000
" />
<path d="M81.0050 8.7000
L79.3550 8.7000
" />
<path d="M84.6550 8.7000
L83.0050 8.7000
" />
<path d="M84.6550 39.3000
L84.6550 8.7000
" />
<path d="M81.0050 8.7000 A1.0000 1.0000 0.0 0 0 83.0050 8.7000" />
<path d="M89.3800 8.6300
L94.6200 8.6300
" />
<path d="M89.3800 8.9670
L89.3800 8.6300
" />
<path d="M89.3800 11.3700
L89.3800 11.0330
" />
<path d="M94.6200 8.6300
L94.6200 8.9670
" />
<path d="M94.6200 11.0330
L94.6200 11.3700
" />
<path d="M94.6200 11.3700
L89.3800 11.3700
" />
<path d="M0.3600 56.3800
L0.3600 55.0000
" />
<path d="M1.7400 56.3800
L0.3600 56.3800
" />
<path d="M3.0100 53.6200
L99.6400 53.6200
" />
<path d="M3.0100 56.3800
L3.0100 53.6200
" />
<path d="M3.0100 56.3800
L99.6400 56.3800
" />
<path d="M99.6400 56.3800
L99.6400 53.6200
" />
<path d="M29.3800 8.6300
L34.6200 8.6300
" />
<path d="M29.3800 8.9670
L29.3800 8.6300
" />
<path d="M29.3800 11.3700
L29.3800 11.0330
" />
<path d="M34.6200 8.6300
L34.6200 8.9670
" />
<path d="M34.6200 11.0330
L34.6200 11.3700
" />
<path d="M34.6200 11.3700
L29.3800 11.3700
" />
<path d="M17.3550 6.1600
L17.3550 41.8400
" />
<path d="M17.3550 41.8400
L22.6550 41.8400
" />
<path d="M19.0050 6.1600
L17.3550 6.1600
" />
<path d="M22.6550 6.1600
L21.0050 6.1600
" />
<path d="M22.6550 41.8400
L22.6550 6.1600
" />
<path d="M19.0050 6.1600 A1.0000 1.0000 0.0 0 0 21.0050 6.1600" />
<path d="M68.5400 48.3800
L68.5400 47.0000
" />
<path d="M69.9200 48.3800
L68.5400 48.3800
" />
<path d="M71.1900 45.6200
L81.4600 45.6200
" />
<path d="M71.1900 48.3800
L71.1900 45.6200
" />
<path d="M71.1900 48.3800
L81.4600 48.3800
" />
<path d="M81.4600 48.3800
L81.4600 45.6200
" />
<path d="M43.5400 2.6200
L43.5400 43.3800
" />
<path d="M43.5400 43.3800
L56.4600 43.3800
" />
<path d="M49.0000 2.6200
L43.5400 2.6200
" />
<path d="M56.4600 2.6200
L51.0000 2.6200
" />
<path d="M56.4600 43.3800
L56.4600 2.6200
" />
<path d="M49.0000 2.6200 A1.0000 1.0000 0.0 0 0 51.0000 2.6200" />
</g>
<g style="fill:none; 
stroke:#D0D2CD; stroke-width:0.1500; stroke-opacity:1; 
stroke-linecap:round; stroke-linejoin:round;">
<path d="M0.0000 0.0000
L100.0000 0.0000
" />
<path d="M0.0000 60.0000
L0.0000 0.0000
" />
<path d="M100.0000 0.0000
L100.0000 60.0000
" />
<path d="M100.0000 60.0000
L0.0000 60.0000
" />
</g>
<g style="fill:#FFFFFF; fill-opacity:1.0000; stroke:none;">
<circle cx="29.8400" cy="47.0000" r="0.5000" /> 
</g>
<g style="fill:#FFFFFF; fill-opacity:1.0000; stroke:none;">
<circle cx="32.3800" cy="47.0000" r="0.5000" /> 
</g>
<g style="fill:#FFFFFF; fill-opacity:1.0000; stroke:none;">
<circle cx="34.9200" cy="47.0000" r="0.5000" /> 
</g>
<g style="fill:#FFFFFF; fill-opacity:1.0000; stroke:none;">
<circle cx="37.4600" cy="47.0000" r="0.5000" /> 
</g>
<g style="fill:#FFFFFF; fill-opacity:1.0000; stroke:none;">
<circle cx="40.0000" cy="47.0000" r="0.5000" /> 
</g>
<g style="fill:#FFFFFF; fill-opacity:1.0000; stroke:none;">
<circle cx="42.5400" cy="47.0000" r="0.5000" /> 
</g>
<g style="fill:#FFFFFF; fill-opacity:1.0000; stroke:none;">
<circle cx="45.0800" cy="47.0000" r="0.5000" /> 
</g>
<g style="fill:#FFFFFF; fill-opacity:1.0000; stroke:none;">
<circle cx="47.6200" cy="47.0000" r="0.5000" /> 
</g>
<g style="fill:#FFFFFF; fill-opacity:1.0000; stroke:none;">
<circle cx="50.1600" cy="47.0000" r="0.5000" /> 
</g>
<g style="fill:#FFFFFF; fill-opacity:1.0000; stroke:none;">
<circle cx="61.5000" cy="10.0000" r="0.4000" /> 
</g>
<g style="fill:#FFFFFF; fill-opacity:1.0000; stroke:none;">
<circle cx="66.5000" cy="10.0000" r="0.4000" /> 
</g>
<g style="fill:#FFFFFF; fill-opacity:1.0000; stroke:none;">
<circle cx="2.5700" cy="50.0000" r="0.5000" /> 
</g>
<g style="fill:#FFFFFF; fill-opacity:1.0000; stroke:none;">
<circle cx="5.1100" cy="50.0000" r="0.5000" /> 
</g>
<g style="fill:#FFFFFF; fill-opacity:1.0000; stroke:none;">
<circle cx="7.6500" cy="50.0000" r="0.5000" /> 
</g>
<g style="fill:#FFFFFF; fill-opacity:1.0000; stroke:none;">
<circle cx="10.1900" cy="50.0000" r="0.5000" /> 
</g>
<g style="fill:#FFFFFF; fill-opacity:1.0000; stroke:none;">
<circle cx="12.7300" cy="50.0000" r="0.5000" /> 
</g>
<g style="fill:#FFFFFF; fill-opacity:1.0000; stroke:none;">
<circle cx="15.2700" cy="50.0000" r="0.5000" /> 
</g>
<g style="fill:#FFFFFF; fill-opacity:1.0000; stroke:none;">
<circle cx="17.8100" cy="50.0000" r="0.5000" /> 
</g>
<g style="fill:#FFFFFF; fill-opacity:1.0000; stroke:none;">
<circle cx="20.3500" cy="50.0000" r="0.5000" /> 
</g>
<g style="fill:#FFFFFF; fill-opacity:1.0000; stroke:none;">
<circle cx="22.8900" cy="50.0000" r="0.5000" /> 
</g>
<g style="fill:#FFFFFF; fill-opacity:1.0000; stroke:none;">
<circle cx="25.4300" cy="50.0000" r="0.5000" /> 
</g>
<g style="fill:#FFFFFF; fill-opacity:1.0000; stroke:none;">
<circle cx="78.1950" cy="10.0300" r="0.4000" /> 
</g>
<g style="fill:#FFFFFF; fill-opacity:1.0000; stroke:none;">
<circle cx="78.1950" cy="12.5700" r="0.4000" /> 
</g>
<g style="fill:#FFFFFF; fill-opacity:1.0000; stroke:none;">
<circle cx="78.1950" cy="15.1100" r="0.4000" /> 
</g>
<g style="fill:#FFFFFF; fill-opacity:1.0000; stroke:none;">
<circle cx="78.1950" cy="17.6500" r="0.4000" /> 
</g>
<g style="fill:#FFFFFF; fill-opacity:1.0000; stroke:none;">
<circle cx="78.1950" cy="20.1900" r="0.4000" /> 
</g>
<g style="fill:#FFFFFF; fill-opacity:1.0000; stroke:none;">
<circle cx="78.1950" cy="22.7300" r="0.4000" /> 
</g>
<g style="fill:#FFFFFF; fill-opacity:1.0000; stroke:none;">
<circle cx="78.1950" cy="25.2700" r="0.4000" /> 
</g>
<g style="fill:#FFFFFF; fill-opacity:1.0000; stroke:none;">
<circle cx="78.1950" cy="27.8100" r="0.4000" /> 
</g>
<g style="fill:#FFFFFF; fill-opacity:1.0000; stroke:none;">
<circle cx="78.1950" cy="30.3500" r="0.4000" /> 
</g>
<g style="fill:#FFFFFF; fill-opacity:1.0000; stroke:none;">
<circle cx="78.1950" cy="32.8900" r="0.4000" /> 
</g>
<g style="fill:#FFFFFF; fill-opacity:1.0000; stroke:none;">
<circle cx="78.1950" cy="35.4300" r="0.4000" /> 
</g>
<g style="fill:#FFFFFF; fill-opacity:1.0000; stroke:none;">
<circle cx="78.1950" cy="37.9700" r="0.4000" /> 
</g>
<g style="fill:#FFFFFF; fill-opacity:1.0000; stroke:none;">
<circle cx="85.8150" cy="37.9700" r="0.4000" /> 
</g>
<g style="fill:#FFFFFF; fill-opacity:1.0000; stroke:none;">
<circle cx="85.8150" cy="35.4300" r="0.4000" /> 
</g>
<g style="fill:#FFFFFF; fill-opacity:1.0000; stroke:none;">
<circle cx="85.8150" cy="32.8900" r="0.4000" /> 
</g>
<g style="fill:#FFFFFF; fill-opacity:1.0000; stroke:none;">
<circle cx="85.8150" cy="30.3500" r="0.4000" /> 
</g>
<g style="fill:#FFFFFF; fill-opacity:1.0000; stroke:none;">
<circle cx="85.8150" cy="27.8100" r="0.4000" /> 
</g>
<g style="fill:#FFFFFF; fill-opacity:1.0000; stroke:none;">
<circle cx="85.8150" cy="25.2700" r="0.4000" /> 
</g>
<g style="fill:#FFFFFF; fill-opacity:1.0000; stroke:none;">
<circle cx="85.8150" cy="22.7300" r="0.4000" /> 
</g>
<g style="fill:#FFFFFF; fill-opacity:1.0000; stroke:none;">
<circle cx="85.8150" cy="20.1900" r="0.4000" /> 
</g>
<g style="fill:#FFFFFF; fill-opacity:1.0000; stroke:none;">
<circle cx="85.8150" cy="17.6500" r="0.4000" /> 
</g>
<g style="fill:#FFFFFF; fill-opacity:1.0000; stroke:none;">
<circle cx="85.8150" cy="15.1100" r="0.4000" /> 
</g>
<g style="fill:#FFFFFF; fill-opacity:1.0000; stroke:none;">
<circle cx="85.8150" cy="12.5700" r="0.4000" /> 
</g>
<g style="fill:#FFFFFF; fill-opacity:1.0000; stroke:none;">
<circle cx="85.8150" cy="10.0300" r="0.4000" /> 
</g>
<g style="fill:#FFFFFF; fill-opacity:1.0000; stroke:none;">
<circle cx="89.5000" cy="10.0000" r="0.4000" /> 
</g>
<g style="fill:#FFFFFF; fill-opacity:1.0000; stroke:none;">
<circle cx="94.5000" cy="10.0000" r="0.4000" /> 
</g>
<g style="fill:#FFFFFF; fill-opacity:1.0000; stroke:none;">
<circle cx="1.7400" cy="55.0000" r="0.5000" /> 
</g>
<g style="fill:#FFFFFF; fill-opacity:1.0000; stroke:none;">
<circle cx="4.2800" cy="55.0000" r="0.5000" /> 
</g>
<g style="fill:#FFFFFF; fill-opacity:1.0000; stroke:none;">
<circle cx="6.8200" cy="55.0000" r="0.5000" /> 
</g>
<g style="fill:#FFFFFF; fill-opacity:1.0000; stroke:none;">
<circle cx="9.3600" cy="55.0000" r="0.5000" /> 
</g>
<g style="fill:#FFFFFF; fill-opacity:1.0000; stroke:none;">
<circle cx="11.9000" cy="55.0000" r="0.5000" /> 
</g>
<g style="fill:#FFFFFF; fill-opacity:1.0000; stroke:none;">
<circle cx="14.4400" cy="55.0000" r="0.5000" /> 
</g>
<g style="fill:#FFFFFF; fill-opacity:1.0000; stroke:none;">
<circle cx="16.9800" cy="55.0000" r="0.5000" /> 
</g>
<g style="fill:#FFFFFF; fill-opacity:1.0000; stroke:none;">
<circle cx="19.5200" cy="55.0000" r="0.5000" /> 
</g>
<g style="fill:#FFFFFF; fill-opacity:1.0000; stroke:none;">
<circle cx="22.0600" cy="55.0000" r="0.5000" /> 
</g>
<g style="fill:#FFFFFF; fill-opacity:1.0000; stroke:none;">
<circle cx="24.6000" cy="55.0000" r="0.5000" /> 
</g>
<g style="fill:#FFFFFF; fill-opacity:1.0000; stroke:none;">
<circle cx="27.1400" cy="55.0000" r="0.5000" /> 
</g>
<g style="fill:#FFFFFF; fill-opacity:1.0000; stroke:none;">
<circle cx="29.6800" cy="55.0000" r="0.5000" /> 
</g>
<g style="fill:#FFFFFF; fill-opacity:1.0000; stroke:none;">
<circle cx="32.2200" cy="55.0000" r="0.5000" /> 
</g>
<g style="fill:#FFFFFF; fill-opacity:1.0000; stroke:none;">
<circle cx="34.7600" cy="55.0000" r="0.5000" /> 
</g>
<g style="fill:#FFFFFF; fill-opacity:1.0000; stroke:none;">
<circle cx="37.3000" cy="55.0000" r="0.5000" /> 
</g>
<g style="fill:#FFFFFF; fill-opacity:1.0000; stroke:none;">
<circle cx="39.8400" cy="55.0000" r="0.5000" /> 
</g>
<g style="fill:#FFFFFF; fill-opacity:1.0000; stroke:none;">
<circle cx="42.3800" cy="55.0000" r="0.5000" /> 
</g>
<g style="fill:#FFFFFF; fill-opacity:1.0000; stroke:none;">
<circle cx="44.9200" cy="55.0000" r="0.5000" /> 
</g>
<g style="fill:#FFFFFF; fill-opacity:1.0000; stroke:none;">
<circle cx="47.4600" cy="55.0000" r="0.5000" /> 
</g>
<g style="fill:#FFFFFF; fill-opacity:1.0000; stroke:none;">
<circle cx="50.0000" cy="55.0000" r="0.5000" /> 
</g>
<g style="fill:#FFFFFF; fill-opacity:1.0000; stroke:none;">
<circle cx="52.5400" cy="55.0000" r="0.5000" /> 
</g>
<g style="fill:#FFFFFF; fill-opacity:1.0000; stroke:none;">
<circle cx="55.0800" cy="55.0000" r="0.5000" /> 
</g>
<g style="fill:#FFFFFF; fill-opacity:1.0000; stroke:none;">
<circle cx="57.6200" cy="55.0000" r="0.5000" /> 
</g>
<g style="fill:#FFFFFF; fill-opacity:1.0000; stroke:none;">
<circle cx="60.1600" cy="55.0000" r="0.5000" /> 
</g>
<g style="fill:#FFFFFF; fill-opacity:1.0000; stroke:none;">
<circle cx="62.7000" cy="55.0000" r="0.5000" /> 
</g>
<g style="fill:#FFFFFF; fill-opacity:1.0000; stroke:none;">
<circle cx="65.2400" cy="55.0000" r="0.5000" /> 
</g>
<g style="fill:#FFFFFF; fill-opacity:1.0000; stroke:none;">
<circle cx="67.7800" cy="55.0000" r="0.5000" /> 
</g>
<g style="fill:#FFFFFF; fill-opacity:1.0000; stroke:none;">
<circle cx="70.3200" cy="55.0000" r="0.5000" /> 
</g>
<g style="fill:#FFFFFF; fill-opacity:1.0000; stroke:none;">
<circle cx="72.8600" cy="55.0000" r="0.5000" /> 
</g>
<g style="fill:#FFFFFF; fill-opacity:1.0000; stroke:none;">
<circle cx="75.4000" cy="55.0000" r="0.5000" /> 
</g>
<g style="fill:#FFFFFF; fill-opacity:1.0000; stroke:none;">
<circle cx="77.9400" cy="55.0000" r="0.5000" /> 
</g>
<g style="fill:#FFFFFF; fill-opacity:1.0000; stroke:none;">
<circle cx="80.4800" cy="55.0000" r="0.5000" /> 
</g>
<g style="fill:#FFFFFF; fill-opacity:1.0000; stroke:none;">
<circle cx="83.0200" cy="55.0000" r="0.5000" /> 
</g>
<g style="fill:#FFFFFF; fill-opacity:1.0000; stroke:none;">
<circle cx="85.5600" cy="55.0000" r="0.5000" /> 
</g>
<g style="fill:#FFFFFF; fill-opacity:1.0000; stroke:none;">
<circle cx="88.1000" cy="55.0000" r="0.5000" /> 
</g>
<g style="fill:#FFFFFF; fill-opacity:1.0000; stroke:none;">
<circle cx="90.6400" cy="55.0000" r="0.5000" /> 
</g>
<g style="fill:#FFFFFF; fill-opacity:1.0000; stroke:none;">
<circle cx="93.1800" cy="55.0000" r="0.5000" /> 
</g>
<g style="fill:#FFFFFF; fill-opacity:1.0000; stroke:none;">
<circle cx="95.7200" cy="55.0000" r="0.5000" /> 
</g>
<g style="fill:#FFFFFF; fill-opacity:1.0000; stroke:none;">
<circle cx="98.2600" cy="55.0000" r="0.5000" /> 
</g>
<g style="fill:#FFFFFF; fill-opacity:1.0000; stroke:none;">
<circle cx="29.5000" cy="10.0000" r="0.4000" /> 
</g>
<g style="fill:#FFFFFF; fill-opacity:1.0000; stroke:none;">
<circle cx="34.5000" cy="10.0000" r="0.4000" /> 
</g>
<g style="fill:#FFFFFF; fill-opacity:1.0000; stroke:none;">
<circle cx="16.1950" cy="7.4900" r="0.4000" /> 
</g>
<g style="fill:#FFFFFF; fill-opacity:1.0000; stroke:none;">
<circle cx="16.1950" cy="10.0300" r="0.4000" /> 
</g>
<g style="fill:#FFFFFF; fill-opacity:1.0000; stroke:none;">
<circle cx="16.1950" cy="12.5700" r="0.4000" /> 
</g>
<g style="fill:#FFFFFF; fill-opacity:1.0000; stroke:none;">
<circle cx="16.1950" cy="15.1100" r="0.4000" /> 
</g>
<g style="fill:#FFFFFF; fill-opacity:1.0000; stroke:none;">
<circle cx="16.1950" cy="17.6500" r="0.4000" /> 
</g>
<g style="fill:#FFFFFF; fill-opacity:1.0000; stroke:none;">
<circle cx="16.1950" cy="20.1900" r="0.4000" /> 
</g>
<g style="fill:#FFFFFF; fill-opacity:1.0000; stroke:none;">
<circle cx="16.1950" cy="22.7300" r="0.4000" /> 
</g>
<g style="fill:#FFFFFF; fill-opacity:1.0000; stroke:none;">
<circle cx="16.1950" cy="25.2700" r="0.4000" /> 
</g>
<g style="fill:#FFFFFF; fill-opacity:1.0000; stroke:none;">
<circle cx="16.1950" cy="27.8100" r="0.4000" /> 
</g>
<g style="fill:#FFFFFF; fill-opacity:1.0000; stroke:none;">
<circle cx="16.1950" cy="30.3500" r="0.4000" /> 
</g>
<g style="fill:#FFFFFF; fill-opacity:1.0000; stroke:none;">
<circle cx="16.1950" cy="32.8900" r="0.4000" /> 
</g>
<g style="fill:#FFFFFF; fill-opacity:1.0000; stroke:none;">
<circle cx="16.1950" cy="35.4300" r="0.4000" /> 
</g>
<g style="fill:#FFFFFF; fill-opacity:1.0000; stroke:none;">
<circle cx="16.1950" cy="37.9700" r="0.4000" /> 
</g>
<g style="fill:#FFFFFF; fill-opacity:1.0000; stroke:none;">
<circle cx="16.1950" cy="40.5100" r="0.4000" /> 
</g>
<g style="fill:#FFFFFF; fill-opacity:1.0000; stroke:none;">
<circle cx="23.8150" cy="40.5100" r="0.4000" /> 
</g>
<g style="fill:#FFFFFF; fill-opacity:1.0000; stroke:none;">
<circle cx="23.8150" cy="37.9700" r="0.4000" /> 
</g>
<g style="fill:#FFFFFF; fill-opacity:1.0000; stroke:none;">
<circle cx="23.8150" cy="35.4300" r="0.4000" /> 
</g>
<g style="fill:#FFFFFF; fill-opacity:1.0000; stroke:none;">
<circle cx="23.8150" cy="32.8900" r="0.4000" /> 
</g>
<g style="fill:#FFFFFF; fill-opacity:1.0000; stroke:none;">
<circle cx="23.8150" cy="30.3500" r="0.4000" /> 
</g>
<g style="fill:#FFFFFF; fill-opacity:1.0000; stroke:none;">
<circle cx="23.8150" cy="27.8100" r="0.4000" /> 
</g>
<g style="fill:#FFFFFF; fill-opacity:1.0000; stroke:none;">
<circle cx="23.8150" cy="25.2700" r="0.4000" /> 
</g>
<g style="fill:#FFFFFF; fill-opacity:1.0000; stroke:none;">
<circle cx="23.8150" cy="22.7300" r="0.4000" /> 
</g>
<g style="fill:#FFFFFF; fill-opacity:1.0000; stroke:none;">
<circle cx="23.8150" cy="20.1900" r="0.4000" /> 
</g>
<g style="fill:#FFFFFF; fill-opacity:1.0000; stroke:none;">
<circle cx="23.8150" cy="17.6500" r="0.4000" /> 
</g>
<g style="fill:#FFFFFF; fill-opacity:1.0000; stroke:none;">
<circle cx="23.8150" cy="15.1100" r="0.4000" /> 
</g>
<g style="fill:#FFFFFF; fill-opacity:1.0000; stroke:none;">
<circle cx="23.8150" cy="12.5700" r="0.4000" /> 
</g>
<g style="fill:#FFFFFF; fill-opacity:1.0000; stroke:none;">
<circle cx="23.8150" cy="10.0300" r="0.4000" /> 
</g>
<g style="fill:#FFFFFF; fill-opacity:1.0000; stroke:none;">
<circle cx="23.8150" cy="7.4900" r="0.4000" /> 
</g>
<g style="fill:#FFFFFF; fill-opacity:1.0000; stroke:none;">
<circle cx="69.9200" cy="47.0000" r="0.5000" /> 
</g>
<g style="fill:#FFFFFF; fill-opacity:1.0000; stroke:none;">
<circle cx="72.4600" cy="47.0000" r="0.5000" /> 
</g>
<g style="fill:#FFFFFF; fill-opacity:1.0000; stroke:none;">
<circle cx="75.0000" cy="47.0000" r="0.5000" /> 
</g>
<g style="fill:#FFFFFF; fill-opacity:1.0000; stroke:none;">
<circle cx="77.5400" cy="47.0000" r="0.5000" /> 
</g>
<g style="fill:#FFFFFF; fill-opacity:1.0000; stroke:none;">
<circle cx="80.0800" cy="47.0000" r="0.5000" /> 
</g>
<g style="fill:#FFFFFF; fill-opacity:1.0000; stroke:none;">
<circle cx="42.3800" cy="3.9500" r="0.4000" /> 
</g>
<g style="fill:#FFFFFF; fill-opacity:1.0000; stroke:none;">
<circle cx="42.3800" cy="6.4900" r="0.4000" /> 
</g>
<g style="fill:#FFFFFF; fill-opacity:1.0000; stroke:none;">
<circle cx="42.3800" cy="9.0300" r="0.4000" /> 
</g>
<g style="fill:#FFFFFF; fill-opacity:1.0000; stroke:none;">
<circle cx="42.3800" cy="11.5700" r="0.4000" /> 
</g>
<g style="fill:#FFFFFF; fill-opacity:1.0000; stroke:none;">
<circle cx="42.3800" cy="14.1100" r="0.4000" /> 
</g>
<g style="fill:#FFFFFF; fill-opacity:1.0000; stroke:none;">
<circle cx="42.3800" cy="16.6500" r="0.4000" /> 
</g>
<g style="fill:#FFFFFF; fill-opacity:1.0000; stroke:none;">
<circle cx="42.3800" cy="19.1900" r="0.4000" /> 
</g>
<g style="fill:#FFFFFF; fill-opacity:1.0000; stroke:none;">
<circle cx="42.3800" cy="21.7300" r="0.4000" /> 
</g>
<g style="fill:#FFFFFF; fill-opacity:1.0000; stroke:none;">
<circle cx="42.3800" cy="24.2700" r="0.4000" /> 
</g>
<g style="fill:#FFFFFF; fill-opacity:1.0000; stroke:none;">
<circle cx="42.3800" cy="26.8100" r="0.4000" /> 
</g>
<g style="fill:#FFFFFF; fill-opacity:1.0000; stroke:none;">
<circle cx="42.3800" cy="29.3500" r="0.4000" /> 
</g>
<g style="fill:#FFFFFF; fill-opacity:1.0000; stroke:none;">
<circle cx="42.3800" cy="31.8900" r="0.4000" /> 
</g>
<g style="fill:#FFFFFF; fill-opacity:1.0000; stroke:none;">
<circle cx="42.3800" cy="34.4300" r="0.4000" /> 
</g>
<g style="fill:#FFFFFF; fill-opacity:1.0000; stroke:none;">
<circle cx="42.3800" cy="36.9700" r="0.4000" /> 
</g>
<g style="fill:#FFFFFF; fill-opacity:1.0000; stroke:none;">
<circle cx="42.3800" cy="39.5100" r="0.4000" /> 
</g>
<g style="fill:#FFFFFF; fill-opacity:1.0000; stroke:none;">
<circle cx="42.3800" cy="42.0500" r="0.4000" /> 
</g>
<g style="fill:#FFFFFF; fill-opacity:1.0000; stroke:none;">
<circle cx="57.6200" cy="42.0500" r="0.4000" /> 
</g>
<g style="fill:#FFFFFF; fill-opacity:1.0000; stroke:none;">
<circle cx="57.6200" cy="39.5100" r="0.4000" /> 
</g>
<g style="fill:#FFFFFF; fill-opacity:1.0000; stroke:none;">
<circle cx="57.6200" cy="36.9700" r="0.4000" /> 
</g>
<g style="fill:#FFFFFF; fill-opacity:1.0000; stroke:none;">
<circle cx="57.6200" cy="34.4300" r="0.4000" /> 
</g>
<g style="fill:#FFFFFF; fill-opacity:1.0000; stroke:none;">
<circle cx="57.6200" cy="31.8900" r="0.4000" /> 
</g>
<g style="fill:#FFFFFF; fill-opacity:1.0000; stroke:none;">
<circle cx="57.6200" cy="29.3500" r="0.4000" /> 
</g>
<g style="fill:#FFFFFF; fill-opacity:1.0000; stroke:none;">
<circle cx="57.6200" cy="26.8100" r="0.4000" /> 
</g>
<g style="fill:#FFFFFF; fill-opacity:1.0000; stroke:none;">
<circle cx="57.6200" cy="24.2700" r="0.4000" /> 
</g>
<g style="fill:#FFFFFF; fill-opacity:1.0000; stroke:none;">
<circle cx="57.6200" cy="21.7300" r="0.4000" /> 
</g>
<g style="fill:#FFFFFF; fill-opacity:1.0000; stroke:none;">
<circle cx="57.6200" cy="19.1900" r="0.4000" /> 
</g>
<g style="fill:#FFFFFF; fill-opacity:1.0000; stroke:none;">
<circle cx="57.6200" cy="16.6500" r="0.4000" /> 
</g>
<g style="fill:#FFFFFF; fill-opacity:1.0000; stroke:none;">
<circle cx="57.6200" cy="14.1100" r="0.4000" /> 
</g>
<g style="fill:#FFFFFF; fill-opacity:1.0000; stroke:none;">
<circle cx="57.6200" cy="11.5700" r="0.4000" /> 
</g>
<g style="fill:#FFFFFF; fill-opacity:1.0000; stroke:none;">
<circle cx="57.6200" cy="9.0300" r="0.4000" /> 
</g>
<g style="fill:#FFFFFF; fill-opacity:1.0000; stroke:none;">
<circle cx="57.6200" cy="6.4900" r="0.4000" /> 
</g>
<g style="fill:#FFFFFF; fill-opacity:1.0000; stroke:none;">
<circle cx="57.6200" cy="3.9500" r="0.4000" /> 
</g> 
</svg>
